# Blender 3.3.1
# www.blender.org
o Vent_Grate.001
v 0.182241 0.250673 -6.805789
v 0.182241 0.907573 -6.805789
v 0.182241 0.250673 -6.835423
v 0.182241 0.907573 -6.835423
v 0.828639 0.250673 -6.805789
v 0.828639 0.907573 -6.805789
v 0.828639 0.250673 -6.835423
v 0.828639 0.907573 -6.835423
v 0.199943 0.311270 -6.835423
v 0.199943 0.340595 -6.835423
v 0.199943 0.405349 -6.835423
v 0.199943 0.428565 -6.835423
v 0.199943 0.493319 -6.835423
v 0.199943 0.510426 -6.835423
v 0.199943 0.575180 -6.835423
v 0.199943 0.592286 -6.835423
v 0.199943 0.657041 -6.835423
v 0.199943 0.674147 -6.835423
v 0.199943 0.738902 -6.835423
v 0.199943 0.758452 -6.835423
v 0.199943 0.823206 -6.835423
v 0.199943 0.843444 -6.835423
v 0.796614 0.907573 -6.835423
v 0.199943 0.907573 -6.835423
v 0.199943 0.250673 -6.835423
v 0.796614 0.823206 -6.835423
v 0.796614 0.843444 -6.835423
v 0.796614 0.657041 -6.835423
v 0.796614 0.674147 -6.835423
v 0.796614 0.738902 -6.835423
v 0.796614 0.758452 -6.835423
v 0.796614 0.311270 -6.835423
v 0.796614 0.250673 -6.835423
v 0.796614 0.340595 -6.835423
v 0.796614 0.405349 -6.835423
v 0.796614 0.428565 -6.835423
v 0.796614 0.493319 -6.835423
v 0.796614 0.510426 -6.835423
v 0.796614 0.575180 -6.835423
v 0.796614 0.592286 -6.835423
v 0.199943 0.878959 -6.805789
v 0.796614 0.878959 -6.805789
v 0.796614 0.794655 -6.805789
v 0.796614 0.814204 -6.805789
v 0.796614 0.630933 -6.805789
v 0.796614 0.648039 -6.805789
v 0.796614 0.712794 -6.805789
v 0.796614 0.729900 -6.805789
v 0.796614 0.266350 -6.805789
v 0.796614 0.302268 -6.805789
v 0.796614 0.367023 -6.805789
v 0.796614 0.396347 -6.805789
v 0.796614 0.461102 -6.805789
v 0.796614 0.484317 -6.805789
v 0.796614 0.549072 -6.805789
v 0.796614 0.566178 -6.805789
v 0.199943 0.250673 -6.805789
v 0.199943 0.266350 -6.805789
v 0.199943 0.302268 -6.805789
v 0.199943 0.367023 -6.805789
v 0.199943 0.396347 -6.805789
v 0.199943 0.461102 -6.805789
v 0.199943 0.484317 -6.805789
v 0.199943 0.549072 -6.805789
v 0.199943 0.566178 -6.805789
v 0.199943 0.630933 -6.805789
v 0.199943 0.648039 -6.805789
v 0.199943 0.712794 -6.805789
v 0.199943 0.729900 -6.805789
v 0.199943 0.794655 -6.805789
v 0.199943 0.814204 -6.805789
v 0.796614 0.250673 -6.805789
v 0.796614 0.250673 -6.823554
v 0.796614 0.250673 -6.833684
v 0.199943 0.250673 -6.823554
v 0.199943 0.250673 -6.833684
v 0.199943 0.907573 -6.808610
v 0.796614 0.907573 -6.808610
v 0.498279 0.794655 -6.805789
v 0.498279 0.758452 -6.835423
v 0.498279 0.814204 -6.805789
v 0.498279 0.738902 -6.835423
v 0.647446 0.758452 -6.835423
v 0.647446 0.738902 -6.835423
v 0.647446 0.794655 -6.805789
v 0.647446 0.814204 -6.805789
v 0.498279 0.657041 -6.835423
v 0.498279 0.674147 -6.835423
v 0.498279 0.712794 -6.805789
v 0.498279 0.729900 -6.805789
v 0.647446 0.657041 -6.835423
v 0.647446 0.674147 -6.835423
v 0.647446 0.712794 -6.805789
v 0.647446 0.729900 -6.805789
v 0.498279 0.575180 -6.835423
v 0.498279 0.648039 -6.805789
v 0.498279 0.630933 -6.805789
v 0.498279 0.592286 -6.835423
v 0.498279 0.493319 -6.835423
v 0.498279 0.549072 -6.805789
v 0.498279 0.510426 -6.835423
v 0.498279 0.566178 -6.805789
v 0.498279 0.405349 -6.835423
v 0.498279 0.461102 -6.805789
v 0.498279 0.428565 -6.835423
v 0.498279 0.484317 -6.805789
v 0.647446 0.575180 -6.835423
v 0.647446 0.592286 -6.835423
v 0.647446 0.648039 -6.805789
v 0.647446 0.630933 -6.805789
v 0.647446 0.493319 -6.835423
v 0.647446 0.510426 -6.835423
v 0.647446 0.549072 -6.805789
v 0.647446 0.566178 -6.805789
v 0.349111 0.549072 -6.805789
v 0.349111 0.566178 -6.805789
v 0.349111 0.493319 -6.835423
v 0.349111 0.510426 -6.835423
v 0.349111 0.712794 -6.805789
v 0.349111 0.729900 -6.805789
v 0.349111 0.657041 -6.835423
v 0.349111 0.674147 -6.835423
v 0.349111 0.648039 -6.805789
v 0.349111 0.630933 -6.805789
v 0.349111 0.575180 -6.835423
v 0.349111 0.592286 -6.835423
vn -1.0000 -0.0000 -0.0000
vn -0.0000 -0.0000 -1.0000
vn 1.0000 -0.0000 -0.0000
vn -0.0000 -0.0000 1.0000
vn -0.0000 -1.0000 -0.0000
vn -0.0000 1.0000 -0.0000
vn -0.0000 0.4693 -0.8830
vn -0.0000 -0.4693 0.8830
vn -0.0000 0.4756 -0.8797
vn -0.0000 0.3857 -0.9226
vn -0.0000 -0.7498 0.6617
vt -0.717005 1.147941
vt -0.661547 1.147942
vt 1.450127 -0.070911
vt -0.717005 2.383491
vt -0.717005 2.366795
vt 0.269326 -0.070911
vt -0.772602 1.147941
vt -0.934631 -0.070911
vt -0.606090 1.147942
vt -0.772602 2.383491
vt 0.256987 -0.070911
vt -0.661547 2.366795
vt -0.828200 1.147941
vt -0.661547 2.366795
vt 1.450127 1.147942
vt -0.828200 2.383491
vt -0.717005 1.147942
vt 0.269326 1.147942
vt -0.772602 1.147941
vt -0.934631 1.147941
vt -0.606090 2.366795
vt 0.256987 1.147942
vt -0.772603 2.383491
vt -0.661547 1.147942
vt 1.356634 -0.037532
vt -0.824707 -0.037532
vt 0.116673 1.252805
vt -0.550492 1.147941
vt -0.771513 -0.037532
vt 1.187524 -0.037532
vt -0.654048 -0.037532
vt -0.550492 1.269737
vt 0.005479 1.374601
vt -0.611935 -0.037532
vt 1.029395 -0.037532
vt -0.494470 -0.037532
vt 0.005479 1.252805
vt -0.494895 1.147941
vt -0.463439 -0.037532
vt 0.882247 -0.037532
vt -0.345975 -0.037532
vt -0.494895 1.269737
vt -0.105715 1.374601
vt -0.314943 -0.037532
vt 0.735100 -0.037532
vt -0.197478 -0.037532
vt -0.105715 1.252805
vt -0.494895 1.374601
vt -0.166447 -0.037532
vt 0.587952 -0.037532
vt -0.048983 -0.037532
vt -0.494895 1.252806
vt -0.272507 1.374601
vt -0.013519 -0.037532
vt 0.436412 -0.037532
vt 0.103947 -0.037532
vt -0.272507 1.252806
vt 0.222575 1.147942
vt 0.140656 -0.037532
vt 0.222575 1.259183
vt 0.256987 1.087555
vt -0.661547 1.208327
vt 0.222575 1.268561
vt 0.256987 -0.037532
vt -0.661547 2.333415
vt -0.934631 -0.037532
vt -0.606090 1.181321
vt 0.116673 1.366781
vt 0.103947 1.087555
vt -0.383701 1.269737
vt 0.436412 1.087555
vt 0.268970 1.147941
vt 0.140656 1.087555
vt -0.197478 1.087555
vt -0.216910 1.269737
vt 0.735100 1.087555
vt -0.439298 1.147941
vt -0.166447 1.087555
vt -0.048983 1.087555
vt -0.439298 1.269737
vt 0.587952 1.087555
vt -0.383701 1.147941
vt -0.013519 1.087555
vt -0.824707 1.087555
vt 0.061076 1.261916
vt 1.356634 1.087555
vt -0.934631 1.087555
vt -0.606090 2.306408
vt 0.061076 1.147941
vt -0.272507 1.374601
vt -0.771513 1.087555
vt -0.272507 1.252805
vt 1.187524 1.087555
vt -0.654048 1.087555
vt -0.050118 1.147941
vt -0.611935 1.087555
vt -0.050118 1.269737
vt 1.029395 1.087555
vt -0.494470 1.087555
vt -0.105715 1.374601
vt -0.463439 1.087555
vt -0.105715 1.252805
vt 0.882247 1.087555
vt -0.345975 1.087555
vt -0.216910 1.147941
vt -0.314943 1.087555
vt -0.216910 1.147942
vt 0.320761 -0.037532
vt -0.328104 1.374600
vt 0.320761 1.087555
vt -0.383701 1.374601
vt 0.472301 1.087555
vt 0.101253 1.087555
vt -0.328104 1.252806
vt 0.437159 1.087555
vt -0.161312 1.147941
vt 0.766597 1.087555
vt -0.200171 1.087555
vt -0.161312 1.252805
vt 0.735847 1.087555
vt -0.161312 1.374601
vt 0.619449 1.087555
vt -0.051675 1.087555
vt -0.383701 1.252805
vt 0.588699 1.087555
vt 0.291349 1.147941
vt 1.421947 1.087555
vt 0.116673 1.244985
vt -0.934631 1.147941
vt 1.357382 1.087555
vt 0.116673 1.366781
vt 1.240984 1.087555
vt -0.656741 1.087555
vt -0.328104 1.269737
vt 1.188271 1.087555
vt -0.328104 1.147941
vt 1.071873 1.087555
vt -0.497163 1.087555
vt 0.005479 1.252805
vt 1.030142 1.087555
vt 0.005479 1.374601
vt 0.913744 1.087555
vt -0.348667 1.087555
vt -0.161312 1.269737
vt 0.882995 1.087555
vt 0.291347 1.173084
vt -0.661547 1.181321
vt 1.450127 -0.037532
vt 0.313370 1.192566
vt 1.421947 -0.037532
vt 0.172270 1.269737
vt -0.934631 2.273027
vt 1.357382 -0.037532
vt 0.172270 1.147941
vt 1.240984 -0.037532
vt -0.606090 1.252805
vt -0.656741 -0.037532
vt 1.188271 -0.037532
vt -0.606090 1.374600
vt 1.071873 -0.037532
vt 0.061076 1.269737
vt -0.497162 -0.037532
vt 1.030142 -0.037532
vt 0.061076 1.147941
vt 0.913744 -0.037532
vt -0.550492 1.252805
vt -0.348667 -0.037532
vt 0.882995 -0.037532
vt -0.550492 1.374601
vt 0.766597 -0.037532
vt -0.050118 1.269737
vt -0.200171 -0.037532
vt 0.735847 -0.037532
vt -0.050118 1.147941
vt 0.619449 -0.037532
vt -0.439298 1.269738
vt -0.051675 -0.037532
vt 0.588699 -0.037532
vt -0.439298 1.147942
vt 0.472301 -0.037532
vt -0.216910 1.269738
vt 0.101253 -0.037532
vt 0.437159 -0.037532
vt 0.269326 1.167422
vt -0.661547 2.306408
vt 1.450127 1.087555
vt 0.291349 1.192566
vt -0.628302 2.306408
vt 1.459378 1.087555
vt -0.609343 2.306408
vt 0.064337 1.147941
vt -0.828199 1.147941
vt 0.313370 1.147941
vt -0.628302 1.181321
vt 1.459378 -0.037532
vt -0.828199 2.273027
vt -0.609343 1.181321
vt 0.119935 1.366781
vt 0.172271 1.268561
vt -0.711726 2.333415
vt 0.269326 -0.037532
vt 0.268970 1.278727
vt 0.269326 1.087555
vt -0.711726 1.208327
vt 0.472301 0.525011
vt -0.013519 0.525012
vt 0.101253 0.525012
vt 0.437159 0.525011
vt 0.587952 0.525011
vt -0.048983 0.525012
vt -0.013519 0.806284
vt -0.048983 0.806284
vt 0.587952 0.806284
vt 0.472301 0.806284
vt 0.101253 0.806284
vt 0.437159 0.806284
vt 0.735100 0.525011
vt -0.197478 0.525011
vt -0.166447 0.525012
vt 0.619449 0.525011
vt -0.051675 0.525012
vt 0.588699 0.525011
vt 0.735100 0.806284
vt -0.197478 0.806284
vt -0.166447 0.806284
vt 0.619449 0.806284
vt -0.051675 0.806284
vt 0.588699 0.806284
vt 0.882247 0.525011
vt -0.345975 0.525011
vt -0.200171 0.525011
vt 0.735847 0.525011
vt 0.766597 0.525011
vt -0.314943 0.525011
vt 1.029395 0.525011
vt -0.494470 0.525011
vt 0.913744 0.525011
vt -0.463439 0.525011
vt 0.882995 0.525011
vt -0.348667 0.525011
vt 1.187524 0.525011
vt -0.654048 0.525011
vt 1.071873 0.525011
vt -0.611935 0.525011
vt -0.497162 0.525011
vt 1.030142 0.525011
vt -0.345975 0.806284
vt 0.882247 0.806284
vt -0.314943 0.806284
vt 0.735847 0.806284
vt -0.200171 0.806284
vt 0.766597 0.806284
vt -0.494470 0.806284
vt 1.029395 0.806284
vt -0.463439 0.806284
vt 0.913744 0.806284
vt -0.348667 0.806284
vt 0.882995 0.806284
vt 0.913744 0.243740
vt -0.348667 0.243740
vt 0.882995 0.243740
vt 1.029395 0.243740
vt -0.494470 0.243740
vt -0.463439 0.243740
vt 0.619449 0.243740
vt 0.588699 0.243740
vt -0.051675 0.243740
vt -0.197478 0.243740
vt 0.735100 0.243740
vt -0.166447 0.243740
vt -0.200171 0.243740
vt 0.735847 0.243740
vt 0.766597 0.243740
vt 0.882247 0.243740
vt -0.345975 0.243740
vt -0.314943 0.243740
s 0
f 2/4/1 3/7/1 1/1/1
f 26/69/2 22/59/2 27/73/2
f 32/84/2 9/26/2 34/91/2
f 92/225/2 28/74/2 91/224/2
f 19/51/2 80/206/2 82/210/2
f 125/275/2 16/44/2 126/276/2
f 117/263/2 14/39/2 118/264/2
f 103/242/2 12/34/2 105/244/2
f 8/23/3 5/13/3 7/19/3
f 85/214/4 44/115/4 86/216/4
f 123/272/4 66/170/4 124/273/4
f 75/194/5 3/9/5 76/197/5
f 78/204/6 77/200/6 2/5/6
f 21/57/3 71/181/3 20/53/3
f 26/70/1 44/114/1 42/109/1
f 80/206/7 71/182/7 81/207/7
f 26/71/8 41/108/8 21/55/8
f 19/52/3 69/176/3 18/48/3
f 30/80/1 48/124/1 43/111/1
f 122/270/7 69/177/7 120/267/7
f 30/81/8 85/214/8 84/213/8
f 17/47/3 67/171/3 16/43/3
f 28/75/1 46/119/1 47/121/1
f 126/276/7 67/172/7 123/271/7
f 28/76/8 93/226/8 91/223/8
f 15/42/3 65/166/3 14/38/3
f 39/102/1 56/144/1 45/116/1
f 118/264/7 65/167/7 116/260/7
f 39/103/8 110/252/8 107/248/8
f 13/37/3 63/161/3 12/33/3
f 37/97/1 54/139/1 55/141/1
f 105/244/7 63/162/7 106/245/7
f 37/98/8 113/256/8 111/254/8
f 11/32/3 61/156/3 10/28/3
f 35/92/1 52/134/1 53/136/1
f 34/91/7 61/157/7 52/133/7
f 35/93/8 104/243/8 103/241/8
f 9/27/3 59/151/3 76/198/3
f 50/128/1 51/131/1 32/85/1
f 59/152/9 74/192/9 76/196/9
f 32/86/8 60/155/8 9/25/8
f 77/199/3 22/58/3 24/63/3
f 23/60/1 27/72/1 78/202/1
f 27/73/10 77/201/10 78/203/10
f 75/193/3 58/149/3 57/146/3
f 49/126/1 73/187/1 72/184/1
f 58/150/11 73/189/11 49/127/11
f 82/209/8 70/180/8 19/50/8
f 83/211/7 81/207/7 86/215/7
f 93/226/4 48/125/4 94/228/4
f 82/210/2 83/211/2 84/212/2
f 84/212/2 31/83/2 30/79/2
f 31/83/7 86/215/7 44/113/7
f 84/213/8 79/205/8 82/209/8
f 79/205/4 86/216/4 81/208/4
f 113/256/4 56/145/4 114/258/4
f 87/217/8 119/265/8 121/269/8
f 92/225/7 90/221/7 94/227/7
f 122/270/2 87/218/2 121/268/2
f 29/78/7 94/227/7 48/123/7
f 89/220/4 94/228/4 90/222/4
f 91/223/8 89/220/8 87/217/8
f 88/219/2 91/224/2 87/218/2
f 95/229/8 124/273/8 125/274/8
f 108/249/7 96/231/7 109/251/7
f 106/246/4 62/160/4 104/243/4
f 107/247/2 98/234/2 108/249/2
f 115/259/4 102/239/4 116/261/4
f 99/235/8 115/259/8 117/262/8
f 112/255/7 102/240/7 114/257/7
f 111/253/2 101/238/2 112/255/2
f 109/250/4 97/233/4 110/252/4
f 103/241/8 62/160/8 11/30/8
f 36/96/7 106/245/7 54/138/7
f 35/94/2 105/244/2 36/96/2
f 6/18/4 43/112/4 48/125/4
f 39/104/2 108/249/2 40/106/2
f 40/106/7 109/251/7 46/118/7
f 107/248/8 97/233/8 95/229/8
f 37/99/2 112/255/2 38/101/2
f 38/101/7 114/257/7 56/143/7
f 100/237/4 114/258/4 102/239/4
f 111/254/8 100/237/8 99/235/8
f 117/262/8 64/165/8 13/35/8
f 119/265/4 90/222/4 120/266/4
f 101/238/7 116/260/7 102/240/7
f 99/236/2 118/264/2 101/238/2
f 1/3/4 64/165/4 65/168/4
f 18/49/2 121/268/2 17/46/2
f 121/269/8 68/175/8 17/45/8
f 88/219/7 120/267/7 90/221/7
f 125/274/8 66/170/8 15/40/8
f 98/234/7 123/271/7 96/231/7
f 96/232/4 124/273/4 97/233/4
f 95/230/2 126/276/2 98/234/2
f 2/4/1 4/10/1 3/7/1
f 26/69/2 21/56/2 22/59/2
f 25/66/2 3/8/2 9/26/2
f 3/8/2 4/11/2 15/41/2
f 9/26/2 3/8/2 10/29/2
f 4/11/2 24/64/2 22/59/2
f 21/56/2 20/54/2 4/11/2
f 20/54/2 19/51/2 4/11/2
f 4/11/2 22/59/2 21/56/2
f 10/29/2 3/8/2 11/31/2
f 7/20/2 33/87/2 32/84/2
f 18/49/2 17/46/2 4/11/2
f 17/46/2 16/44/2 4/11/2
f 4/11/2 19/51/2 18/49/2
f 8/22/2 7/20/2 39/104/2
f 7/20/2 32/84/2 34/91/2
f 27/73/2 23/61/2 8/22/2
f 30/79/2 31/83/2 8/22/2
f 31/83/2 26/69/2 8/22/2
f 26/69/2 27/73/2 8/22/2
f 15/41/2 14/39/2 3/8/2
f 14/39/2 13/36/2 3/8/2
f 4/11/2 16/44/2 15/41/2
f 40/106/2 28/74/2 8/22/2
f 28/74/2 29/78/2 8/22/2
f 29/78/2 30/79/2 8/22/2
f 12/34/2 11/31/2 3/8/2
f 12/34/2 3/8/2 13/36/2
f 37/99/2 38/101/2 7/20/2
f 38/101/2 39/104/2 7/20/2
f 39/104/2 40/106/2 8/22/2
f 34/91/2 35/94/2 7/20/2
f 35/94/2 36/96/2 7/20/2
f 7/20/2 36/96/2 37/99/2
f 9/26/2 10/29/2 34/91/2
f 92/225/2 29/78/2 28/74/2
f 19/51/2 20/54/2 80/206/2
f 125/275/2 15/41/2 16/44/2
f 117/263/2 13/36/2 14/39/2
f 103/242/2 11/31/2 12/34/2
f 8/23/3 6/16/3 5/13/3
f 85/214/4 43/112/4 44/115/4
f 123/272/4 67/173/4 66/170/4
f 74/190/5 33/88/5 7/21/5
f 7/21/5 5/14/5 73/188/5
f 5/14/5 72/185/5 73/188/5
f 74/190/5 7/21/5 73/188/5
f 75/194/5 57/147/5 1/2/5
f 74/190/5 73/188/5 75/194/5
f 3/9/5 25/67/5 76/197/5
f 76/197/5 74/190/5 75/194/5
f 75/194/5 1/2/5 3/9/5
f 24/65/6 4/12/6 77/200/6
f 4/12/6 2/5/6 77/200/6
f 6/17/6 8/24/6 78/204/6
f 8/24/6 23/62/6 78/204/6
f 6/17/6 78/204/6 2/5/6
f 21/57/3 41/107/3 71/181/3
f 26/70/1 31/82/1 44/114/1
f 80/206/7 20/54/7 71/182/7
f 26/71/8 42/110/8 41/108/8
f 19/52/3 70/179/3 69/176/3
f 30/80/1 29/77/1 48/124/1
f 122/270/7 18/49/7 69/177/7
f 30/81/8 43/112/8 85/214/8
f 17/47/3 68/174/3 67/171/3
f 28/75/1 40/105/1 46/119/1
f 126/276/7 16/44/7 67/172/7
f 28/76/8 47/122/8 93/226/8
f 15/42/3 66/169/3 65/166/3
f 39/102/1 38/100/1 56/144/1
f 118/264/7 14/39/7 65/167/7
f 39/103/8 45/117/8 110/252/8
f 13/37/3 64/164/3 63/161/3
f 37/97/1 36/95/1 54/139/1
f 105/244/7 12/34/7 63/162/7
f 37/98/8 55/142/8 113/256/8
f 11/32/3 62/159/3 61/156/3
f 35/92/1 34/90/1 52/134/1
f 34/91/7 10/29/7 61/157/7
f 35/93/8 53/137/8 104/243/8
f 76/198/3 25/68/3 9/27/3
f 9/27/3 60/154/3 59/151/3
f 33/89/1 74/191/1 32/85/1
f 74/191/1 50/128/1 32/85/1
f 59/152/9 50/129/9 74/192/9
f 32/86/8 51/132/8 60/155/8
f 27/73/10 22/59/10 77/201/10
f 58/150/11 75/195/11 73/189/11
f 82/209/8 79/205/8 70/180/8
f 83/211/7 80/206/7 81/207/7
f 93/226/4 47/122/4 48/125/4
f 82/210/2 80/206/2 83/211/2
f 84/212/2 83/211/2 31/83/2
f 31/83/7 83/211/7 86/215/7
f 84/213/8 85/214/8 79/205/8
f 79/205/4 85/214/4 86/216/4
f 113/256/4 55/142/4 56/145/4
f 87/217/8 89/220/8 119/265/8
f 92/225/7 88/219/7 90/221/7
f 122/270/2 88/219/2 87/218/2
f 29/78/7 92/225/7 94/227/7
f 89/220/4 93/226/4 94/228/4
f 91/223/8 93/226/8 89/220/8
f 88/219/2 92/225/2 91/224/2
f 95/229/8 97/233/8 124/273/8
f 108/249/7 98/234/7 96/231/7
f 106/246/4 63/163/4 62/160/4
f 107/247/2 95/230/2 98/234/2
f 115/259/4 100/237/4 102/239/4
f 99/235/8 100/237/8 115/259/8
f 112/255/7 101/238/7 102/240/7
f 111/253/2 99/236/2 101/238/2
f 109/250/4 96/232/4 97/233/4
f 103/241/8 104/243/8 62/160/8
f 36/96/7 105/244/7 106/245/7
f 35/94/2 103/242/2 105/244/2
f 45/117/4 56/145/4 6/18/4
f 56/145/4 55/142/4 5/15/4
f 6/18/4 56/145/4 5/15/4
f 54/140/4 106/246/4 104/243/4
f 55/142/4 54/140/4 5/15/4
f 54/140/4 104/243/4 53/137/4
f 52/135/4 61/158/4 60/155/4
f 54/140/4 53/137/4 5/15/4
f 52/135/4 60/155/4 51/132/4
f 53/137/4 52/135/4 5/15/4
f 51/132/4 50/130/4 5/15/4
f 50/130/4 49/127/4 5/15/4
f 51/132/4 5/15/4 52/135/4
f 49/127/4 72/186/4 5/15/4
f 6/18/4 2/6/4 42/110/4
f 2/6/4 41/108/4 42/110/4
f 42/110/4 44/115/4 6/18/4
f 44/115/4 43/112/4 6/18/4
f 109/250/4 110/252/4 45/117/4
f 48/125/4 47/122/4 6/18/4
f 47/122/4 46/120/4 6/18/4
f 46/120/4 109/250/4 45/117/4
f 46/120/4 45/117/4 6/18/4
f 39/104/2 107/247/2 108/249/2
f 40/106/7 108/249/7 109/251/7
f 107/248/8 110/252/8 97/233/8
f 37/99/2 111/253/2 112/255/2
f 38/101/7 112/255/7 114/257/7
f 100/237/4 113/256/4 114/258/4
f 111/254/8 113/256/8 100/237/8
f 117/262/8 115/259/8 64/165/8
f 119/265/4 89/220/4 90/222/4
f 101/238/7 118/264/7 116/260/7
f 99/236/2 117/263/2 118/264/2
f 41/108/4 2/6/4 71/183/4
f 2/6/4 1/3/4 65/168/4
f 71/183/4 2/6/4 70/180/4
f 1/3/4 57/148/4 58/150/4
f 58/150/4 49/127/4 50/130/4
f 59/153/4 60/155/4 1/3/4
f 60/155/4 61/158/4 1/3/4
f 58/150/4 50/130/4 59/153/4
f 70/180/4 2/6/4 69/178/4
f 79/205/4 81/208/4 71/183/4
f 70/180/4 79/205/4 71/183/4
f 1/3/4 58/150/4 59/153/4
f 61/158/4 62/160/4 1/3/4
f 62/160/4 63/163/4 1/3/4
f 69/178/4 2/6/4 68/175/4
f 119/265/4 120/266/4 69/178/4
f 68/175/4 2/6/4 67/173/4
f 64/165/4 115/259/4 116/261/4
f 1/3/4 63/163/4 64/165/4
f 68/175/4 119/265/4 69/178/4
f 65/168/4 66/170/4 2/6/4
f 66/170/4 67/173/4 2/6/4
f 64/165/4 116/261/4 65/168/4
f 18/49/2 122/270/2 121/268/2
f 121/269/8 119/265/8 68/175/8
f 88/219/7 122/270/7 120/267/7
f 125/274/8 124/273/8 66/170/8
f 98/234/7 126/276/7 123/271/7
f 96/232/4 123/272/4 124/273/4
f 95/230/2 125/275/2 126/276/2
