# Blender 3.3.1
# www.blender.org
o Vent_Grate.003
v 0.357803 0.108296 -7.963078
v 0.093247 0.711873 -7.915115
v 0.354639 0.103167 -7.992092
v 0.083312 0.715289 -7.942824
v 0.937133 0.373077 -8.073071
v 0.658581 0.974999 -8.085389
v 0.933968 0.367948 -8.102085
v 0.633933 0.984367 -8.151384
v 0.344416 0.164695 -8.001854
v 0.331791 0.190960 -8.005119
v 0.303913 0.248960 -8.012332
v 0.293919 0.269753 -8.014917
v 0.266041 0.327753 -8.022129
v 0.258676 0.343075 -8.024035
v 0.215217 0.421315 -8.026361
v 0.209226 0.436815 -8.022301
v 0.171832 0.501441 -8.045222
v 0.165841 0.516941 -8.041163
v 0.143160 0.575615 -8.025798
v 0.137681 0.629449 -8.003807
v 0.128344 0.646051 -7.967506
v 0.121256 0.664388 -7.962704
v 0.620637 0.965379 -8.104662
v 0.098794 0.722495 -7.947487
v 0.370504 0.110419 -7.995105
v 0.635475 0.894887 -8.162968
v 0.628386 0.913224 -8.158166
v 0.730319 0.718808 -8.141895
v 0.722954 0.734130 -8.143801
v 0.679715 0.812546 -8.144686
v 0.672868 0.830261 -8.140047
v 0.879179 0.409106 -8.103385
v 0.905267 0.354830 -8.096636
v 0.866554 0.435371 -8.106650
v 0.838676 0.493371 -8.113863
v 0.828681 0.514165 -8.116448
v 0.808077 0.584971 -8.113855
v 0.793439 0.587486 -8.125566
v 0.765561 0.645486 -8.132778
v 0.758197 0.660808 -8.134684
v 0.118751 0.693152 -7.926568
v 0.640595 0.936036 -8.083743
v 0.670123 0.859648 -8.103747
v 0.648563 0.883315 -8.137396
v 0.744723 0.700552 -8.109973
v 0.737359 0.715874 -8.111878
v 0.709481 0.773873 -8.119091
v 0.692804 0.800974 -8.119113
v 0.901682 0.374000 -8.069367
v 0.886219 0.406172 -8.073368
v 0.858341 0.464172 -8.080580
v 0.845716 0.490437 -8.083846
v 0.817838 0.548437 -8.091059
v 0.807844 0.569230 -8.093644
v 0.779966 0.627230 -8.100856
v 0.772601 0.642552 -8.102761
v 0.373668 0.115548 -7.966091
v 0.366920 0.129589 -7.967836
v 0.351456 0.161761 -7.971837
v 0.323578 0.219760 -7.979049
v 0.310953 0.246026 -7.982315
v 0.283076 0.304025 -7.989527
v 0.273081 0.324819 -7.992113
v 0.245203 0.382819 -7.999325
v 0.228306 0.409743 -8.000788
v 0.205625 0.468416 -7.985422
v 0.184921 0.489869 -8.019650
v 0.176952 0.542590 -7.965998
v 0.170961 0.558090 -7.961938
v 0.148280 0.616764 -7.946573
v 0.141432 0.634478 -7.941934
v 0.908431 0.359959 -8.067621
v 0.906534 0.356884 -8.085015
v 0.905452 0.355131 -8.094934
v 0.371771 0.112473 -7.983484
v 0.370690 0.110720 -7.993402
v 0.107783 0.719404 -7.922416
v 0.629627 0.962288 -8.079591
v 0.382516 0.723027 -8.069345
v 0.354157 0.724181 -8.077616
v 0.360808 0.754538 -8.076685
v 0.375652 0.686713 -8.090042
v 0.528650 0.777462 -8.130704
v 0.549423 0.754923 -8.100165
v 0.544764 0.802538 -8.049059
v 0.517140 0.823597 -8.100552
v 0.412573 0.620249 -8.076685
v 0.451286 0.646990 -8.091683
v 0.425016 0.664050 -8.074597
v 0.430443 0.672215 -8.082333
v 0.596664 0.659768 -8.114464
v 0.595716 0.673341 -8.113447
v 0.571962 0.725945 -8.090370
v 0.560306 0.741488 -8.092552
v 0.500220 0.516109 -8.086569
v 0.471485 0.582735 -8.074977
v 0.475909 0.569802 -8.076026
v 0.494199 0.526526 -8.087668
v 0.544349 0.429378 -8.072859
v 0.524441 0.455589 -8.071208
v 0.532568 0.446792 -8.077241
v 0.521295 0.469249 -8.076516
v 0.581020 0.352853 -8.057519
v 0.568499 0.368552 -8.057163
v 0.571776 0.377227 -8.062179
v 0.530482 0.377839 -8.053801
v 0.632202 0.590447 -8.100736
v 0.625317 0.605110 -8.103024
v 0.605194 0.653432 -8.092229
v 0.611849 0.638153 -8.095676
v 0.675280 0.517306 -8.097197
v 0.667421 0.531009 -8.100746
v 0.626833 0.529169 -8.093128
v 0.634504 0.541796 -8.099565
v 0.382332 0.405175 -8.042020
v 0.379248 0.416137 -8.044850
v 0.402052 0.379681 -8.040624
v 0.393119 0.395464 -8.044240
v 0.272338 0.602066 -8.040556
v 0.258697 0.621636 -8.063538
v 0.303791 0.548194 -8.045491
v 0.281533 0.569656 -8.080713
v 0.325761 0.525402 -8.033881
v 0.324154 0.483751 -8.025639
v 0.372267 0.444027 -8.050357
v 0.361576 0.464592 -8.053168
vn -0.8975 -0.4069 0.1698
vn -0.3951 0.0868 -0.9145
vn -0.1068 -0.1731 -0.9791
vn -0.2249 0.0572 -0.9727
vn -0.3203 0.1275 -0.9387
vn -0.1565 -0.2132 -0.9644
vn -0.0484 -0.2490 -0.9673
vn -0.0816 -0.2169 -0.9728
vn 0.8912 0.4200 -0.1715
vn -0.2488 0.8424 0.4780
vn 0.2961 0.1744 0.9391
vn 0.4305 -0.8957 0.1114
vn -0.3503 0.9061 0.2373
vn 0.7600 0.6424 -0.0983
vn -0.8758 -0.4029 0.2659
vn -0.5760 0.1509 -0.8034
vn 0.5141 -0.5006 0.6965
vn 0.8729 0.4076 -0.2681
vn -0.8746 -0.4071 0.2634
vn -0.7243 -0.0924 -0.6833
vn 0.4848 -0.6175 0.6195
vn 0.8729 0.4129 -0.2599
vn -0.8962 -0.4096 0.1702
vn -0.1520 0.2163 -0.9644
vn 0.2918 -0.2291 0.9286
vn 0.8545 0.4679 -0.2256
vn -0.2661 -0.2064 -0.9416
vn 0.2348 -0.0029 0.9720
vn 0.8962 0.4096 -0.1702
vn -0.8255 -0.4406 -0.3527
vn -0.1985 -0.1610 -0.9668
vn 0.0968 0.0546 0.9938
vn -0.2964 0.2675 -0.9168
vn 0.1581 0.1039 0.9819
vn -0.2987 0.2737 -0.9143
vn 0.2964 -0.2675 0.9168
vn 0.8746 0.4071 -0.2634
vn -0.8766 -0.4019 0.2648
vn -0.4848 0.7453 -0.4577
vn 0.3935 -0.5571 0.7313
vn 0.4822 -0.7898 0.3791
vn -0.3284 0.4580 -0.8261
vn 0.1000 0.2114 0.9723
vn 0.2350 -0.6988 -0.6756
vn -0.3620 0.1027 -0.9265
vn -0.2428 -0.0629 -0.9680
vn 0.2498 -0.5147 0.8202
vn 0.0369 0.2507 0.9674
vn -0.4237 0.6023 0.6766
vn 0.2427 0.0530 0.9687
vn -0.1826 0.2003 -0.9626
vn 0.2973 -0.7202 -0.6268
vn -0.2845 0.2166 -0.9339
vn -0.3606 0.7565 0.5456
vn 0.2223 -0.1093 0.9688
vn -0.1142 -0.3551 -0.9278
vn 0.3482 -0.1536 0.9247
vn -0.1967 0.1350 -0.9711
vn 0.1560 0.2974 0.9419
vn -0.0182 -0.1624 -0.9866
vn 0.1091 0.2772 0.9546
vn 0.1586 0.1759 0.9715
vn -0.0909 -0.1699 -0.9813
vn -0.0089 -0.2555 -0.9668
vn 0.2053 -0.1295 0.9701
vn 0.2574 -0.2850 0.9233
vn -0.3112 0.2607 -0.9139
vn -0.1129 -0.1758 -0.9779
vn 0.3353 -0.1153 0.9350
vn -0.1502 -0.1928 -0.9697
vn -0.2692 0.2798 -0.9216
vn 0.1699 -0.1152 0.9787
vn 0.2666 -0.8185 -0.5090
vn -0.2361 0.2942 -0.9261
vn -0.0370 0.3546 0.9343
vn 0.1492 0.0511 0.9875
vn 0.2379 -0.2934 0.9259
vn -0.1349 0.7134 0.6876
vn -0.1937 -0.0656 -0.9789
vn -0.1089 -0.3112 -0.9441
vn 0.3255 0.2538 0.9109
vn -0.0810 0.2231 -0.9714
vn 0.3033 -0.8535 0.4237
vn -0.1690 0.2167 -0.9615
vn 0.2053 -0.6179 0.7590
vn -0.3035 0.0915 -0.9484
vn 0.3017 0.0259 0.9530
vn -0.1607 -0.1950 -0.9676
vn -0.8740 -0.4086 0.2630
vn -0.9147 -0.4035 -0.0244
vn -0.3353 0.1153 -0.9350
vn 0.8311 0.5548 -0.0399
vn -0.4724 0.2917 -0.8317
vn -0.9362 -0.3310 -0.1182
vn -0.8779 -0.4464 0.1734
vn 0.2469 0.0427 -0.9681
vn -0.9670 0.0978 -0.2354
vn -0.8984 -0.2534 -0.3586
vn 0.6492 0.1086 -0.7528
vn -0.5256 -0.3154 -0.7901
vn 0.5909 0.1864 -0.7849
vn -0.0966 -0.0645 -0.9932
vn -0.6243 -0.3236 0.7110
vn 0.2976 0.1213 -0.9470
vn -0.1416 -0.1889 -0.9717
vn -0.4242 0.3051 -0.8526
vn -0.1746 0.1857 -0.9670
vn -0.0736 -0.1578 -0.9847
vn -0.0968 -0.1685 -0.9809
vn 0.8758 0.3998 -0.2704
vn -0.0914 0.7860 0.6114
vn -0.1421 0.7978 0.5860
vn -0.3449 0.9028 0.2570
vn -0.3902 0.8864 0.2492
vn -0.8729 -0.4129 0.2599
vn -0.4143 0.9088 -0.0488
vn 0.4819 -0.7900 0.3792
vn -0.8543 -0.4685 0.2252
vn -0.4877 0.7872 -0.3774
vn 0.5268 -0.4939 0.6917
vn 0.8758 0.4029 -0.2659
vn -0.1916 -0.0388 -0.9807
vn 0.2866 -0.2720 0.9186
vn -0.2301 0.2253 -0.9467
vn 0.2375 -0.2936 0.9260
vn -0.9393 -0.2654 -0.2175
vn -0.2657 0.2813 -0.9221
vn 0.1680 -0.1860 0.9681
vn 0.3120 -0.2603 0.9137
vn -0.5003 0.4285 -0.7524
vn 0.5684 -0.4859 0.6640
vn -0.3170 0.0984 -0.9433
vn 0.1683 0.1044 0.9802
vn -0.3236 0.1254 -0.9378
vn 0.2163 -0.7095 -0.6707
vn -0.2339 0.4903 -0.8396
vn 0.2568 -0.6953 0.6712
vn -0.4259 0.7342 0.5287
vn -0.0222 0.1129 0.9934
vn 0.2623 -0.1201 0.9575
vn -0.1824 0.2057 -0.9615
vn 0.3135 -0.7675 -0.5592
vn -0.2919 0.1385 -0.9464
vn 0.0361 0.1654 0.9856
vn 0.2120 -0.2635 0.9411
vn -0.1599 0.0626 -0.9851
vn 0.3325 -0.0345 0.9425
vn -0.1972 0.1394 -0.9704
vn 0.1869 0.2092 0.9598
vn -0.0358 -0.1253 -0.9915
vn 0.0578 0.3732 0.9260
vn 0.1761 0.0719 0.9817
vn -0.1463 -0.0416 -0.9884
vn -0.0112 -0.2512 -0.9679
vn 0.1440 -0.0310 0.9891
vn 0.1990 0.1368 0.9704
vn -0.1990 -0.0149 -0.9799
vn -0.0921 -0.2205 -0.9710
vn -0.7548 -0.2896 0.5885
vn 0.1068 0.1731 0.9791
vn -0.5065 -0.2173 0.8344
vn 0.1022 0.0587 0.9930
vn 0.0340 0.1394 0.9897
vn 0.8097 -0.3540 0.4681
vn -0.8784 -0.1596 0.4506
vn 0.1727 -0.1446 0.9743
vn -0.4081 -0.2504 0.8779
vn 0.0722 0.1572 0.9849
vn -0.1423 -0.2174 -0.9656
vn -0.2705 0.1012 -0.9574
vn 0.1607 -0.0360 0.9863
vn 0.0049 -0.2481 -0.9687
vn -0.1012 -0.2022 -0.9741
vn -0.2186 0.5453 0.8093
vn 0.1152 0.1329 0.9844
vn 0.2514 0.2457 0.9362
vn -0.1477 0.7301 0.6672
vn -0.1762 -0.1470 -0.9733
vn -0.1164 -0.2840 -0.9517
vn 0.9163 0.3985 0.0391
vn 0.3040 0.4097 0.8600
vn 0.4794 -0.0442 0.8765
vn 0.1226 0.7904 0.6002
vn -0.7816 -0.4990 0.3742
vn 0.2374 0.3050 0.9223
vn 0.6056 0.0258 0.7954
vn 0.8570 0.4617 -0.2290
vn 0.2650 0.2174 0.9394
vn 0.1615 -0.7941 -0.5859
vn 0.5107 0.2221 0.8306
vn -0.1713 0.2405 -0.9554
vn 0.3362 -0.1692 0.9264
vn -0.3027 0.1216 -0.9453
vn 0.1996 0.1828 0.9627
vn -0.1538 -0.2119 -0.9651
vt -0.717005 1.147941
vt -0.661547 1.147942
vt 1.450127 -0.070911
vt -0.717005 2.383491
vt -0.717005 2.366795
vt 0.269326 -0.070911
vt -0.772602 1.147941
vt -0.934631 -0.070911
vt -0.606090 1.147942
vt -0.772602 2.383491
vt 0.256987 -0.070911
vt -0.661547 2.366795
vt -0.828200 1.147941
vt -0.661547 2.366795
vt 1.450127 1.147942
vt -0.828200 2.383491
vt -0.717005 1.147942
vt 0.269326 1.147942
vt -0.772602 1.147941
vt -0.934631 1.147941
vt -0.606090 2.366795
vt 0.256987 1.147942
vt -0.772603 2.383491
vt -0.661547 1.147942
vt 1.356634 -0.037532
vt -0.824707 -0.037532
vt 0.116673 1.252805
vt -0.550492 1.147941
vt -0.771513 -0.037532
vt 1.187524 -0.037532
vt -0.654048 -0.037532
vt -0.550492 1.269737
vt 0.005479 1.374601
vt -0.611935 -0.037532
vt 1.029395 -0.037532
vt -0.494470 -0.037532
vt 0.005479 1.252805
vt -0.494895 1.147941
vt -0.463439 -0.037532
vt 0.882247 -0.037532
vt -0.345975 -0.037532
vt -0.494895 1.269737
vt -0.105715 1.374601
vt -0.314943 -0.037532
vt 0.735100 -0.037532
vt -0.197478 -0.037532
vt -0.105715 1.252805
vt -0.494895 1.374601
vt -0.166447 -0.037532
vt 0.587952 -0.037532
vt -0.048983 -0.037532
vt -0.494895 1.252806
vt -0.272507 1.374601
vt -0.013519 -0.037532
vt 0.436412 -0.037532
vt 0.103947 -0.037532
vt -0.272507 1.252806
vt 0.222575 1.147942
vt 0.140656 -0.037532
vt 0.222575 1.259183
vt 0.256987 1.087555
vt -0.661547 1.208327
vt 0.222575 1.268561
vt 0.256987 -0.037532
vt -0.661547 2.333415
vt -0.934631 -0.037532
vt -0.606090 1.181321
vt 0.116673 1.366781
vt 0.103947 1.087555
vt -0.383701 1.269737
vt 0.436412 1.087555
vt 0.268970 1.147941
vt 0.140656 1.087555
vt -0.197478 1.087555
vt -0.216910 1.269737
vt 0.735100 1.087555
vt -0.439298 1.147941
vt -0.166447 1.087555
vt -0.048983 1.087555
vt -0.439298 1.269737
vt 0.587952 1.087555
vt -0.383701 1.147941
vt -0.013519 1.087555
vt -0.824707 1.087555
vt 0.061076 1.261916
vt 1.356634 1.087555
vt -0.934631 1.087555
vt -0.606090 2.306408
vt 0.061076 1.147941
vt -0.272507 1.374601
vt -0.771513 1.087555
vt -0.272507 1.252805
vt 1.187524 1.087555
vt -0.654048 1.087555
vt -0.050118 1.147941
vt -0.611935 1.087555
vt -0.050118 1.269737
vt 1.029395 1.087555
vt -0.494470 1.087555
vt -0.105715 1.374601
vt -0.463439 1.087555
vt -0.105715 1.252805
vt 0.882247 1.087555
vt -0.345975 1.087555
vt -0.216910 1.147941
vt -0.314943 1.087555
vt -0.216910 1.147942
vt 0.320761 -0.037532
vt -0.328104 1.374600
vt 0.320761 1.087555
vt -0.383701 1.374601
vt 0.472301 1.087555
vt 0.101253 1.087555
vt -0.328104 1.252806
vt 0.437159 1.087555
vt -0.161312 1.147941
vt 0.766597 1.087555
vt -0.200171 1.087555
vt -0.161312 1.252805
vt 0.735847 1.087555
vt -0.161312 1.374601
vt 0.619449 1.087555
vt -0.051675 1.087555
vt -0.383701 1.252805
vt 0.588699 1.087555
vt 0.291349 1.147941
vt 1.421947 1.087555
vt 0.116673 1.244985
vt -0.934631 1.147941
vt 1.357382 1.087555
vt 0.116673 1.366781
vt 1.240984 1.087555
vt -0.656741 1.087555
vt -0.328104 1.269737
vt 1.188271 1.087555
vt -0.328104 1.147941
vt 1.071873 1.087555
vt -0.497163 1.087555
vt 0.005479 1.252805
vt 1.030142 1.087555
vt 0.005479 1.374601
vt 0.913744 1.087555
vt -0.348667 1.087555
vt -0.161312 1.269737
vt 0.882995 1.087555
vt 0.291347 1.173084
vt -0.661547 1.181321
vt 1.450127 -0.037532
vt 0.313370 1.192566
vt 1.421947 -0.037532
vt 0.172270 1.269737
vt -0.934631 2.273027
vt 1.357382 -0.037532
vt 0.172270 1.147941
vt 1.240984 -0.037532
vt -0.606090 1.252805
vt -0.656741 -0.037532
vt 1.188271 -0.037532
vt -0.606090 1.374600
vt 1.071873 -0.037532
vt 0.061076 1.269737
vt -0.497162 -0.037532
vt 1.030142 -0.037532
vt 0.061076 1.147941
vt 0.913744 -0.037532
vt -0.550492 1.252805
vt -0.348667 -0.037532
vt 0.882995 -0.037532
vt -0.550492 1.374601
vt 0.766597 -0.037532
vt -0.050118 1.269737
vt -0.200171 -0.037532
vt 0.735847 -0.037532
vt -0.050118 1.147941
vt 0.619449 -0.037532
vt -0.439298 1.269738
vt -0.051675 -0.037532
vt 0.588699 -0.037532
vt -0.439298 1.147942
vt 0.472301 -0.037532
vt -0.216910 1.269738
vt 0.101253 -0.037532
vt 0.437159 -0.037532
vt 0.269326 1.167422
vt -0.661547 2.306408
vt 1.450127 1.087555
vt 0.291349 1.192566
vt -0.628302 2.306408
vt 1.459378 1.087555
vt -0.609343 2.306408
vt 0.064337 1.147941
vt -0.828199 1.147941
vt 0.313370 1.147941
vt -0.628302 1.181321
vt 1.459378 -0.037532
vt -0.828199 2.273027
vt -0.609343 1.181321
vt 0.119935 1.366781
vt 0.172271 1.268561
vt -0.711726 2.333415
vt 0.269326 -0.037532
vt 0.268970 1.278727
vt 0.269326 1.087555
vt -0.711726 1.208327
vt 0.472301 0.525011
vt -0.013519 0.525012
vt 0.101253 0.525012
vt 0.437159 0.525011
vt 0.587952 0.525011
vt -0.048983 0.525012
vt -0.013519 0.806284
vt -0.048983 0.806284
vt 0.587952 0.806284
vt 0.472301 0.806284
vt 0.101253 0.806284
vt 0.437159 0.806284
vt 0.735100 0.525011
vt -0.197478 0.525011
vt -0.166447 0.525012
vt 0.619449 0.525011
vt -0.051675 0.525012
vt 0.588699 0.525011
vt 0.735100 0.806284
vt -0.197478 0.806284
vt -0.166447 0.806284
vt 0.619449 0.806284
vt -0.051675 0.806284
vt 0.588699 0.806284
vt 0.882247 0.525011
vt -0.345975 0.525011
vt -0.200171 0.525011
vt 0.735847 0.525011
vt 0.766597 0.525011
vt -0.314943 0.525011
vt 1.029395 0.525011
vt -0.494470 0.525011
vt 0.913744 0.525011
vt -0.463439 0.525011
vt 0.882995 0.525011
vt -0.348667 0.525011
vt 1.187524 0.525011
vt -0.654048 0.525011
vt 1.071873 0.525011
vt -0.611935 0.525011
vt -0.497162 0.525011
vt 1.030142 0.525011
vt -0.345975 0.806284
vt 0.882247 0.806284
vt -0.314943 0.806284
vt 0.735847 0.806284
vt -0.200171 0.806284
vt 0.766597 0.806284
vt -0.494470 0.806284
vt 1.029395 0.806284
vt -0.463439 0.806284
vt 0.913744 0.806284
vt -0.348667 0.806284
vt 0.882995 0.806284
vt 0.913744 0.243740
vt -0.348667 0.243740
vt 0.882995 0.243740
vt 1.029395 0.243740
vt -0.494470 0.243740
vt -0.463439 0.243740
vt 0.619449 0.243740
vt 0.588699 0.243740
vt -0.051675 0.243740
vt -0.197478 0.243740
vt 0.735100 0.243740
vt -0.166447 0.243740
vt -0.200171 0.243740
vt 0.735847 0.243740
vt 0.766597 0.243740
vt 0.882247 0.243740
vt -0.345975 0.243740
vt -0.314943 0.243740
s 0
f 2/4/1 3/7/1 1/1/1
f 26/69/2 22/59/2 27/73/2
f 32/84/3 9/26/3 34/91/3
f 92/225/4 28/74/4 91/224/4
f 19/51/5 80/206/5 82/210/5
f 125/275/6 16/44/6 126/276/6
f 117/263/7 14/39/7 118/264/7
f 103/242/8 12/34/8 105/244/8
f 8/23/9 5/13/9 7/19/9
f 85/214/10 44/115/10 86/216/10
f 123/272/11 66/170/11 124/273/11
f 75/194/12 3/9/12 76/197/12
f 78/204/13 77/200/13 2/5/13
f 21/57/14 71/181/14 20/53/14
f 26/70/15 44/114/15 42/109/15
f 80/206/16 71/182/16 81/207/16
f 26/71/17 41/108/17 21/55/17
f 19/52/18 69/176/18 18/48/18
f 30/80/19 48/124/19 43/111/19
f 122/270/20 69/177/20 120/267/20
f 30/81/21 85/214/21 84/213/21
f 17/47/22 67/171/22 16/43/22
f 28/75/23 46/119/23 47/121/23
f 126/276/24 67/172/24 123/271/24
f 28/76/25 93/226/25 91/223/25
f 15/42/26 65/166/26 14/38/26
f 39/102/23 56/144/23 45/116/23
f 118/264/27 65/167/27 116/260/27
f 39/103/28 110/252/28 107/248/28
f 13/37/29 63/161/29 12/33/29
f 37/97/30 54/139/30 55/141/30
f 105/244/31 63/162/31 106/245/31
f 37/98/32 113/256/32 111/254/32
f 11/32/29 61/156/29 10/28/29
f 35/92/23 52/134/23 53/136/23
f 34/91/33 61/157/33 52/133/33
f 35/93/34 104/243/34 103/241/34
f 9/27/29 59/151/29 76/198/29
f 50/128/23 51/131/23 32/85/23
f 59/152/35 74/192/35 76/196/35
f 32/86/36 60/155/36 9/25/36
f 77/199/37 22/58/37 24/63/37
f 23/60/38 27/72/38 78/202/38
f 27/73/39 77/201/39 78/203/39
f 75/193/29 58/149/29 57/146/29
f 49/126/23 73/187/23 72/184/23
f 58/150/40 73/189/40 49/127/40
f 82/209/41 70/180/41 19/50/41
f 83/211/42 81/207/42 86/215/42
f 93/226/43 48/125/43 94/228/43
f 82/210/44 83/211/44 84/212/44
f 84/212/45 31/83/45 30/79/45
f 31/83/46 86/215/46 44/113/46
f 84/213/47 79/205/47 82/209/47
f 79/205/48 86/216/48 81/208/48
f 113/256/49 56/145/49 114/258/49
f 87/217/50 119/265/50 121/269/50
f 92/225/51 90/221/51 94/227/51
f 122/270/52 87/218/52 121/268/52
f 29/78/53 94/227/53 48/123/53
f 89/220/54 94/228/54 90/222/54
f 91/223/55 89/220/55 87/217/55
f 88/219/56 91/224/56 87/218/56
f 95/229/57 124/273/57 125/274/57
f 108/249/58 96/231/58 109/251/58
f 106/246/59 62/160/59 104/243/59
f 107/247/60 98/234/60 108/249/60
f 115/259/61 102/239/61 116/261/61
f 99/235/62 115/259/62 117/262/62
f 112/255/63 102/240/63 114/257/63
f 111/253/64 101/238/64 112/255/64
f 109/250/65 97/233/65 110/252/65
f 103/241/66 62/160/66 11/30/66
f 36/96/67 106/245/67 54/138/67
f 35/94/68 105/244/68 36/96/68
f 6/18/69 43/112/69 48/125/69
f 39/104/70 108/249/70 40/106/70
f 40/106/71 109/251/71 46/118/71
f 107/248/72 97/233/72 95/229/72
f 37/99/73 112/255/73 38/101/73
f 38/101/74 114/257/74 56/143/74
f 100/237/75 114/258/75 102/239/75
f 111/254/76 100/237/76 99/235/76
f 117/262/77 64/165/77 13/35/77
f 119/265/78 90/222/78 120/266/78
f 101/238/79 116/260/79 102/240/79
f 99/236/80 118/264/80 101/238/80
f 1/3/81 64/165/81 65/168/81
f 18/49/82 121/268/82 17/46/82
f 121/269/83 68/175/83 17/45/83
f 88/219/84 120/267/84 90/221/84
f 125/274/85 66/170/85 15/40/85
f 98/234/86 123/271/86 96/231/86
f 96/232/87 124/273/87 97/233/87
f 95/230/88 126/276/88 98/234/88
f 2/4/89 4/10/89 3/7/89
f 26/69/2 21/56/2 22/59/2
f 25/66/3 3/8/3 9/26/3
f 3/8/90 4/11/90 15/41/90
f 9/26/3 3/8/3 10/29/3
f 4/11/91 24/64/91 22/59/91
f 21/56/92 20/54/92 4/11/92
f 20/54/93 19/51/93 4/11/93
f 4/11/91 22/59/91 21/56/91
f 10/29/3 3/8/3 11/31/3
f 7/20/3 33/87/3 32/84/3
f 18/49/94 17/46/94 4/11/94
f 17/46/95 16/44/95 4/11/95
f 4/11/94 19/51/94 18/49/94
f 8/22/96 7/20/96 39/104/96
f 7/20/3 32/84/3 34/91/3
f 27/73/97 23/61/97 8/22/97
f 30/79/98 31/83/98 8/22/98
f 31/83/99 26/69/99 8/22/99
f 26/69/91 27/73/91 8/22/91
f 15/41/100 14/39/100 3/8/100
f 14/39/3 13/36/3 3/8/3
f 4/11/91 16/44/91 15/41/91
f 40/106/101 28/74/101 8/22/101
f 28/74/101 29/78/101 8/22/101
f 29/78/102 30/79/102 8/22/102
f 12/34/3 11/31/3 3/8/3
f 12/34/3 3/8/3 13/36/3
f 37/99/103 38/101/103 7/20/103
f 38/101/3 39/104/3 7/20/3
f 39/104/101 40/106/101 8/22/101
f 34/91/3 35/94/3 7/20/3
f 35/94/3 36/96/3 7/20/3
f 7/20/104 36/96/104 37/99/104
f 9/26/3 10/29/3 34/91/3
f 92/225/105 29/78/105 28/74/105
f 19/51/106 20/54/106 80/206/106
f 125/275/107 15/41/107 16/44/107
f 117/263/108 13/36/108 14/39/108
f 103/242/109 11/31/109 12/34/109
f 8/23/110 6/16/110 5/13/110
f 85/214/111 43/112/111 44/115/111
f 123/272/112 67/173/112 66/170/112
f 74/190/12 33/88/12 7/21/12
f 7/21/12 5/14/12 73/188/12
f 5/14/12 72/185/12 73/188/12
f 74/190/12 7/21/12 73/188/12
f 75/194/12 57/147/12 1/2/12
f 74/190/12 73/188/12 75/194/12
f 3/9/12 25/67/12 76/197/12
f 76/197/12 74/190/12 75/194/12
f 75/194/12 1/2/12 3/9/12
f 24/65/13 4/12/13 77/200/13
f 4/12/13 2/5/13 77/200/13
f 6/17/113 8/24/113 78/204/113
f 8/24/114 23/62/114 78/204/114
f 6/17/13 78/204/13 2/5/13
f 21/57/37 41/107/37 71/181/37
f 26/70/115 31/82/115 44/114/115
f 80/206/116 20/54/116 71/182/116
f 26/71/117 42/110/117 41/108/117
f 19/52/18 70/179/18 69/176/18
f 30/80/118 29/77/118 48/124/118
f 122/270/119 18/49/119 69/177/119
f 30/81/120 43/112/120 85/214/120
f 17/47/121 68/174/121 67/171/121
f 28/75/23 40/105/23 46/119/23
f 126/276/122 16/44/122 67/172/122
f 28/76/123 47/122/123 93/226/123
f 15/42/37 66/169/37 65/166/37
f 39/102/23 38/100/23 56/144/23
f 118/264/124 14/39/124 65/167/124
f 39/103/125 45/117/125 110/252/125
f 13/37/29 64/164/29 63/161/29
f 37/97/126 36/95/126 54/139/126
f 105/244/127 12/34/127 63/162/127
f 37/98/128 55/142/128 113/256/128
f 11/32/29 62/159/29 61/156/29
f 35/92/23 34/90/23 52/134/23
f 34/91/33 10/29/33 61/157/33
f 35/93/129 53/137/129 104/243/129
f 76/198/29 25/68/29 9/27/29
f 9/27/29 60/154/29 59/151/29
f 33/89/23 74/191/23 32/85/23
f 74/191/23 50/128/23 32/85/23
f 59/152/35 50/129/35 74/192/35
f 32/86/36 51/132/36 60/155/36
f 27/73/130 22/59/130 77/201/130
f 58/150/40 75/195/40 73/189/40
f 82/209/131 79/205/131 70/180/131
f 83/211/132 80/206/132 81/207/132
f 93/226/133 47/122/133 48/125/133
f 82/210/134 80/206/134 83/211/134
f 84/212/135 83/211/135 31/83/135
f 31/83/136 83/211/136 86/215/136
f 84/213/137 85/214/137 79/205/137
f 79/205/138 85/214/138 86/216/138
f 113/256/139 55/142/139 56/145/139
f 87/217/140 89/220/140 119/265/140
f 92/225/141 88/219/141 90/221/141
f 122/270/142 88/219/142 87/218/142
f 29/78/143 92/225/143 94/227/143
f 89/220/144 93/226/144 94/228/144
f 91/223/145 93/226/145 89/220/145
f 88/219/146 92/225/146 91/224/146
f 95/229/147 97/233/147 124/273/147
f 108/249/148 98/234/148 96/231/148
f 106/246/149 63/163/149 62/160/149
f 107/247/150 95/230/150 98/234/150
f 115/259/151 100/237/151 102/239/151
f 99/235/152 100/237/152 115/259/152
f 112/255/153 101/238/153 102/240/153
f 111/253/154 99/236/154 101/238/154
f 109/250/155 96/232/155 97/233/155
f 103/241/156 104/243/156 62/160/156
f 36/96/157 105/244/157 106/245/157
f 35/94/158 103/242/158 105/244/158
f 45/117/159 56/145/159 6/18/159
f 56/145/160 55/142/160 5/15/160
f 6/18/161 56/145/161 5/15/161
f 54/140/162 106/246/162 104/243/162
f 55/142/160 54/140/160 5/15/160
f 54/140/163 104/243/163 53/137/163
f 52/135/160 61/158/160 60/155/160
f 54/140/160 53/137/160 5/15/160
f 52/135/160 60/155/160 51/132/160
f 53/137/160 52/135/160 5/15/160
f 51/132/160 50/130/160 5/15/160
f 50/130/160 49/127/160 5/15/160
f 51/132/160 5/15/160 52/135/160
f 49/127/160 72/186/160 5/15/160
f 6/18/69 2/6/69 42/110/69
f 2/6/69 41/108/69 42/110/69
f 42/110/164 44/115/164 6/18/164
f 44/115/165 43/112/165 6/18/165
f 109/250/166 110/252/166 45/117/166
f 48/125/167 47/122/167 6/18/167
f 47/122/159 46/120/159 6/18/159
f 46/120/168 109/250/168 45/117/168
f 46/120/159 45/117/159 6/18/159
f 39/104/169 107/247/169 108/249/169
f 40/106/170 108/249/170 109/251/170
f 107/248/171 110/252/171 97/233/171
f 37/99/172 111/253/172 112/255/172
f 38/101/173 112/255/173 114/257/173
f 100/237/174 113/256/174 114/258/174
f 111/254/175 113/256/175 100/237/175
f 117/262/176 115/259/176 64/165/176
f 119/265/177 89/220/177 90/222/177
f 101/238/178 118/264/178 116/260/178
f 99/236/179 117/263/179 118/264/179
f 41/108/69 2/6/69 71/183/69
f 2/6/180 1/3/180 65/168/180
f 71/183/69 2/6/69 70/180/69
f 1/3/160 57/148/160 58/150/160
f 58/150/160 49/127/160 50/130/160
f 59/153/160 60/155/160 1/3/160
f 60/155/160 61/158/160 1/3/160
f 58/150/160 50/130/160 59/153/160
f 70/180/69 2/6/69 69/178/69
f 79/205/181 81/208/181 71/183/181
f 70/180/182 79/205/182 71/183/182
f 1/3/160 58/150/160 59/153/160
f 61/158/160 62/160/160 1/3/160
f 62/160/160 63/163/160 1/3/160
f 69/178/69 2/6/69 68/175/69
f 119/265/183 120/266/183 69/178/183
f 68/175/184 2/6/184 67/173/184
f 64/165/185 115/259/185 116/261/185
f 1/3/160 63/163/160 64/165/160
f 68/175/186 119/265/186 69/178/186
f 65/168/69 66/170/69 2/6/69
f 66/170/187 67/173/187 2/6/187
f 64/165/188 116/261/188 65/168/188
f 18/49/189 122/270/189 121/268/189
f 121/269/190 119/265/190 68/175/190
f 88/219/191 122/270/191 120/267/191
f 125/274/192 124/273/192 66/170/192
f 98/234/193 126/276/193 123/271/193
f 96/232/194 123/272/194 124/273/194
f 95/230/195 125/275/195 126/276/195
