# Blender 3.3.1
# www.blender.org
o Vent_Grate.003
v 0.058935 0.210608 -7.192719
v 0.152763 0.788692 -7.498679
v 0.057573 0.192232 -7.215927
v 0.150116 0.780006 -7.526887
v 0.698918 0.124957 -7.162454
v 0.788512 0.674433 -7.523150
v 0.697556 0.106581 -7.185661
v 0.782043 0.655044 -7.591216
v 0.083147 0.236743 -7.252672
v 0.087042 0.259417 -7.270854
v 0.095642 0.309488 -7.311006
v 0.098725 0.327439 -7.325400
v 0.107325 0.377510 -7.365551
v 0.109597 0.390737 -7.376158
v 0.115287 0.464561 -7.426489
v 0.117975 0.480634 -7.431691
v 0.124330 0.530774 -7.491237
v 0.127018 0.546847 -7.496439
v 0.137195 0.607691 -7.516128
v 0.158245 0.661896 -7.521641
v 0.154268 0.697606 -7.501904
v 0.157448 0.716621 -7.508058
v 0.754368 0.671408 -7.550146
v 0.167527 0.776877 -7.527557
v 0.075099 0.189887 -7.215098
v 0.737286 0.581434 -7.564351
v 0.740467 0.600449 -7.570504
v 0.719818 0.425044 -7.439129
v 0.722090 0.438271 -7.449736
v 0.727859 0.512925 -7.498859
v 0.730932 0.531294 -7.504804
v 0.673897 0.157680 -7.224734
v 0.665849 0.110824 -7.187160
v 0.677791 0.180355 -7.242917
v 0.686391 0.230426 -7.283068
v 0.689475 0.248377 -7.297462
v 0.709612 0.310523 -7.331772
v 0.700346 0.311675 -7.348220
v 0.708946 0.361746 -7.388371
v 0.711218 0.374973 -7.398978
v 0.165677 0.758677 -7.490649
v 0.752518 0.653208 -7.513237
v 0.739268 0.573996 -7.487604
v 0.738518 0.581662 -7.533405
v 0.717713 0.423232 -7.399734
v 0.719985 0.436459 -7.410340
v 0.728585 0.486530 -7.450491
v 0.729091 0.513153 -7.467914
v 0.669293 0.141322 -7.173673
v 0.674063 0.169096 -7.195945
v 0.682663 0.219167 -7.236096
v 0.686558 0.241841 -7.254278
v 0.695158 0.291912 -7.294429
v 0.698241 0.309863 -7.308824
v 0.706841 0.359934 -7.348975
v 0.709113 0.373161 -7.359582
v 0.076461 0.208263 -7.191891
v 0.078543 0.220384 -7.201611
v 0.083313 0.248158 -7.223882
v 0.091913 0.298229 -7.264033
v 0.095808 0.320904 -7.282216
v 0.104408 0.370974 -7.322367
v 0.107491 0.388925 -7.336762
v 0.116091 0.438996 -7.376913
v 0.116519 0.464789 -7.395544
v 0.126696 0.525632 -7.415234
v 0.125562 0.531002 -7.460292
v 0.139561 0.602548 -7.440124
v 0.142250 0.618621 -7.445326
v 0.152427 0.679465 -7.465015
v 0.155500 0.697834 -7.470960
v 0.667211 0.129200 -7.163953
v 0.666395 0.118184 -7.177866
v 0.665929 0.111902 -7.185800
v 0.075645 0.197247 -7.205803
v 0.075179 0.190964 -7.213737
v 0.169922 0.784736 -7.502035
v 0.756763 0.679267 -7.524623
v 0.421590 0.601679 -7.517284
v 0.399666 0.608974 -7.535725
v 0.421256 0.629552 -7.544506
v 0.399384 0.565998 -7.522563
v 0.581093 0.552590 -7.532527
v 0.582216 0.544378 -7.490060
v 0.596612 0.609458 -7.468655
v 0.591877 0.607816 -7.530566
v 0.392979 0.509471 -7.470384
v 0.441620 0.506336 -7.478318
v 0.426404 0.538468 -7.481320
v 0.436353 0.538260 -7.488864
v 0.572976 0.447447 -7.445230
v 0.579271 0.458486 -7.450198
v 0.584254 0.519409 -7.461494
v 0.583099 0.534304 -7.474102
v 0.412087 0.392667 -7.402439
v 0.421964 0.459721 -7.430815
v 0.418917 0.447803 -7.424766
v 0.412758 0.402157 -7.409886
v 0.400861 0.318442 -7.339018
v 0.397965 0.346555 -7.355967
v 0.400901 0.333584 -7.354247
v 0.403344 0.355068 -7.367069
v 0.388615 0.255587 -7.281264
v 0.386470 0.272312 -7.292175
v 0.394519 0.274791 -7.298516
v 0.359203 0.295717 -7.308034
v 0.563843 0.389524 -7.392142
v 0.566218 0.401868 -7.402613
v 0.573651 0.451523 -7.420936
v 0.571550 0.435691 -7.415056
v 0.560383 0.320309 -7.342999
v 0.561607 0.331626 -7.354513
v 0.525680 0.350038 -7.363401
v 0.539699 0.352999 -7.370778
v 0.248413 0.379604 -7.367388
v 0.252065 0.387427 -7.375334
v 0.251112 0.353754 -7.348278
v 0.252557 0.366999 -7.361101
v 0.261194 0.569602 -7.488236
v 0.263401 0.576960 -7.520457
v 0.259457 0.514628 -7.458392
v 0.257168 0.520064 -7.504888
v 0.264063 0.495477 -7.431025
v 0.239403 0.469521 -7.408144
v 0.261848 0.407921 -7.393807
v 0.264258 0.425847 -7.408571
vn -0.9897 0.1349 -0.0487
vn -0.1573 -0.2802 -0.9470
vn -0.0460 -0.6201 -0.7832
vn -0.0229 -0.3995 -0.9165
vn -0.0698 -0.2917 -0.9540
vn -0.1109 -0.6229 -0.7744
vn -0.0392 -0.6928 -0.7200
vn -0.0491 -0.6591 -0.7505
vn 0.9916 -0.1235 0.0396
vn 0.1747 0.9838 -0.0395
vn 0.2103 0.5264 0.8238
vn -0.1328 -0.7732 0.6201
vn 0.1572 0.9396 -0.3041
vn 0.9903 0.1326 -0.0404
vn -0.9826 0.1816 0.0378
vn -0.2896 -0.1022 -0.9517
vn 0.0664 -0.1928 0.9790
vn 0.9831 -0.1782 -0.0427
vn -0.9835 0.1768 0.0379
vn -0.5596 -0.1612 -0.8130
vn -0.0096 -0.3105 0.9505
vn 0.9847 -0.1699 -0.0380
vn -0.9901 0.1325 -0.0468
vn 0.1216 -0.3043 -0.9448
vn -0.0067 0.2214 0.9751
vn 0.9939 -0.1031 -0.0388
vn -0.2019 -0.5632 -0.8013
vn 0.0601 0.4357 0.8981
vn 0.9901 -0.1325 0.0468
vn -0.8752 -0.2021 -0.4395
vn -0.1178 -0.5690 -0.8138
vn -0.0275 0.5436 0.8389
vn 0.0218 -0.1847 -0.9826
vn 0.0515 0.5503 0.8334
vn 0.0227 -0.1777 -0.9838
vn -0.0218 0.1847 0.9826
vn 0.9835 -0.1768 -0.0379
vn -0.9826 0.1821 0.0361
vn 0.0553 0.4937 -0.8678
vn -0.0692 -0.1695 0.9831
vn -0.0703 -0.5687 0.8195
vn 0.0838 0.0190 -0.9963
vn 0.0616 0.6476 0.7595
vn -0.0825 -0.9789 -0.1871
vn -0.1195 -0.2875 -0.9503
vn -0.1024 -0.4795 -0.8715
vn -0.1788 -0.0342 0.9833
vn 0.0306 0.6986 0.7149
vn -0.1267 0.9801 0.1525
vn 0.0969 0.4725 0.8760
vn 0.0873 -0.3035 -0.9488
vn -0.0485 -0.9923 -0.1136
vn 0.0069 -0.2365 -0.9716
vn 0.0262 0.9996 0.0070
vn -0.0065 0.3595 0.9331
vn -0.1561 -0.7251 -0.6707
vn 0.0812 0.2539 0.9638
vn 0.0419 -0.3514 -0.9353
vn 0.1584 0.6736 0.7219
vn 0.0347 -0.6504 -0.7588
vn 0.1068 0.6835 0.7221
vn 0.0918 0.5981 0.7961
vn -0.0307 -0.6251 -0.7800
vn -0.0098 -0.7126 -0.7015
vn -0.0316 0.3517 0.9356
vn -0.0645 0.1902 0.9796
vn 0.0053 -0.1824 -0.9832
vn -0.0527 -0.6192 -0.7835
vn 0.0893 0.2931 0.9519
vn -0.0940 -0.6129 -0.7845
vn 0.0516 -0.1886 -0.9807
vn -0.0548 0.3806 0.9231
vn -0.1428 -0.9897 0.0112
vn 0.0876 -0.1931 -0.9773
vn 0.0287 0.7865 0.6169
vn 0.0153 0.5174 0.8556
vn -0.0856 0.1928 0.9775
vn 0.1722 0.9577 0.2305
vn -0.0613 -0.5064 -0.8601
vn -0.1261 -0.7033 -0.6996
vn 0.2810 0.5589 0.7802
vn 0.1854 -0.3305 -0.9254
vn -0.2598 -0.5230 0.8118
vn 0.1072 -0.2959 -0.9492
vn -0.2625 -0.1273 0.9565
vn -0.0736 -0.3304 -0.9410
vn 0.1340 0.4211 0.8971
vn -0.1042 -0.6094 -0.7860
vn -0.9838 0.1752 0.0384
vn -0.9753 0.0384 -0.2176
vn -0.0893 -0.2931 -0.9519
vn 0.9949 0.0716 0.0709
vn -0.1242 -0.0526 -0.9909
vn -0.9417 0.0498 -0.3327
vn -0.9948 0.0998 -0.0222
vn 0.3628 -0.5895 -0.7217
vn -0.7228 0.3177 -0.6137
vn -0.8356 -0.0376 -0.5481
vn 0.7041 -0.5784 -0.4119
vn -0.4976 -0.4621 -0.7340
vn 0.7013 -0.5154 -0.4925
vn 0.0224 -0.5508 -0.8344
vn -0.7920 0.3858 0.4732
vn 0.7012 -0.5154 -0.4925
vn 0.4440 -0.5390 -0.7157
vn -0.0844 -0.6145 -0.7844
vn -0.0739 -0.0725 -0.9946
vn 0.0868 -0.3198 -0.9435
vn -0.0094 -0.6246 -0.7809
vn -0.0349 -0.6216 -0.7826
vn 0.9816 -0.1864 -0.0402
vn 0.2577 0.9536 0.1554
vn 0.2251 0.9681 0.1097
vn 0.1572 0.9457 -0.2843
vn 0.1117 0.9467 -0.3020
vn -0.9847 0.1699 0.0380
vn 0.1447 0.8108 -0.5671
vn -0.0707 -0.5686 0.8195
vn -0.9940 0.1024 0.0388
vn 0.0641 0.5698 -0.8193
vn 0.0813 -0.1953 0.9774
vn 0.9826 -0.1816 -0.0378
vn -0.0451 -0.4882 -0.8716
vn -0.0325 0.1861 0.9820
vn 0.0587 -0.2580 -0.9644
vn -0.0860 0.1929 0.9774
vn -0.8956 0.0459 -0.4425
vn 0.0555 -0.1891 -0.9804
vn -0.0926 0.3228 0.9419
vn -0.0044 0.1823 0.9832
vn -0.0856 0.1033 -0.9910
vn 0.1242 -0.2204 0.9675
vn -0.0819 -0.3172 -0.9448
vn 0.0606 0.5458 0.8357
vn -0.0738 -0.2916 -0.9537
vn -0.1044 -0.9770 -0.1862
vn 0.1819 -0.0006 -0.9833
vn -0.2486 -0.2526 0.9351
vn -0.0378 0.9990 -0.0236
vn -0.0958 0.6327 0.7685
vn 0.0226 0.3298 0.9438
vn 0.0901 -0.2990 -0.9500
vn -0.0695 -0.9971 -0.0324
vn -0.0392 -0.2987 -0.9536
vn -0.0180 0.6452 0.7638
vn -0.0934 0.2334 0.9679
vn 0.0361 -0.4272 -0.9034
vn 0.1290 0.3584 0.9246
vn 0.0437 -0.3475 -0.9366
vn 0.1348 0.6057 0.7842
vn 0.0404 -0.6186 -0.7847
vn 0.1189 0.7593 0.6398
vn 0.0496 0.5194 0.8531
vn -0.0077 -0.5119 -0.8590
vn -0.0093 -0.7091 -0.7051
vn -0.0330 0.4591 0.8878
vn 0.1049 0.5528 0.8267
vn -0.0387 -0.4671 -0.8834
vn -0.0600 -0.6568 -0.7517
vn -0.8660 0.3949 0.3069
vn 0.0460 0.6201 0.7832
vn -0.6541 0.4867 0.5790
vn -0.0207 0.5442 0.8387
vn -0.0343 0.6288 0.7768
vn 0.4229 -0.3216 0.8472
vn -0.8808 0.4645 0.0922
vn -0.0675 0.3552 0.9323
vn -0.5955 0.4478 0.6670
vn 0.0078 0.6248 0.7808
vn -0.8659 0.3949 0.3069
vn -0.1011 -0.6322 -0.7682
vn -0.0396 -0.3407 -0.9393
vn -0.0214 0.4473 0.8941
vn 0.0059 -0.7135 -0.7007
vn -0.0575 -0.6413 -0.7652
vn -0.0041 0.9307 0.3657
vn 0.0309 0.5898 0.8069
vn 0.2114 0.5952 0.7753
vn 0.1732 0.9640 0.2019
vn -0.0909 -0.5708 -0.8161
vn -0.1168 -0.6842 -0.7199
vn 0.9720 -0.0348 0.2324
vn 0.3531 0.6558 0.6672
vn 0.2556 0.2587 0.9315
vn 0.4403 0.8683 0.2284
vn -0.9702 0.1326 0.2029
vn 0.2331 0.6372 0.7346
vn 0.4095 0.2182 0.8858
vn 0.9931 -0.1105 -0.0382
vn 0.2072 0.5706 0.7947
vn -0.2069 -0.9729 -0.1035
vn 0.4299 0.4202 0.7991
vn 0.1171 -0.2740 -0.9546
vn 0.0626 0.2478 0.9668
vn -0.0573 -0.3066 -0.9501
vn 0.1309 0.5827 0.8021
vn -0.1078 -0.6233 -0.7745
vt -0.717005 1.147941
vt -0.661547 1.147942
vt 1.450127 -0.070911
vt -0.717005 2.383491
vt -0.717005 2.366795
vt 0.269326 -0.070911
vt -0.772602 1.147941
vt -0.934631 -0.070911
vt -0.606090 1.147942
vt -0.772602 2.383491
vt 0.256987 -0.070911
vt -0.661547 2.366795
vt -0.828200 1.147941
vt -0.661547 2.366795
vt 1.450127 1.147942
vt -0.828200 2.383491
vt -0.717005 1.147942
vt 0.269326 1.147942
vt -0.772602 1.147941
vt -0.934631 1.147941
vt -0.606090 2.366795
vt 0.256987 1.147942
vt -0.772603 2.383491
vt -0.661547 1.147942
vt 1.356634 -0.037532
vt -0.824707 -0.037532
vt 0.116673 1.252805
vt -0.550492 1.147941
vt -0.771513 -0.037532
vt 1.187524 -0.037532
vt -0.654048 -0.037532
vt -0.550492 1.269737
vt 0.005479 1.374601
vt -0.611935 -0.037532
vt 1.029395 -0.037532
vt -0.494470 -0.037532
vt 0.005479 1.252805
vt -0.494895 1.147941
vt -0.463439 -0.037532
vt 0.882247 -0.037532
vt -0.345975 -0.037532
vt -0.494895 1.269737
vt -0.105715 1.374601
vt -0.314943 -0.037532
vt 0.735100 -0.037532
vt -0.197478 -0.037532
vt -0.105715 1.252805
vt -0.494895 1.374601
vt -0.166447 -0.037532
vt 0.587952 -0.037532
vt -0.048983 -0.037532
vt -0.494895 1.252806
vt -0.272507 1.374601
vt -0.013519 -0.037532
vt 0.436412 -0.037532
vt 0.103947 -0.037532
vt -0.272507 1.252806
vt 0.222575 1.147942
vt 0.140656 -0.037532
vt 0.222575 1.259183
vt 0.256987 1.087555
vt -0.661547 1.208327
vt 0.222575 1.268561
vt 0.256987 -0.037532
vt -0.661547 2.333415
vt -0.934631 -0.037532
vt -0.606090 1.181321
vt 0.116673 1.366781
vt 0.103947 1.087555
vt -0.383701 1.269737
vt 0.436412 1.087555
vt 0.268970 1.147941
vt 0.140656 1.087555
vt -0.197478 1.087555
vt -0.216910 1.269737
vt 0.735100 1.087555
vt -0.439298 1.147941
vt -0.166447 1.087555
vt -0.048983 1.087555
vt -0.439298 1.269737
vt 0.587952 1.087555
vt -0.383701 1.147941
vt -0.013519 1.087555
vt -0.824707 1.087555
vt 0.061076 1.261916
vt 1.356634 1.087555
vt -0.934631 1.087555
vt -0.606090 2.306408
vt 0.061076 1.147941
vt -0.272507 1.374601
vt -0.771513 1.087555
vt -0.272507 1.252805
vt 1.187524 1.087555
vt -0.654048 1.087555
vt -0.050118 1.147941
vt -0.611935 1.087555
vt -0.050118 1.269737
vt 1.029395 1.087555
vt -0.494470 1.087555
vt -0.105715 1.374601
vt -0.463439 1.087555
vt -0.105715 1.252805
vt 0.882247 1.087555
vt -0.345975 1.087555
vt -0.216910 1.147941
vt -0.314943 1.087555
vt -0.216910 1.147942
vt 0.320761 -0.037532
vt -0.328104 1.374600
vt 0.320761 1.087555
vt -0.383701 1.374601
vt 0.472301 1.087555
vt 0.101253 1.087555
vt -0.328104 1.252806
vt 0.437159 1.087555
vt -0.161312 1.147941
vt 0.766597 1.087555
vt -0.200171 1.087555
vt -0.161312 1.252805
vt 0.735847 1.087555
vt -0.161312 1.374601
vt 0.619449 1.087555
vt -0.051675 1.087555
vt -0.383701 1.252805
vt 0.588699 1.087555
vt 0.291349 1.147941
vt 1.421947 1.087555
vt 0.116673 1.244985
vt -0.934631 1.147941
vt 1.357382 1.087555
vt 0.116673 1.366781
vt 1.240984 1.087555
vt -0.656741 1.087555
vt -0.328104 1.269737
vt 1.188271 1.087555
vt -0.328104 1.147941
vt 1.071873 1.087555
vt -0.497163 1.087555
vt 0.005479 1.252805
vt 1.030142 1.087555
vt 0.005479 1.374601
vt 0.913744 1.087555
vt -0.348667 1.087555
vt -0.161312 1.269737
vt 0.882995 1.087555
vt 0.291347 1.173084
vt -0.661547 1.181321
vt 1.450127 -0.037532
vt 0.313370 1.192566
vt 1.421947 -0.037532
vt 0.172270 1.269737
vt -0.934631 2.273027
vt 1.357382 -0.037532
vt 0.172270 1.147941
vt 1.240984 -0.037532
vt -0.606090 1.252805
vt -0.656741 -0.037532
vt 1.188271 -0.037532
vt -0.606090 1.374600
vt 1.071873 -0.037532
vt 0.061076 1.269737
vt -0.497162 -0.037532
vt 1.030142 -0.037532
vt 0.061076 1.147941
vt 0.913744 -0.037532
vt -0.550492 1.252805
vt -0.348667 -0.037532
vt 0.882995 -0.037532
vt -0.550492 1.374601
vt 0.766597 -0.037532
vt -0.050118 1.269737
vt -0.200171 -0.037532
vt 0.735847 -0.037532
vt -0.050118 1.147941
vt 0.619449 -0.037532
vt -0.439298 1.269738
vt -0.051675 -0.037532
vt 0.588699 -0.037532
vt -0.439298 1.147942
vt 0.472301 -0.037532
vt -0.216910 1.269738
vt 0.101253 -0.037532
vt 0.437159 -0.037532
vt 0.269326 1.167422
vt -0.661547 2.306408
vt 1.450127 1.087555
vt 0.291349 1.192566
vt -0.628302 2.306408
vt 1.459378 1.087555
vt -0.609343 2.306408
vt 0.064337 1.147941
vt -0.828199 1.147941
vt 0.313370 1.147941
vt -0.628302 1.181321
vt 1.459378 -0.037532
vt -0.828199 2.273027
vt -0.609343 1.181321
vt 0.119935 1.366781
vt 0.172271 1.268561
vt -0.711726 2.333415
vt 0.269326 -0.037532
vt 0.268970 1.278727
vt 0.269326 1.087555
vt -0.711726 1.208327
vt 0.472301 0.525011
vt -0.013519 0.525012
vt 0.101253 0.525012
vt 0.437159 0.525011
vt 0.587952 0.525011
vt -0.048983 0.525012
vt -0.013519 0.806284
vt -0.048983 0.806284
vt 0.587952 0.806284
vt 0.472301 0.806284
vt 0.101253 0.806284
vt 0.437159 0.806284
vt 0.735100 0.525011
vt -0.197478 0.525011
vt -0.166447 0.525012
vt 0.619449 0.525011
vt -0.051675 0.525012
vt 0.588699 0.525011
vt 0.735100 0.806284
vt -0.197478 0.806284
vt -0.166447 0.806284
vt 0.619449 0.806284
vt -0.051675 0.806284
vt 0.588699 0.806284
vt 0.882247 0.525011
vt -0.345975 0.525011
vt -0.200171 0.525011
vt 0.735847 0.525011
vt 0.766597 0.525011
vt -0.314943 0.525011
vt 1.029395 0.525011
vt -0.494470 0.525011
vt 0.913744 0.525011
vt -0.463439 0.525011
vt 0.882995 0.525011
vt -0.348667 0.525011
vt 1.187524 0.525011
vt -0.654048 0.525011
vt 1.071873 0.525011
vt -0.611935 0.525011
vt -0.497162 0.525011
vt 1.030142 0.525011
vt -0.345975 0.806284
vt 0.882247 0.806284
vt -0.314943 0.806284
vt 0.735847 0.806284
vt -0.200171 0.806284
vt 0.766597 0.806284
vt -0.494470 0.806284
vt 1.029395 0.806284
vt -0.463439 0.806284
vt 0.913744 0.806284
vt -0.348667 0.806284
vt 0.882995 0.806284
vt 0.913744 0.243740
vt -0.348667 0.243740
vt 0.882995 0.243740
vt 1.029395 0.243740
vt -0.494470 0.243740
vt -0.463439 0.243740
vt 0.619449 0.243740
vt 0.588699 0.243740
vt -0.051675 0.243740
vt -0.197478 0.243740
vt 0.735100 0.243740
vt -0.166447 0.243740
vt -0.200171 0.243740
vt 0.735847 0.243740
vt 0.766597 0.243740
vt 0.882247 0.243740
vt -0.345975 0.243740
vt -0.314943 0.243740
s 0
f 2/4/1 3/7/1 1/1/1
f 26/69/2 22/59/2 27/73/2
f 32/84/3 9/26/3 34/91/3
f 92/225/4 28/74/4 91/224/4
f 19/51/5 80/206/5 82/210/5
f 125/275/6 16/44/6 126/276/6
f 117/263/7 14/39/7 118/264/7
f 103/242/8 12/34/8 105/244/8
f 8/23/9 5/13/9 7/19/9
f 85/214/10 44/115/10 86/216/10
f 123/272/11 66/170/11 124/273/11
f 75/194/12 3/9/12 76/197/12
f 78/204/13 77/200/13 2/5/13
f 21/57/14 71/181/14 20/53/14
f 26/70/15 44/114/15 42/109/15
f 80/206/16 71/182/16 81/207/16
f 26/71/17 41/108/17 21/55/17
f 19/52/18 69/176/18 18/48/18
f 30/80/19 48/124/19 43/111/19
f 122/270/20 69/177/20 120/267/20
f 30/81/21 85/214/21 84/213/21
f 17/47/22 67/171/22 16/43/22
f 28/75/23 46/119/23 47/121/23
f 126/276/24 67/172/24 123/271/24
f 28/76/25 93/226/25 91/223/25
f 15/42/26 65/166/26 14/38/26
f 39/102/23 56/144/23 45/116/23
f 118/264/27 65/167/27 116/260/27
f 39/103/28 110/252/28 107/248/28
f 13/37/29 63/161/29 12/33/29
f 37/97/30 54/139/30 55/141/30
f 105/244/31 63/162/31 106/245/31
f 37/98/32 113/256/32 111/254/32
f 11/32/29 61/156/29 10/28/29
f 35/92/23 52/134/23 53/136/23
f 34/91/33 61/157/33 52/133/33
f 35/93/34 104/243/34 103/241/34
f 9/27/29 59/151/29 76/198/29
f 50/128/23 51/131/23 32/85/23
f 59/152/35 74/192/35 76/196/35
f 32/86/36 60/155/36 9/25/36
f 77/199/37 22/58/37 24/63/37
f 23/60/38 27/72/38 78/202/38
f 27/73/39 77/201/39 78/203/39
f 75/193/29 58/149/29 57/146/29
f 49/126/23 73/187/23 72/184/23
f 58/150/40 73/189/40 49/127/40
f 82/209/41 70/180/41 19/50/41
f 83/211/42 81/207/42 86/215/42
f 93/226/43 48/125/43 94/228/43
f 82/210/44 83/211/44 84/212/44
f 84/212/45 31/83/45 30/79/45
f 31/83/46 86/215/46 44/113/46
f 84/213/47 79/205/47 82/209/47
f 79/205/48 86/216/48 81/208/48
f 113/256/49 56/145/49 114/258/49
f 87/217/50 119/265/50 121/269/50
f 92/225/51 90/221/51 94/227/51
f 122/270/52 87/218/52 121/268/52
f 29/78/53 94/227/53 48/123/53
f 89/220/54 94/228/54 90/222/54
f 91/223/55 89/220/55 87/217/55
f 88/219/56 91/224/56 87/218/56
f 95/229/57 124/273/57 125/274/57
f 108/249/58 96/231/58 109/251/58
f 106/246/59 62/160/59 104/243/59
f 107/247/60 98/234/60 108/249/60
f 115/259/61 102/239/61 116/261/61
f 99/235/62 115/259/62 117/262/62
f 112/255/63 102/240/63 114/257/63
f 111/253/64 101/238/64 112/255/64
f 109/250/65 97/233/65 110/252/65
f 103/241/66 62/160/66 11/30/66
f 36/96/67 106/245/67 54/138/67
f 35/94/68 105/244/68 36/96/68
f 6/18/69 43/112/69 48/125/69
f 39/104/70 108/249/70 40/106/70
f 40/106/71 109/251/71 46/118/71
f 107/248/72 97/233/72 95/229/72
f 37/99/73 112/255/73 38/101/73
f 38/101/74 114/257/74 56/143/74
f 100/237/75 114/258/75 102/239/75
f 111/254/76 100/237/76 99/235/76
f 117/262/77 64/165/77 13/35/77
f 119/265/78 90/222/78 120/266/78
f 101/238/79 116/260/79 102/240/79
f 99/236/80 118/264/80 101/238/80
f 1/3/81 64/165/81 65/168/81
f 18/49/82 121/268/82 17/46/82
f 121/269/83 68/175/83 17/45/83
f 88/219/84 120/267/84 90/221/84
f 125/274/85 66/170/85 15/40/85
f 98/234/86 123/271/86 96/231/86
f 96/232/87 124/273/87 97/233/87
f 95/230/88 126/276/88 98/234/88
f 2/4/89 4/10/89 3/7/89
f 26/69/2 21/56/2 22/59/2
f 25/66/3 3/8/3 9/26/3
f 3/8/90 4/11/90 15/41/90
f 9/26/3 3/8/3 10/29/3
f 4/11/91 24/64/91 22/59/91
f 21/56/92 20/54/92 4/11/92
f 20/54/93 19/51/93 4/11/93
f 4/11/91 22/59/91 21/56/91
f 10/29/3 3/8/3 11/31/3
f 7/20/3 33/87/3 32/84/3
f 18/49/94 17/46/94 4/11/94
f 17/46/95 16/44/95 4/11/95
f 4/11/94 19/51/94 18/49/94
f 8/22/96 7/20/96 39/104/96
f 7/20/3 32/84/3 34/91/3
f 27/73/97 23/61/97 8/22/97
f 30/79/98 31/83/98 8/22/98
f 31/83/99 26/69/99 8/22/99
f 26/69/91 27/73/91 8/22/91
f 15/41/100 14/39/100 3/8/100
f 14/39/3 13/36/3 3/8/3
f 4/11/91 16/44/91 15/41/91
f 40/106/101 28/74/101 8/22/101
f 28/74/101 29/78/101 8/22/101
f 29/78/102 30/79/102 8/22/102
f 12/34/3 11/31/3 3/8/3
f 12/34/3 3/8/3 13/36/3
f 37/99/103 38/101/103 7/20/103
f 38/101/3 39/104/3 7/20/3
f 39/104/104 40/106/104 8/22/104
f 34/91/3 35/94/3 7/20/3
f 35/94/3 36/96/3 7/20/3
f 7/20/105 36/96/105 37/99/105
f 9/26/3 10/29/3 34/91/3
f 92/225/106 29/78/106 28/74/106
f 19/51/107 20/54/107 80/206/107
f 125/275/108 15/41/108 16/44/108
f 117/263/109 13/36/109 14/39/109
f 103/242/110 11/31/110 12/34/110
f 8/23/111 6/16/111 5/13/111
f 85/214/112 43/112/112 44/115/112
f 123/272/113 67/173/113 66/170/113
f 74/190/12 33/88/12 7/21/12
f 7/21/12 5/14/12 73/188/12
f 5/14/12 72/185/12 73/188/12
f 74/190/12 7/21/12 73/188/12
f 75/194/12 57/147/12 1/2/12
f 74/190/12 73/188/12 75/194/12
f 3/9/12 25/67/12 76/197/12
f 76/197/12 74/190/12 75/194/12
f 75/194/12 1/2/12 3/9/12
f 24/65/13 4/12/13 77/200/13
f 4/12/13 2/5/13 77/200/13
f 6/17/114 8/24/114 78/204/114
f 8/24/115 23/62/115 78/204/115
f 6/17/13 78/204/13 2/5/13
f 21/57/37 41/107/37 71/181/37
f 26/70/116 31/82/116 44/114/116
f 80/206/117 20/54/117 71/182/117
f 26/71/118 42/110/118 41/108/118
f 19/52/18 70/179/18 69/176/18
f 30/80/119 29/77/119 48/124/119
f 122/270/120 18/49/120 69/177/120
f 30/81/121 43/112/121 85/214/121
f 17/47/122 68/174/122 67/171/122
f 28/75/23 40/105/23 46/119/23
f 126/276/123 16/44/123 67/172/123
f 28/76/124 47/122/124 93/226/124
f 15/42/37 66/169/37 65/166/37
f 39/102/23 38/100/23 56/144/23
f 118/264/125 14/39/125 65/167/125
f 39/103/126 45/117/126 110/252/126
f 13/37/29 64/164/29 63/161/29
f 37/97/127 36/95/127 54/139/127
f 105/244/128 12/34/128 63/162/128
f 37/98/129 55/142/129 113/256/129
f 11/32/29 62/159/29 61/156/29
f 35/92/23 34/90/23 52/134/23
f 34/91/33 10/29/33 61/157/33
f 35/93/130 53/137/130 104/243/130
f 76/198/29 25/68/29 9/27/29
f 9/27/29 60/154/29 59/151/29
f 33/89/23 74/191/23 32/85/23
f 74/191/23 50/128/23 32/85/23
f 59/152/35 50/129/35 74/192/35
f 32/86/36 51/132/36 60/155/36
f 27/73/131 22/59/131 77/201/131
f 58/150/40 75/195/40 73/189/40
f 82/209/132 79/205/132 70/180/132
f 83/211/133 80/206/133 81/207/133
f 93/226/134 47/122/134 48/125/134
f 82/210/135 80/206/135 83/211/135
f 84/212/136 83/211/136 31/83/136
f 31/83/137 83/211/137 86/215/137
f 84/213/138 85/214/138 79/205/138
f 79/205/139 85/214/139 86/216/139
f 113/256/140 55/142/140 56/145/140
f 87/217/141 89/220/141 119/265/141
f 92/225/142 88/219/142 90/221/142
f 122/270/143 88/219/143 87/218/143
f 29/78/144 92/225/144 94/227/144
f 89/220/145 93/226/145 94/228/145
f 91/223/146 93/226/146 89/220/146
f 88/219/147 92/225/147 91/224/147
f 95/229/148 97/233/148 124/273/148
f 108/249/149 98/234/149 96/231/149
f 106/246/150 63/163/150 62/160/150
f 107/247/151 95/230/151 98/234/151
f 115/259/152 100/237/152 102/239/152
f 99/235/153 100/237/153 115/259/153
f 112/255/154 101/238/154 102/240/154
f 111/253/155 99/236/155 101/238/155
f 109/250/156 96/232/156 97/233/156
f 103/241/157 104/243/157 62/160/157
f 36/96/158 105/244/158 106/245/158
f 35/94/159 103/242/159 105/244/159
f 45/117/160 56/145/160 6/18/160
f 56/145/161 55/142/161 5/15/161
f 6/18/162 56/145/162 5/15/162
f 54/140/163 106/246/163 104/243/163
f 55/142/161 54/140/161 5/15/161
f 54/140/164 104/243/164 53/137/164
f 52/135/161 61/158/161 60/155/161
f 54/140/161 53/137/161 5/15/161
f 52/135/161 60/155/161 51/132/161
f 53/137/161 52/135/161 5/15/161
f 51/132/161 50/130/161 5/15/161
f 50/130/161 49/127/161 5/15/161
f 51/132/161 5/15/161 52/135/161
f 49/127/161 72/186/161 5/15/161
f 6/18/69 2/6/69 42/110/69
f 2/6/69 41/108/69 42/110/69
f 42/110/165 44/115/165 6/18/165
f 44/115/166 43/112/166 6/18/166
f 109/250/167 110/252/167 45/117/167
f 48/125/168 47/122/168 6/18/168
f 47/122/160 46/120/160 6/18/160
f 46/120/169 109/250/169 45/117/169
f 46/120/170 45/117/170 6/18/170
f 39/104/171 107/247/171 108/249/171
f 40/106/172 108/249/172 109/251/172
f 107/248/173 110/252/173 97/233/173
f 37/99/174 111/253/174 112/255/174
f 38/101/175 112/255/175 114/257/175
f 100/237/176 113/256/176 114/258/176
f 111/254/177 113/256/177 100/237/177
f 117/262/178 115/259/178 64/165/178
f 119/265/179 89/220/179 90/222/179
f 101/238/180 118/264/180 116/260/180
f 99/236/181 117/263/181 118/264/181
f 41/108/69 2/6/69 71/183/69
f 2/6/182 1/3/182 65/168/182
f 71/183/69 2/6/69 70/180/69
f 1/3/161 57/148/161 58/150/161
f 58/150/161 49/127/161 50/130/161
f 59/153/161 60/155/161 1/3/161
f 60/155/161 61/158/161 1/3/161
f 58/150/161 50/130/161 59/153/161
f 70/180/69 2/6/69 69/178/69
f 79/205/183 81/208/183 71/183/183
f 70/180/184 79/205/184 71/183/184
f 1/3/161 58/150/161 59/153/161
f 61/158/161 62/160/161 1/3/161
f 62/160/161 63/163/161 1/3/161
f 69/178/69 2/6/69 68/175/69
f 119/265/185 120/266/185 69/178/185
f 68/175/186 2/6/186 67/173/186
f 64/165/187 115/259/187 116/261/187
f 1/3/161 63/163/161 64/165/161
f 68/175/188 119/265/188 69/178/188
f 65/168/69 66/170/69 2/6/69
f 66/170/189 67/173/189 2/6/189
f 64/165/190 116/261/190 65/168/190
f 18/49/191 122/270/191 121/268/191
f 121/269/192 119/265/192 68/175/192
f 88/219/193 122/270/193 120/267/193
f 125/274/194 124/273/194 66/170/194
f 98/234/195 126/276/195 123/271/195
f 96/232/196 123/272/196 124/273/196
f 95/230/197 125/275/197 126/276/197
