# Blender 3.3.1
# www.blender.org
o Vent_Grate.003
v 0.436903 0.089916 -8.096917
v 0.103760 0.369127 -7.599271
v 0.429694 0.108025 -8.119238
v 0.088984 0.390063 -7.614154
v 0.948030 0.461401 -7.960615
v 0.591427 0.782192 -7.502378
v 0.940821 0.479510 -7.982936
v 0.555105 0.832605 -7.536874
v 0.409651 0.151182 -8.077752
v 0.393178 0.167143 -8.059482
v 0.356803 0.202390 -8.019138
v 0.343761 0.215026 -8.004674
v 0.307386 0.250273 -7.964330
v 0.297776 0.259584 -7.953672
v 0.244222 0.300268 -7.894576
v 0.236920 0.305471 -7.880008
v 0.187733 0.354645 -7.844473
v 0.180431 0.359849 -7.829905
v 0.152790 0.379546 -7.774757
v 0.143712 0.394949 -7.719151
v 0.138351 0.375712 -7.683350
v 0.129713 0.381868 -7.666115
v 0.552491 0.782663 -7.522062
v 0.102339 0.401375 -7.611501
v 0.443691 0.118198 -8.115505
v 0.566956 0.786478 -7.613523
v 0.558318 0.792634 -7.596289
v 0.687222 0.682296 -7.736510
v 0.677613 0.691607 -7.725852
v 0.624488 0.731357 -7.665708
v 0.616144 0.737304 -7.649058
v 0.881458 0.494089 -7.951935
v 0.915498 0.461105 -7.989688
v 0.864985 0.510050 -7.933665
v 0.828609 0.545297 -7.893321
v 0.815568 0.557934 -7.878857
v 0.786168 0.595232 -7.822383
v 0.769583 0.602491 -7.827856
v 0.733207 0.637738 -7.787511
v 0.723598 0.647049 -7.776854
v 0.129329 0.371736 -7.620986
v 0.579480 0.753024 -7.531548
v 0.615466 0.727380 -7.603343
v 0.585574 0.762804 -7.606306
v 0.709097 0.649976 -7.730455
v 0.699488 0.659287 -7.719797
v 0.663112 0.694534 -7.679453
v 0.643107 0.707683 -7.658490
v 0.913901 0.451529 -7.957601
v 0.893724 0.471080 -7.935222
v 0.857348 0.506327 -7.894878
v 0.840875 0.522288 -7.876608
v 0.804499 0.557535 -7.836265
v 0.791458 0.570171 -7.821801
v 0.755083 0.605418 -7.781456
v 0.745473 0.614729 -7.770799
v 0.450901 0.100089 -8.093184
v 0.442094 0.108622 -8.083418
v 0.421917 0.128173 -8.061039
v 0.385541 0.163420 -8.020696
v 0.369069 0.179381 -8.002425
v 0.332693 0.214628 -7.962081
v 0.319652 0.227264 -7.947618
v 0.283276 0.262511 -7.907274
v 0.262840 0.276594 -7.887359
v 0.235199 0.296291 -7.832212
v 0.206351 0.330971 -7.837255
v 0.200257 0.321191 -7.762497
v 0.192955 0.326395 -7.747929
v 0.165314 0.346092 -7.692782
v 0.156969 0.352039 -7.676133
v 0.922707 0.442996 -7.967368
v 0.918385 0.453852 -7.980749
v 0.915921 0.460043 -7.988379
v 0.446579 0.110945 -8.106565
v 0.444114 0.117136 -8.114196
v 0.115708 0.382432 -7.598034
v 0.565860 0.763721 -7.508596
v 0.359069 0.555055 -7.687790
v 0.329843 0.555915 -7.692159
v 0.332330 0.575379 -7.668042
v 0.353907 0.546826 -7.729019
v 0.484107 0.666572 -7.684232
v 0.512558 0.634028 -7.682363
v 0.509974 0.623736 -7.613166
v 0.471552 0.669748 -7.629438
v 0.401295 0.503654 -7.772025
v 0.432939 0.539849 -7.760742
v 0.407786 0.531788 -7.736754
v 0.410680 0.543850 -7.735312
v 0.569363 0.596300 -7.765070
v 0.566745 0.603703 -7.753912
v 0.540170 0.613588 -7.698595
v 0.526294 0.622320 -7.687945
v 0.499522 0.465746 -7.858854
v 0.464252 0.491903 -7.799940
v 0.470171 0.485668 -7.810618
v 0.492032 0.471710 -7.851486
v 0.556787 0.411352 -7.917331
v 0.534027 0.421989 -7.896004
v 0.542167 0.422876 -7.906624
v 0.528199 0.433759 -7.888780
v 0.605641 0.360415 -7.966879
v 0.591320 0.367138 -7.954506
v 0.592497 0.376993 -7.950951
v 0.553482 0.362133 -7.945230
v 0.615855 0.550785 -7.810057
v 0.606740 0.560083 -7.800150
v 0.582257 0.577401 -7.755911
v 0.590278 0.572014 -7.769921
v 0.668539 0.512249 -7.864436
v 0.658396 0.521699 -7.856073
v 0.620280 0.506053 -7.852731
v 0.624969 0.520370 -7.847008
v 0.407021 0.338167 -7.916780
v 0.402036 0.346409 -7.910081
v 0.430006 0.325625 -7.935626
v 0.418518 0.336177 -7.925694
v 0.272853 0.434874 -7.763440
v 0.253029 0.461403 -7.762823
v 0.310135 0.412137 -7.808261
v 0.279602 0.447241 -7.813928
v 0.336644 0.394019 -7.818553
v 0.342157 0.361729 -7.845614
v 0.390479 0.366285 -7.891962
v 0.376751 0.378801 -7.877819
vn -0.7924 -0.5730 -0.2090
vn -0.5497 0.6605 -0.5114
vn -0.2433 0.6111 -0.7532
vn -0.3891 0.7229 -0.5710
vn -0.4863 0.7200 -0.4950
vn -0.2839 0.5645 -0.7751
vn -0.1738 0.5679 -0.8045
vn -0.2116 0.5847 -0.7832
vn 0.7841 0.5810 0.2181
vn -0.2790 0.1046 0.9546
vn 0.4213 -0.5392 0.7292
vn 0.5617 -0.5443 -0.6230
vn -0.4269 0.3042 0.8516
vn 0.6377 0.6346 0.4365
vn -0.7557 -0.6386 -0.1451
vn -0.7167 0.5769 -0.3917
vn 0.6864 -0.7253 0.0531
vn 0.7519 0.6426 0.1474
vn -0.7544 -0.6390 -0.1499
vn -0.8082 0.3040 -0.5045
vn 0.6610 -0.7454 -0.0862
vn 0.7526 0.6396 0.1566
vn -0.7907 -0.5747 -0.2109
vn -0.3384 0.8306 -0.4423
vn 0.4707 -0.7813 0.4099
vn 0.7328 0.6436 0.2209
vn -0.3881 0.5278 -0.7555
vn 0.3912 -0.6868 0.6126
vn 0.7907 0.5747 0.2109
vn -0.8043 -0.1829 -0.5654
vn -0.3325 0.5895 -0.7362
vn 0.2522 -0.6975 0.6708
vn -0.4785 0.7951 -0.3727
vn 0.3033 -0.6449 0.7015
vn -0.4812 0.7964 -0.3663
vn 0.4785 -0.7951 0.3727
vn 0.7544 0.6390 0.1499
vn -0.7569 -0.6373 -0.1450
vn -0.6517 0.7019 0.2875
vn 0.5822 -0.8125 0.0312
vn 0.6422 -0.6704 -0.3717
vn -0.5208 0.8370 -0.1678
vn 0.2302 -0.5837 0.7786
vn 0.2130 0.1306 -0.9683
vn -0.5216 0.6865 -0.5066
vn -0.3894 0.6414 -0.6610
vn 0.4508 -0.8845 0.1201
vn 0.1625 -0.5693 0.8059
vn -0.3839 -0.2316 0.8938
vn 0.3907 -0.6481 0.6537
vn -0.3657 0.8127 -0.4536
vn 0.2850 0.0939 -0.9539
vn -0.4627 0.7791 -0.4230
vn -0.3652 -0.0237 0.9306
vn 0.3931 -0.7527 0.5281
vn -0.2170 0.4584 -0.8619
vn 0.5148 -0.7196 0.4660
vn -0.3720 0.7758 -0.5096
vn 0.2681 -0.4957 0.8261
vn -0.1594 0.6424 -0.7496
vn 0.2272 -0.5278 0.8184
vn 0.2923 -0.5924 0.7507
vn -0.2286 0.6181 -0.7521
vn -0.1344 0.5720 -0.8092
vn 0.3795 -0.7698 0.5133
vn 0.4439 -0.8191 0.3633
vn -0.4915 0.7854 -0.3762
vn -0.2486 0.6072 -0.7547
vn 0.4986 -0.7065 0.5023
vn -0.2814 0.5824 -0.7626
vn -0.4544 0.8120 -0.3662
vn 0.3444 -0.7751 0.5297
vn 0.2879 -0.0625 -0.9556
vn -0.4248 0.8315 -0.3579
vn 0.0705 -0.4962 0.8653
vn 0.3028 -0.6836 0.6641
vn 0.4265 -0.8305 0.3583
vn -0.1152 -0.1091 0.9873
vn -0.3428 0.6585 -0.6700
vn -0.2205 0.4989 -0.8381
vn 0.4344 -0.4625 0.7729
vn -0.2712 0.8553 -0.4414
vn 0.4836 -0.7821 -0.3930
vn -0.3546 0.8249 -0.4402
vn 0.4114 -0.9115 0.0014
vn -0.4665 0.7088 -0.5291
vn 0.4495 -0.6402 0.6230
vn -0.2910 0.5773 -0.7630
vn -0.7537 -0.6395 -0.1513
vn -0.8419 -0.4276 -0.3291
vn -0.4986 0.7065 -0.5023
vn 0.7288 0.5517 0.4056
vn -0.6395 0.7076 -0.3004
vn -0.8885 -0.3166 -0.3323
vn -0.7672 -0.5959 -0.2373
vn 0.0743 0.8122 -0.5787
vn -0.9968 0.0302 -0.0742
vn -0.9022 -0.0786 -0.4241
vn 0.4939 0.7766 -0.3910
vn -0.6013 0.2900 -0.7445
vn -0.4986 0.7065 -0.5022
vn 0.4210 0.8364 -0.3511
vn -0.2505 0.6910 -0.6780
vn -0.4471 -0.8723 0.1980
vn 0.1166 0.8556 -0.5044
vn -0.2739 0.5883 -0.7609
vn -0.5978 0.7421 -0.3032
vn -0.3567 0.8087 -0.4676
vn -0.2139 0.6319 -0.7449
vn -0.2344 0.6175 -0.7508
vn 0.7555 0.6400 0.1399
vn -0.0954 0.0028 0.9954
vn -0.1508 0.0183 0.9884
vn -0.4179 0.2884 0.8615
vn -0.4612 0.2744 0.8438
vn -0.7526 -0.6396 -0.1566
vn -0.5373 0.5085 0.6728
vn 0.6419 -0.6706 -0.3718
vn -0.7325 -0.6437 -0.2216
vn -0.6469 0.6663 0.3708
vn 0.6971 -0.7148 0.0553
vn 0.7557 0.6386 0.1451
vn -0.3448 0.6769 -0.6503
vn 0.4699 -0.8013 0.3704
vn -0.4129 0.8059 -0.4243
vn 0.4261 -0.8307 0.3582
vn -0.9170 -0.2016 -0.3442
vn -0.4513 0.8142 -0.3653
vn 0.3505 -0.8112 0.4681
vn 0.4923 -0.7849 0.3764
vn -0.6723 0.7261 -0.1443
vn 0.7321 -0.6798 0.0440
vn -0.4799 0.7063 -0.5205
vn 0.3130 -0.6411 0.7008
vn -0.4891 0.7174 -0.4962
vn 0.1970 0.1163 -0.9735
vn -0.4352 0.8876 -0.1512
vn 0.4577 -0.8818 -0.1140
vn -0.4287 -0.0388 0.9026
vn 0.1280 -0.6868 0.7155
vn 0.4317 -0.7422 0.5126
vn -0.3661 0.8152 -0.4487
vn 0.3185 0.0170 -0.9478
vn -0.4613 0.7387 -0.4914
vn 0.1764 -0.6359 0.7513
vn 0.3996 -0.8291 0.3911
vn -0.3284 0.7497 -0.5745
vn 0.4861 -0.6629 0.5695
vn -0.3730 0.7779 -0.5057
vn 0.3134 -0.5570 0.7691
vn -0.1826 0.6652 -0.7240
vn 0.1592 -0.4580 0.8746
vn 0.3253 -0.6606 0.6766
vn -0.3015 0.6908 -0.6572
vn -0.1374 0.5750 -0.8065
vn 0.3093 -0.7366 0.6015
vn 0.3369 -0.6070 0.7197
vn -0.3552 0.6894 -0.6313
vn -0.2210 0.5789 -0.7849
vn -0.5996 -0.7867 0.1467
vn 0.2433 -0.6111 0.7532
vn -0.3261 -0.8747 0.3585
vn 0.2568 -0.6933 0.6734
vn 0.1785 -0.6556 0.7337
vn 0.9170 -0.3982 0.0227
vn -0.7610 -0.6287 0.1601
vn 0.3504 -0.7893 0.5042
vn -0.2182 -0.9068 0.3606
vn 0.2126 -0.6328 0.7446
vn -0.2696 0.5659 -0.7791
vn -0.4372 0.7287 -0.5272
vn 0.3258 -0.7340 0.5959
vn -0.1222 0.5810 -0.8047
vn -0.2330 0.5905 -0.7726
vn -0.1537 -0.3230 0.9338
vn 0.2579 -0.6381 0.7255
vn 0.3674 -0.5026 0.7826
vn -0.1334 -0.0861 0.9873
vn -0.3137 0.6078 -0.7295
vn -0.2329 0.5199 -0.8219
vn 0.8466 0.4138 0.3346
vn 0.3836 -0.3324 0.8616
vn 0.6199 -0.5872 0.5205
vn 0.1111 0.0600 0.9920
vn -0.6327 -0.7596 -0.1509
vn 0.3433 -0.4586 0.8197
vn 0.7200 -0.4555 0.5236
vn 0.7355 0.6429 0.2140
vn 0.3851 -0.5196 0.7627
vn 0.1692 -0.0119 -0.9855
vn 0.6063 -0.3814 0.6978
vn -0.3590 0.8345 -0.4179
vn 0.5055 -0.7331 0.4550
vn -0.4694 0.7252 -0.5038
vn 0.3298 -0.5727 0.7505
vn -0.2815 0.5664 -0.7745
vt -0.717005 1.147941
vt -0.661547 1.147942
vt 1.450127 -0.070911
vt -0.717005 2.383491
vt -0.717005 2.366795
vt 0.269326 -0.070911
vt -0.772602 1.147941
vt -0.934631 -0.070911
vt -0.606090 1.147942
vt -0.772602 2.383491
vt 0.256987 -0.070911
vt -0.661547 2.366795
vt -0.828200 1.147941
vt -0.661547 2.366795
vt 1.450127 1.147942
vt -0.828200 2.383491
vt -0.717005 1.147942
vt 0.269326 1.147942
vt -0.772602 1.147941
vt -0.934631 1.147941
vt -0.606090 2.366795
vt 0.256987 1.147942
vt -0.772603 2.383491
vt -0.661547 1.147942
vt 1.356634 -0.037532
vt -0.824707 -0.037532
vt 0.116673 1.252805
vt -0.550492 1.147941
vt -0.771513 -0.037532
vt 1.187524 -0.037532
vt -0.654048 -0.037532
vt -0.550492 1.269737
vt 0.005479 1.374601
vt -0.611935 -0.037532
vt 1.029395 -0.037532
vt -0.494470 -0.037532
vt 0.005479 1.252805
vt -0.494895 1.147941
vt -0.463439 -0.037532
vt 0.882247 -0.037532
vt -0.345975 -0.037532
vt -0.494895 1.269737
vt -0.105715 1.374601
vt -0.314943 -0.037532
vt 0.735100 -0.037532
vt -0.197478 -0.037532
vt -0.105715 1.252805
vt -0.494895 1.374601
vt -0.166447 -0.037532
vt 0.587952 -0.037532
vt -0.048983 -0.037532
vt -0.494895 1.252806
vt -0.272507 1.374601
vt -0.013519 -0.037532
vt 0.436412 -0.037532
vt 0.103947 -0.037532
vt -0.272507 1.252806
vt 0.222575 1.147942
vt 0.140656 -0.037532
vt 0.222575 1.259183
vt 0.256987 1.087555
vt -0.661547 1.208327
vt 0.222575 1.268561
vt 0.256987 -0.037532
vt -0.661547 2.333415
vt -0.934631 -0.037532
vt -0.606090 1.181321
vt 0.116673 1.366781
vt 0.103947 1.087555
vt -0.383701 1.269737
vt 0.436412 1.087555
vt 0.268970 1.147941
vt 0.140656 1.087555
vt -0.197478 1.087555
vt -0.216910 1.269737
vt 0.735100 1.087555
vt -0.439298 1.147941
vt -0.166447 1.087555
vt -0.048983 1.087555
vt -0.439298 1.269737
vt 0.587952 1.087555
vt -0.383701 1.147941
vt -0.013519 1.087555
vt -0.824707 1.087555
vt 0.061076 1.261916
vt 1.356634 1.087555
vt -0.934631 1.087555
vt -0.606090 2.306408
vt 0.061076 1.147941
vt -0.272507 1.374601
vt -0.771513 1.087555
vt -0.272507 1.252805
vt 1.187524 1.087555
vt -0.654048 1.087555
vt -0.050118 1.147941
vt -0.611935 1.087555
vt -0.050118 1.269737
vt 1.029395 1.087555
vt -0.494470 1.087555
vt -0.105715 1.374601
vt -0.463439 1.087555
vt -0.105715 1.252805
vt 0.882247 1.087555
vt -0.345975 1.087555
vt -0.216910 1.147941
vt -0.314943 1.087555
vt -0.216910 1.147942
vt 0.320761 -0.037532
vt -0.328104 1.374600
vt 0.320761 1.087555
vt -0.383701 1.374601
vt 0.472301 1.087555
vt 0.101253 1.087555
vt -0.328104 1.252806
vt 0.437159 1.087555
vt -0.161312 1.147941
vt 0.766597 1.087555
vt -0.200171 1.087555
vt -0.161312 1.252805
vt 0.735847 1.087555
vt -0.161312 1.374601
vt 0.619449 1.087555
vt -0.051675 1.087555
vt -0.383701 1.252805
vt 0.588699 1.087555
vt 0.291349 1.147941
vt 1.421947 1.087555
vt 0.116673 1.244985
vt -0.934631 1.147941
vt 1.357382 1.087555
vt 0.116673 1.366781
vt 1.240984 1.087555
vt -0.656741 1.087555
vt -0.328104 1.269737
vt 1.188271 1.087555
vt -0.328104 1.147941
vt 1.071873 1.087555
vt -0.497163 1.087555
vt 0.005479 1.252805
vt 1.030142 1.087555
vt 0.005479 1.374601
vt 0.913744 1.087555
vt -0.348667 1.087555
vt -0.161312 1.269737
vt 0.882995 1.087555
vt 0.291347 1.173084
vt -0.661547 1.181321
vt 1.450127 -0.037532
vt 0.313370 1.192566
vt 1.421947 -0.037532
vt 0.172270 1.269737
vt -0.934631 2.273027
vt 1.357382 -0.037532
vt 0.172270 1.147941
vt 1.240984 -0.037532
vt -0.606090 1.252805
vt -0.656741 -0.037532
vt 1.188271 -0.037532
vt -0.606090 1.374600
vt 1.071873 -0.037532
vt 0.061076 1.269737
vt -0.497162 -0.037532
vt 1.030142 -0.037532
vt 0.061076 1.147941
vt 0.913744 -0.037532
vt -0.550492 1.252805
vt -0.348667 -0.037532
vt 0.882995 -0.037532
vt -0.550492 1.374601
vt 0.766597 -0.037532
vt -0.050118 1.269737
vt -0.200171 -0.037532
vt 0.735847 -0.037532
vt -0.050118 1.147941
vt 0.619449 -0.037532
vt -0.439298 1.269738
vt -0.051675 -0.037532
vt 0.588699 -0.037532
vt -0.439298 1.147942
vt 0.472301 -0.037532
vt -0.216910 1.269738
vt 0.101253 -0.037532
vt 0.437159 -0.037532
vt 0.269326 1.167422
vt -0.661547 2.306408
vt 1.450127 1.087555
vt 0.291349 1.192566
vt -0.628302 2.306408
vt 1.459378 1.087555
vt -0.609343 2.306408
vt 0.064337 1.147941
vt -0.828199 1.147941
vt 0.313370 1.147941
vt -0.628302 1.181321
vt 1.459378 -0.037532
vt -0.828199 2.273027
vt -0.609343 1.181321
vt 0.119935 1.366781
vt 0.172271 1.268561
vt -0.711726 2.333415
vt 0.269326 -0.037532
vt 0.268970 1.278727
vt 0.269326 1.087555
vt -0.711726 1.208327
vt 0.472301 0.525011
vt -0.013519 0.525012
vt 0.101253 0.525012
vt 0.437159 0.525011
vt 0.587952 0.525011
vt -0.048983 0.525012
vt -0.013519 0.806284
vt -0.048983 0.806284
vt 0.587952 0.806284
vt 0.472301 0.806284
vt 0.101253 0.806284
vt 0.437159 0.806284
vt 0.735100 0.525011
vt -0.197478 0.525011
vt -0.166447 0.525012
vt 0.619449 0.525011
vt -0.051675 0.525012
vt 0.588699 0.525011
vt 0.735100 0.806284
vt -0.197478 0.806284
vt -0.166447 0.806284
vt 0.619449 0.806284
vt -0.051675 0.806284
vt 0.588699 0.806284
vt 0.882247 0.525011
vt -0.345975 0.525011
vt -0.200171 0.525011
vt 0.735847 0.525011
vt 0.766597 0.525011
vt -0.314943 0.525011
vt 1.029395 0.525011
vt -0.494470 0.525011
vt 0.913744 0.525011
vt -0.463439 0.525011
vt 0.882995 0.525011
vt -0.348667 0.525011
vt 1.187524 0.525011
vt -0.654048 0.525011
vt 1.071873 0.525011
vt -0.611935 0.525011
vt -0.497162 0.525011
vt 1.030142 0.525011
vt -0.345975 0.806284
vt 0.882247 0.806284
vt -0.314943 0.806284
vt 0.735847 0.806284
vt -0.200171 0.806284
vt 0.766597 0.806284
vt -0.494470 0.806284
vt 1.029395 0.806284
vt -0.463439 0.806284
vt 0.913744 0.806284
vt -0.348667 0.806284
vt 0.882995 0.806284
vt 0.913744 0.243740
vt -0.348667 0.243740
vt 0.882995 0.243740
vt 1.029395 0.243740
vt -0.494470 0.243740
vt -0.463439 0.243740
vt 0.619449 0.243740
vt 0.588699 0.243740
vt -0.051675 0.243740
vt -0.197478 0.243740
vt 0.735100 0.243740
vt -0.166447 0.243740
vt -0.200171 0.243740
vt 0.735847 0.243740
vt 0.766597 0.243740
vt 0.882247 0.243740
vt -0.345975 0.243740
vt -0.314943 0.243740
s 0
f 2/4/1 3/7/1 1/1/1
f 26/69/2 22/59/2 27/73/2
f 32/84/3 9/26/3 34/91/3
f 92/225/4 28/74/4 91/224/4
f 19/51/5 80/206/5 82/210/5
f 125/275/6 16/44/6 126/276/6
f 117/263/7 14/39/7 118/264/7
f 103/242/8 12/34/8 105/244/8
f 8/23/9 5/13/9 7/19/9
f 85/214/10 44/115/10 86/216/10
f 123/272/11 66/170/11 124/273/11
f 75/194/12 3/9/12 76/197/12
f 78/204/13 77/200/13 2/5/13
f 21/57/14 71/181/14 20/53/14
f 26/70/15 44/114/15 42/109/15
f 80/206/16 71/182/16 81/207/16
f 26/71/17 41/108/17 21/55/17
f 19/52/18 69/176/18 18/48/18
f 30/80/19 48/124/19 43/111/19
f 122/270/20 69/177/20 120/267/20
f 30/81/21 85/214/21 84/213/21
f 17/47/22 67/171/22 16/43/22
f 28/75/23 46/119/23 47/121/23
f 126/276/24 67/172/24 123/271/24
f 28/76/25 93/226/25 91/223/25
f 15/42/26 65/166/26 14/38/26
f 39/102/23 56/144/23 45/116/23
f 118/264/27 65/167/27 116/260/27
f 39/103/28 110/252/28 107/248/28
f 13/37/29 63/161/29 12/33/29
f 37/97/30 54/139/30 55/141/30
f 105/244/31 63/162/31 106/245/31
f 37/98/32 113/256/32 111/254/32
f 11/32/29 61/156/29 10/28/29
f 35/92/23 52/134/23 53/136/23
f 34/91/33 61/157/33 52/133/33
f 35/93/34 104/243/34 103/241/34
f 9/27/29 59/151/29 76/198/29
f 50/128/23 51/131/23 32/85/23
f 59/152/35 74/192/35 76/196/35
f 32/86/36 60/155/36 9/25/36
f 77/199/37 22/58/37 24/63/37
f 23/60/38 27/72/38 78/202/38
f 27/73/39 77/201/39 78/203/39
f 75/193/29 58/149/29 57/146/29
f 49/126/23 73/187/23 72/184/23
f 58/150/40 73/189/40 49/127/40
f 82/209/41 70/180/41 19/50/41
f 83/211/42 81/207/42 86/215/42
f 93/226/43 48/125/43 94/228/43
f 82/210/44 83/211/44 84/212/44
f 84/212/45 31/83/45 30/79/45
f 31/83/46 86/215/46 44/113/46
f 84/213/47 79/205/47 82/209/47
f 79/205/48 86/216/48 81/208/48
f 113/256/49 56/145/49 114/258/49
f 87/217/50 119/265/50 121/269/50
f 92/225/51 90/221/51 94/227/51
f 122/270/52 87/218/52 121/268/52
f 29/78/53 94/227/53 48/123/53
f 89/220/54 94/228/54 90/222/54
f 91/223/55 89/220/55 87/217/55
f 88/219/56 91/224/56 87/218/56
f 95/229/57 124/273/57 125/274/57
f 108/249/58 96/231/58 109/251/58
f 106/246/59 62/160/59 104/243/59
f 107/247/60 98/234/60 108/249/60
f 115/259/61 102/239/61 116/261/61
f 99/235/62 115/259/62 117/262/62
f 112/255/63 102/240/63 114/257/63
f 111/253/64 101/238/64 112/255/64
f 109/250/65 97/233/65 110/252/65
f 103/241/66 62/160/66 11/30/66
f 36/96/67 106/245/67 54/138/67
f 35/94/68 105/244/68 36/96/68
f 6/18/69 43/112/69 48/125/69
f 39/104/70 108/249/70 40/106/70
f 40/106/71 109/251/71 46/118/71
f 107/248/72 97/233/72 95/229/72
f 37/99/73 112/255/73 38/101/73
f 38/101/74 114/257/74 56/143/74
f 100/237/75 114/258/75 102/239/75
f 111/254/76 100/237/76 99/235/76
f 117/262/77 64/165/77 13/35/77
f 119/265/78 90/222/78 120/266/78
f 101/238/79 116/260/79 102/240/79
f 99/236/80 118/264/80 101/238/80
f 1/3/81 64/165/81 65/168/81
f 18/49/82 121/268/82 17/46/82
f 121/269/83 68/175/83 17/45/83
f 88/219/84 120/267/84 90/221/84
f 125/274/85 66/170/85 15/40/85
f 98/234/86 123/271/86 96/231/86
f 96/232/87 124/273/87 97/233/87
f 95/230/88 126/276/88 98/234/88
f 2/4/89 4/10/89 3/7/89
f 26/69/2 21/56/2 22/59/2
f 25/66/3 3/8/3 9/26/3
f 3/8/90 4/11/90 15/41/90
f 9/26/3 3/8/3 10/29/3
f 4/11/91 24/64/91 22/59/91
f 21/56/92 20/54/92 4/11/92
f 20/54/93 19/51/93 4/11/93
f 4/11/91 22/59/91 21/56/91
f 10/29/3 3/8/3 11/31/3
f 7/20/3 33/87/3 32/84/3
f 18/49/94 17/46/94 4/11/94
f 17/46/95 16/44/95 4/11/95
f 4/11/94 19/51/94 18/49/94
f 8/22/96 7/20/96 39/104/96
f 7/20/3 32/84/3 34/91/3
f 27/73/97 23/61/97 8/22/97
f 30/79/98 31/83/98 8/22/98
f 31/83/99 26/69/99 8/22/99
f 26/69/91 27/73/91 8/22/91
f 15/41/100 14/39/100 3/8/100
f 14/39/3 13/36/3 3/8/3
f 4/11/101 16/44/101 15/41/101
f 40/106/102 28/74/102 8/22/102
f 28/74/102 29/78/102 8/22/102
f 29/78/103 30/79/103 8/22/103
f 12/34/3 11/31/3 3/8/3
f 12/34/3 3/8/3 13/36/3
f 37/99/104 38/101/104 7/20/104
f 38/101/3 39/104/3 7/20/3
f 39/104/102 40/106/102 8/22/102
f 34/91/3 35/94/3 7/20/3
f 35/94/3 36/96/3 7/20/3
f 7/20/105 36/96/105 37/99/105
f 9/26/3 10/29/3 34/91/3
f 92/225/106 29/78/106 28/74/106
f 19/51/107 20/54/107 80/206/107
f 125/275/108 15/41/108 16/44/108
f 117/263/109 13/36/109 14/39/109
f 103/242/110 11/31/110 12/34/110
f 8/23/111 6/16/111 5/13/111
f 85/214/112 43/112/112 44/115/112
f 123/272/113 67/173/113 66/170/113
f 74/190/12 33/88/12 7/21/12
f 7/21/12 5/14/12 73/188/12
f 5/14/12 72/185/12 73/188/12
f 74/190/12 7/21/12 73/188/12
f 75/194/12 57/147/12 1/2/12
f 74/190/12 73/188/12 75/194/12
f 3/9/12 25/67/12 76/197/12
f 76/197/12 74/190/12 75/194/12
f 75/194/12 1/2/12 3/9/12
f 24/65/13 4/12/13 77/200/13
f 4/12/13 2/5/13 77/200/13
f 6/17/114 8/24/114 78/204/114
f 8/24/115 23/62/115 78/204/115
f 6/17/13 78/204/13 2/5/13
f 21/57/37 41/107/37 71/181/37
f 26/70/116 31/82/116 44/114/116
f 80/206/117 20/54/117 71/182/117
f 26/71/118 42/110/118 41/108/118
f 19/52/18 70/179/18 69/176/18
f 30/80/119 29/77/119 48/124/119
f 122/270/120 18/49/120 69/177/120
f 30/81/121 43/112/121 85/214/121
f 17/47/122 68/174/122 67/171/122
f 28/75/23 40/105/23 46/119/23
f 126/276/123 16/44/123 67/172/123
f 28/76/124 47/122/124 93/226/124
f 15/42/37 66/169/37 65/166/37
f 39/102/23 38/100/23 56/144/23
f 118/264/125 14/39/125 65/167/125
f 39/103/126 45/117/126 110/252/126
f 13/37/29 64/164/29 63/161/29
f 37/97/127 36/95/127 54/139/127
f 105/244/128 12/34/128 63/162/128
f 37/98/129 55/142/129 113/256/129
f 11/32/29 62/159/29 61/156/29
f 35/92/23 34/90/23 52/134/23
f 34/91/33 10/29/33 61/157/33
f 35/93/130 53/137/130 104/243/130
f 76/198/29 25/68/29 9/27/29
f 9/27/29 60/154/29 59/151/29
f 33/89/23 74/191/23 32/85/23
f 74/191/23 50/128/23 32/85/23
f 59/152/35 50/129/35 74/192/35
f 32/86/36 51/132/36 60/155/36
f 27/73/131 22/59/131 77/201/131
f 58/150/40 75/195/40 73/189/40
f 82/209/132 79/205/132 70/180/132
f 83/211/133 80/206/133 81/207/133
f 93/226/134 47/122/134 48/125/134
f 82/210/135 80/206/135 83/211/135
f 84/212/136 83/211/136 31/83/136
f 31/83/137 83/211/137 86/215/137
f 84/213/138 85/214/138 79/205/138
f 79/205/139 85/214/139 86/216/139
f 113/256/140 55/142/140 56/145/140
f 87/217/141 89/220/141 119/265/141
f 92/225/142 88/219/142 90/221/142
f 122/270/143 88/219/143 87/218/143
f 29/78/144 92/225/144 94/227/144
f 89/220/145 93/226/145 94/228/145
f 91/223/146 93/226/146 89/220/146
f 88/219/147 92/225/147 91/224/147
f 95/229/148 97/233/148 124/273/148
f 108/249/149 98/234/149 96/231/149
f 106/246/150 63/163/150 62/160/150
f 107/247/151 95/230/151 98/234/151
f 115/259/152 100/237/152 102/239/152
f 99/235/153 100/237/153 115/259/153
f 112/255/154 101/238/154 102/240/154
f 111/253/155 99/236/155 101/238/155
f 109/250/156 96/232/156 97/233/156
f 103/241/157 104/243/157 62/160/157
f 36/96/158 105/244/158 106/245/158
f 35/94/159 103/242/159 105/244/159
f 45/117/160 56/145/160 6/18/160
f 56/145/161 55/142/161 5/15/161
f 6/18/162 56/145/162 5/15/162
f 54/140/163 106/246/163 104/243/163
f 55/142/161 54/140/161 5/15/161
f 54/140/164 104/243/164 53/137/164
f 52/135/161 61/158/161 60/155/161
f 54/140/161 53/137/161 5/15/161
f 52/135/161 60/155/161 51/132/161
f 53/137/161 52/135/161 5/15/161
f 51/132/161 50/130/161 5/15/161
f 50/130/161 49/127/161 5/15/161
f 51/132/161 5/15/161 52/135/161
f 49/127/161 72/186/161 5/15/161
f 6/18/69 2/6/69 42/110/69
f 2/6/69 41/108/69 42/110/69
f 42/110/165 44/115/165 6/18/165
f 44/115/166 43/112/166 6/18/166
f 109/250/167 110/252/167 45/117/167
f 48/125/168 47/122/168 6/18/168
f 47/122/160 46/120/160 6/18/160
f 46/120/169 109/250/169 45/117/169
f 46/120/160 45/117/160 6/18/160
f 39/104/170 107/247/170 108/249/170
f 40/106/171 108/249/171 109/251/171
f 107/248/172 110/252/172 97/233/172
f 37/99/173 111/253/173 112/255/173
f 38/101/174 112/255/174 114/257/174
f 100/237/175 113/256/175 114/258/175
f 111/254/176 113/256/176 100/237/176
f 117/262/177 115/259/177 64/165/177
f 119/265/178 89/220/178 90/222/178
f 101/238/179 118/264/179 116/260/179
f 99/236/180 117/263/180 118/264/180
f 41/108/69 2/6/69 71/183/69
f 2/6/181 1/3/181 65/168/181
f 71/183/69 2/6/69 70/180/69
f 1/3/161 57/148/161 58/150/161
f 58/150/161 49/127/161 50/130/161
f 59/153/161 60/155/161 1/3/161
f 60/155/161 61/158/161 1/3/161
f 58/150/161 50/130/161 59/153/161
f 70/180/69 2/6/69 69/178/69
f 79/205/182 81/208/182 71/183/182
f 70/180/183 79/205/183 71/183/183
f 1/3/161 58/150/161 59/153/161
f 61/158/161 62/160/161 1/3/161
f 62/160/161 63/163/161 1/3/161
f 69/178/69 2/6/69 68/175/69
f 119/265/184 120/266/184 69/178/184
f 68/175/185 2/6/185 67/173/185
f 64/165/186 115/259/186 116/261/186
f 1/3/161 63/163/161 64/165/161
f 68/175/187 119/265/187 69/178/187
f 65/168/69 66/170/69 2/6/69
f 66/170/188 67/173/188 2/6/188
f 64/165/189 116/261/189 65/168/189
f 18/49/190 122/270/190 121/268/190
f 121/269/191 119/265/191 68/175/191
f 88/219/192 122/270/192 120/267/192
f 125/274/193 124/273/193 66/170/193
f 98/234/194 126/276/194 123/271/194
f 96/232/195 123/272/195 124/273/195
f 95/230/196 125/275/196 126/276/196
