# Blender 3.3.1
# www.blender.org
o Vent_Grate.003
v 0.749075 0.142986 -7.942535
v 0.130377 0.058621 -7.726454
v 0.751507 0.172477 -7.940951
v 0.121924 0.086921 -7.724052
v 0.965849 0.092506 -7.335665
v 0.340581 0.069548 -7.115286
v 0.968280 0.121997 -7.334081
v 0.318879 0.136966 -7.109407
v 0.700572 0.174676 -7.903719
v 0.673051 0.176409 -7.893744
v 0.612278 0.180237 -7.871718
v 0.590490 0.181609 -7.863821
v 0.529717 0.185437 -7.841794
v 0.513663 0.186448 -7.835976
v 0.427366 0.185627 -7.812148
v 0.411943 0.180563 -7.806753
v 0.340311 0.200509 -7.782852
v 0.324888 0.195445 -7.777456
v 0.266505 0.176274 -7.757034
v 0.223347 0.147954 -7.729701
v 0.203746 0.112198 -7.733923
v 0.185500 0.106206 -7.727540
v 0.321714 0.097307 -7.143164
v 0.127681 0.087220 -7.707315
v 0.757443 0.171094 -7.924331
v 0.384530 0.161402 -7.166294
v 0.366284 0.155410 -7.159912
v 0.576160 0.148518 -7.225920
v 0.560106 0.149529 -7.220101
v 0.473788 0.147243 -7.196361
v 0.456162 0.141455 -7.190195
v 0.900670 0.128080 -7.343535
v 0.957541 0.124498 -7.364147
v 0.873149 0.129813 -7.333560
v 0.812376 0.133641 -7.311533
v 0.790588 0.135013 -7.303637
v 0.725366 0.125947 -7.270339
v 0.713760 0.139851 -7.275792
v 0.652988 0.143679 -7.253765
v 0.636933 0.144690 -7.247946
v 0.161932 0.067391 -7.718740
v 0.355966 0.077478 -7.154590
v 0.431974 0.102437 -7.181179
v 0.401099 0.135766 -7.171535
v 0.598231 0.117484 -7.236385
v 0.582177 0.118495 -7.230567
v 0.521404 0.122322 -7.208540
v 0.490357 0.121608 -7.201602
v 0.940397 0.095934 -7.360399
v 0.906686 0.098057 -7.348181
v 0.845914 0.101884 -7.326155
v 0.818392 0.103618 -7.316180
v 0.757620 0.107445 -7.294154
v 0.735832 0.108817 -7.286257
v 0.675059 0.112645 -7.264231
v 0.659004 0.113656 -7.258412
v 0.755011 0.141603 -7.925916
v 0.740299 0.142530 -7.920583
v 0.706589 0.144653 -7.908366
v 0.645816 0.148481 -7.886339
v 0.618295 0.150214 -7.876364
v 0.557522 0.154041 -7.854338
v 0.535734 0.155414 -7.846441
v 0.474961 0.159241 -7.824415
v 0.443935 0.159992 -7.817388
v 0.385552 0.140821 -7.796965
v 0.356880 0.174874 -7.788092
v 0.311747 0.116586 -7.771147
v 0.296324 0.111521 -7.765752
v 0.237941 0.092350 -7.745329
v 0.220315 0.086562 -7.739163
v 0.955109 0.095007 -7.365731
v 0.956567 0.112686 -7.364781
v 0.957398 0.122768 -7.364240
v 0.756469 0.159282 -7.924966
v 0.757300 0.169364 -7.924424
v 0.135329 0.061614 -7.709487
v 0.329363 0.071701 -7.145337
v 0.328731 0.147831 -7.480924
v 0.308442 0.161380 -7.497619
v 0.291260 0.154544 -7.472625
v 0.350689 0.174737 -7.505174
v 0.393381 0.169494 -7.327841
v 0.423002 0.139162 -7.336483
v 0.383919 0.083442 -7.320093
v 0.351282 0.135658 -7.311941
v 0.423625 0.164420 -7.528259
v 0.431871 0.167078 -7.479641
v 0.400790 0.153263 -7.490420
v 0.398963 0.158417 -7.479193
v 0.524614 0.157865 -7.365050
v 0.514182 0.155018 -7.356729
v 0.459154 0.129521 -7.343101
v 0.439964 0.131631 -7.340020
v 0.559653 0.172060 -7.536189
v 0.491477 0.156559 -7.513588
v 0.503868 0.158638 -7.519071
v 0.548026 0.172762 -7.532980
v 0.652133 0.163013 -7.568175
v 0.619422 0.161465 -7.564487
v 0.631587 0.166995 -7.563359
v 0.607607 0.165170 -7.556040
v 0.732049 0.152349 -7.598770
v 0.712061 0.152156 -7.596813
v 0.708282 0.155035 -7.587402
v 0.678834 0.155165 -7.617543
v 0.598625 0.147899 -7.391125
v 0.583389 0.149283 -7.385327
v 0.534363 0.135586 -7.369038
v 0.550069 0.139891 -7.373979
v 0.680958 0.146851 -7.412051
v 0.665775 0.149798 -7.407263
v 0.638602 0.150892 -7.438396
v 0.635092 0.153663 -7.422913
v 0.555746 0.169514 -7.704018
v 0.545828 0.171216 -7.697982
v 0.587712 0.168042 -7.708110
v 0.570292 0.170955 -7.702631
v 0.337902 0.160496 -7.646317
v 0.315124 0.182526 -7.636667
v 0.398600 0.167078 -7.660036
v 0.368872 0.202405 -7.651978
v 0.429858 0.154860 -7.663293
v 0.458350 0.153509 -7.694783
v 0.521142 0.173734 -7.682452
v 0.499041 0.175500 -7.675135
vn -0.3382 0.0783 -0.9378
vn -0.3071 0.9516 0.0153
vn 0.0821 0.9952 0.0535
vn -0.1655 0.9780 0.1270
vn -0.2835 0.9537 0.1006
vn 0.0758 0.9971 -0.0118
vn 0.1768 0.9835 0.0392
vn 0.1308 0.9906 0.0395
vn 0.3244 -0.0774 0.9428
vn -0.7932 -0.5398 0.2819
vn 0.0500 -0.9949 0.0879
vn 0.9385 -0.0591 -0.3402
vn -0.9016 -0.2961 0.3154
vn 0.0712 -0.1554 0.9853
vn -0.3290 -0.0197 -0.9441
vn -0.4826 0.8708 -0.0936
vn 0.6940 -0.7019 -0.1602
vn 0.3237 0.0217 0.9459
vn -0.3252 -0.0169 -0.9455
vn -0.4152 0.8213 -0.3913
vn 0.7599 -0.6038 -0.2406
vn 0.3197 0.0130 0.9474
vn -0.3354 0.0781 -0.9388
vn -0.2293 0.9312 0.2834
vn 0.3369 -0.9228 -0.1868
vn 0.2663 -0.0249 0.9636
vn -0.0061 0.9961 -0.0884
vn 0.1335 -0.9876 -0.0832
vn 0.3354 -0.0781 0.9388
vn -0.2467 0.5745 -0.7805
vn 0.0091 0.9999 -0.0046
vn -0.0045 -0.9895 -0.1445
vn -0.3680 0.9065 0.2069
vn 0.0032 -0.9978 -0.0659
vn -0.3742 0.9035 0.2088
vn 0.3680 -0.9065 -0.2069
vn 0.3252 0.0169 0.9455
vn -0.3303 -0.0186 -0.9437
vn -0.8570 0.4280 0.2871
vn 0.6494 -0.7028 -0.2904
vn 0.8897 -0.3446 -0.2995
vn -0.5299 0.7964 0.2916
vn -0.1141 -0.9930 -0.0304
vn 0.6871 0.7121 -0.1444
vn -0.2951 0.9540 0.0519
vn -0.0920 0.9952 0.0319
vn 0.5161 -0.7662 -0.3828
vn -0.1860 -0.9815 -0.0459
vn -0.7492 -0.6603 -0.0517
vn 0.0990 -0.9943 -0.0389
vn -0.2391 0.9380 0.2510
vn 0.7442 0.6555 -0.1281
vn -0.3226 0.9283 0.1847
vn -0.8116 -0.5697 0.1295
vn 0.2013 -0.9658 -0.1633
vn 0.2058 0.9746 -0.0882
vn 0.3221 -0.9419 -0.0956
vn -0.2018 0.9590 0.1990
vn -0.1358 -0.9880 0.0743
vn 0.1363 0.9829 0.1236
vn -0.1543 -0.9877 0.0251
vn -0.0478 -0.9988 -0.0139
vn 0.0909 0.9936 0.0671
vn 0.2089 0.9760 0.0618
vn 0.2038 -0.9606 -0.1890
vn 0.3532 -0.9023 -0.2472
vn -0.3735 0.9077 0.1913
vn 0.0798 0.9957 0.0471
vn 0.2853 -0.9550 -0.0810
vn 0.0657 0.9978 0.0078
vn -0.3577 0.9037 0.2351
vn 0.1687 -0.9639 -0.2059
vn 0.7894 0.5626 -0.2456
vn -0.3449 0.8993 0.2688
vn -0.3108 -0.9503 -0.0180
vn 0.0347 -0.9934 -0.1092
vn 0.3456 -0.8996 -0.2670
vn -0.6283 -0.7461 0.2203
vn -0.0555 0.9962 0.0666
vn 0.1786 0.9826 -0.0507
vn 0.0145 -0.9855 0.1692
vn -0.1845 0.9226 0.3387
vn 0.8094 -0.3421 -0.4773
vn -0.2415 0.9317 0.2712
vn 0.5612 -0.6824 -0.4684
vn -0.2456 0.9652 0.0902
vn 0.1600 -0.9870 -0.0126
vn 0.0599 0.9982 -0.0014
vn -0.3237 -0.0164 -0.9460
vn -0.3462 0.2692 -0.8987
vn -0.2853 0.9550 0.0810
vn 0.1816 -0.2129 0.9600
vn -0.5106 0.8560 0.0806
vn -0.4101 0.3533 -0.8408
vn -0.2963 0.0768 -0.9520
vn 0.1730 0.8806 0.4412
vn -0.7353 0.4081 -0.5411
vn -0.4316 0.5666 -0.7019
vn 0.3986 0.5811 0.7096
vn -0.1135 0.9183 -0.3793
vn 0.3032 0.6121 0.7303
vn 0.0117 0.9904 0.1379
vn -0.2257 -0.5131 -0.8281
vn 0.1512 0.8380 0.5243
vn 0.0689 0.9975 0.0169
vn -0.4861 0.8645 0.1282
vn -0.2230 0.9428 0.2477
vn 0.0944 0.9916 0.0881
vn 0.0858 0.9943 0.0639
vn 0.3315 0.0245 0.9431
vn -0.6476 -0.6921 0.3187
vn -0.6905 -0.6591 0.2981
vn -0.8961 -0.3157 0.3119
vn -0.9156 -0.2965 0.2715
vn -0.3197 -0.0130 -0.9474
vn -0.9387 -0.0067 0.3446
vn 0.8896 -0.3446 -0.2998
vn -0.2657 0.0253 -0.9637
vn -0.8918 0.3444 0.2935
vn 0.6982 -0.7009 -0.1457
vn 0.3290 0.0197 0.9441
vn -0.0733 0.9935 0.0867
vn 0.3644 -0.9056 -0.2170
vn -0.2906 0.9285 0.2313
vn 0.3455 -0.8995 -0.2674
vn -0.4561 0.4401 -0.7735
vn -0.3564 0.9033 0.2387
vn 0.2185 -0.9425 -0.2527
vn 0.3738 -0.9077 -0.1904
vn -0.6308 0.7642 0.1347
vn 0.7223 -0.6837 -0.1046
vn -0.2602 0.9619 0.0842
vn 0.0100 -0.9983 -0.0580
vn -0.2843 0.9539 0.0966
vn 0.6815 0.7128 -0.1657
vn -0.4870 0.7854 0.3821
vn 0.6555 -0.5962 -0.4636
vn -0.8405 -0.5368 0.0735
vn -0.1291 -0.9739 -0.1869
vn 0.2372 -0.9613 -0.1403
vn -0.2429 0.9361 0.2545
vn 0.7872 0.5940 -0.1660
vn -0.2714 0.9537 0.1295
vn -0.1260 -0.9860 -0.1090
vn 0.3056 -0.9136 -0.2683
vn -0.1238 0.9761 0.1787
vn 0.2251 -0.9739 -0.0299
vn -0.2053 0.9577 0.2015
vn -0.0516 -0.9982 0.0312
vn 0.0976 0.9856 0.1379
vn -0.2579 -0.9642 0.0621
vn 0.0387 -0.9964 -0.0751
vn -0.0395 0.9922 0.1180
vn 0.2042 0.9769 0.0634
vn 0.0899 -0.9815 -0.1691
vn 0.0085 -0.9999 -0.0124
vn -0.0956 0.9906 0.0976
vn 0.1261 0.9916 0.0293
vn -0.3368 -0.3734 -0.8644
vn -0.0821 -0.9952 -0.0535
vn -0.2240 -0.6724 -0.7055
vn -0.0036 -0.9904 -0.1379
vn -0.1089 -0.9856 -0.1292
vn 0.8020 -0.5627 0.2004
vn -0.5115 -0.2347 -0.8266
vn 0.1919 -0.9558 -0.2228
vn -0.1332 -0.7294 -0.6710
vn -0.0949 -0.9914 -0.0896
vn 0.0887 0.9960 -0.0045
vn -0.2294 0.9657 0.1217
vn 0.1053 -0.9814 -0.1603
vn 0.2133 0.9740 0.0768
vn 0.1067 0.9936 0.0362
vn -0.5699 -0.8215 0.0178
vn -0.0476 -0.9960 -0.0763
vn -0.0321 -0.9938 0.1064
vn -0.6485 -0.7263 0.2279
vn 0.0148 0.9997 0.0219
vn 0.1540 0.9874 -0.0354
vn 0.3504 -0.2830 0.8928
vn -0.1107 -0.9556 0.2732
vn 0.3365 -0.9382 0.0813
vn -0.5014 -0.7252 0.4719
vn -0.1982 -0.1290 -0.9716
vn -0.0839 -0.9865 0.1405
vn 0.3767 -0.8957 0.2361
vn 0.2726 -0.0211 0.9619
vn -0.0024 -0.9954 0.0956
vn 0.7014 0.6546 -0.2822
vn 0.1687 -0.9403 0.2954
vn -0.2603 0.9227 0.2843
vn 0.3249 -0.9387 -0.1149
vn -0.2667 0.9574 0.1104
vn -0.0240 -0.9995 0.0212
vn 0.0768 0.9970 -0.0088
vt -0.717005 1.147941
vt -0.661547 1.147942
vt 1.450127 -0.070911
vt -0.717005 2.383491
vt -0.717005 2.366795
vt 0.269326 -0.070911
vt -0.772602 1.147941
vt -0.934631 -0.070911
vt -0.606090 1.147942
vt -0.772602 2.383491
vt 0.256987 -0.070911
vt -0.661547 2.366795
vt -0.828200 1.147941
vt -0.661547 2.366795
vt 1.450127 1.147942
vt -0.828200 2.383491
vt -0.717005 1.147942
vt 0.269326 1.147942
vt -0.772602 1.147941
vt -0.934631 1.147941
vt -0.606090 2.366795
vt 0.256987 1.147942
vt -0.772603 2.383491
vt -0.661547 1.147942
vt 1.356634 -0.037532
vt -0.824707 -0.037532
vt 0.116673 1.252805
vt -0.550492 1.147941
vt -0.771513 -0.037532
vt 1.187524 -0.037532
vt -0.654048 -0.037532
vt -0.550492 1.269737
vt 0.005479 1.374601
vt -0.611935 -0.037532
vt 1.029395 -0.037532
vt -0.494470 -0.037532
vt 0.005479 1.252805
vt -0.494895 1.147941
vt -0.463439 -0.037532
vt 0.882247 -0.037532
vt -0.345975 -0.037532
vt -0.494895 1.269737
vt -0.105715 1.374601
vt -0.314943 -0.037532
vt 0.735100 -0.037532
vt -0.197478 -0.037532
vt -0.105715 1.252805
vt -0.494895 1.374601
vt -0.166447 -0.037532
vt 0.587952 -0.037532
vt -0.048983 -0.037532
vt -0.494895 1.252806
vt -0.272507 1.374601
vt -0.013519 -0.037532
vt 0.436412 -0.037532
vt 0.103947 -0.037532
vt -0.272507 1.252806
vt 0.222575 1.147942
vt 0.140656 -0.037532
vt 0.222575 1.259183
vt 0.256987 1.087555
vt -0.661547 1.208327
vt 0.222575 1.268561
vt 0.256987 -0.037532
vt -0.661547 2.333415
vt -0.934631 -0.037532
vt -0.606090 1.181321
vt 0.116673 1.366781
vt 0.103947 1.087555
vt -0.383701 1.269737
vt 0.436412 1.087555
vt 0.268970 1.147941
vt 0.140656 1.087555
vt -0.197478 1.087555
vt -0.216910 1.269737
vt 0.735100 1.087555
vt -0.439298 1.147941
vt -0.166447 1.087555
vt -0.048983 1.087555
vt -0.439298 1.269737
vt 0.587952 1.087555
vt -0.383701 1.147941
vt -0.013519 1.087555
vt -0.824707 1.087555
vt 0.061076 1.261916
vt 1.356634 1.087555
vt -0.934631 1.087555
vt -0.606090 2.306408
vt 0.061076 1.147941
vt -0.272507 1.374601
vt -0.771513 1.087555
vt -0.272507 1.252805
vt 1.187524 1.087555
vt -0.654048 1.087555
vt -0.050118 1.147941
vt -0.611935 1.087555
vt -0.050118 1.269737
vt 1.029395 1.087555
vt -0.494470 1.087555
vt -0.105715 1.374601
vt -0.463439 1.087555
vt -0.105715 1.252805
vt 0.882247 1.087555
vt -0.345975 1.087555
vt -0.216910 1.147941
vt -0.314943 1.087555
vt -0.216910 1.147942
vt 0.320761 -0.037532
vt -0.328104 1.374600
vt 0.320761 1.087555
vt -0.383701 1.374601
vt 0.472301 1.087555
vt 0.101253 1.087555
vt -0.328104 1.252806
vt 0.437159 1.087555
vt -0.161312 1.147941
vt 0.766597 1.087555
vt -0.200171 1.087555
vt -0.161312 1.252805
vt 0.735847 1.087555
vt -0.161312 1.374601
vt 0.619449 1.087555
vt -0.051675 1.087555
vt -0.383701 1.252805
vt 0.588699 1.087555
vt 0.291349 1.147941
vt 1.421947 1.087555
vt 0.116673 1.244985
vt -0.934631 1.147941
vt 1.357382 1.087555
vt 0.116673 1.366781
vt 1.240984 1.087555
vt -0.656741 1.087555
vt -0.328104 1.269737
vt 1.188271 1.087555
vt -0.328104 1.147941
vt 1.071873 1.087555
vt -0.497163 1.087555
vt 0.005479 1.252805
vt 1.030142 1.087555
vt 0.005479 1.374601
vt 0.913744 1.087555
vt -0.348667 1.087555
vt -0.161312 1.269737
vt 0.882995 1.087555
vt 0.291347 1.173084
vt -0.661547 1.181321
vt 1.450127 -0.037532
vt 0.313370 1.192566
vt 1.421947 -0.037532
vt 0.172270 1.269737
vt -0.934631 2.273027
vt 1.357382 -0.037532
vt 0.172270 1.147941
vt 1.240984 -0.037532
vt -0.606090 1.252805
vt -0.656741 -0.037532
vt 1.188271 -0.037532
vt -0.606090 1.374600
vt 1.071873 -0.037532
vt 0.061076 1.269737
vt -0.497162 -0.037532
vt 1.030142 -0.037532
vt 0.061076 1.147941
vt 0.913744 -0.037532
vt -0.550492 1.252805
vt -0.348667 -0.037532
vt 0.882995 -0.037532
vt -0.550492 1.374601
vt 0.766597 -0.037532
vt -0.050118 1.269737
vt -0.200171 -0.037532
vt 0.735847 -0.037532
vt -0.050118 1.147941
vt 0.619449 -0.037532
vt -0.439298 1.269738
vt -0.051675 -0.037532
vt 0.588699 -0.037532
vt -0.439298 1.147942
vt 0.472301 -0.037532
vt -0.216910 1.269738
vt 0.101253 -0.037532
vt 0.437159 -0.037532
vt 0.269326 1.167422
vt -0.661547 2.306408
vt 1.450127 1.087555
vt 0.291349 1.192566
vt -0.628302 2.306408
vt 1.459378 1.087555
vt -0.609343 2.306408
vt 0.064337 1.147941
vt -0.828199 1.147941
vt 0.313370 1.147941
vt -0.628302 1.181321
vt 1.459378 -0.037532
vt -0.828199 2.273027
vt -0.609343 1.181321
vt 0.119935 1.366781
vt 0.172271 1.268561
vt -0.711726 2.333415
vt 0.269326 -0.037532
vt 0.268970 1.278727
vt 0.269326 1.087555
vt -0.711726 1.208327
vt 0.472301 0.525011
vt -0.013519 0.525012
vt 0.101253 0.525012
vt 0.437159 0.525011
vt 0.587952 0.525011
vt -0.048983 0.525012
vt -0.013519 0.806284
vt -0.048983 0.806284
vt 0.587952 0.806284
vt 0.472301 0.806284
vt 0.101253 0.806284
vt 0.437159 0.806284
vt 0.735100 0.525011
vt -0.197478 0.525011
vt -0.166447 0.525012
vt 0.619449 0.525011
vt -0.051675 0.525012
vt 0.588699 0.525011
vt 0.735100 0.806284
vt -0.197478 0.806284
vt -0.166447 0.806284
vt 0.619449 0.806284
vt -0.051675 0.806284
vt 0.588699 0.806284
vt 0.882247 0.525011
vt -0.345975 0.525011
vt -0.200171 0.525011
vt 0.735847 0.525011
vt 0.766597 0.525011
vt -0.314943 0.525011
vt 1.029395 0.525011
vt -0.494470 0.525011
vt 0.913744 0.525011
vt -0.463439 0.525011
vt 0.882995 0.525011
vt -0.348667 0.525011
vt 1.187524 0.525011
vt -0.654048 0.525011
vt 1.071873 0.525011
vt -0.611935 0.525011
vt -0.497162 0.525011
vt 1.030142 0.525011
vt -0.345975 0.806284
vt 0.882247 0.806284
vt -0.314943 0.806284
vt 0.735847 0.806284
vt -0.200171 0.806284
vt 0.766597 0.806284
vt -0.494470 0.806284
vt 1.029395 0.806284
vt -0.463439 0.806284
vt 0.913744 0.806284
vt -0.348667 0.806284
vt 0.882995 0.806284
vt 0.913744 0.243740
vt -0.348667 0.243740
vt 0.882995 0.243740
vt 1.029395 0.243740
vt -0.494470 0.243740
vt -0.463439 0.243740
vt 0.619449 0.243740
vt 0.588699 0.243740
vt -0.051675 0.243740
vt -0.197478 0.243740
vt 0.735100 0.243740
vt -0.166447 0.243740
vt -0.200171 0.243740
vt 0.735847 0.243740
vt 0.766597 0.243740
vt 0.882247 0.243740
vt -0.345975 0.243740
vt -0.314943 0.243740
s 0
f 2/4/1 3/7/1 1/1/1
f 26/69/2 22/59/2 27/73/2
f 32/84/3 9/26/3 34/91/3
f 92/225/4 28/74/4 91/224/4
f 19/51/5 80/206/5 82/210/5
f 125/275/6 16/44/6 126/276/6
f 117/263/7 14/39/7 118/264/7
f 103/242/8 12/34/8 105/244/8
f 8/23/9 5/13/9 7/19/9
f 85/214/10 44/115/10 86/216/10
f 123/272/11 66/170/11 124/273/11
f 75/194/12 3/9/12 76/197/12
f 78/204/13 77/200/13 2/5/13
f 21/57/14 71/181/14 20/53/14
f 26/70/15 44/114/15 42/109/15
f 80/206/16 71/182/16 81/207/16
f 26/71/17 41/108/17 21/55/17
f 19/52/18 69/176/18 18/48/18
f 30/80/19 48/124/19 43/111/19
f 122/270/20 69/177/20 120/267/20
f 30/81/21 85/214/21 84/213/21
f 17/47/22 67/171/22 16/43/22
f 28/75/23 46/119/23 47/121/23
f 126/276/24 67/172/24 123/271/24
f 28/76/25 93/226/25 91/223/25
f 15/42/26 65/166/26 14/38/26
f 39/102/23 56/144/23 45/116/23
f 118/264/27 65/167/27 116/260/27
f 39/103/28 110/252/28 107/248/28
f 13/37/29 63/161/29 12/33/29
f 37/97/30 54/139/30 55/141/30
f 105/244/31 63/162/31 106/245/31
f 37/98/32 113/256/32 111/254/32
f 11/32/29 61/156/29 10/28/29
f 35/92/23 52/134/23 53/136/23
f 34/91/33 61/157/33 52/133/33
f 35/93/34 104/243/34 103/241/34
f 9/27/29 59/151/29 76/198/29
f 50/128/23 51/131/23 32/85/23
f 59/152/35 74/192/35 76/196/35
f 32/86/36 60/155/36 9/25/36
f 77/199/37 22/58/37 24/63/37
f 23/60/38 27/72/38 78/202/38
f 27/73/39 77/201/39 78/203/39
f 75/193/29 58/149/29 57/146/29
f 49/126/23 73/187/23 72/184/23
f 58/150/40 73/189/40 49/127/40
f 82/209/41 70/180/41 19/50/41
f 83/211/42 81/207/42 86/215/42
f 93/226/43 48/125/43 94/228/43
f 82/210/44 83/211/44 84/212/44
f 84/212/45 31/83/45 30/79/45
f 31/83/46 86/215/46 44/113/46
f 84/213/47 79/205/47 82/209/47
f 79/205/48 86/216/48 81/208/48
f 113/256/49 56/145/49 114/258/49
f 87/217/50 119/265/50 121/269/50
f 92/225/51 90/221/51 94/227/51
f 122/270/52 87/218/52 121/268/52
f 29/78/53 94/227/53 48/123/53
f 89/220/54 94/228/54 90/222/54
f 91/223/55 89/220/55 87/217/55
f 88/219/56 91/224/56 87/218/56
f 95/229/57 124/273/57 125/274/57
f 108/249/58 96/231/58 109/251/58
f 106/246/59 62/160/59 104/243/59
f 107/247/60 98/234/60 108/249/60
f 115/259/61 102/239/61 116/261/61
f 99/235/62 115/259/62 117/262/62
f 112/255/63 102/240/63 114/257/63
f 111/253/64 101/238/64 112/255/64
f 109/250/65 97/233/65 110/252/65
f 103/241/66 62/160/66 11/30/66
f 36/96/67 106/245/67 54/138/67
f 35/94/68 105/244/68 36/96/68
f 6/18/69 43/112/69 48/125/69
f 39/104/70 108/249/70 40/106/70
f 40/106/71 109/251/71 46/118/71
f 107/248/72 97/233/72 95/229/72
f 37/99/73 112/255/73 38/101/73
f 38/101/74 114/257/74 56/143/74
f 100/237/75 114/258/75 102/239/75
f 111/254/76 100/237/76 99/235/76
f 117/262/77 64/165/77 13/35/77
f 119/265/78 90/222/78 120/266/78
f 101/238/79 116/260/79 102/240/79
f 99/236/80 118/264/80 101/238/80
f 1/3/81 64/165/81 65/168/81
f 18/49/82 121/268/82 17/46/82
f 121/269/83 68/175/83 17/45/83
f 88/219/84 120/267/84 90/221/84
f 125/274/85 66/170/85 15/40/85
f 98/234/86 123/271/86 96/231/86
f 96/232/87 124/273/87 97/233/87
f 95/230/88 126/276/88 98/234/88
f 2/4/89 4/10/89 3/7/89
f 26/69/2 21/56/2 22/59/2
f 25/66/3 3/8/3 9/26/3
f 3/8/90 4/11/90 15/41/90
f 9/26/3 3/8/3 10/29/3
f 4/11/91 24/64/91 22/59/91
f 21/56/92 20/54/92 4/11/92
f 20/54/93 19/51/93 4/11/93
f 4/11/91 22/59/91 21/56/91
f 10/29/3 3/8/3 11/31/3
f 7/20/3 33/87/3 32/84/3
f 18/49/94 17/46/94 4/11/94
f 17/46/95 16/44/95 4/11/95
f 4/11/94 19/51/94 18/49/94
f 8/22/96 7/20/96 39/104/96
f 7/20/3 32/84/3 34/91/3
f 27/73/97 23/61/97 8/22/97
f 30/79/98 31/83/98 8/22/98
f 31/83/99 26/69/99 8/22/99
f 26/69/91 27/73/91 8/22/91
f 15/41/100 14/39/100 3/8/100
f 14/39/3 13/36/3 3/8/3
f 4/11/91 16/44/91 15/41/91
f 40/106/101 28/74/101 8/22/101
f 28/74/101 29/78/101 8/22/101
f 29/78/102 30/79/102 8/22/102
f 12/34/3 11/31/3 3/8/3
f 12/34/3 3/8/3 13/36/3
f 37/99/103 38/101/103 7/20/103
f 38/101/3 39/104/3 7/20/3
f 39/104/101 40/106/101 8/22/101
f 34/91/3 35/94/3 7/20/3
f 35/94/3 36/96/3 7/20/3
f 7/20/104 36/96/104 37/99/104
f 9/26/3 10/29/3 34/91/3
f 92/225/105 29/78/105 28/74/105
f 19/51/106 20/54/106 80/206/106
f 125/275/107 15/41/107 16/44/107
f 117/263/108 13/36/108 14/39/108
f 103/242/109 11/31/109 12/34/109
f 8/23/110 6/16/110 5/13/110
f 85/214/111 43/112/111 44/115/111
f 123/272/112 67/173/112 66/170/112
f 74/190/12 33/88/12 7/21/12
f 7/21/12 5/14/12 73/188/12
f 5/14/12 72/185/12 73/188/12
f 74/190/12 7/21/12 73/188/12
f 75/194/12 57/147/12 1/2/12
f 74/190/12 73/188/12 75/194/12
f 3/9/12 25/67/12 76/197/12
f 76/197/12 74/190/12 75/194/12
f 75/194/12 1/2/12 3/9/12
f 24/65/13 4/12/13 77/200/13
f 4/12/13 2/5/13 77/200/13
f 6/17/113 8/24/113 78/204/113
f 8/24/114 23/62/114 78/204/114
f 6/17/13 78/204/13 2/5/13
f 21/57/37 41/107/37 71/181/37
f 26/70/115 31/82/115 44/114/115
f 80/206/116 20/54/116 71/182/116
f 26/71/117 42/110/117 41/108/117
f 19/52/18 70/179/18 69/176/18
f 30/80/118 29/77/118 48/124/118
f 122/270/119 18/49/119 69/177/119
f 30/81/120 43/112/120 85/214/120
f 17/47/121 68/174/121 67/171/121
f 28/75/23 40/105/23 46/119/23
f 126/276/122 16/44/122 67/172/122
f 28/76/123 47/122/123 93/226/123
f 15/42/37 66/169/37 65/166/37
f 39/102/23 38/100/23 56/144/23
f 118/264/124 14/39/124 65/167/124
f 39/103/125 45/117/125 110/252/125
f 13/37/29 64/164/29 63/161/29
f 37/97/126 36/95/126 54/139/126
f 105/244/127 12/34/127 63/162/127
f 37/98/128 55/142/128 113/256/128
f 11/32/29 62/159/29 61/156/29
f 35/92/23 34/90/23 52/134/23
f 34/91/33 10/29/33 61/157/33
f 35/93/129 53/137/129 104/243/129
f 76/198/29 25/68/29 9/27/29
f 9/27/29 60/154/29 59/151/29
f 33/89/23 74/191/23 32/85/23
f 74/191/23 50/128/23 32/85/23
f 59/152/35 50/129/35 74/192/35
f 32/86/36 51/132/36 60/155/36
f 27/73/130 22/59/130 77/201/130
f 58/150/40 75/195/40 73/189/40
f 82/209/131 79/205/131 70/180/131
f 83/211/132 80/206/132 81/207/132
f 93/226/133 47/122/133 48/125/133
f 82/210/134 80/206/134 83/211/134
f 84/212/135 83/211/135 31/83/135
f 31/83/136 83/211/136 86/215/136
f 84/213/137 85/214/137 79/205/137
f 79/205/138 85/214/138 86/216/138
f 113/256/139 55/142/139 56/145/139
f 87/217/140 89/220/140 119/265/140
f 92/225/141 88/219/141 90/221/141
f 122/270/142 88/219/142 87/218/142
f 29/78/143 92/225/143 94/227/143
f 89/220/144 93/226/144 94/228/144
f 91/223/145 93/226/145 89/220/145
f 88/219/146 92/225/146 91/224/146
f 95/229/147 97/233/147 124/273/147
f 108/249/148 98/234/148 96/231/148
f 106/246/149 63/163/149 62/160/149
f 107/247/150 95/230/150 98/234/150
f 115/259/151 100/237/151 102/239/151
f 99/235/152 100/237/152 115/259/152
f 112/255/153 101/238/153 102/240/153
f 111/253/154 99/236/154 101/238/154
f 109/250/155 96/232/155 97/233/155
f 103/241/156 104/243/156 62/160/156
f 36/96/157 105/244/157 106/245/157
f 35/94/158 103/242/158 105/244/158
f 45/117/159 56/145/159 6/18/159
f 56/145/160 55/142/160 5/15/160
f 6/18/161 56/145/161 5/15/161
f 54/140/162 106/246/162 104/243/162
f 55/142/160 54/140/160 5/15/160
f 54/140/163 104/243/163 53/137/163
f 52/135/160 61/158/160 60/155/160
f 54/140/160 53/137/160 5/15/160
f 52/135/160 60/155/160 51/132/160
f 53/137/160 52/135/160 5/15/160
f 51/132/160 50/130/160 5/15/160
f 50/130/160 49/127/160 5/15/160
f 51/132/160 5/15/160 52/135/160
f 49/127/160 72/186/160 5/15/160
f 6/18/69 2/6/69 42/110/69
f 2/6/69 41/108/69 42/110/69
f 42/110/164 44/115/164 6/18/164
f 44/115/165 43/112/165 6/18/165
f 109/250/166 110/252/166 45/117/166
f 48/125/167 47/122/167 6/18/167
f 47/122/159 46/120/159 6/18/159
f 46/120/168 109/250/168 45/117/168
f 46/120/159 45/117/159 6/18/159
f 39/104/169 107/247/169 108/249/169
f 40/106/170 108/249/170 109/251/170
f 107/248/171 110/252/171 97/233/171
f 37/99/172 111/253/172 112/255/172
f 38/101/173 112/255/173 114/257/173
f 100/237/174 113/256/174 114/258/174
f 111/254/175 113/256/175 100/237/175
f 117/262/176 115/259/176 64/165/176
f 119/265/177 89/220/177 90/222/177
f 101/238/178 118/264/178 116/260/178
f 99/236/179 117/263/179 118/264/179
f 41/108/69 2/6/69 71/183/69
f 2/6/180 1/3/180 65/168/180
f 71/183/69 2/6/69 70/180/69
f 1/3/160 57/148/160 58/150/160
f 58/150/160 49/127/160 50/130/160
f 59/153/160 60/155/160 1/3/160
f 60/155/160 61/158/160 1/3/160
f 58/150/160 50/130/160 59/153/160
f 70/180/69 2/6/69 69/178/69
f 79/205/181 81/208/181 71/183/181
f 70/180/182 79/205/182 71/183/182
f 1/3/160 58/150/160 59/153/160
f 61/158/160 62/160/160 1/3/160
f 62/160/160 63/163/160 1/3/160
f 69/178/69 2/6/69 68/175/69
f 119/265/183 120/266/183 69/178/183
f 68/175/184 2/6/184 67/173/184
f 64/165/185 115/259/185 116/261/185
f 1/3/160 63/163/160 64/165/160
f 68/175/186 119/265/186 69/178/186
f 65/168/69 66/170/69 2/6/69
f 66/170/187 67/173/187 2/6/187
f 64/165/188 116/261/188 65/168/188
f 18/49/189 122/270/189 121/268/189
f 121/269/190 119/265/190 68/175/190
f 88/219/191 122/270/191 120/267/191
f 125/274/192 124/273/192 66/170/192
f 98/234/193 126/276/193 123/271/193
f 96/232/194 123/272/194 124/273/194
f 95/230/195 125/275/195 126/276/195
