# Blender 3.3.1
# www.blender.org
o Vent_Grate.003
v -0.133926 0.097758 -7.586960
v 0.093127 0.251086 -8.188237
v -0.133923 0.068161 -7.588436
v 0.094129 0.224056 -8.200341
v 0.472325 0.086655 -7.362981
v 0.700509 0.179833 -7.978857
v 0.472328 0.057058 -7.364456
v 0.703072 0.115640 -8.009243
v -0.096297 0.070689 -7.639065
v -0.086124 0.072060 -7.666534
v -0.063658 0.075086 -7.727191
v -0.055604 0.076171 -7.748938
v -0.033139 0.079198 -7.809595
v -0.027204 0.079997 -7.825619
v -0.002413 0.090886 -7.910956
v 0.003412 0.097639 -7.925554
v 0.027021 0.086039 -7.999095
v 0.032845 0.092792 -8.013693
v 0.054893 0.118355 -8.068952
v 0.084154 0.150600 -8.107884
v 0.082037 0.188800 -8.122612
v 0.088927 0.196789 -8.139882
v 0.671420 0.156333 -8.001334
v 0.110762 0.222105 -8.194607
v -0.117320 0.067857 -7.582302
v 0.644255 0.085864 -7.947621
v 0.651145 0.093853 -7.964891
v 0.583274 0.076601 -7.756208
v 0.589208 0.077400 -7.772232
v 0.613989 0.089747 -7.857397
v 0.620646 0.097465 -7.874080
v 0.463316 0.060440 -7.432316
v 0.442293 0.057608 -7.375553
v 0.473489 0.061811 -7.459785
v 0.495955 0.064837 -7.520442
v 0.504009 0.065922 -7.542189
v 0.538456 0.081692 -7.605509
v 0.532409 0.069748 -7.618870
v 0.554874 0.072775 -7.679527
v 0.560809 0.073574 -7.695551
v 0.100018 0.237839 -8.158085
v 0.660675 0.172067 -7.964812
v 0.631971 0.138786 -7.892870
v 0.640188 0.109341 -7.927835
v 0.574213 0.104977 -7.730277
v 0.580148 0.105777 -7.746300
v 0.602613 0.108803 -7.806958
v 0.609923 0.113223 -7.837611
v 0.447728 0.087938 -7.388762
v 0.460190 0.089616 -7.422408
v 0.482655 0.092643 -7.483065
v 0.492828 0.094013 -7.510534
v 0.515294 0.097040 -7.571191
v 0.523348 0.098125 -7.592938
v 0.545813 0.101151 -7.653595
v 0.551748 0.101951 -7.669619
v -0.117323 0.097454 -7.580826
v -0.111884 0.098187 -7.595511
v -0.099423 0.099865 -7.629157
v -0.076958 0.102892 -7.689814
v -0.066784 0.104262 -7.717283
v -0.044319 0.107289 -7.777940
v -0.036265 0.108374 -7.799687
v -0.013800 0.111400 -7.860344
v -0.006480 0.114363 -7.891170
v 0.015568 0.139926 -7.946429
v 0.022954 0.109515 -7.979309
v 0.043441 0.172242 -8.016286
v 0.049265 0.178995 -8.030884
v 0.071313 0.204558 -8.086143
v 0.077970 0.212276 -8.102826
v 0.442290 0.087205 -7.374077
v 0.442292 0.069462 -7.374962
v 0.442293 0.059344 -7.375466
v -0.117321 0.079711 -7.581711
v -0.117320 0.069593 -7.582215
v 0.109856 0.246562 -8.183655
v 0.670513 0.180790 -7.990382
v 0.331412 0.123514 -8.002406
v 0.314252 0.113667 -8.024372
v 0.339760 0.121354 -8.040401
v 0.305538 0.095292 -7.984289
v 0.482418 0.085354 -7.940565
v 0.475057 0.111944 -7.907235
v 0.494789 0.171362 -7.938556
v 0.500541 0.123533 -7.977767
v 0.282223 0.097146 -7.910723
v 0.330538 0.090822 -7.902704
v 0.320846 0.109164 -7.931733
v 0.331806 0.103700 -7.934179
v 0.444423 0.081593 -7.809097
v 0.452998 0.085337 -7.819027
v 0.468557 0.117085 -7.870154
v 0.471734 0.117356 -7.889442
v 0.272398 0.072110 -7.776927
v 0.296536 0.095212 -7.842369
v 0.290814 0.091817 -7.830382
v 0.275693 0.072772 -7.788531
v 0.239911 0.070612 -7.684191
v 0.244038 0.076250 -7.716396
v 0.244738 0.069115 -7.705063
v 0.252408 0.073684 -7.728563
v 0.209038 0.072293 -7.603690
v 0.211223 0.075009 -7.623470
v 0.220511 0.072152 -7.627558
v 0.190732 0.077515 -7.656887
v 0.418092 0.083117 -7.734523
v 0.423977 0.083441 -7.749785
v 0.441506 0.102577 -7.796509
v 0.436172 0.096513 -7.781528
v 0.396340 0.074444 -7.652857
v 0.401135 0.073268 -7.668277
v 0.370290 0.077430 -7.695481
v 0.385644 0.074319 -7.699265
v 0.104989 0.084145 -7.781138
v 0.111036 0.083441 -7.791169
v 0.100626 0.081616 -7.749275
v 0.106137 0.080730 -7.766904
v 0.165490 0.118641 -7.995653
v 0.174218 0.099314 -8.021099
v 0.150773 0.104875 -7.936410
v 0.157289 0.073386 -7.970508
v 0.147818 0.113031 -7.903826
v 0.116129 0.112308 -7.875532
v 0.126684 0.083365 -7.815909
v 0.134142 0.084132 -7.838020
vn -0.9368 0.0173 -0.3493
vn -0.0314 -0.9023 -0.4299
vn 0.0001 -0.9988 -0.0498
vn 0.0772 -0.9531 -0.2926
vn 0.0534 -0.9121 -0.4065
vn -0.0651 -0.9963 -0.0565
vn -0.0146 -0.9989 0.0456
vn -0.0142 -0.9999 -0.0009
vn 0.9419 -0.0166 0.3355
vn 0.3186 0.6236 -0.7139
vn 0.1396 0.9735 0.1812
vn -0.3469 -0.0467 0.9367
vn 0.3405 0.3948 -0.8534
vn 0.9912 0.0916 0.0951
vn -0.9381 0.1134 -0.3274
vn -0.1340 -0.7934 -0.5937
vn -0.1307 0.6121 0.7799
vn 0.9398 -0.1148 0.3219
vn -0.9396 0.1102 -0.3239
vn -0.4293 -0.7373 -0.5216
vn -0.2169 0.5106 0.8320
vn 0.9418 -0.1057 0.3190
vn -0.9379 0.0172 -0.3465
vn 0.2365 -0.9068 -0.3490
vn -0.1417 0.8791 0.4550
vn 0.9605 -0.0621 0.2711
vn -0.1406 -0.9804 -0.1379
vn -0.0326 0.9644 0.2623
vn 0.9379 -0.0172 0.3465
vn -0.8068 -0.4943 -0.3235
vn -0.0573 -0.9908 -0.1229
vn -0.0922 0.9878 0.1256
vn 0.1629 -0.8600 -0.4836
vn -0.0133 0.9908 0.1346
vn 0.1651 -0.8563 -0.4893
vn -0.1629 0.8600 0.4836
vn 0.9396 -0.1102 0.3239
vn -0.9377 0.1125 -0.3288
vn 0.2736 -0.3263 -0.9048
vn -0.2602 0.6258 0.7353
vn -0.2908 0.2401 0.9262
vn 0.2551 -0.7342 -0.6292
vn 0.0232 0.9996 0.0178
vn -0.1892 -0.7875 0.5865
vn 0.0049 -0.9083 -0.4182
vn -0.0195 -0.9747 -0.2224
vn -0.3477 0.7111 0.6112
vn 0.0079 0.9985 -0.0550
vn -0.0086 0.7550 -0.6557
vn 0.0124 0.9733 0.2292
vn 0.2039 -0.9105 -0.3598
vn -0.1707 -0.7399 0.6507
vn 0.1391 -0.8864 -0.4416
vn 0.1682 0.6637 -0.7288
vn -0.1145 0.9383 0.3263
vn -0.1416 -0.9871 0.0750
vn -0.0494 0.8950 0.4432
vn 0.1505 -0.9334 -0.3258
vn 0.1276 0.9918 -0.0039
vn 0.0702 -0.9975 0.0059
vn 0.0787 0.9966 -0.0225
vn 0.0392 0.9957 0.0844
vn 0.0137 -0.9991 -0.0407
vn 0.0080 -0.9969 0.0785
vn -0.1404 0.9342 0.3281
vn -0.2032 0.8599 0.4682
vn 0.1473 -0.8596 -0.4893
vn -0.0062 -0.9986 -0.0521
vn -0.0338 0.9121 0.4085
vn -0.0455 -0.9967 -0.0666
vn 0.1911 -0.8601 -0.4729
vn -0.1567 0.9430 0.2937
vn -0.2835 -0.6476 0.7073
vn 0.2249 -0.8592 -0.4595
vn 0.0355 0.9825 -0.1828
vn -0.0572 0.9846 0.1651
vn -0.2231 0.8593 0.4603
vn 0.2662 0.8094 -0.5234
vn 0.0147 -0.9824 -0.1862
vn -0.1043 -0.9934 0.0471
vn 0.2207 0.9645 0.1451
vn 0.2917 -0.9072 -0.3033
vn -0.4675 0.2577 0.8456
vn 0.2245 -0.9050 -0.3613
vn -0.4380 0.6268 0.6445
vn 0.0419 -0.9279 -0.3705
vn 0.0376 0.9566 0.2889
vn -0.0546 -0.9959 -0.0724
vn -0.9402 0.1096 -0.3225
vn -0.9078 -0.1727 -0.3823
vn 0.0338 -0.9121 -0.4085
vn 0.9679 0.1354 0.2120
vn 0.0411 -0.7845 -0.6188
vn -0.8537 -0.2506 -0.4566
vn -0.9514 0.0140 -0.3076
vn 0.3923 -0.9181 0.0570
vn -0.5537 -0.2781 -0.7849
vn -0.7259 -0.4664 -0.5054
vn 0.6735 -0.6657 0.3212
vn -0.4258 -0.8737 -0.2352
vn 0.6937 -0.6850 0.2227
vn 0.0855 -0.9893 -0.1186
vn -0.7974 0.5820 -0.1593
vn 0.4778 -0.8775 0.0414
vn -0.0364 -0.9973 -0.0632
vn 0.0879 -0.7986 -0.5954
vn 0.2002 -0.9172 -0.3444
vn 0.0347 -0.9987 -0.0370
vn 0.0106 -0.9989 -0.0459
vn 0.9368 -0.1184 0.3292
vn 0.3618 0.7532 -0.5493
vn 0.3400 0.7272 -0.5963
vn 0.3380 0.4137 -0.8454
vn 0.2968 0.3994 -0.8674
vn -0.9418 0.1057 -0.3190
vn 0.3548 0.1117 -0.9282
vn -0.2911 0.2401 0.9261
vn -0.9607 0.0616 -0.2706
vn 0.2848 -0.2394 -0.9282
vn -0.1163 0.6098 0.7840
vn 0.9381 -0.1134 0.3274
vn 0.0351 -0.9785 -0.2034
vn -0.1731 0.8601 0.4798
vn 0.1853 -0.8932 -0.4097
vn -0.2235 0.8593 0.4601
vn -0.7905 -0.3341 -0.5133
vn 0.1948 -0.8601 -0.4715
vn -0.2052 0.9178 0.3400
vn -0.1465 0.8596 0.4896
vn 0.1012 -0.6807 -0.7256
vn -0.0764 0.5873 0.8058
vn 0.0363 -0.9224 -0.3845
vn -0.0055 0.9899 0.1414
vn 0.0494 -0.9119 -0.4073
vn -0.2105 -0.7863 0.5808
vn 0.3456 -0.7339 -0.5848
vn -0.4388 0.5287 0.7266
vn 0.1109 0.6380 -0.7620
vn -0.1339 0.9910 -0.0001
vn -0.0921 0.9278 0.3614
vn 0.2075 -0.9083 -0.3633
vn -0.2057 -0.6826 0.7012
vn 0.0821 -0.9153 -0.3943
vn -0.0556 0.9984 0.0048
vn -0.2232 0.8785 0.4224
vn 0.1284 -0.9595 -0.2508
vn 0.0189 0.9360 0.3516
vn 0.1530 -0.9318 -0.3291
vn 0.0842 0.9932 0.0807
vn 0.0848 -0.9959 -0.0328
vn 0.1156 0.9850 -0.1282
vn -0.0230 0.9853 0.1695
vn 0.0660 -0.9833 -0.1696
vn 0.0097 -0.9972 0.0737
vn -0.1182 0.9688 0.2180
vn 0.0402 0.9893 0.1403
vn 0.0464 -0.9732 -0.2251
vn -0.0243 -0.9997 -0.0058
vn -0.8397 0.4603 -0.2880
vn -0.0001 0.9988 0.0498
vn -0.6666 0.7329 -0.1361
vn -0.0856 0.9883 0.1266
vn -0.0759 0.9969 0.0216
vn 0.2208 0.4408 0.8700
vn -0.8074 0.3439 -0.4794
vn -0.1743 0.9328 0.3155
vn -0.6302 0.7755 -0.0385
vn -0.0362 0.9987 0.0364
vn -0.0579 -0.9974 -0.0435
vn 0.0732 -0.9322 -0.3543
vn -0.1096 0.9662 0.2332
vn 0.0231 -0.9963 0.0832
vn -0.0173 -0.9995 -0.0253
vn 0.0673 0.8872 -0.4564
vn -0.0232 0.9962 0.0840
vn 0.1589 0.9822 0.0997
vn 0.2730 0.7920 -0.5461
vn -0.0309 -0.9926 -0.1171
vn -0.0890 -0.9958 0.0222
vn 0.9026 0.1861 0.3883
vn 0.3243 0.9458 0.0175
vn 0.1268 0.8800 0.4577
vn 0.5149 0.7585 -0.3994
vn -0.9612 0.2059 -0.1834
vn 0.1931 0.9800 0.0476
vn 0.2788 0.8244 0.4926
vn 0.9586 -0.0666 0.2769
vn 0.1479 0.9805 0.1294
vn -0.3240 -0.7251 0.6077
vn 0.3426 0.8928 0.2926
vn 0.2382 -0.8944 -0.3787
vn -0.0689 0.8926 0.4455
vn 0.0628 -0.9185 -0.3903
vn 0.0740 0.9914 0.1083
vn -0.0621 -0.9965 -0.0555
vt -0.717005 1.147941
vt -0.661547 1.147942
vt 1.450127 -0.070911
vt -0.717005 2.383491
vt -0.717005 2.366795
vt 0.269326 -0.070911
vt -0.772602 1.147941
vt -0.934631 -0.070911
vt -0.606090 1.147942
vt -0.772602 2.383491
vt 0.256987 -0.070911
vt -0.661547 2.366795
vt -0.828200 1.147941
vt -0.661547 2.366795
vt 1.450127 1.147942
vt -0.828200 2.383491
vt -0.717005 1.147942
vt 0.269326 1.147942
vt -0.772602 1.147941
vt -0.934631 1.147941
vt -0.606090 2.366795
vt 0.256987 1.147942
vt -0.772603 2.383491
vt -0.661547 1.147942
vt 1.356634 -0.037532
vt -0.824707 -0.037532
vt 0.116673 1.252805
vt -0.550492 1.147941
vt -0.771513 -0.037532
vt 1.187524 -0.037532
vt -0.654048 -0.037532
vt -0.550492 1.269737
vt 0.005479 1.374601
vt -0.611935 -0.037532
vt 1.029395 -0.037532
vt -0.494470 -0.037532
vt 0.005479 1.252805
vt -0.494895 1.147941
vt -0.463439 -0.037532
vt 0.882247 -0.037532
vt -0.345975 -0.037532
vt -0.494895 1.269737
vt -0.105715 1.374601
vt -0.314943 -0.037532
vt 0.735100 -0.037532
vt -0.197478 -0.037532
vt -0.105715 1.252805
vt -0.494895 1.374601
vt -0.166447 -0.037532
vt 0.587952 -0.037532
vt -0.048983 -0.037532
vt -0.494895 1.252806
vt -0.272507 1.374601
vt -0.013519 -0.037532
vt 0.436412 -0.037532
vt 0.103947 -0.037532
vt -0.272507 1.252806
vt 0.222575 1.147942
vt 0.140656 -0.037532
vt 0.222575 1.259183
vt 0.256987 1.087555
vt -0.661547 1.208327
vt 0.222575 1.268561
vt 0.256987 -0.037532
vt -0.661547 2.333415
vt -0.934631 -0.037532
vt -0.606090 1.181321
vt 0.116673 1.366781
vt 0.103947 1.087555
vt -0.383701 1.269737
vt 0.436412 1.087555
vt 0.268970 1.147941
vt 0.140656 1.087555
vt -0.197478 1.087555
vt -0.216910 1.269737
vt 0.735100 1.087555
vt -0.439298 1.147941
vt -0.166447 1.087555
vt -0.048983 1.087555
vt -0.439298 1.269737
vt 0.587952 1.087555
vt -0.383701 1.147941
vt -0.013519 1.087555
vt -0.824707 1.087555
vt 0.061076 1.261916
vt 1.356634 1.087555
vt -0.934631 1.087555
vt -0.606090 2.306408
vt 0.061076 1.147941
vt -0.272507 1.374601
vt -0.771513 1.087555
vt -0.272507 1.252805
vt 1.187524 1.087555
vt -0.654048 1.087555
vt -0.050118 1.147941
vt -0.611935 1.087555
vt -0.050118 1.269737
vt 1.029395 1.087555
vt -0.494470 1.087555
vt -0.105715 1.374601
vt -0.463439 1.087555
vt -0.105715 1.252805
vt 0.882247 1.087555
vt -0.345975 1.087555
vt -0.216910 1.147941
vt -0.314943 1.087555
vt -0.216910 1.147942
vt 0.320761 -0.037532
vt -0.328104 1.374600
vt 0.320761 1.087555
vt -0.383701 1.374601
vt 0.472301 1.087555
vt 0.101253 1.087555
vt -0.328104 1.252806
vt 0.437159 1.087555
vt -0.161312 1.147941
vt 0.766597 1.087555
vt -0.200171 1.087555
vt -0.161312 1.252805
vt 0.735847 1.087555
vt -0.161312 1.374601
vt 0.619449 1.087555
vt -0.051675 1.087555
vt -0.383701 1.252805
vt 0.588699 1.087555
vt 0.291349 1.147941
vt 1.421947 1.087555
vt 0.116673 1.244985
vt -0.934631 1.147941
vt 1.357382 1.087555
vt 0.116673 1.366781
vt 1.240984 1.087555
vt -0.656741 1.087555
vt -0.328104 1.269737
vt 1.188271 1.087555
vt -0.328104 1.147941
vt 1.071873 1.087555
vt -0.497163 1.087555
vt 0.005479 1.252805
vt 1.030142 1.087555
vt 0.005479 1.374601
vt 0.913744 1.087555
vt -0.348667 1.087555
vt -0.161312 1.269737
vt 0.882995 1.087555
vt 0.291347 1.173084
vt -0.661547 1.181321
vt 1.450127 -0.037532
vt 0.313370 1.192566
vt 1.421947 -0.037532
vt 0.172270 1.269737
vt -0.934631 2.273027
vt 1.357382 -0.037532
vt 0.172270 1.147941
vt 1.240984 -0.037532
vt -0.606090 1.252805
vt -0.656741 -0.037532
vt 1.188271 -0.037532
vt -0.606090 1.374600
vt 1.071873 -0.037532
vt 0.061076 1.269737
vt -0.497162 -0.037532
vt 1.030142 -0.037532
vt 0.061076 1.147941
vt 0.913744 -0.037532
vt -0.550492 1.252805
vt -0.348667 -0.037532
vt 0.882995 -0.037532
vt -0.550492 1.374601
vt 0.766597 -0.037532
vt -0.050118 1.269737
vt -0.200171 -0.037532
vt 0.735847 -0.037532
vt -0.050118 1.147941
vt 0.619449 -0.037532
vt -0.439298 1.269738
vt -0.051675 -0.037532
vt 0.588699 -0.037532
vt -0.439298 1.147942
vt 0.472301 -0.037532
vt -0.216910 1.269738
vt 0.101253 -0.037532
vt 0.437159 -0.037532
vt 0.269326 1.167422
vt -0.661547 2.306408
vt 1.450127 1.087555
vt 0.291349 1.192566
vt -0.628302 2.306408
vt 1.459378 1.087555
vt -0.609343 2.306408
vt 0.064337 1.147941
vt -0.828199 1.147941
vt 0.313370 1.147941
vt -0.628302 1.181321
vt 1.459378 -0.037532
vt -0.828199 2.273027
vt -0.609343 1.181321
vt 0.119935 1.366781
vt 0.172271 1.268561
vt -0.711726 2.333415
vt 0.269326 -0.037532
vt 0.268970 1.278727
vt 0.269326 1.087555
vt -0.711726 1.208327
vt 0.472301 0.525011
vt -0.013519 0.525012
vt 0.101253 0.525012
vt 0.437159 0.525011
vt 0.587952 0.525011
vt -0.048983 0.525012
vt -0.013519 0.806284
vt -0.048983 0.806284
vt 0.587952 0.806284
vt 0.472301 0.806284
vt 0.101253 0.806284
vt 0.437159 0.806284
vt 0.735100 0.525011
vt -0.197478 0.525011
vt -0.166447 0.525012
vt 0.619449 0.525011
vt -0.051675 0.525012
vt 0.588699 0.525011
vt 0.735100 0.806284
vt -0.197478 0.806284
vt -0.166447 0.806284
vt 0.619449 0.806284
vt -0.051675 0.806284
vt 0.588699 0.806284
vt 0.882247 0.525011
vt -0.345975 0.525011
vt -0.200171 0.525011
vt 0.735847 0.525011
vt 0.766597 0.525011
vt -0.314943 0.525011
vt 1.029395 0.525011
vt -0.494470 0.525011
vt 0.913744 0.525011
vt -0.463439 0.525011
vt 0.882995 0.525011
vt -0.348667 0.525011
vt 1.187524 0.525011
vt -0.654048 0.525011
vt 1.071873 0.525011
vt -0.611935 0.525011
vt -0.497162 0.525011
vt 1.030142 0.525011
vt -0.345975 0.806284
vt 0.882247 0.806284
vt -0.314943 0.806284
vt 0.735847 0.806284
vt -0.200171 0.806284
vt 0.766597 0.806284
vt -0.494470 0.806284
vt 1.029395 0.806284
vt -0.463439 0.806284
vt 0.913744 0.806284
vt -0.348667 0.806284
vt 0.882995 0.806284
vt 0.913744 0.243740
vt -0.348667 0.243740
vt 0.882995 0.243740
vt 1.029395 0.243740
vt -0.494470 0.243740
vt -0.463439 0.243740
vt 0.619449 0.243740
vt 0.588699 0.243740
vt -0.051675 0.243740
vt -0.197478 0.243740
vt 0.735100 0.243740
vt -0.166447 0.243740
vt -0.200171 0.243740
vt 0.735847 0.243740
vt 0.766597 0.243740
vt 0.882247 0.243740
vt -0.345975 0.243740
vt -0.314943 0.243740
s 0
f 2/4/1 3/7/1 1/1/1
f 26/69/2 22/59/2 27/73/2
f 32/84/3 9/26/3 34/91/3
f 92/225/4 28/74/4 91/224/4
f 19/51/5 80/206/5 82/210/5
f 125/275/6 16/44/6 126/276/6
f 117/263/7 14/39/7 118/264/7
f 103/242/8 12/34/8 105/244/8
f 8/23/9 5/13/9 7/19/9
f 85/214/10 44/115/10 86/216/10
f 123/272/11 66/170/11 124/273/11
f 75/194/12 3/9/12 76/197/12
f 78/204/13 77/200/13 2/5/13
f 21/57/14 71/181/14 20/53/14
f 26/70/15 44/114/15 42/109/15
f 80/206/16 71/182/16 81/207/16
f 26/71/17 41/108/17 21/55/17
f 19/52/18 69/176/18 18/48/18
f 30/80/19 48/124/19 43/111/19
f 122/270/20 69/177/20 120/267/20
f 30/81/21 85/214/21 84/213/21
f 17/47/22 67/171/22 16/43/22
f 28/75/23 46/119/23 47/121/23
f 126/276/24 67/172/24 123/271/24
f 28/76/25 93/226/25 91/223/25
f 15/42/26 65/166/26 14/38/26
f 39/102/23 56/144/23 45/116/23
f 118/264/27 65/167/27 116/260/27
f 39/103/28 110/252/28 107/248/28
f 13/37/29 63/161/29 12/33/29
f 37/97/30 54/139/30 55/141/30
f 105/244/31 63/162/31 106/245/31
f 37/98/32 113/256/32 111/254/32
f 11/32/29 61/156/29 10/28/29
f 35/92/23 52/134/23 53/136/23
f 34/91/33 61/157/33 52/133/33
f 35/93/34 104/243/34 103/241/34
f 9/27/29 59/151/29 76/198/29
f 50/128/23 51/131/23 32/85/23
f 59/152/35 74/192/35 76/196/35
f 32/86/36 60/155/36 9/25/36
f 77/199/37 22/58/37 24/63/37
f 23/60/38 27/72/38 78/202/38
f 27/73/39 77/201/39 78/203/39
f 75/193/29 58/149/29 57/146/29
f 49/126/23 73/187/23 72/184/23
f 58/150/40 73/189/40 49/127/40
f 82/209/41 70/180/41 19/50/41
f 83/211/42 81/207/42 86/215/42
f 93/226/43 48/125/43 94/228/43
f 82/210/44 83/211/44 84/212/44
f 84/212/45 31/83/45 30/79/45
f 31/83/46 86/215/46 44/113/46
f 84/213/47 79/205/47 82/209/47
f 79/205/48 86/216/48 81/208/48
f 113/256/49 56/145/49 114/258/49
f 87/217/50 119/265/50 121/269/50
f 92/225/51 90/221/51 94/227/51
f 122/270/52 87/218/52 121/268/52
f 29/78/53 94/227/53 48/123/53
f 89/220/54 94/228/54 90/222/54
f 91/223/55 89/220/55 87/217/55
f 88/219/56 91/224/56 87/218/56
f 95/229/57 124/273/57 125/274/57
f 108/249/58 96/231/58 109/251/58
f 106/246/59 62/160/59 104/243/59
f 107/247/60 98/234/60 108/249/60
f 115/259/61 102/239/61 116/261/61
f 99/235/62 115/259/62 117/262/62
f 112/255/63 102/240/63 114/257/63
f 111/253/64 101/238/64 112/255/64
f 109/250/65 97/233/65 110/252/65
f 103/241/66 62/160/66 11/30/66
f 36/96/67 106/245/67 54/138/67
f 35/94/68 105/244/68 36/96/68
f 6/18/69 43/112/69 48/125/69
f 39/104/70 108/249/70 40/106/70
f 40/106/71 109/251/71 46/118/71
f 107/248/72 97/233/72 95/229/72
f 37/99/73 112/255/73 38/101/73
f 38/101/74 114/257/74 56/143/74
f 100/237/75 114/258/75 102/239/75
f 111/254/76 100/237/76 99/235/76
f 117/262/77 64/165/77 13/35/77
f 119/265/78 90/222/78 120/266/78
f 101/238/79 116/260/79 102/240/79
f 99/236/80 118/264/80 101/238/80
f 1/3/81 64/165/81 65/168/81
f 18/49/82 121/268/82 17/46/82
f 121/269/83 68/175/83 17/45/83
f 88/219/84 120/267/84 90/221/84
f 125/274/85 66/170/85 15/40/85
f 98/234/86 123/271/86 96/231/86
f 96/232/87 124/273/87 97/233/87
f 95/230/88 126/276/88 98/234/88
f 2/4/89 4/10/89 3/7/89
f 26/69/2 21/56/2 22/59/2
f 25/66/3 3/8/3 9/26/3
f 3/8/90 4/11/90 15/41/90
f 9/26/3 3/8/3 10/29/3
f 4/11/91 24/64/91 22/59/91
f 21/56/92 20/54/92 4/11/92
f 20/54/93 19/51/93 4/11/93
f 4/11/91 22/59/91 21/56/91
f 10/29/3 3/8/3 11/31/3
f 7/20/3 33/87/3 32/84/3
f 18/49/94 17/46/94 4/11/94
f 17/46/95 16/44/95 4/11/95
f 4/11/94 19/51/94 18/49/94
f 8/22/96 7/20/96 39/104/96
f 7/20/3 32/84/3 34/91/3
f 27/73/97 23/61/97 8/22/97
f 30/79/98 31/83/98 8/22/98
f 31/83/99 26/69/99 8/22/99
f 26/69/91 27/73/91 8/22/91
f 15/41/100 14/39/100 3/8/100
f 14/39/3 13/36/3 3/8/3
f 4/11/91 16/44/91 15/41/91
f 40/106/101 28/74/101 8/22/101
f 28/74/101 29/78/101 8/22/101
f 29/78/102 30/79/102 8/22/102
f 12/34/3 11/31/3 3/8/3
f 12/34/3 3/8/3 13/36/3
f 37/99/103 38/101/103 7/20/103
f 38/101/3 39/104/3 7/20/3
f 39/104/101 40/106/101 8/22/101
f 34/91/3 35/94/3 7/20/3
f 35/94/3 36/96/3 7/20/3
f 7/20/104 36/96/104 37/99/104
f 9/26/3 10/29/3 34/91/3
f 92/225/105 29/78/105 28/74/105
f 19/51/106 20/54/106 80/206/106
f 125/275/107 15/41/107 16/44/107
f 117/263/108 13/36/108 14/39/108
f 103/242/109 11/31/109 12/34/109
f 8/23/110 6/16/110 5/13/110
f 85/214/111 43/112/111 44/115/111
f 123/272/112 67/173/112 66/170/112
f 74/190/12 33/88/12 7/21/12
f 7/21/12 5/14/12 73/188/12
f 5/14/12 72/185/12 73/188/12
f 74/190/12 7/21/12 73/188/12
f 75/194/12 57/147/12 1/2/12
f 74/190/12 73/188/12 75/194/12
f 3/9/12 25/67/12 76/197/12
f 76/197/12 74/190/12 75/194/12
f 75/194/12 1/2/12 3/9/12
f 24/65/13 4/12/13 77/200/13
f 4/12/13 2/5/13 77/200/13
f 6/17/113 8/24/113 78/204/113
f 8/24/114 23/62/114 78/204/114
f 6/17/13 78/204/13 2/5/13
f 21/57/37 41/107/37 71/181/37
f 26/70/115 31/82/115 44/114/115
f 80/206/116 20/54/116 71/182/116
f 26/71/117 42/110/117 41/108/117
f 19/52/18 70/179/18 69/176/18
f 30/80/118 29/77/118 48/124/118
f 122/270/119 18/49/119 69/177/119
f 30/81/120 43/112/120 85/214/120
f 17/47/121 68/174/121 67/171/121
f 28/75/23 40/105/23 46/119/23
f 126/276/122 16/44/122 67/172/122
f 28/76/123 47/122/123 93/226/123
f 15/42/37 66/169/37 65/166/37
f 39/102/23 38/100/23 56/144/23
f 118/264/124 14/39/124 65/167/124
f 39/103/125 45/117/125 110/252/125
f 13/37/29 64/164/29 63/161/29
f 37/97/126 36/95/126 54/139/126
f 105/244/127 12/34/127 63/162/127
f 37/98/128 55/142/128 113/256/128
f 11/32/29 62/159/29 61/156/29
f 35/92/23 34/90/23 52/134/23
f 34/91/33 10/29/33 61/157/33
f 35/93/129 53/137/129 104/243/129
f 76/198/29 25/68/29 9/27/29
f 9/27/29 60/154/29 59/151/29
f 33/89/23 74/191/23 32/85/23
f 74/191/23 50/128/23 32/85/23
f 59/152/35 50/129/35 74/192/35
f 32/86/36 51/132/36 60/155/36
f 27/73/130 22/59/130 77/201/130
f 58/150/40 75/195/40 73/189/40
f 82/209/131 79/205/131 70/180/131
f 83/211/132 80/206/132 81/207/132
f 93/226/133 47/122/133 48/125/133
f 82/210/134 80/206/134 83/211/134
f 84/212/135 83/211/135 31/83/135
f 31/83/136 83/211/136 86/215/136
f 84/213/137 85/214/137 79/205/137
f 79/205/138 85/214/138 86/216/138
f 113/256/139 55/142/139 56/145/139
f 87/217/140 89/220/140 119/265/140
f 92/225/141 88/219/141 90/221/141
f 122/270/142 88/219/142 87/218/142
f 29/78/143 92/225/143 94/227/143
f 89/220/144 93/226/144 94/228/144
f 91/223/145 93/226/145 89/220/145
f 88/219/146 92/225/146 91/224/146
f 95/229/147 97/233/147 124/273/147
f 108/249/148 98/234/148 96/231/148
f 106/246/149 63/163/149 62/160/149
f 107/247/150 95/230/150 98/234/150
f 115/259/151 100/237/151 102/239/151
f 99/235/152 100/237/152 115/259/152
f 112/255/153 101/238/153 102/240/153
f 111/253/154 99/236/154 101/238/154
f 109/250/155 96/232/155 97/233/155
f 103/241/156 104/243/156 62/160/156
f 36/96/157 105/244/157 106/245/157
f 35/94/158 103/242/158 105/244/158
f 45/117/159 56/145/159 6/18/159
f 56/145/160 55/142/160 5/15/160
f 6/18/161 56/145/161 5/15/161
f 54/140/162 106/246/162 104/243/162
f 55/142/160 54/140/160 5/15/160
f 54/140/163 104/243/163 53/137/163
f 52/135/160 61/158/160 60/155/160
f 54/140/160 53/137/160 5/15/160
f 52/135/160 60/155/160 51/132/160
f 53/137/160 52/135/160 5/15/160
f 51/132/160 50/130/160 5/15/160
f 50/130/160 49/127/160 5/15/160
f 51/132/160 5/15/160 52/135/160
f 49/127/160 72/186/160 5/15/160
f 6/18/69 2/6/69 42/110/69
f 2/6/69 41/108/69 42/110/69
f 42/110/164 44/115/164 6/18/164
f 44/115/165 43/112/165 6/18/165
f 109/250/166 110/252/166 45/117/166
f 48/125/167 47/122/167 6/18/167
f 47/122/159 46/120/159 6/18/159
f 46/120/168 109/250/168 45/117/168
f 46/120/159 45/117/159 6/18/159
f 39/104/169 107/247/169 108/249/169
f 40/106/170 108/249/170 109/251/170
f 107/248/171 110/252/171 97/233/171
f 37/99/172 111/253/172 112/255/172
f 38/101/173 112/255/173 114/257/173
f 100/237/174 113/256/174 114/258/174
f 111/254/175 113/256/175 100/237/175
f 117/262/176 115/259/176 64/165/176
f 119/265/177 89/220/177 90/222/177
f 101/238/178 118/264/178 116/260/178
f 99/236/179 117/263/179 118/264/179
f 41/108/69 2/6/69 71/183/69
f 2/6/180 1/3/180 65/168/180
f 71/183/69 2/6/69 70/180/69
f 1/3/160 57/148/160 58/150/160
f 58/150/160 49/127/160 50/130/160
f 59/153/160 60/155/160 1/3/160
f 60/155/160 61/158/160 1/3/160
f 58/150/160 50/130/160 59/153/160
f 70/180/69 2/6/69 69/178/69
f 79/205/181 81/208/181 71/183/181
f 70/180/182 79/205/182 71/183/182
f 1/3/160 58/150/160 59/153/160
f 61/158/160 62/160/160 1/3/160
f 62/160/160 63/163/160 1/3/160
f 69/178/69 2/6/69 68/175/69
f 119/265/183 120/266/183 69/178/183
f 68/175/184 2/6/184 67/173/184
f 64/165/185 115/259/185 116/261/185
f 1/3/160 63/163/160 64/165/160
f 68/175/186 119/265/186 69/178/186
f 65/168/69 66/170/69 2/6/69
f 66/170/187 67/173/187 2/6/187
f 64/165/188 116/261/188 65/168/188
f 18/49/189 122/270/189 121/268/189
f 121/269/190 119/265/190 68/175/190
f 88/219/191 122/270/191 120/267/191
f 125/274/192 124/273/192 66/170/192
f 98/234/193 126/276/193 123/271/193
f 96/232/194 123/272/194 124/273/194
f 95/230/195 125/275/195 126/276/195
