# Blender 3.3.1
# www.blender.org
o Vent_Grate.003
v 0.392582 0.063891 -8.061183
v 0.088835 0.528182 -7.702341
v 0.388487 0.074500 -8.088548
v 0.077453 0.544783 -7.724089
v 0.946440 0.394096 -8.016048
v 0.626159 0.887438 -7.709312
v 0.942345 0.404705 -8.043413
v 0.597983 0.927943 -7.760461
v 0.373555 0.130905 -8.064445
v 0.358989 0.153825 -8.053380
v 0.326824 0.204436 -8.028946
v 0.315292 0.222580 -8.020185
v 0.283127 0.273192 -7.995750
v 0.274630 0.286562 -7.989295
v 0.225739 0.350465 -7.950032
v 0.218865 0.360972 -7.938414
v 0.176049 0.424647 -7.923835
v 0.169175 0.435154 -7.912217
v 0.143154 0.474926 -7.868237
v 0.134911 0.508553 -7.821194
v 0.126071 0.502804 -7.781579
v 0.117939 0.515234 -7.767835
v 0.588156 0.886241 -7.730715
v 0.092168 0.554622 -7.724280
v 0.403655 0.083543 -8.087312
v 0.605264 0.858326 -7.817415
v 0.597132 0.870755 -7.803671
v 0.713052 0.705957 -7.892308
v 0.704555 0.719327 -7.885853
v 0.655936 0.782643 -7.845272
v 0.648080 0.794651 -7.831994
v 0.884805 0.435708 -8.022783
v 0.914905 0.388346 -8.045650
v 0.870239 0.458627 -8.011718
v 0.838073 0.509238 -7.987283
v 0.826542 0.527383 -7.978523
v 0.801168 0.584308 -7.939019
v 0.785879 0.591364 -7.947633
v 0.753714 0.641976 -7.923198
v 0.745217 0.655346 -7.916743
v 0.115049 0.520446 -7.721966
v 0.611037 0.852065 -7.728401
v 0.644914 0.800285 -7.785658
v 0.620264 0.836195 -7.801781
v 0.730115 0.674942 -7.874795
v 0.721618 0.688312 -7.868340
v 0.689453 0.738923 -7.843905
v 0.670935 0.760513 -7.829638
v 0.911213 0.389989 -8.012369
v 0.893371 0.418063 -7.998816
v 0.861206 0.468674 -7.974380
v 0.846640 0.491594 -7.963315
v 0.814475 0.542205 -7.938880
v 0.802943 0.560350 -7.930120
v 0.770778 0.610961 -7.905685
v 0.762281 0.624331 -7.899230
v 0.407750 0.072934 -8.059947
v 0.399963 0.085187 -8.054032
v 0.382122 0.113260 -8.040478
v 0.349956 0.163872 -8.016044
v 0.335390 0.186791 -8.004978
v 0.303225 0.237402 -7.980543
v 0.291693 0.255547 -7.971783
v 0.259528 0.306158 -7.947348
v 0.240739 0.328335 -7.934398
v 0.214717 0.368107 -7.890418
v 0.191049 0.402516 -7.908201
v 0.181822 0.418386 -7.834821
v 0.174948 0.428893 -7.823203
v 0.148926 0.468666 -7.779223
v 0.141070 0.480673 -7.765945
v 0.919000 0.377737 -8.018285
v 0.916545 0.384097 -8.034689
v 0.915145 0.387724 -8.044044
v 0.405295 0.079294 -8.076352
v 0.403895 0.082921 -8.085707
v 0.102467 0.539601 -7.704602
v 0.598455 0.871220 -7.711038
v 0.369409 0.642571 -7.827965
v 0.340697 0.645529 -7.834354
v 0.345241 0.671316 -7.817590
v 0.364184 0.622085 -7.864669
v 0.508476 0.733025 -7.851663
v 0.532124 0.699636 -7.837589
v 0.526438 0.712789 -7.769066
v 0.495128 0.755345 -7.801726
v 0.406228 0.561831 -7.888347
v 0.442263 0.595573 -7.887070
v 0.415655 0.598884 -7.863531
v 0.420146 0.610310 -7.865815
v 0.585223 0.630433 -7.899896
v 0.583373 0.641321 -7.891885
v 0.557053 0.671818 -7.844543
v 0.544252 0.685163 -7.838202
v 0.500420 0.486057 -7.951681
v 0.467640 0.534044 -7.906717
v 0.472907 0.524003 -7.914422
v 0.493642 0.494960 -7.947124
v 0.551083 0.409043 -7.985736
v 0.529483 0.428732 -7.970510
v 0.537928 0.425118 -7.980280
v 0.525153 0.442829 -7.967828
v 0.593672 0.339202 -8.013023
v 0.580111 0.351278 -8.004441
v 0.582545 0.361532 -8.004143
v 0.541727 0.354224 -7.996645
v 0.626106 0.567447 -7.924760
v 0.618116 0.580500 -7.918977
v 0.595163 0.614111 -7.884337
v 0.602710 0.603526 -7.895319
v 0.674314 0.507196 -7.960308
v 0.665364 0.520016 -7.956102
v 0.625387 0.511088 -7.950543
v 0.631858 0.525801 -7.949378
v 0.392704 0.358894 -7.972053
v 0.388736 0.369410 -7.968685
v 0.414202 0.338198 -7.984311
v 0.404034 0.352726 -7.979065
v 0.269372 0.515817 -7.867024
v 0.253377 0.543319 -7.876244
v 0.304266 0.475372 -7.899618
v 0.279004 0.510182 -7.918239
v 0.328276 0.451796 -7.901773
v 0.329960 0.412047 -7.916688
v 0.379580 0.395351 -7.958676
v 0.367360 0.413362 -7.950228
vn -0.8583 -0.5085 -0.0687
vn -0.4408 0.5204 -0.7314
vn -0.1382 0.3580 -0.9234
vn -0.2717 0.5399 -0.7967
vn -0.3702 0.5738 -0.7306
vn -0.1843 0.3121 -0.9320
vn -0.0741 0.2924 -0.9534
vn -0.1097 0.3197 -0.9412
vn 0.8510 0.5199 0.0742
vn -0.2855 0.4424 0.8502
vn 0.3249 -0.3202 0.8899
vn 0.4967 -0.7816 -0.3773
vn -0.4018 0.6142 0.6792
vn 0.7080 0.6591 0.2536
vn -0.8326 -0.5537 0.0150
vn -0.6206 0.5013 -0.6029
vn 0.5786 -0.7468 0.3280
vn 0.8293 0.5586 -0.0145
vn -0.8313 -0.5558 0.0108
vn -0.7459 0.2199 -0.6287
vn 0.5541 -0.8078 0.2010
vn 0.8293 0.5587 -0.0048
vn -0.8568 -0.5108 -0.0698
vn -0.2099 0.6765 -0.7059
vn 0.3485 -0.6570 0.6685
vn 0.8087 0.5858 0.0534
vn -0.2930 0.2969 -0.9089
vn 0.2777 -0.4928 0.8246
vn 0.8568 0.5108 0.0698
vn -0.8076 -0.2570 -0.5308
vn -0.2299 0.3542 -0.9065
vn 0.1372 -0.4669 0.8736
vn -0.3552 0.6830 -0.6383
vn 0.1943 -0.4139 0.8894
vn -0.3578 0.6866 -0.6329
vn 0.3552 -0.6830 0.6383
vn 0.8313 0.5558 -0.0108
vn -0.8335 -0.5523 0.0147
vn -0.5558 0.8313 0.0038
vn 0.4639 -0.8229 0.3281
vn 0.5528 -0.8280 -0.0941
vn -0.3964 0.7940 -0.4609
vn 0.1284 -0.3225 0.9378
vn 0.2528 -0.2183 -0.9426
vn -0.4095 0.5429 -0.7332
vn -0.2810 0.4343 -0.8558
vn 0.3217 -0.8455 0.4261
vn 0.0626 -0.2919 0.9544
vn -0.4341 0.1202 0.8928
vn 0.2816 -0.4430 0.8511
vn -0.2391 0.6594 -0.7128
vn 0.3186 -0.2568 -0.9124
vn -0.3405 0.6497 -0.6796
vn -0.3879 0.3249 0.8626
vn 0.2726 -0.5823 0.7659
vn -0.1305 0.1763 -0.9756
vn 0.3992 -0.5862 0.7049
vn -0.2490 0.6074 -0.7544
vn 0.1768 -0.2291 0.9572
vn -0.0510 0.3783 -0.9243
vn 0.1322 -0.2567 0.9574
vn 0.1893 -0.3473 0.9184
vn -0.1227 0.3631 -0.9236
vn -0.0343 0.2898 -0.9565
vn 0.2571 -0.6014 0.7564
vn 0.3179 -0.7044 0.6347
vn -0.3693 0.6744 -0.6394
vn -0.1440 0.3545 -0.9239
vn 0.3841 -0.5602 0.7339
vn -0.1797 0.3328 -0.9257
vn -0.3292 0.6980 -0.6359
vn 0.2213 -0.5968 0.7712
vn 0.3001 -0.4044 -0.8639
vn -0.2974 0.7154 -0.6323
vn -0.0198 -0.1927 0.9811
vn 0.1894 -0.4622 0.8663
vn 0.2991 -0.7145 0.6325
vn -0.1535 0.2327 0.9604
vn -0.2323 0.4417 -0.8666
vn -0.1290 0.2224 -0.9664
vn 0.3474 -0.2357 0.9076
vn -0.1399 0.6918 -0.7084
vn 0.3810 -0.9203 -0.0894
vn -0.2267 0.6739 -0.7032
vn 0.2819 -0.9046 0.3198
vn -0.3513 0.5498 -0.7578
vn 0.3416 -0.4528 0.8236
vn -0.1898 0.3289 -0.9251
vn -0.8306 -0.5568 0.0096
vn -0.8844 -0.4051 -0.2320
vn -0.3841 0.5602 -0.7339
vn 0.7876 0.5601 0.2570
vn -0.5285 0.6441 -0.5530
vn -0.9151 -0.2963 -0.2735
vn -0.8358 -0.5422 -0.0864
vn 0.1996 0.5645 -0.8009
vn -0.9810 0.1260 -0.1474
vn -0.8937 -0.1013 -0.4372
vn 0.6056 0.5409 -0.5837
vn -0.5371 0.1034 -0.8371
vn 0.5406 0.6188 -0.5699
vn -0.1362 0.4583 -0.8783
vn -0.5677 -0.6990 0.4349
vn 0.5406 0.6188 -0.5700
vn 0.2456 0.6242 -0.7417
vn -0.1714 0.3379 -0.9255
vn -0.4823 0.6705 -0.5638
vn -0.2304 0.6500 -0.7241
vn -0.1065 0.3766 -0.9202
vn -0.1286 0.3637 -0.9226
vn 0.8327 0.5533 -0.0205
vn -0.1187 0.3378 0.9337
vn -0.1712 0.3569 0.9183
vn -0.3954 0.6015 0.6941
vn -0.4397 0.5879 0.6789
vn -0.8293 -0.5587 0.0048
vn -0.4787 0.7612 0.4375
vn 0.5525 -0.8282 -0.0941
vn -0.8084 -0.5861 -0.0541
vn -0.5580 0.8244 0.0942
vn 0.5906 -0.7376 0.3275
vn 0.8326 0.5537 -0.0151
vn -0.2322 0.4656 -0.8540
vn 0.3459 -0.6884 0.6375
vn -0.2875 0.6683 -0.6860
vn 0.2987 -0.7147 0.6324
vn -0.9272 -0.1888 -0.3234
vn -0.3258 0.7000 -0.6356
vn 0.2238 -0.6514 0.7249
vn 0.3701 -0.6739 0.6394
vn -0.5622 0.7161 -0.4135
vn 0.6302 -0.7127 0.3080
vn -0.3651 0.5518 -0.7498
vn 0.2044 -0.4117 0.8881
vn -0.3733 0.5712 -0.7310
vn 0.2351 -0.2314 -0.9440
vn -0.3051 0.8364 -0.4554
vn 0.3347 -0.9199 0.2044
vn -0.4521 0.3094 0.8366
vn 0.0145 -0.4272 0.9040
vn 0.3127 -0.5822 0.7505
vn -0.2393 0.6634 -0.7090
vn 0.3411 -0.3310 -0.8798
vn -0.3430 0.5894 -0.7314
vn 0.0686 -0.3738 0.9250
vn 0.2719 -0.6992 0.6612
vn -0.2079 0.5565 -0.8044
vn 0.3760 -0.4959 0.7827
vn -0.2498 0.6107 -0.7514
vn 0.2147 -0.3106 0.9260
vn -0.0714 0.4108 -0.9089
vn 0.0730 -0.1647 0.9836
vn 0.2145 -0.4393 0.8723
vn -0.1872 0.4710 -0.8620
vn -0.0370 0.2939 -0.9551
vn 0.1900 -0.5331 0.8245
vn 0.2323 -0.3765 0.8968
vn -0.2412 0.4847 -0.8407
vn -0.1198 0.3148 -0.9416
vn -0.7056 -0.6168 0.3488
vn 0.1382 -0.3580 0.9234
vn -0.4521 -0.6639 0.5957
vn 0.1422 -0.4627 0.8751
vn 0.0685 -0.3981 0.9148
vn 0.8526 -0.4782 0.2106
vn -0.8440 -0.4446 0.3002
vn 0.2259 -0.6192 0.7520
vn -0.3498 -0.7066 0.6152
vn 0.1051 -0.3774 0.9201
vn -0.1698 0.3104 -0.9353
vn -0.3196 0.5654 -0.7604
vn 0.2069 -0.5345 0.8194
vn -0.0212 0.2983 -0.9542
vn -0.1304 0.3312 -0.9345
vn -0.2197 0.0194 0.9754
vn 0.1496 -0.3941 0.9068
vn 0.2753 -0.2619 0.9250
vn -0.1684 0.2565 0.9518
vn -0.2089 0.3713 -0.9047
vn -0.1388 0.2489 -0.9585
vn 0.8870 0.3934 0.2419
vn 0.3128 -0.0786 0.9465
vn 0.5202 -0.4573 0.7213
vn 0.0938 0.3651 0.9262
vn -0.7272 -0.6841 0.0565
vn 0.2566 -0.2056 0.9444
vn 0.6373 -0.3450 0.6891
vn 0.8114 0.5826 0.0473
vn 0.2910 -0.2865 0.9128
vn 0.1903 -0.3521 -0.9164
vn 0.5306 -0.2050 0.8224
vn -0.2304 0.6906 -0.6855
vn 0.3884 -0.6014 0.6982
vn -0.3525 0.5737 -0.7394
vn 0.2292 -0.3334 0.9145
vn -0.1817 0.3139 -0.9319
vt -0.717005 1.147941
vt -0.661547 1.147942
vt 1.450127 -0.070911
vt -0.717005 2.383491
vt -0.717005 2.366795
vt 0.269326 -0.070911
vt -0.772602 1.147941
vt -0.934631 -0.070911
vt -0.606090 1.147942
vt -0.772602 2.383491
vt 0.256987 -0.070911
vt -0.661547 2.366795
vt -0.828200 1.147941
vt -0.661547 2.366795
vt 1.450127 1.147942
vt -0.828200 2.383491
vt -0.717005 1.147942
vt 0.269326 1.147942
vt -0.772602 1.147941
vt -0.934631 1.147941
vt -0.606090 2.366795
vt 0.256987 1.147942
vt -0.772603 2.383491
vt -0.661547 1.147942
vt 1.356634 -0.037532
vt -0.824707 -0.037532
vt 0.116673 1.252805
vt -0.550492 1.147941
vt -0.771513 -0.037532
vt 1.187524 -0.037532
vt -0.654048 -0.037532
vt -0.550492 1.269737
vt 0.005479 1.374601
vt -0.611935 -0.037532
vt 1.029395 -0.037532
vt -0.494470 -0.037532
vt 0.005479 1.252805
vt -0.494895 1.147941
vt -0.463439 -0.037532
vt 0.882247 -0.037532
vt -0.345975 -0.037532
vt -0.494895 1.269737
vt -0.105715 1.374601
vt -0.314943 -0.037532
vt 0.735100 -0.037532
vt -0.197478 -0.037532
vt -0.105715 1.252805
vt -0.494895 1.374601
vt -0.166447 -0.037532
vt 0.587952 -0.037532
vt -0.048983 -0.037532
vt -0.494895 1.252806
vt -0.272507 1.374601
vt -0.013519 -0.037532
vt 0.436412 -0.037532
vt 0.103947 -0.037532
vt -0.272507 1.252806
vt 0.222575 1.147942
vt 0.140656 -0.037532
vt 0.222575 1.259183
vt 0.256987 1.087555
vt -0.661547 1.208327
vt 0.222575 1.268561
vt 0.256987 -0.037532
vt -0.661547 2.333415
vt -0.934631 -0.037532
vt -0.606090 1.181321
vt 0.116673 1.366781
vt 0.103947 1.087555
vt -0.383701 1.269737
vt 0.436412 1.087555
vt 0.268970 1.147941
vt 0.140656 1.087555
vt -0.197478 1.087555
vt -0.216910 1.269737
vt 0.735100 1.087555
vt -0.439298 1.147941
vt -0.166447 1.087555
vt -0.048983 1.087555
vt -0.439298 1.269737
vt 0.587952 1.087555
vt -0.383701 1.147941
vt -0.013519 1.087555
vt -0.824707 1.087555
vt 0.061076 1.261916
vt 1.356634 1.087555
vt -0.934631 1.087555
vt -0.606090 2.306408
vt 0.061076 1.147941
vt -0.272507 1.374601
vt -0.771513 1.087555
vt -0.272507 1.252805
vt 1.187524 1.087555
vt -0.654048 1.087555
vt -0.050118 1.147941
vt -0.611935 1.087555
vt -0.050118 1.269737
vt 1.029395 1.087555
vt -0.494470 1.087555
vt -0.105715 1.374601
vt -0.463439 1.087555
vt -0.105715 1.252805
vt 0.882247 1.087555
vt -0.345975 1.087555
vt -0.216910 1.147941
vt -0.314943 1.087555
vt -0.216910 1.147942
vt 0.320761 -0.037532
vt -0.328104 1.374600
vt 0.320761 1.087555
vt -0.383701 1.374601
vt 0.472301 1.087555
vt 0.101253 1.087555
vt -0.328104 1.252806
vt 0.437159 1.087555
vt -0.161312 1.147941
vt 0.766597 1.087555
vt -0.200171 1.087555
vt -0.161312 1.252805
vt 0.735847 1.087555
vt -0.161312 1.374601
vt 0.619449 1.087555
vt -0.051675 1.087555
vt -0.383701 1.252805
vt 0.588699 1.087555
vt 0.291349 1.147941
vt 1.421947 1.087555
vt 0.116673 1.244985
vt -0.934631 1.147941
vt 1.357382 1.087555
vt 0.116673 1.366781
vt 1.240984 1.087555
vt -0.656741 1.087555
vt -0.328104 1.269737
vt 1.188271 1.087555
vt -0.328104 1.147941
vt 1.071873 1.087555
vt -0.497163 1.087555
vt 0.005479 1.252805
vt 1.030142 1.087555
vt 0.005479 1.374601
vt 0.913744 1.087555
vt -0.348667 1.087555
vt -0.161312 1.269737
vt 0.882995 1.087555
vt 0.291347 1.173084
vt -0.661547 1.181321
vt 1.450127 -0.037532
vt 0.313370 1.192566
vt 1.421947 -0.037532
vt 0.172270 1.269737
vt -0.934631 2.273027
vt 1.357382 -0.037532
vt 0.172270 1.147941
vt 1.240984 -0.037532
vt -0.606090 1.252805
vt -0.656741 -0.037532
vt 1.188271 -0.037532
vt -0.606090 1.374600
vt 1.071873 -0.037532
vt 0.061076 1.269737
vt -0.497162 -0.037532
vt 1.030142 -0.037532
vt 0.061076 1.147941
vt 0.913744 -0.037532
vt -0.550492 1.252805
vt -0.348667 -0.037532
vt 0.882995 -0.037532
vt -0.550492 1.374601
vt 0.766597 -0.037532
vt -0.050118 1.269737
vt -0.200171 -0.037532
vt 0.735847 -0.037532
vt -0.050118 1.147941
vt 0.619449 -0.037532
vt -0.439298 1.269738
vt -0.051675 -0.037532
vt 0.588699 -0.037532
vt -0.439298 1.147942
vt 0.472301 -0.037532
vt -0.216910 1.269738
vt 0.101253 -0.037532
vt 0.437159 -0.037532
vt 0.269326 1.167422
vt -0.661547 2.306408
vt 1.450127 1.087555
vt 0.291349 1.192566
vt -0.628302 2.306408
vt 1.459378 1.087555
vt -0.609343 2.306408
vt 0.064337 1.147941
vt -0.828199 1.147941
vt 0.313370 1.147941
vt -0.628302 1.181321
vt 1.459378 -0.037532
vt -0.828199 2.273027
vt -0.609343 1.181321
vt 0.119935 1.366781
vt 0.172271 1.268561
vt -0.711726 2.333415
vt 0.269326 -0.037532
vt 0.268970 1.278727
vt 0.269326 1.087555
vt -0.711726 1.208327
vt 0.472301 0.525011
vt -0.013519 0.525012
vt 0.101253 0.525012
vt 0.437159 0.525011
vt 0.587952 0.525011
vt -0.048983 0.525012
vt -0.013519 0.806284
vt -0.048983 0.806284
vt 0.587952 0.806284
vt 0.472301 0.806284
vt 0.101253 0.806284
vt 0.437159 0.806284
vt 0.735100 0.525011
vt -0.197478 0.525011
vt -0.166447 0.525012
vt 0.619449 0.525011
vt -0.051675 0.525012
vt 0.588699 0.525011
vt 0.735100 0.806284
vt -0.197478 0.806284
vt -0.166447 0.806284
vt 0.619449 0.806284
vt -0.051675 0.806284
vt 0.588699 0.806284
vt 0.882247 0.525011
vt -0.345975 0.525011
vt -0.200171 0.525011
vt 0.735847 0.525011
vt 0.766597 0.525011
vt -0.314943 0.525011
vt 1.029395 0.525011
vt -0.494470 0.525011
vt 0.913744 0.525011
vt -0.463439 0.525011
vt 0.882995 0.525011
vt -0.348667 0.525011
vt 1.187524 0.525011
vt -0.654048 0.525011
vt 1.071873 0.525011
vt -0.611935 0.525011
vt -0.497162 0.525011
vt 1.030142 0.525011
vt -0.345975 0.806284
vt 0.882247 0.806284
vt -0.314943 0.806284
vt 0.735847 0.806284
vt -0.200171 0.806284
vt 0.766597 0.806284
vt -0.494470 0.806284
vt 1.029395 0.806284
vt -0.463439 0.806284
vt 0.913744 0.806284
vt -0.348667 0.806284
vt 0.882995 0.806284
vt 0.913744 0.243740
vt -0.348667 0.243740
vt 0.882995 0.243740
vt 1.029395 0.243740
vt -0.494470 0.243740
vt -0.463439 0.243740
vt 0.619449 0.243740
vt 0.588699 0.243740
vt -0.051675 0.243740
vt -0.197478 0.243740
vt 0.735100 0.243740
vt -0.166447 0.243740
vt -0.200171 0.243740
vt 0.735847 0.243740
vt 0.766597 0.243740
vt 0.882247 0.243740
vt -0.345975 0.243740
vt -0.314943 0.243740
s 0
f 2/4/1 3/7/1 1/1/1
f 26/69/2 22/59/2 27/73/2
f 32/84/3 9/26/3 34/91/3
f 92/225/4 28/74/4 91/224/4
f 19/51/5 80/206/5 82/210/5
f 125/275/6 16/44/6 126/276/6
f 117/263/7 14/39/7 118/264/7
f 103/242/8 12/34/8 105/244/8
f 8/23/9 5/13/9 7/19/9
f 85/214/10 44/115/10 86/216/10
f 123/272/11 66/170/11 124/273/11
f 75/194/12 3/9/12 76/197/12
f 78/204/13 77/200/13 2/5/13
f 21/57/14 71/181/14 20/53/14
f 26/70/15 44/114/15 42/109/15
f 80/206/16 71/182/16 81/207/16
f 26/71/17 41/108/17 21/55/17
f 19/52/18 69/176/18 18/48/18
f 30/80/19 48/124/19 43/111/19
f 122/270/20 69/177/20 120/267/20
f 30/81/21 85/214/21 84/213/21
f 17/47/22 67/171/22 16/43/22
f 28/75/23 46/119/23 47/121/23
f 126/276/24 67/172/24 123/271/24
f 28/76/25 93/226/25 91/223/25
f 15/42/26 65/166/26 14/38/26
f 39/102/23 56/144/23 45/116/23
f 118/264/27 65/167/27 116/260/27
f 39/103/28 110/252/28 107/248/28
f 13/37/29 63/161/29 12/33/29
f 37/97/30 54/139/30 55/141/30
f 105/244/31 63/162/31 106/245/31
f 37/98/32 113/256/32 111/254/32
f 11/32/29 61/156/29 10/28/29
f 35/92/23 52/134/23 53/136/23
f 34/91/33 61/157/33 52/133/33
f 35/93/34 104/243/34 103/241/34
f 9/27/29 59/151/29 76/198/29
f 50/128/23 51/131/23 32/85/23
f 59/152/35 74/192/35 76/196/35
f 32/86/36 60/155/36 9/25/36
f 77/199/37 22/58/37 24/63/37
f 23/60/38 27/72/38 78/202/38
f 27/73/39 77/201/39 78/203/39
f 75/193/29 58/149/29 57/146/29
f 49/126/23 73/187/23 72/184/23
f 58/150/40 73/189/40 49/127/40
f 82/209/41 70/180/41 19/50/41
f 83/211/42 81/207/42 86/215/42
f 93/226/43 48/125/43 94/228/43
f 82/210/44 83/211/44 84/212/44
f 84/212/45 31/83/45 30/79/45
f 31/83/46 86/215/46 44/113/46
f 84/213/47 79/205/47 82/209/47
f 79/205/48 86/216/48 81/208/48
f 113/256/49 56/145/49 114/258/49
f 87/217/50 119/265/50 121/269/50
f 92/225/51 90/221/51 94/227/51
f 122/270/52 87/218/52 121/268/52
f 29/78/53 94/227/53 48/123/53
f 89/220/54 94/228/54 90/222/54
f 91/223/55 89/220/55 87/217/55
f 88/219/56 91/224/56 87/218/56
f 95/229/57 124/273/57 125/274/57
f 108/249/58 96/231/58 109/251/58
f 106/246/59 62/160/59 104/243/59
f 107/247/60 98/234/60 108/249/60
f 115/259/61 102/239/61 116/261/61
f 99/235/62 115/259/62 117/262/62
f 112/255/63 102/240/63 114/257/63
f 111/253/64 101/238/64 112/255/64
f 109/250/65 97/233/65 110/252/65
f 103/241/66 62/160/66 11/30/66
f 36/96/67 106/245/67 54/138/67
f 35/94/68 105/244/68 36/96/68
f 6/18/69 43/112/69 48/125/69
f 39/104/70 108/249/70 40/106/70
f 40/106/71 109/251/71 46/118/71
f 107/248/72 97/233/72 95/229/72
f 37/99/73 112/255/73 38/101/73
f 38/101/74 114/257/74 56/143/74
f 100/237/75 114/258/75 102/239/75
f 111/254/76 100/237/76 99/235/76
f 117/262/77 64/165/77 13/35/77
f 119/265/78 90/222/78 120/266/78
f 101/238/79 116/260/79 102/240/79
f 99/236/80 118/264/80 101/238/80
f 1/3/81 64/165/81 65/168/81
f 18/49/82 121/268/82 17/46/82
f 121/269/83 68/175/83 17/45/83
f 88/219/84 120/267/84 90/221/84
f 125/274/85 66/170/85 15/40/85
f 98/234/86 123/271/86 96/231/86
f 96/232/87 124/273/87 97/233/87
f 95/230/88 126/276/88 98/234/88
f 2/4/89 4/10/89 3/7/89
f 26/69/2 21/56/2 22/59/2
f 25/66/3 3/8/3 9/26/3
f 3/8/90 4/11/90 15/41/90
f 9/26/3 3/8/3 10/29/3
f 4/11/91 24/64/91 22/59/91
f 21/56/92 20/54/92 4/11/92
f 20/54/93 19/51/93 4/11/93
f 4/11/91 22/59/91 21/56/91
f 10/29/3 3/8/3 11/31/3
f 7/20/3 33/87/3 32/84/3
f 18/49/94 17/46/94 4/11/94
f 17/46/95 16/44/95 4/11/95
f 4/11/94 19/51/94 18/49/94
f 8/22/96 7/20/96 39/104/96
f 7/20/3 32/84/3 34/91/3
f 27/73/97 23/61/97 8/22/97
f 30/79/98 31/83/98 8/22/98
f 31/83/99 26/69/99 8/22/99
f 26/69/91 27/73/91 8/22/91
f 15/41/100 14/39/100 3/8/100
f 14/39/3 13/36/3 3/8/3
f 4/11/91 16/44/91 15/41/91
f 40/106/101 28/74/101 8/22/101
f 28/74/101 29/78/101 8/22/101
f 29/78/102 30/79/102 8/22/102
f 12/34/3 11/31/3 3/8/3
f 12/34/3 3/8/3 13/36/3
f 37/99/103 38/101/103 7/20/103
f 38/101/3 39/104/3 7/20/3
f 39/104/104 40/106/104 8/22/104
f 34/91/3 35/94/3 7/20/3
f 35/94/3 36/96/3 7/20/3
f 7/20/105 36/96/105 37/99/105
f 9/26/3 10/29/3 34/91/3
f 92/225/106 29/78/106 28/74/106
f 19/51/107 20/54/107 80/206/107
f 125/275/108 15/41/108 16/44/108
f 117/263/109 13/36/109 14/39/109
f 103/242/110 11/31/110 12/34/110
f 8/23/111 6/16/111 5/13/111
f 85/214/112 43/112/112 44/115/112
f 123/272/113 67/173/113 66/170/113
f 74/190/12 33/88/12 7/21/12
f 7/21/12 5/14/12 73/188/12
f 5/14/12 72/185/12 73/188/12
f 74/190/12 7/21/12 73/188/12
f 75/194/12 57/147/12 1/2/12
f 74/190/12 73/188/12 75/194/12
f 3/9/12 25/67/12 76/197/12
f 76/197/12 74/190/12 75/194/12
f 75/194/12 1/2/12 3/9/12
f 24/65/13 4/12/13 77/200/13
f 4/12/13 2/5/13 77/200/13
f 6/17/114 8/24/114 78/204/114
f 8/24/115 23/62/115 78/204/115
f 6/17/13 78/204/13 2/5/13
f 21/57/37 41/107/37 71/181/37
f 26/70/116 31/82/116 44/114/116
f 80/206/117 20/54/117 71/182/117
f 26/71/118 42/110/118 41/108/118
f 19/52/18 70/179/18 69/176/18
f 30/80/119 29/77/119 48/124/119
f 122/270/120 18/49/120 69/177/120
f 30/81/121 43/112/121 85/214/121
f 17/47/122 68/174/122 67/171/122
f 28/75/23 40/105/23 46/119/23
f 126/276/123 16/44/123 67/172/123
f 28/76/124 47/122/124 93/226/124
f 15/42/37 66/169/37 65/166/37
f 39/102/23 38/100/23 56/144/23
f 118/264/125 14/39/125 65/167/125
f 39/103/126 45/117/126 110/252/126
f 13/37/29 64/164/29 63/161/29
f 37/97/127 36/95/127 54/139/127
f 105/244/128 12/34/128 63/162/128
f 37/98/129 55/142/129 113/256/129
f 11/32/29 62/159/29 61/156/29
f 35/92/23 34/90/23 52/134/23
f 34/91/33 10/29/33 61/157/33
f 35/93/130 53/137/130 104/243/130
f 76/198/29 25/68/29 9/27/29
f 9/27/29 60/154/29 59/151/29
f 33/89/23 74/191/23 32/85/23
f 74/191/23 50/128/23 32/85/23
f 59/152/35 50/129/35 74/192/35
f 32/86/36 51/132/36 60/155/36
f 27/73/131 22/59/131 77/201/131
f 58/150/40 75/195/40 73/189/40
f 82/209/132 79/205/132 70/180/132
f 83/211/133 80/206/133 81/207/133
f 93/226/134 47/122/134 48/125/134
f 82/210/135 80/206/135 83/211/135
f 84/212/136 83/211/136 31/83/136
f 31/83/137 83/211/137 86/215/137
f 84/213/138 85/214/138 79/205/138
f 79/205/139 85/214/139 86/216/139
f 113/256/140 55/142/140 56/145/140
f 87/217/141 89/220/141 119/265/141
f 92/225/142 88/219/142 90/221/142
f 122/270/143 88/219/143 87/218/143
f 29/78/144 92/225/144 94/227/144
f 89/220/145 93/226/145 94/228/145
f 91/223/146 93/226/146 89/220/146
f 88/219/147 92/225/147 91/224/147
f 95/229/148 97/233/148 124/273/148
f 108/249/149 98/234/149 96/231/149
f 106/246/150 63/163/150 62/160/150
f 107/247/151 95/230/151 98/234/151
f 115/259/152 100/237/152 102/239/152
f 99/235/153 100/237/153 115/259/153
f 112/255/154 101/238/154 102/240/154
f 111/253/155 99/236/155 101/238/155
f 109/250/156 96/232/156 97/233/156
f 103/241/157 104/243/157 62/160/157
f 36/96/158 105/244/158 106/245/158
f 35/94/159 103/242/159 105/244/159
f 45/117/160 56/145/160 6/18/160
f 56/145/161 55/142/161 5/15/161
f 6/18/162 56/145/162 5/15/162
f 54/140/163 106/246/163 104/243/163
f 55/142/161 54/140/161 5/15/161
f 54/140/164 104/243/164 53/137/164
f 52/135/161 61/158/161 60/155/161
f 54/140/161 53/137/161 5/15/161
f 52/135/161 60/155/161 51/132/161
f 53/137/161 52/135/161 5/15/161
f 51/132/161 50/130/161 5/15/161
f 50/130/161 49/127/161 5/15/161
f 51/132/161 5/15/161 52/135/161
f 49/127/161 72/186/161 5/15/161
f 6/18/69 2/6/69 42/110/69
f 2/6/69 41/108/69 42/110/69
f 42/110/165 44/115/165 6/18/165
f 44/115/166 43/112/166 6/18/166
f 109/250/167 110/252/167 45/117/167
f 48/125/168 47/122/168 6/18/168
f 47/122/160 46/120/160 6/18/160
f 46/120/169 109/250/169 45/117/169
f 46/120/160 45/117/160 6/18/160
f 39/104/170 107/247/170 108/249/170
f 40/106/171 108/249/171 109/251/171
f 107/248/172 110/252/172 97/233/172
f 37/99/173 111/253/173 112/255/173
f 38/101/174 112/255/174 114/257/174
f 100/237/175 113/256/175 114/258/175
f 111/254/176 113/256/176 100/237/176
f 117/262/177 115/259/177 64/165/177
f 119/265/178 89/220/178 90/222/178
f 101/238/179 118/264/179 116/260/179
f 99/236/180 117/263/180 118/264/180
f 41/108/69 2/6/69 71/183/69
f 2/6/181 1/3/181 65/168/181
f 71/183/69 2/6/69 70/180/69
f 1/3/161 57/148/161 58/150/161
f 58/150/161 49/127/161 50/130/161
f 59/153/161 60/155/161 1/3/161
f 60/155/161 61/158/161 1/3/161
f 58/150/161 50/130/161 59/153/161
f 70/180/69 2/6/69 69/178/69
f 79/205/182 81/208/182 71/183/182
f 70/180/183 79/205/183 71/183/183
f 1/3/161 58/150/161 59/153/161
f 61/158/161 62/160/161 1/3/161
f 62/160/161 63/163/161 1/3/161
f 69/178/69 2/6/69 68/175/69
f 119/265/184 120/266/184 69/178/184
f 68/175/185 2/6/185 67/173/185
f 64/165/186 115/259/186 116/261/186
f 1/3/161 63/163/161 64/165/161
f 68/175/187 119/265/187 69/178/187
f 65/168/69 66/170/69 2/6/69
f 66/170/188 67/173/188 2/6/188
f 64/165/189 116/261/189 65/168/189
f 18/49/190 122/270/190 121/268/190
f 121/269/191 119/265/191 68/175/191
f 88/219/192 122/270/192 120/267/192
f 125/274/193 124/273/193 66/170/193
f 98/234/194 126/276/194 123/271/194
f 96/232/195 123/272/195 124/273/195
f 95/230/196 125/275/196 126/276/196
