# Blender 3.3.1
# www.blender.org
o Vent_Grate.002
v 0.135062 0.235573 -6.940947
v 0.178467 0.875021 -7.084961
v 0.134801 0.229079 -6.969859
v 0.178205 0.868527 -7.113873
v 0.780023 0.192653 -6.937137
v 0.823427 0.832100 -7.081151
v 0.779761 0.186159 -6.966049
v 0.823166 0.825607 -7.110064
v 0.156468 0.286891 -6.983039
v 0.158405 0.315436 -6.989468
v 0.162684 0.378471 -7.003664
v 0.164218 0.401069 -7.008754
v 0.168497 0.464103 -7.022951
v 0.169627 0.480755 -7.026701
v 0.173905 0.543790 -7.040897
v 0.175036 0.560441 -7.044648
v 0.179314 0.623476 -7.058844
v 0.180445 0.640127 -7.062594
v 0.184723 0.703162 -7.076791
v 0.186015 0.722192 -7.081077
v 0.190294 0.785226 -7.095273
v 0.191631 0.804926 -7.099710
v 0.791212 0.827733 -7.110252
v 0.195868 0.867351 -7.113769
v 0.152464 0.227904 -6.969755
v 0.785638 0.745608 -7.091756
v 0.786975 0.765307 -7.096193
v 0.774659 0.583857 -7.055327
v 0.775789 0.600509 -7.059077
v 0.780067 0.663543 -7.073274
v 0.781359 0.682574 -7.077560
v 0.751812 0.247273 -6.979523
v 0.747808 0.188285 -6.966238
v 0.753749 0.275818 -6.985951
v 0.758028 0.338852 -7.000148
v 0.759562 0.361451 -7.005238
v 0.774505 0.433629 -7.008677
v 0.764971 0.441137 -7.023184
v 0.769250 0.504171 -7.037381
v 0.770380 0.520823 -7.041131
v 0.194239 0.845991 -7.078584
v 0.789583 0.806373 -7.075067
v 0.784013 0.724308 -7.056585
v 0.785304 0.743339 -7.060871
v 0.773195 0.564936 -7.020691
v 0.774325 0.581588 -7.024442
v 0.778604 0.644622 -7.038638
v 0.779734 0.661274 -7.042388
v 0.749105 0.210039 -6.940763
v 0.751478 0.245004 -6.948637
v 0.755757 0.308038 -6.962833
v 0.757695 0.336583 -6.969263
v 0.761973 0.399617 -6.983459
v 0.763507 0.422216 -6.988548
v 0.767786 0.485250 -7.002745
v 0.768916 0.501902 -7.006495
v 0.152725 0.234398 -6.940843
v 0.153761 0.249657 -6.944279
v 0.156134 0.284622 -6.952154
v 0.160413 0.347656 -6.966351
v 0.162351 0.376202 -6.972779
v 0.166629 0.439236 -6.986976
v 0.168163 0.461834 -6.992065
v 0.172442 0.524869 -7.006261
v 0.173572 0.541520 -7.010012
v 0.177851 0.604555 -7.024208
v 0.178981 0.621206 -7.027958
v 0.183260 0.684241 -7.042155
v 0.184390 0.700893 -7.045905
v 0.188668 0.763927 -7.060102
v 0.189960 0.782957 -7.064387
v 0.748069 0.194779 -6.937326
v 0.747913 0.190886 -6.954658
v 0.747823 0.188666 -6.964542
v 0.152569 0.230505 -6.958175
v 0.152479 0.228285 -6.968059
v 0.196105 0.873227 -7.087609
v 0.791449 0.833609 -7.084093
v 0.447347 0.748508 -7.087912
v 0.450169 0.706640 -7.102766
v 0.465474 0.752503 -7.108873
v 0.449773 0.685074 -7.094460
v 0.632262 0.697581 -7.071498
v 0.631566 0.678333 -7.070553
v 0.637527 0.742528 -7.043272
v 0.636700 0.753278 -7.064557
v 0.473062 0.601122 -7.124863
v 0.481941 0.604557 -7.137015
v 0.482754 0.660293 -7.075688
v 0.502707 0.670135 -7.082295
v 0.626477 0.595807 -7.054245
v 0.631687 0.602228 -7.079894
v 0.634965 0.651392 -7.043976
v 0.632778 0.667094 -7.055416
v 0.470268 0.498830 -7.117182
v 0.475164 0.589433 -7.039187
v 0.473104 0.575882 -7.038988
v 0.470130 0.510823 -7.118946
v 0.465554 0.406014 -7.083143
v 0.460442 0.442633 -7.068166
v 0.464193 0.423943 -7.100049
v 0.464939 0.452511 -7.087112
v 0.458964 0.328412 -7.038089
v 0.455473 0.349878 -7.032700
v 0.463149 0.352502 -7.049776
v 0.426346 0.376898 -7.032594
v 0.622289 0.515130 -7.052891
v 0.623582 0.530649 -7.058133
v 0.627149 0.588944 -7.030587
v 0.626326 0.572024 -7.032221
v 0.624552 0.426148 -7.061179
v 0.624722 0.439644 -7.074118
v 0.587478 0.460376 -7.062127
v 0.601050 0.464086 -7.080802
v 0.308828 0.471396 -7.045320
v 0.311747 0.481057 -7.053630
v 0.313684 0.438875 -7.044455
v 0.313916 0.454884 -7.056890
v 0.313832 0.657097 -7.104484
v 0.313302 0.674713 -7.127045
v 0.312609 0.598041 -7.118026
v 0.312622 0.613489 -7.128683
v 0.318338 0.590756 -7.034270
v 0.299046 0.559907 -7.028807
v 0.319688 0.507150 -7.065650
v 0.320545 0.529711 -7.071637
vn -0.9978 0.0664 -0.0059
vn -0.0088 -0.2191 -0.9757
vn -0.0795 -0.9631 -0.2573
vn -0.0864 -0.3567 -0.9302
vn -0.2261 -0.2418 -0.9436
vn -0.2653 -0.5891 -0.7633
vn -0.1883 -0.4020 -0.8961
vn 0.9978 -0.0664 0.0059
vn 0.0486 0.8923 0.4488
vn 0.0829 0.1232 0.9889
vn -0.0661 -0.9734 0.2192
vn 0.0661 0.9734 -0.2192
vn -0.1670 -0.0752 -0.9831
vn -0.0232 -0.2634 0.9644
vn -0.5283 0.0286 -0.8486
vn -0.0219 -0.3893 0.9209
vn 0.0757 0.5226 -0.8492
vn -0.0074 -0.1806 0.9835
vn -0.2603 0.0980 -0.9605
vn -0.1234 -0.3311 0.9355
vn -0.8629 -0.0546 -0.5024
vn 0.1081 0.6763 -0.7287
vn -0.3016 -0.3017 0.9044
vn 0.0232 0.2634 -0.9644
vn -0.1127 -0.2591 0.9593
vn 0.0237 0.2702 -0.9625
vn 0.0174 0.1733 -0.9847
vn -0.0437 -0.5849 0.8099
vn 0.0459 -0.2673 0.9625
vn 0.2489 0.1002 -0.9633
vn -0.0487 0.5837 0.8105
vn 0.1283 -0.0533 -0.9903
vn -0.0395 -0.2170 -0.9754
vn 0.0414 0.2621 -0.9641
vn -0.1335 -0.1068 0.9853
vn -0.0435 0.9876 0.1506
vn -0.2305 0.9727 0.0257
vn 0.0458 -0.2242 0.9735
vn 0.1978 0.3432 -0.9182
vn -0.0242 -0.5677 -0.8229
vn 0.0954 0.2579 -0.9615
vn -0.1253 0.7154 0.6873
vn -0.3624 -0.5599 0.7451
vn 0.0694 -0.9721 -0.2240
vn 0.2596 -0.4826 0.8365
vn 0.0525 0.4240 -0.9041
vn 0.2229 0.2366 0.9457
vn 0.3844 -0.3240 -0.8644
vn 0.2756 0.5777 0.7683
vn 0.2594 0.0644 0.9636
vn 0.0628 -0.2062 -0.9765
vn 0.1812 -0.6818 -0.7088
vn -0.0463 -0.0938 0.9945
vn 0.0663 -0.2683 0.9611
vn 0.0909 0.2583 -0.9618
vn 0.1514 -0.2270 -0.9621
vn 0.0088 0.2191 0.9757
vn 0.0972 -0.2249 -0.9695
vn 0.0533 0.2612 -0.9638
vn -0.2173 -0.6913 0.6891
vn 0.2100 -0.8051 -0.5547
vn 0.3511 0.2267 -0.9085
vn -0.0963 0.8918 0.4421
vn -0.0780 -0.3867 0.9189
vn 0.0951 -0.2694 0.9583
vn -0.1258 0.7805 0.6124
vn -0.1206 0.4121 -0.9031
vn -0.3297 -0.6608 -0.6743
vn -0.4269 -0.1710 -0.8880
vn 0.3474 -0.2693 0.8982
vn 0.1991 0.5899 -0.7825
vn 0.0950 -0.2694 0.9583
vn -0.0160 0.7126 -0.7014
vn 0.0578 0.0059 0.9983
vn -0.3147 -0.1417 -0.9386
vn -0.8129 0.0821 0.5766
vn 0.4745 -0.1396 -0.8691
vn 0.1366 -0.2265 -0.9644
vn -0.0924 -0.2128 -0.9727
vn -0.2128 -0.2009 -0.9562
vn -0.1781 -0.2047 -0.9625
vn -0.1475 -0.2078 -0.9670
vn 0.1145 0.2109 0.9708
vn 0.0906 0.2130 0.9729
vn -0.0631 0.2681 -0.9613
vn -0.3873 0.2675 -0.8823
vn 0.0541 -0.2677 0.9620
vn -0.1201 0.2702 -0.9553
vn -0.0482 -0.2616 0.9640
vn -0.1504 0.2709 -0.9508
vn -0.0880 -0.2585 0.9620
vn -0.9020 0.1678 -0.3977
vn -0.0879 0.2691 -0.9591
vn -0.2911 -0.1465 0.9454
vn -0.1126 -0.2564 0.9600
vn 0.1006 -0.0984 0.9901
vn 0.1576 -0.1819 -0.9706
vn -0.0258 0.2213 0.9749
vn 0.1407 -0.3581 -0.9230
vn -0.0453 -0.0474 -0.9978
vn -0.0277 0.1258 -0.9917
vn -0.2237 -0.3635 0.9043
vn -0.0781 0.8887 0.4519
vn -0.3328 0.2286 0.9148
vn -0.1200 -0.6228 0.7731
vn 0.3048 0.5514 -0.7765
vn -0.0655 -0.9467 -0.3154
vn 0.1381 0.3477 -0.9274
vn -0.1353 0.5710 0.8097
vn -0.2100 -0.1465 0.9667
vn 0.0720 -0.9709 -0.2284
vn 0.1059 -0.7102 0.6960
vn 0.1860 0.6939 -0.6956
vn 0.2160 0.2006 0.9556
vn 0.3980 -0.1290 -0.9083
vn 0.2333 0.8385 0.4925
vn 0.0696 -0.3693 0.9267
vn 0.1066 0.4078 -0.9068
vn 0.1842 -0.6669 -0.7221
vn -0.0564 0.0233 0.9981
vn 0.0823 -0.2300 0.9697
vn 0.0918 0.6622 -0.7437
vn 0.1278 -0.4508 -0.8834
vn -0.1120 -0.1246 0.9859
vn -0.1904 0.2280 0.9549
vn -0.0823 -0.0918 0.9924
vn -0.0296 0.2215 0.9747
vn 0.0753 -0.3247 -0.9428
vn 0.1321 0.4169 -0.8993
vn -0.0500 -0.3379 0.9398
vn 0.2756 -0.6670 -0.6922
vn 0.3398 0.0726 -0.9377
vn -0.1420 0.9855 0.0926
vn -0.0446 -0.0206 0.9988
vn 0.2999 0.0701 0.9514
vn -0.1298 0.7204 0.6813
vn -0.2559 0.0986 -0.9617
vn -0.3167 -0.5790 -0.7513
vn 0.1540 0.9376 0.3119
vn 0.1169 0.2106 0.9705
vn 0.4776 0.6979 0.5337
vn 0.4168 0.5171 0.7475
vn 0.4528 0.1665 0.8759
vn 0.3671 0.1806 0.9125
vn -0.4656 -0.5023 -0.7287
vn 0.3843 -0.2139 0.8981
vn -0.0477 0.0272 -0.9985
vn -0.1963 -0.6119 0.7662
vn -0.2013 0.5061 -0.8387
vn 0.0323 0.1547 0.9874
vn -0.3264 -0.2309 -0.9166
vt -0.717005 1.147941
vt -0.661547 1.147942
vt 1.450127 -0.070911
vt -0.717005 2.383491
vt -0.717005 2.366795
vt 0.269326 -0.070911
vt -0.772602 1.147941
vt -0.934631 -0.070911
vt -0.606090 1.147942
vt -0.772602 2.383491
vt 0.256987 -0.070911
vt -0.661547 2.366795
vt -0.828200 1.147941
vt -0.661547 2.366795
vt 1.450127 1.147942
vt -0.828200 2.383491
vt -0.717005 1.147942
vt 0.269326 1.147942
vt -0.772602 1.147941
vt -0.934631 1.147941
vt -0.606090 2.366795
vt 0.256987 1.147942
vt -0.772603 2.383491
vt -0.661547 1.147942
vt 1.356634 -0.037532
vt -0.824707 -0.037532
vt 0.116673 1.252805
vt -0.550492 1.147941
vt -0.771513 -0.037532
vt 1.187524 -0.037532
vt -0.654048 -0.037532
vt -0.550492 1.269737
vt 0.005479 1.374601
vt -0.611935 -0.037532
vt 1.029395 -0.037532
vt -0.494470 -0.037532
vt 0.005479 1.252805
vt -0.494895 1.147941
vt -0.463439 -0.037532
vt 0.882247 -0.037532
vt -0.345975 -0.037532
vt -0.494895 1.269737
vt -0.105715 1.374601
vt -0.314943 -0.037532
vt 0.735100 -0.037532
vt -0.197478 -0.037532
vt -0.105715 1.252805
vt -0.494895 1.374601
vt -0.166447 -0.037532
vt 0.587952 -0.037532
vt -0.048983 -0.037532
vt -0.494895 1.252806
vt -0.272507 1.374601
vt -0.013519 -0.037532
vt 0.436412 -0.037532
vt 0.103947 -0.037532
vt -0.272507 1.252806
vt 0.222575 1.147942
vt 0.140656 -0.037532
vt 0.222575 1.259183
vt 0.256987 1.087555
vt -0.661547 1.208327
vt 0.222575 1.268561
vt 0.256987 -0.037532
vt -0.661547 2.333415
vt -0.934631 -0.037532
vt -0.606090 1.181321
vt 0.116673 1.366781
vt 0.103947 1.087555
vt -0.383701 1.269737
vt 0.436412 1.087555
vt 0.268970 1.147941
vt 0.140656 1.087555
vt -0.197478 1.087555
vt -0.216910 1.269737
vt 0.735100 1.087555
vt -0.439298 1.147941
vt -0.166447 1.087555
vt -0.048983 1.087555
vt -0.439298 1.269737
vt 0.587952 1.087555
vt -0.383701 1.147941
vt -0.013519 1.087555
vt -0.824707 1.087555
vt 0.061076 1.261916
vt 1.356634 1.087555
vt -0.934631 1.087555
vt -0.606090 2.306408
vt 0.061076 1.147941
vt -0.272507 1.374601
vt -0.771513 1.087555
vt -0.272507 1.252805
vt 1.187524 1.087555
vt -0.654048 1.087555
vt -0.050118 1.147941
vt -0.611935 1.087555
vt -0.050118 1.269737
vt 1.029395 1.087555
vt -0.494470 1.087555
vt -0.105715 1.374601
vt -0.463439 1.087555
vt -0.105715 1.252805
vt 0.882247 1.087555
vt -0.345975 1.087555
vt -0.216910 1.147941
vt -0.314943 1.087555
vt -0.216910 1.147942
vt 0.320761 -0.037532
vt -0.328104 1.374600
vt 0.320761 1.087555
vt -0.383701 1.374601
vt 0.472301 1.087555
vt 0.101253 1.087555
vt -0.328104 1.252806
vt 0.437159 1.087555
vt -0.161312 1.147941
vt 0.766597 1.087555
vt -0.200171 1.087555
vt -0.161312 1.252805
vt 0.735847 1.087555
vt -0.161312 1.374601
vt 0.619449 1.087555
vt -0.051675 1.087555
vt -0.383701 1.252805
vt 0.588699 1.087555
vt 0.291349 1.147941
vt 1.421947 1.087555
vt 0.116673 1.244985
vt -0.934631 1.147941
vt 1.357382 1.087555
vt 0.116673 1.366781
vt 1.240984 1.087555
vt -0.656741 1.087555
vt -0.328104 1.269737
vt 1.188271 1.087555
vt -0.328104 1.147941
vt 1.071873 1.087555
vt -0.497163 1.087555
vt 0.005479 1.252805
vt 1.030142 1.087555
vt 0.005479 1.374601
vt 0.913744 1.087555
vt -0.348667 1.087555
vt -0.161312 1.269737
vt 0.882995 1.087555
vt 0.291347 1.173084
vt -0.661547 1.181321
vt 1.450127 -0.037532
vt 0.313370 1.192566
vt 1.421947 -0.037532
vt 0.172270 1.269737
vt -0.934631 2.273027
vt 1.357382 -0.037532
vt 0.172270 1.147941
vt 1.240984 -0.037532
vt -0.606090 1.252805
vt -0.656741 -0.037532
vt 1.188271 -0.037532
vt -0.606090 1.374600
vt 1.071873 -0.037532
vt 0.061076 1.269737
vt -0.497162 -0.037532
vt 1.030142 -0.037532
vt 0.061076 1.147941
vt 0.913744 -0.037532
vt -0.550492 1.252805
vt -0.348667 -0.037532
vt 0.882995 -0.037532
vt -0.550492 1.374601
vt 0.766597 -0.037532
vt -0.050118 1.269737
vt -0.200171 -0.037532
vt 0.735847 -0.037532
vt -0.050118 1.147941
vt 0.619449 -0.037532
vt -0.439298 1.269738
vt -0.051675 -0.037532
vt 0.588699 -0.037532
vt -0.439298 1.147942
vt 0.472301 -0.037532
vt -0.216910 1.269738
vt 0.101253 -0.037532
vt 0.437159 -0.037532
vt 0.269326 1.167422
vt -0.661547 2.306408
vt 1.450127 1.087555
vt 0.291349 1.192566
vt -0.628302 2.306408
vt 1.459378 1.087555
vt -0.609343 2.306408
vt 0.064337 1.147941
vt -0.828199 1.147941
vt 0.313370 1.147941
vt -0.628302 1.181321
vt 1.459378 -0.037532
vt -0.828199 2.273027
vt -0.609343 1.181321
vt 0.119935 1.366781
vt 0.172271 1.268561
vt -0.711726 2.333415
vt 0.269326 -0.037532
vt 0.268970 1.278727
vt 0.269326 1.087555
vt -0.711726 1.208327
vt 0.472301 0.525011
vt -0.013519 0.525012
vt 0.101253 0.525012
vt 0.437159 0.525011
vt 0.587952 0.525011
vt -0.048983 0.525012
vt -0.013519 0.806284
vt -0.048983 0.806284
vt 0.587952 0.806284
vt 0.472301 0.806284
vt 0.101253 0.806284
vt 0.437159 0.806284
vt 0.735100 0.525011
vt -0.197478 0.525011
vt -0.166447 0.525012
vt 0.619449 0.525011
vt -0.051675 0.525012
vt 0.588699 0.525011
vt 0.735100 0.806284
vt -0.197478 0.806284
vt -0.166447 0.806284
vt 0.619449 0.806284
vt -0.051675 0.806284
vt 0.588699 0.806284
vt 0.882247 0.525011
vt -0.345975 0.525011
vt -0.200171 0.525011
vt 0.735847 0.525011
vt 0.766597 0.525011
vt -0.314943 0.525011
vt 1.029395 0.525011
vt -0.494470 0.525011
vt 0.913744 0.525011
vt -0.463439 0.525011
vt 0.882995 0.525011
vt -0.348667 0.525011
vt 1.187524 0.525011
vt -0.654048 0.525011
vt 1.071873 0.525011
vt -0.611935 0.525011
vt -0.497162 0.525011
vt 1.030142 0.525011
vt -0.345975 0.806284
vt 0.882247 0.806284
vt -0.314943 0.806284
vt 0.735847 0.806284
vt -0.200171 0.806284
vt 0.766597 0.806284
vt -0.494470 0.806284
vt 1.029395 0.806284
vt -0.463439 0.806284
vt 0.913744 0.806284
vt -0.348667 0.806284
vt 0.882995 0.806284
vt 0.913744 0.243740
vt -0.348667 0.243740
vt 0.882995 0.243740
vt 1.029395 0.243740
vt -0.494470 0.243740
vt -0.463439 0.243740
vt 0.619449 0.243740
vt 0.588699 0.243740
vt -0.051675 0.243740
vt -0.197478 0.243740
vt 0.735100 0.243740
vt -0.166447 0.243740
vt -0.200171 0.243740
vt 0.735847 0.243740
vt 0.766597 0.243740
vt 0.882247 0.243740
vt -0.345975 0.243740
vt -0.314943 0.243740
s 0
f 2/4/1 3/7/1 1/1/1
f 26/69/2 22/59/2 27/73/2
f 32/84/2 9/26/2 34/91/2
f 92/225/3 28/74/3 91/224/3
f 19/51/4 80/206/4 82/210/4
f 125/275/5 16/44/5 126/276/5
f 117/263/6 14/39/6 118/264/6
f 103/242/7 12/34/7 105/244/7
f 8/23/8 5/13/8 7/19/8
f 85/214/9 44/115/9 86/216/9
f 123/272/10 66/170/10 124/273/10
f 75/194/11 3/9/11 76/197/11
f 78/204/12 77/200/12 2/5/12
f 21/57/8 71/181/8 20/53/8
f 26/70/1 44/114/1 42/109/1
f 80/206/13 71/182/13 81/207/13
f 26/71/14 41/108/14 21/55/14
f 19/52/8 69/176/8 18/48/8
f 30/80/1 48/124/1 43/111/1
f 122/270/15 69/177/15 120/267/15
f 30/81/16 85/214/16 84/213/16
f 17/47/8 67/171/8 16/43/8
f 28/75/1 46/119/1 47/121/1
f 126/276/17 67/172/17 123/271/17
f 28/76/18 93/226/18 91/223/18
f 15/42/8 65/166/8 14/38/8
f 39/102/1 56/144/1 45/116/1
f 118/264/19 65/167/19 116/260/19
f 39/103/20 110/252/20 107/248/20
f 13/37/8 63/161/8 12/33/8
f 37/97/21 54/139/21 55/141/21
f 105/244/22 63/162/22 106/245/22
f 37/98/23 113/256/23 111/254/23
f 11/32/8 61/156/8 10/28/8
f 35/92/1 52/134/1 53/136/1
f 34/91/24 61/157/24 52/133/24
f 35/93/25 104/243/25 103/241/25
f 9/27/8 59/151/8 76/198/8
f 50/128/1 51/131/1 32/85/1
f 59/152/26 74/192/26 76/196/26
f 32/86/14 60/155/14 9/25/14
f 77/199/8 22/58/8 24/63/8
f 23/60/1 27/72/1 78/202/1
f 27/73/27 77/201/27 78/203/27
f 75/193/8 58/149/8 57/146/8
f 49/126/1 73/187/1 72/184/1
f 58/150/28 73/189/28 49/127/28
f 82/209/29 70/180/29 19/50/29
f 83/211/30 81/207/30 86/215/30
f 93/226/31 48/125/31 94/228/31
f 82/210/32 83/211/32 84/212/32
f 84/212/33 31/83/33 30/79/33
f 31/83/34 86/215/34 44/113/34
f 84/213/35 79/205/35 82/209/35
f 79/205/36 86/216/36 81/208/36
f 113/256/37 56/145/37 114/258/37
f 87/217/38 119/265/38 121/269/38
f 92/225/39 90/221/39 94/227/39
f 122/270/40 87/218/40 121/268/40
f 29/78/41 94/227/41 48/123/41
f 89/220/42 94/228/42 90/222/42
f 91/223/43 89/220/43 87/217/43
f 88/219/44 91/224/44 87/218/44
f 95/229/45 124/273/45 125/274/45
f 108/249/46 96/231/46 109/251/46
f 106/246/47 62/160/47 104/243/47
f 107/247/48 98/234/48 108/249/48
f 115/259/49 102/239/49 116/261/49
f 99/235/50 115/259/50 117/262/50
f 112/255/51 102/240/51 114/257/51
f 111/253/52 101/238/52 112/255/52
f 109/250/53 97/233/53 110/252/53
f 103/241/54 62/160/54 11/30/54
f 36/96/55 106/245/55 54/138/55
f 35/94/56 105/244/56 36/96/56
f 6/18/57 43/112/57 48/125/57
f 39/104/58 108/249/58 40/106/58
f 40/106/59 109/251/59 46/118/59
f 107/248/60 97/233/60 95/229/60
f 37/99/61 112/255/61 38/101/61
f 38/101/62 114/257/62 56/143/62
f 100/237/63 114/258/63 102/239/63
f 111/254/64 100/237/64 99/235/64
f 117/262/65 64/165/65 13/35/65
f 119/265/66 90/222/66 120/266/66
f 101/238/67 116/260/67 102/240/67
f 99/236/68 118/264/68 101/238/68
f 1/3/57 64/165/57 65/168/57
f 18/49/69 121/268/69 17/46/69
f 121/269/70 68/175/70 17/45/70
f 88/219/71 120/267/71 90/221/71
f 125/274/72 66/170/72 15/40/72
f 98/234/73 123/271/73 96/231/73
f 96/232/74 124/273/74 97/233/74
f 95/230/75 126/276/75 98/234/75
f 2/4/1 4/10/1 3/7/1
f 26/69/2 21/56/2 22/59/2
f 25/66/2 3/8/2 9/26/2
f 3/8/2 4/11/2 15/41/2
f 9/26/2 3/8/2 10/29/2
f 4/11/2 24/64/2 22/59/2
f 21/56/2 20/54/2 4/11/2
f 20/54/2 19/51/2 4/11/2
f 4/11/2 22/59/2 21/56/2
f 10/29/2 3/8/2 11/31/2
f 7/20/2 33/87/2 32/84/2
f 18/49/2 17/46/2 4/11/2
f 17/46/2 16/44/2 4/11/2
f 4/11/2 19/51/2 18/49/2
f 8/22/2 7/20/2 39/104/2
f 7/20/2 32/84/2 34/91/2
f 27/73/2 23/61/2 8/22/2
f 30/79/2 31/83/2 8/22/2
f 31/83/2 26/69/2 8/22/2
f 26/69/2 27/73/2 8/22/2
f 15/41/2 14/39/2 3/8/2
f 14/39/2 13/36/2 3/8/2
f 4/11/2 16/44/2 15/41/2
f 40/106/2 28/74/2 8/22/2
f 28/74/2 29/78/2 8/22/2
f 29/78/2 30/79/2 8/22/2
f 12/34/2 11/31/2 3/8/2
f 12/34/2 3/8/2 13/36/2
f 37/99/76 38/101/76 7/20/76
f 38/101/2 39/104/2 7/20/2
f 39/104/2 40/106/2 8/22/2
f 34/91/2 35/94/2 7/20/2
f 35/94/2 36/96/2 7/20/2
f 7/20/77 36/96/77 37/99/77
f 9/26/2 10/29/2 34/91/2
f 92/225/78 29/78/78 28/74/78
f 19/51/79 20/54/79 80/206/79
f 125/275/80 15/41/80 16/44/80
f 117/263/81 13/36/81 14/39/81
f 103/242/82 11/31/82 12/34/82
f 8/23/8 6/16/8 5/13/8
f 85/214/83 43/112/83 44/115/83
f 123/272/84 67/173/84 66/170/84
f 74/190/11 33/88/11 7/21/11
f 7/21/11 5/14/11 73/188/11
f 5/14/11 72/185/11 73/188/11
f 74/190/11 7/21/11 73/188/11
f 75/194/11 57/147/11 1/2/11
f 74/190/11 73/188/11 75/194/11
f 3/9/11 25/67/11 76/197/11
f 76/197/11 74/190/11 75/194/11
f 75/194/11 1/2/11 3/9/11
f 24/65/12 4/12/12 77/200/12
f 4/12/12 2/5/12 77/200/12
f 6/17/12 8/24/12 78/204/12
f 8/24/12 23/62/12 78/204/12
f 6/17/12 78/204/12 2/5/12
f 21/57/8 41/107/8 71/181/8
f 26/70/1 31/82/1 44/114/1
f 80/206/85 20/54/85 71/182/85
f 26/71/14 42/110/14 41/108/14
f 19/52/8 70/179/8 69/176/8
f 30/80/1 29/77/1 48/124/1
f 122/270/86 18/49/86 69/177/86
f 30/81/87 43/112/87 85/214/87
f 17/47/8 68/174/8 67/171/8
f 28/75/1 40/105/1 46/119/1
f 126/276/88 16/44/88 67/172/88
f 28/76/89 47/122/89 93/226/89
f 15/42/8 66/169/8 65/166/8
f 39/102/1 38/100/1 56/144/1
f 118/264/90 14/39/90 65/167/90
f 39/103/91 45/117/91 110/252/91
f 13/37/8 64/164/8 63/161/8
f 37/97/92 36/95/92 54/139/92
f 105/244/93 12/34/93 63/162/93
f 37/98/94 55/142/94 113/256/94
f 11/32/8 62/159/8 61/156/8
f 35/92/1 34/90/1 52/134/1
f 34/91/24 10/29/24 61/157/24
f 35/93/95 53/137/95 104/243/95
f 76/198/8 25/68/8 9/27/8
f 9/27/8 60/154/8 59/151/8
f 33/89/1 74/191/1 32/85/1
f 74/191/1 50/128/1 32/85/1
f 59/152/26 50/129/26 74/192/26
f 32/86/14 51/132/14 60/155/14
f 27/73/27 22/59/27 77/201/27
f 58/150/28 75/195/28 73/189/28
f 82/209/96 79/205/96 70/180/96
f 83/211/97 80/206/97 81/207/97
f 93/226/98 47/122/98 48/125/98
f 82/210/99 80/206/99 83/211/99
f 84/212/100 83/211/100 31/83/100
f 31/83/101 83/211/101 86/215/101
f 84/213/102 85/214/102 79/205/102
f 79/205/103 85/214/103 86/216/103
f 113/256/104 55/142/104 56/145/104
f 87/217/105 89/220/105 119/265/105
f 92/225/106 88/219/106 90/221/106
f 122/270/107 88/219/107 87/218/107
f 29/78/108 92/225/108 94/227/108
f 89/220/109 93/226/109 94/228/109
f 91/223/110 93/226/110 89/220/110
f 88/219/111 92/225/111 91/224/111
f 95/229/112 97/233/112 124/273/112
f 108/249/113 98/234/113 96/231/113
f 106/246/114 63/163/114 62/160/114
f 107/247/115 95/230/115 98/234/115
f 115/259/116 100/237/116 102/239/116
f 99/235/117 100/237/117 115/259/117
f 112/255/118 101/238/118 102/240/118
f 111/253/119 99/236/119 101/238/119
f 109/250/120 96/232/120 97/233/120
f 103/241/121 104/243/121 62/160/121
f 36/96/122 105/244/122 106/245/122
f 35/94/123 103/242/123 105/244/123
f 45/117/57 56/145/57 6/18/57
f 56/145/57 55/142/57 5/15/57
f 6/18/57 56/145/57 5/15/57
f 54/140/124 106/246/124 104/243/124
f 55/142/57 54/140/57 5/15/57
f 54/140/125 104/243/125 53/137/125
f 52/135/57 61/158/57 60/155/57
f 54/140/57 53/137/57 5/15/57
f 52/135/57 60/155/57 51/132/57
f 53/137/57 52/135/57 5/15/57
f 51/132/57 50/130/57 5/15/57
f 50/130/57 49/127/57 5/15/57
f 51/132/57 5/15/57 52/135/57
f 49/127/57 72/186/57 5/15/57
f 6/18/57 2/6/57 42/110/57
f 2/6/57 41/108/57 42/110/57
f 42/110/57 44/115/57 6/18/57
f 44/115/57 43/112/57 6/18/57
f 109/250/126 110/252/126 45/117/126
f 48/125/57 47/122/57 6/18/57
f 47/122/57 46/120/57 6/18/57
f 46/120/127 109/250/127 45/117/127
f 46/120/57 45/117/57 6/18/57
f 39/104/128 107/247/128 108/249/128
f 40/106/129 108/249/129 109/251/129
f 107/248/130 110/252/130 97/233/130
f 37/99/131 111/253/131 112/255/131
f 38/101/132 112/255/132 114/257/132
f 100/237/133 113/256/133 114/258/133
f 111/254/134 113/256/134 100/237/134
f 117/262/135 115/259/135 64/165/135
f 119/265/136 89/220/136 90/222/136
f 101/238/137 118/264/137 116/260/137
f 99/236/138 117/263/138 118/264/138
f 41/108/57 2/6/57 71/183/57
f 2/6/57 1/3/57 65/168/57
f 71/183/57 2/6/57 70/180/57
f 1/3/57 57/148/57 58/150/57
f 58/150/57 49/127/57 50/130/57
f 59/153/57 60/155/57 1/3/57
f 60/155/57 61/158/57 1/3/57
f 58/150/57 50/130/57 59/153/57
f 70/180/57 2/6/57 69/178/57
f 79/205/139 81/208/139 71/183/139
f 70/180/140 79/205/140 71/183/140
f 1/3/57 58/150/57 59/153/57
f 61/158/57 62/160/57 1/3/57
f 62/160/57 63/163/57 1/3/57
f 69/178/57 2/6/57 68/175/57
f 119/265/141 120/266/141 69/178/141
f 68/175/57 2/6/57 67/173/57
f 64/165/142 115/259/142 116/261/142
f 1/3/57 63/163/57 64/165/57
f 68/175/143 119/265/143 69/178/143
f 65/168/57 66/170/57 2/6/57
f 66/170/57 67/173/57 2/6/57
f 64/165/144 116/261/144 65/168/144
f 18/49/145 122/270/145 121/268/145
f 121/269/146 119/265/146 68/175/146
f 88/219/147 122/270/147 120/267/147
f 125/274/148 124/273/148 66/170/148
f 98/234/149 126/276/149 123/271/149
f 96/232/150 123/272/150 124/273/150
f 95/230/151 125/275/151 126/276/151
