# Blender 3.3.1
# www.blender.org
o Vent_Grate.003
v -0.131811 0.112890 -7.708995
v 0.037981 0.241717 -8.334431
v -0.131833 0.083258 -7.709269
v 0.037958 0.214219 -8.345475
v 0.492621 0.110876 -7.541930
v 0.662413 0.179011 -8.179567
v 0.492599 0.081244 -7.542203
v 0.662391 0.113639 -8.207444
v -0.099070 0.083732 -7.763229
v -0.091490 0.083988 -7.791556
v -0.074753 0.084553 -7.854107
v -0.068752 0.084755 -7.876533
v -0.052015 0.085320 -7.939085
v -0.047593 0.085469 -7.955609
v -0.030856 0.092890 -8.043246
v -0.026434 0.099046 -8.058582
v -0.009697 0.084474 -8.133468
v -0.005275 0.090629 -8.148803
v 0.011462 0.113931 -8.206855
v 0.036869 0.144572 -8.249602
v 0.033252 0.182142 -8.265600
v 0.038483 0.189425 -8.283743
v 0.631454 0.154619 -8.198284
v 0.055059 0.212502 -8.341234
v -0.114733 0.083203 -7.704694
v 0.609648 0.086386 -8.139482
v 0.614878 0.093668 -8.157625
v 0.566698 0.084889 -7.943023
v 0.571120 0.085039 -7.959547
v 0.587857 0.093923 -8.047071
v 0.592910 0.100958 -8.064598
v 0.477325 0.081872 -7.609015
v 0.461663 0.081344 -7.550480
v 0.484905 0.082128 -7.637342
v 0.501642 0.082693 -7.699894
v 0.507643 0.082896 -7.722320
v 0.536016 0.096085 -7.789146
v 0.528802 0.083610 -7.801395
v 0.545539 0.084175 -7.863947
v 0.549961 0.084324 -7.880471
v 0.047685 0.229703 -8.304538
v 0.624081 0.171821 -8.161588
v 0.602290 0.141484 -8.086009
v 0.607343 0.110645 -8.120368
v 0.559972 0.114294 -7.917529
v 0.564394 0.114443 -7.934053
v 0.581131 0.115008 -7.996605
v 0.585553 0.118182 -8.027957
v 0.465737 0.111113 -7.565350
v 0.475021 0.111426 -7.600046
v 0.491758 0.111991 -7.662598
v 0.499338 0.112247 -7.690925
v 0.516075 0.112812 -7.753476
v 0.522076 0.113014 -7.775902
v 0.538813 0.113579 -7.838453
v 0.543235 0.113729 -7.854978
v -0.114710 0.112835 -7.704420
v -0.110658 0.112972 -7.719563
v -0.101374 0.113285 -7.754260
v -0.084637 0.113850 -7.816812
v -0.077057 0.114106 -7.845138
v -0.060320 0.114671 -7.907690
v -0.054319 0.114874 -7.930115
v -0.037582 0.115439 -7.992667
v -0.033160 0.117149 -8.024132
v -0.016423 0.140451 -8.082184
v -0.012001 0.108733 -8.114353
v 0.004736 0.169909 -8.155572
v 0.009158 0.176064 -8.170908
v 0.025895 0.199366 -8.228960
v 0.030948 0.206401 -8.246486
v 0.461685 0.110976 -7.550207
v 0.461672 0.093212 -7.550371
v 0.461664 0.083082 -7.550464
v -0.114724 0.095071 -7.704584
v -0.114731 0.084941 -7.704678
v 0.055079 0.237383 -8.331242
v 0.631474 0.179500 -8.188291
v 0.292936 0.121783 -8.166498
v 0.273851 0.111054 -8.186363
v 0.297736 0.118085 -8.204987
v 0.268958 0.094319 -8.144937
v 0.449164 0.086162 -8.117436
v 0.444823 0.114081 -8.084667
v 0.461344 0.172180 -8.120056
v 0.463619 0.122802 -8.157668
v 0.252551 0.099154 -8.069660
v 0.301426 0.093160 -8.065907
v 0.289017 0.110311 -8.094628
v 0.299723 0.104752 -8.097858
v 0.423527 0.087734 -7.982967
v 0.431130 0.091071 -7.993793
v 0.441767 0.120721 -8.047381
v 0.443142 0.120210 -8.066876
v 0.255259 0.079562 -7.934628
v 0.273143 0.099992 -8.002905
v 0.268569 0.097086 -7.990313
v 0.257462 0.079754 -7.946506
v 0.231510 0.081825 -7.839295
v 0.232613 0.086153 -7.871945
v 0.234388 0.079483 -7.860447
v 0.239830 0.083096 -7.884722
v 0.208221 0.086768 -7.756413
v 0.208554 0.088680 -7.776402
v 0.217434 0.085659 -7.781216
v 0.185046 0.089829 -7.807849
v 0.404213 0.092279 -7.906396
v 0.408657 0.091984 -7.922138
v 0.421710 0.109210 -7.971020
v 0.417810 0.103759 -7.955377
v 0.390154 0.086924 -7.822781
v 0.393503 0.085124 -7.838519
v 0.360255 0.088180 -7.862892
v 0.375204 0.084918 -7.867954
v 0.088136 0.091417 -7.923781
v 0.093230 0.090307 -7.934293
v 0.086754 0.090181 -7.891574
v 0.090610 0.088582 -7.909589
v 0.128372 0.117188 -8.144198
v 0.134778 0.096846 -8.169543
v 0.119259 0.105835 -8.083339
v 0.122706 0.072990 -8.116595
v 0.119305 0.115305 -8.050978
v 0.090377 0.115730 -8.019860
v 0.106519 0.089228 -7.960354
v 0.111893 0.089098 -7.983075
vn -0.9652 0.0031 -0.2614
vn -0.0677 -0.9190 -0.3884
vn -0.0008 -1.0000 -0.0092
vn 0.0533 -0.9642 -0.2598
vn 0.0189 -0.9278 -0.3726
vn -0.0663 -0.9978 -0.0100
vn -0.0065 -0.9962 0.0870
vn -0.0104 -0.9991 0.0408
vn 0.9690 -0.0030 0.2472
vn 0.2488 0.5941 -0.7649
vn 0.1521 0.9800 0.1281
vn -0.2585 -0.0087 0.9660
vn 0.2585 0.3599 -0.8965
vn 0.9954 0.0954 -0.0010
vn -0.9648 0.1000 -0.2433
vn -0.1854 -0.8169 -0.5462
vn -0.0602 0.6432 0.7633
vn 0.9660 -0.1017 0.2377
vn -0.9660 0.0970 -0.2396
vn -0.4730 -0.7579 -0.4493
vn -0.1408 0.5439 0.8272
vn 0.9677 -0.0927 0.2343
vn -0.9660 0.0031 -0.2585
vn 0.2066 -0.9202 -0.3326
vn -0.1022 0.8969 0.4303
vn 0.9818 -0.0511 0.1832
vn -0.1491 -0.9852 -0.0846
vn -0.0117 0.9743 0.2251
vn 0.9660 -0.0031 0.2585
vn -0.8315 -0.5070 -0.2271
vn -0.0648 -0.9949 -0.0770
vn -0.0839 0.9921 0.0936
vn 0.1206 -0.8789 -0.4615
vn -0.0045 0.9955 0.0952
vn 0.1223 -0.8755 -0.4675
vn -0.1206 0.8789 0.4615
vn 0.9660 -0.0970 0.2396
vn -0.9645 0.0991 -0.2447
vn 0.1899 -0.3627 -0.9124
vn -0.1933 0.6551 0.7304
vn -0.2046 0.2774 0.9387
vn 0.1984 -0.7591 -0.6200
vn 0.0210 0.9995 -0.0248
vn -0.1311 -0.7631 0.6328
vn -0.0304 -0.9245 -0.3799
vn -0.0364 -0.9830 -0.1802
vn -0.2922 0.7353 0.6116
vn -0.0010 0.9954 -0.0958
vn -0.0721 0.7278 -0.6820
vn 0.0300 0.9818 0.1876
vn 0.1731 -0.9243 -0.3401
vn -0.1069 -0.7129 0.6931
vn 0.1009 -0.9035 -0.4164
vn 0.0975 0.6337 -0.7674
vn -0.0873 0.9508 0.2974
vn -0.1304 -0.9832 0.1276
vn -0.0115 0.9123 0.4094
vn 0.1232 -0.9458 -0.3004
vn 0.1230 0.9908 -0.0558
vn 0.0742 -0.9965 0.0396
vn 0.0726 0.9949 -0.0699
vn 0.0431 0.9983 0.0402
vn 0.0136 -0.9999 -0.0015
vn 0.0190 -0.9929 0.1176
vn -0.1130 0.9467 0.3017
vn -0.1622 0.8782 0.4499
vn 0.1046 -0.8787 -0.4657
vn -0.0073 -0.9999 -0.0110
vn 0.0008 0.9280 0.3727
vn -0.0477 -0.9986 -0.0218
vn 0.1497 -0.8786 -0.4535
vn -0.1324 0.9541 0.2686
vn -0.2144 -0.6184 0.7561
vn 0.1846 -0.8771 -0.4433
vn 0.0147 0.9743 -0.2248
vn -0.0453 0.9905 0.1298
vn -0.1827 0.8773 0.4439
vn 0.2135 0.7875 -0.5781
vn 0.0010 -0.9891 -0.1470
vn -0.0957 -0.9907 0.0966
vn 0.2295 0.9696 0.0850
vn 0.2657 -0.9187 -0.2922
vn -0.3881 0.2918 0.8742
vn 0.1934 -0.9189 -0.3437
vn -0.3787 0.6524 0.6565
vn 0.0109 -0.9421 -0.3350
vn 0.0606 0.9676 0.2453
vn -0.0573 -0.9980 -0.0267
vn -0.9664 0.0964 -0.2381
vn -0.9386 -0.1881 -0.2892
vn -0.0008 -0.9280 -0.3727
vn 0.9828 0.1439 0.1157
vn -0.0134 -0.8089 -0.5878
vn -0.8913 -0.2689 -0.3649
vn -0.9759 0.0015 -0.2184
vn 0.3994 -0.9150 0.0574
vn -0.6230 -0.3097 -0.7183
vn -0.7679 -0.4865 -0.4167
vn 0.7029 -0.6521 0.2840
vn -0.4425 -0.8825 -0.1592
vn -0.0008 -0.9279 -0.3727
vn 0.7139 -0.6754 0.1849
vn 0.0778 -0.9933 -0.0859
vn -0.8110 0.5751 -0.1080
vn 0.4829 -0.8751 0.0323
vn -0.0383 -0.9991 -0.0193
vn 0.0354 -0.8221 -0.5682
vn 0.1708 -0.9304 -0.3242
vn 0.0349 -0.9994 0.0003
vn 0.0100 -0.9999 -0.0064
vn 0.9637 -0.1050 0.2454
vn 0.3065 0.7303 -0.6104
vn 0.2805 0.7025 -0.6541
vn 0.2567 0.3790 -0.8891
vn 0.2137 0.3639 -0.9066
vn 0.2585 0.3598 -0.8965
vn -0.9677 0.0927 -0.2343
vn 0.2669 0.0740 -0.9609
vn -0.2049 0.2775 0.9386
vn -0.9819 0.0506 -0.1826
vn 0.1985 -0.2768 -0.9402
vn -0.0455 0.6410 0.7662
vn 0.9648 -0.1000 0.2433
vn 0.0198 -0.9859 -0.1661
vn -0.1311 0.8789 0.4587
vn 0.1499 -0.9091 -0.3887
vn -0.1831 0.8772 0.4438
vn -0.8334 -0.3547 -0.4239
vn 0.1535 -0.8785 -0.4525
vn -0.1762 0.9308 0.3202
vn -0.1037 0.8787 0.4660
vn 0.0361 -0.7095 -0.7038
vn -0.0036 0.6195 0.7850
vn 0.0040 -0.9372 -0.3487
vn 0.0039 0.9949 0.1013
vn 0.0149 -0.9277 -0.3730
vn -0.1528 -0.7621 0.6291
vn 0.2927 -0.7570 -0.5842
vn -0.3716 0.5577 0.7422
vn 0.0375 0.6066 -0.7941
vn -0.1371 0.9902 -0.0277
vn -0.0617 0.9417 0.3307
vn 0.1764 -0.9222 -0.3440
vn -0.1373 -0.6536 0.7442
vn 0.0487 -0.9305 -0.3630
vn -0.0586 0.9978 -0.0303
vn -0.1864 0.8949 0.4055
vn 0.1082 -0.9689 -0.2227
vn 0.0479 0.9495 0.3102
vn 0.1254 -0.9444 -0.3040
vn 0.0876 0.9956 0.0324
vn 0.0851 -0.9964 -0.0003
vn 0.0995 0.9790 -0.1780
vn -0.0109 0.9913 0.1310
vn 0.0537 -0.9894 -0.1352
vn 0.0202 -0.9934 0.1127
vn -0.1011 0.9768 0.1887
vn 0.0493 0.9942 0.0959
vn 0.0290 -0.9816 -0.1889
vn -0.0210 -0.9991 0.0369
vn -0.8645 0.4482 -0.2273
vn 0.0008 1.0000 0.0092
vn -0.6791 0.7268 -0.1032
vn -0.0772 0.9926 0.0940
vn -0.0774 0.9969 -0.0117
vn 0.2988 0.4757 0.8273
vn -0.8496 0.3242 -0.4159
vn -0.1478 0.9448 0.2924
vn -0.6339 0.7733 -0.0111
vn -0.0365 0.9993 -0.0007
vn -0.0580 -0.9983 0.0023
vn 0.0436 -0.9458 -0.3217
vn -0.0912 0.9749 0.2032
vn 0.0345 -0.9921 0.1208
vn -0.0158 -0.9997 0.0168
vn 0.0214 0.8680 -0.4961
vn -0.0191 0.9988 0.0455
vn 0.1637 0.9855 0.0448
vn 0.2182 0.7692 -0.6005
vn -0.0379 -0.9966 -0.0736
vn -0.0829 -0.9941 0.0705
vn 0.9339 0.2017 0.2951
vn 0.3210 0.9457 -0.0508
vn 0.1654 0.8978 0.4081
vn 0.4729 0.7417 -0.4757
vn -0.9749 0.1983 -0.1016
vn 0.1930 0.9811 -0.0101
vn 0.3201 0.8437 0.4309
vn 0.9804 -0.0553 0.1893
vn 0.1556 0.9849 0.0754
vn -0.2635 -0.6998 0.6639
vn 0.3649 0.9039 0.2233
vn 0.2055 -0.9090 -0.3627
vn -0.0307 0.9099 0.4136
vn 0.0298 -0.9336 -0.3571
vn 0.0800 0.9949 0.0608
vn -0.0632 -0.9980 -0.0093
vt -0.717005 1.147941
vt -0.661547 1.147942
vt 1.450127 -0.070911
vt -0.717005 2.383491
vt -0.717005 2.366795
vt 0.269326 -0.070911
vt -0.772602 1.147941
vt -0.934631 -0.070911
vt -0.606090 1.147942
vt -0.772602 2.383491
vt 0.256987 -0.070911
vt -0.661547 2.366795
vt -0.828200 1.147941
vt -0.661547 2.366795
vt 1.450127 1.147942
vt -0.828200 2.383491
vt -0.717005 1.147942
vt 0.269326 1.147942
vt -0.772602 1.147941
vt -0.934631 1.147941
vt -0.606090 2.366795
vt 0.256987 1.147942
vt -0.772603 2.383491
vt -0.661547 1.147942
vt 1.356634 -0.037532
vt -0.824707 -0.037532
vt 0.116673 1.252805
vt -0.550492 1.147941
vt -0.771513 -0.037532
vt 1.187524 -0.037532
vt -0.654048 -0.037532
vt -0.550492 1.269737
vt 0.005479 1.374601
vt -0.611935 -0.037532
vt 1.029395 -0.037532
vt -0.494470 -0.037532
vt 0.005479 1.252805
vt -0.494895 1.147941
vt -0.463439 -0.037532
vt 0.882247 -0.037532
vt -0.345975 -0.037532
vt -0.494895 1.269737
vt -0.105715 1.374601
vt -0.314943 -0.037532
vt 0.735100 -0.037532
vt -0.197478 -0.037532
vt -0.105715 1.252805
vt -0.494895 1.374601
vt -0.166447 -0.037532
vt 0.587952 -0.037532
vt -0.048983 -0.037532
vt -0.494895 1.252806
vt -0.272507 1.374601
vt -0.013519 -0.037532
vt 0.436412 -0.037532
vt 0.103947 -0.037532
vt -0.272507 1.252806
vt 0.222575 1.147942
vt 0.140656 -0.037532
vt 0.222575 1.259183
vt 0.256987 1.087555
vt -0.661547 1.208327
vt 0.222575 1.268561
vt 0.256987 -0.037532
vt -0.661547 2.333415
vt -0.934631 -0.037532
vt -0.606090 1.181321
vt 0.116673 1.366781
vt 0.103947 1.087555
vt -0.383701 1.269737
vt 0.436412 1.087555
vt 0.268970 1.147941
vt 0.140656 1.087555
vt -0.197478 1.087555
vt -0.216910 1.269737
vt 0.735100 1.087555
vt -0.439298 1.147941
vt -0.166447 1.087555
vt -0.048983 1.087555
vt -0.439298 1.269737
vt 0.587952 1.087555
vt -0.383701 1.147941
vt -0.013519 1.087555
vt -0.824707 1.087555
vt 0.061076 1.261916
vt 1.356634 1.087555
vt -0.934631 1.087555
vt -0.606090 2.306408
vt 0.061076 1.147941
vt -0.272507 1.374601
vt -0.771513 1.087555
vt -0.272507 1.252805
vt 1.187524 1.087555
vt -0.654048 1.087555
vt -0.050118 1.147941
vt -0.611935 1.087555
vt -0.050118 1.269737
vt 1.029395 1.087555
vt -0.494470 1.087555
vt -0.105715 1.374601
vt -0.463439 1.087555
vt -0.105715 1.252805
vt 0.882247 1.087555
vt -0.345975 1.087555
vt -0.216910 1.147941
vt -0.314943 1.087555
vt -0.216910 1.147942
vt 0.320761 -0.037532
vt -0.328104 1.374600
vt 0.320761 1.087555
vt -0.383701 1.374601
vt 0.472301 1.087555
vt 0.101253 1.087555
vt -0.328104 1.252806
vt 0.437159 1.087555
vt -0.161312 1.147941
vt 0.766597 1.087555
vt -0.200171 1.087555
vt -0.161312 1.252805
vt 0.735847 1.087555
vt -0.161312 1.374601
vt 0.619449 1.087555
vt -0.051675 1.087555
vt -0.383701 1.252805
vt 0.588699 1.087555
vt 0.291349 1.147941
vt 1.421947 1.087555
vt 0.116673 1.244985
vt -0.934631 1.147941
vt 1.357382 1.087555
vt 0.116673 1.366781
vt 1.240984 1.087555
vt -0.656741 1.087555
vt -0.328104 1.269737
vt 1.188271 1.087555
vt -0.328104 1.147941
vt 1.071873 1.087555
vt -0.497163 1.087555
vt 0.005479 1.252805
vt 1.030142 1.087555
vt 0.005479 1.374601
vt 0.913744 1.087555
vt -0.348667 1.087555
vt -0.161312 1.269737
vt 0.882995 1.087555
vt 0.291347 1.173084
vt -0.661547 1.181321
vt 1.450127 -0.037532
vt 0.313370 1.192566
vt 1.421947 -0.037532
vt 0.172270 1.269737
vt -0.934631 2.273027
vt 1.357382 -0.037532
vt 0.172270 1.147941
vt 1.240984 -0.037532
vt -0.606090 1.252805
vt -0.656741 -0.037532
vt 1.188271 -0.037532
vt -0.606090 1.374600
vt 1.071873 -0.037532
vt 0.061076 1.269737
vt -0.497162 -0.037532
vt 1.030142 -0.037532
vt 0.061076 1.147941
vt 0.913744 -0.037532
vt -0.550492 1.252805
vt -0.348667 -0.037532
vt 0.882995 -0.037532
vt -0.550492 1.374601
vt 0.766597 -0.037532
vt -0.050118 1.269737
vt -0.200171 -0.037532
vt 0.735847 -0.037532
vt -0.050118 1.147941
vt 0.619449 -0.037532
vt -0.439298 1.269738
vt -0.051675 -0.037532
vt 0.588699 -0.037532
vt -0.439298 1.147942
vt 0.472301 -0.037532
vt -0.216910 1.269738
vt 0.101253 -0.037532
vt 0.437159 -0.037532
vt 0.269326 1.167422
vt -0.661547 2.306408
vt 1.450127 1.087555
vt 0.291349 1.192566
vt -0.628302 2.306408
vt 1.459378 1.087555
vt -0.609343 2.306408
vt 0.064337 1.147941
vt -0.828199 1.147941
vt 0.313370 1.147941
vt -0.628302 1.181321
vt 1.459378 -0.037532
vt -0.828199 2.273027
vt -0.609343 1.181321
vt 0.119935 1.366781
vt 0.172271 1.268561
vt -0.711726 2.333415
vt 0.269326 -0.037532
vt 0.268970 1.278727
vt 0.269326 1.087555
vt -0.711726 1.208327
vt 0.472301 0.525011
vt -0.013519 0.525012
vt 0.101253 0.525012
vt 0.437159 0.525011
vt 0.587952 0.525011
vt -0.048983 0.525012
vt -0.013519 0.806284
vt -0.048983 0.806284
vt 0.587952 0.806284
vt 0.472301 0.806284
vt 0.101253 0.806284
vt 0.437159 0.806284
vt 0.735100 0.525011
vt -0.197478 0.525011
vt -0.166447 0.525012
vt 0.619449 0.525011
vt -0.051675 0.525012
vt 0.588699 0.525011
vt 0.735100 0.806284
vt -0.197478 0.806284
vt -0.166447 0.806284
vt 0.619449 0.806284
vt -0.051675 0.806284
vt 0.588699 0.806284
vt 0.882247 0.525011
vt -0.345975 0.525011
vt -0.200171 0.525011
vt 0.735847 0.525011
vt 0.766597 0.525011
vt -0.314943 0.525011
vt 1.029395 0.525011
vt -0.494470 0.525011
vt 0.913744 0.525011
vt -0.463439 0.525011
vt 0.882995 0.525011
vt -0.348667 0.525011
vt 1.187524 0.525011
vt -0.654048 0.525011
vt 1.071873 0.525011
vt -0.611935 0.525011
vt -0.497162 0.525011
vt 1.030142 0.525011
vt -0.345975 0.806284
vt 0.882247 0.806284
vt -0.314943 0.806284
vt 0.735847 0.806284
vt -0.200171 0.806284
vt 0.766597 0.806284
vt -0.494470 0.806284
vt 1.029395 0.806284
vt -0.463439 0.806284
vt 0.913744 0.806284
vt -0.348667 0.806284
vt 0.882995 0.806284
vt 0.913744 0.243740
vt -0.348667 0.243740
vt 0.882995 0.243740
vt 1.029395 0.243740
vt -0.494470 0.243740
vt -0.463439 0.243740
vt 0.619449 0.243740
vt 0.588699 0.243740
vt -0.051675 0.243740
vt -0.197478 0.243740
vt 0.735100 0.243740
vt -0.166447 0.243740
vt -0.200171 0.243740
vt 0.735847 0.243740
vt 0.766597 0.243740
vt 0.882247 0.243740
vt -0.345975 0.243740
vt -0.314943 0.243740
s 0
f 2/4/1 3/7/1 1/1/1
f 26/69/2 22/59/2 27/73/2
f 32/84/3 9/26/3 34/91/3
f 92/225/4 28/74/4 91/224/4
f 19/51/5 80/206/5 82/210/5
f 125/275/6 16/44/6 126/276/6
f 117/263/7 14/39/7 118/264/7
f 103/242/8 12/34/8 105/244/8
f 8/23/9 5/13/9 7/19/9
f 85/214/10 44/115/10 86/216/10
f 123/272/11 66/170/11 124/273/11
f 75/194/12 3/9/12 76/197/12
f 78/204/13 77/200/13 2/5/13
f 21/57/14 71/181/14 20/53/14
f 26/70/15 44/114/15 42/109/15
f 80/206/16 71/182/16 81/207/16
f 26/71/17 41/108/17 21/55/17
f 19/52/18 69/176/18 18/48/18
f 30/80/19 48/124/19 43/111/19
f 122/270/20 69/177/20 120/267/20
f 30/81/21 85/214/21 84/213/21
f 17/47/22 67/171/22 16/43/22
f 28/75/23 46/119/23 47/121/23
f 126/276/24 67/172/24 123/271/24
f 28/76/25 93/226/25 91/223/25
f 15/42/26 65/166/26 14/38/26
f 39/102/23 56/144/23 45/116/23
f 118/264/27 65/167/27 116/260/27
f 39/103/28 110/252/28 107/248/28
f 13/37/29 63/161/29 12/33/29
f 37/97/30 54/139/30 55/141/30
f 105/244/31 63/162/31 106/245/31
f 37/98/32 113/256/32 111/254/32
f 11/32/29 61/156/29 10/28/29
f 35/92/23 52/134/23 53/136/23
f 34/91/33 61/157/33 52/133/33
f 35/93/34 104/243/34 103/241/34
f 9/27/29 59/151/29 76/198/29
f 50/128/23 51/131/23 32/85/23
f 59/152/35 74/192/35 76/196/35
f 32/86/36 60/155/36 9/25/36
f 77/199/37 22/58/37 24/63/37
f 23/60/38 27/72/38 78/202/38
f 27/73/39 77/201/39 78/203/39
f 75/193/29 58/149/29 57/146/29
f 49/126/23 73/187/23 72/184/23
f 58/150/40 73/189/40 49/127/40
f 82/209/41 70/180/41 19/50/41
f 83/211/42 81/207/42 86/215/42
f 93/226/43 48/125/43 94/228/43
f 82/210/44 83/211/44 84/212/44
f 84/212/45 31/83/45 30/79/45
f 31/83/46 86/215/46 44/113/46
f 84/213/47 79/205/47 82/209/47
f 79/205/48 86/216/48 81/208/48
f 113/256/49 56/145/49 114/258/49
f 87/217/50 119/265/50 121/269/50
f 92/225/51 90/221/51 94/227/51
f 122/270/52 87/218/52 121/268/52
f 29/78/53 94/227/53 48/123/53
f 89/220/54 94/228/54 90/222/54
f 91/223/55 89/220/55 87/217/55
f 88/219/56 91/224/56 87/218/56
f 95/229/57 124/273/57 125/274/57
f 108/249/58 96/231/58 109/251/58
f 106/246/59 62/160/59 104/243/59
f 107/247/60 98/234/60 108/249/60
f 115/259/61 102/239/61 116/261/61
f 99/235/62 115/259/62 117/262/62
f 112/255/63 102/240/63 114/257/63
f 111/253/64 101/238/64 112/255/64
f 109/250/65 97/233/65 110/252/65
f 103/241/66 62/160/66 11/30/66
f 36/96/67 106/245/67 54/138/67
f 35/94/68 105/244/68 36/96/68
f 6/18/69 43/112/69 48/125/69
f 39/104/70 108/249/70 40/106/70
f 40/106/71 109/251/71 46/118/71
f 107/248/72 97/233/72 95/229/72
f 37/99/73 112/255/73 38/101/73
f 38/101/74 114/257/74 56/143/74
f 100/237/75 114/258/75 102/239/75
f 111/254/76 100/237/76 99/235/76
f 117/262/77 64/165/77 13/35/77
f 119/265/78 90/222/78 120/266/78
f 101/238/79 116/260/79 102/240/79
f 99/236/80 118/264/80 101/238/80
f 1/3/81 64/165/81 65/168/81
f 18/49/82 121/268/82 17/46/82
f 121/269/83 68/175/83 17/45/83
f 88/219/84 120/267/84 90/221/84
f 125/274/85 66/170/85 15/40/85
f 98/234/86 123/271/86 96/231/86
f 96/232/87 124/273/87 97/233/87
f 95/230/88 126/276/88 98/234/88
f 2/4/89 4/10/89 3/7/89
f 26/69/2 21/56/2 22/59/2
f 25/66/3 3/8/3 9/26/3
f 3/8/90 4/11/90 15/41/90
f 9/26/3 3/8/3 10/29/3
f 4/11/91 24/64/91 22/59/91
f 21/56/92 20/54/92 4/11/92
f 20/54/93 19/51/93 4/11/93
f 4/11/91 22/59/91 21/56/91
f 10/29/3 3/8/3 11/31/3
f 7/20/3 33/87/3 32/84/3
f 18/49/94 17/46/94 4/11/94
f 17/46/95 16/44/95 4/11/95
f 4/11/94 19/51/94 18/49/94
f 8/22/96 7/20/96 39/104/96
f 7/20/3 32/84/3 34/91/3
f 27/73/97 23/61/97 8/22/97
f 30/79/98 31/83/98 8/22/98
f 31/83/99 26/69/99 8/22/99
f 26/69/91 27/73/91 8/22/91
f 15/41/100 14/39/100 3/8/100
f 14/39/3 13/36/3 3/8/3
f 4/11/101 16/44/101 15/41/101
f 40/106/102 28/74/102 8/22/102
f 28/74/102 29/78/102 8/22/102
f 29/78/103 30/79/103 8/22/103
f 12/34/3 11/31/3 3/8/3
f 12/34/3 3/8/3 13/36/3
f 37/99/104 38/101/104 7/20/104
f 38/101/3 39/104/3 7/20/3
f 39/104/102 40/106/102 8/22/102
f 34/91/3 35/94/3 7/20/3
f 35/94/3 36/96/3 7/20/3
f 7/20/105 36/96/105 37/99/105
f 9/26/3 10/29/3 34/91/3
f 92/225/106 29/78/106 28/74/106
f 19/51/107 20/54/107 80/206/107
f 125/275/108 15/41/108 16/44/108
f 117/263/109 13/36/109 14/39/109
f 103/242/110 11/31/110 12/34/110
f 8/23/111 6/16/111 5/13/111
f 85/214/112 43/112/112 44/115/112
f 123/272/113 67/173/113 66/170/113
f 74/190/12 33/88/12 7/21/12
f 7/21/12 5/14/12 73/188/12
f 5/14/12 72/185/12 73/188/12
f 74/190/12 7/21/12 73/188/12
f 75/194/12 57/147/12 1/2/12
f 74/190/12 73/188/12 75/194/12
f 3/9/12 25/67/12 76/197/12
f 76/197/12 74/190/12 75/194/12
f 75/194/12 1/2/12 3/9/12
f 24/65/13 4/12/13 77/200/13
f 4/12/13 2/5/13 77/200/13
f 6/17/114 8/24/114 78/204/114
f 8/24/115 23/62/115 78/204/115
f 6/17/116 78/204/116 2/5/116
f 21/57/37 41/107/37 71/181/37
f 26/70/117 31/82/117 44/114/117
f 80/206/118 20/54/118 71/182/118
f 26/71/119 42/110/119 41/108/119
f 19/52/18 70/179/18 69/176/18
f 30/80/120 29/77/120 48/124/120
f 122/270/121 18/49/121 69/177/121
f 30/81/122 43/112/122 85/214/122
f 17/47/123 68/174/123 67/171/123
f 28/75/23 40/105/23 46/119/23
f 126/276/124 16/44/124 67/172/124
f 28/76/125 47/122/125 93/226/125
f 15/42/37 66/169/37 65/166/37
f 39/102/23 38/100/23 56/144/23
f 118/264/126 14/39/126 65/167/126
f 39/103/127 45/117/127 110/252/127
f 13/37/29 64/164/29 63/161/29
f 37/97/128 36/95/128 54/139/128
f 105/244/129 12/34/129 63/162/129
f 37/98/130 55/142/130 113/256/130
f 11/32/29 62/159/29 61/156/29
f 35/92/23 34/90/23 52/134/23
f 34/91/33 10/29/33 61/157/33
f 35/93/131 53/137/131 104/243/131
f 76/198/29 25/68/29 9/27/29
f 9/27/29 60/154/29 59/151/29
f 33/89/23 74/191/23 32/85/23
f 74/191/23 50/128/23 32/85/23
f 59/152/35 50/129/35 74/192/35
f 32/86/36 51/132/36 60/155/36
f 27/73/132 22/59/132 77/201/132
f 58/150/40 75/195/40 73/189/40
f 82/209/133 79/205/133 70/180/133
f 83/211/134 80/206/134 81/207/134
f 93/226/135 47/122/135 48/125/135
f 82/210/136 80/206/136 83/211/136
f 84/212/137 83/211/137 31/83/137
f 31/83/138 83/211/138 86/215/138
f 84/213/139 85/214/139 79/205/139
f 79/205/140 85/214/140 86/216/140
f 113/256/141 55/142/141 56/145/141
f 87/217/142 89/220/142 119/265/142
f 92/225/143 88/219/143 90/221/143
f 122/270/144 88/219/144 87/218/144
f 29/78/145 92/225/145 94/227/145
f 89/220/146 93/226/146 94/228/146
f 91/223/147 93/226/147 89/220/147
f 88/219/148 92/225/148 91/224/148
f 95/229/149 97/233/149 124/273/149
f 108/249/150 98/234/150 96/231/150
f 106/246/151 63/163/151 62/160/151
f 107/247/152 95/230/152 98/234/152
f 115/259/153 100/237/153 102/239/153
f 99/235/154 100/237/154 115/259/154
f 112/255/155 101/238/155 102/240/155
f 111/253/156 99/236/156 101/238/156
f 109/250/157 96/232/157 97/233/157
f 103/241/158 104/243/158 62/160/158
f 36/96/159 105/244/159 106/245/159
f 35/94/160 103/242/160 105/244/160
f 45/117/161 56/145/161 6/18/161
f 56/145/162 55/142/162 5/15/162
f 6/18/163 56/145/163 5/15/163
f 54/140/164 106/246/164 104/243/164
f 55/142/162 54/140/162 5/15/162
f 54/140/165 104/243/165 53/137/165
f 52/135/162 61/158/162 60/155/162
f 54/140/162 53/137/162 5/15/162
f 52/135/162 60/155/162 51/132/162
f 53/137/162 52/135/162 5/15/162
f 51/132/162 50/130/162 5/15/162
f 50/130/162 49/127/162 5/15/162
f 51/132/162 5/15/162 52/135/162
f 49/127/162 72/186/162 5/15/162
f 6/18/69 2/6/69 42/110/69
f 2/6/69 41/108/69 42/110/69
f 42/110/166 44/115/166 6/18/166
f 44/115/167 43/112/167 6/18/167
f 109/250/168 110/252/168 45/117/168
f 48/125/169 47/122/169 6/18/169
f 47/122/161 46/120/161 6/18/161
f 46/120/170 109/250/170 45/117/170
f 46/120/161 45/117/161 6/18/161
f 39/104/171 107/247/171 108/249/171
f 40/106/172 108/249/172 109/251/172
f 107/248/173 110/252/173 97/233/173
f 37/99/174 111/253/174 112/255/174
f 38/101/175 112/255/175 114/257/175
f 100/237/176 113/256/176 114/258/176
f 111/254/177 113/256/177 100/237/177
f 117/262/178 115/259/178 64/165/178
f 119/265/179 89/220/179 90/222/179
f 101/238/180 118/264/180 116/260/180
f 99/236/181 117/263/181 118/264/181
f 41/108/69 2/6/69 71/183/69
f 2/6/182 1/3/182 65/168/182
f 71/183/69 2/6/69 70/180/69
f 1/3/162 57/148/162 58/150/162
f 58/150/162 49/127/162 50/130/162
f 59/153/162 60/155/162 1/3/162
f 60/155/162 61/158/162 1/3/162
f 58/150/162 50/130/162 59/153/162
f 70/180/69 2/6/69 69/178/69
f 79/205/183 81/208/183 71/183/183
f 70/180/184 79/205/184 71/183/184
f 1/3/162 58/150/162 59/153/162
f 61/158/162 62/160/162 1/3/162
f 62/160/162 63/163/162 1/3/162
f 69/178/69 2/6/69 68/175/69
f 119/265/185 120/266/185 69/178/185
f 68/175/186 2/6/186 67/173/186
f 64/165/187 115/259/187 116/261/187
f 1/3/162 63/163/162 64/165/162
f 68/175/188 119/265/188 69/178/188
f 65/168/69 66/170/69 2/6/69
f 66/170/189 67/173/189 2/6/189
f 64/165/190 116/261/190 65/168/190
f 18/49/191 122/270/191 121/268/191
f 121/269/192 119/265/192 68/175/192
f 88/219/193 122/270/193 120/267/193
f 125/274/194 124/273/194 66/170/194
f 98/234/195 126/276/195 123/271/195
f 96/232/196 123/272/196 124/273/196
f 95/230/197 125/275/197 126/276/197
