# Blender 3.3.1
# www.blender.org
o Vent_Grate.003
v 0.182241 0.250673 -6.805789
v 0.184213 0.899842 -6.682615
v 0.182241 0.250673 -6.835423
v 0.181423 0.910265 -6.710214
v 0.828639 0.250673 -6.805789
v 0.827647 0.911099 -6.743417
v 0.828639 0.250673 -6.835423
v 0.820624 0.937451 -6.809044
v 0.199943 0.311270 -6.835423
v 0.199943 0.340595 -6.835423
v 0.199943 0.405349 -6.835423
v 0.199943 0.428565 -6.835423
v 0.199943 0.493319 -6.835423
v 0.199943 0.510426 -6.835423
v 0.193438 0.599473 -6.828799
v 0.193726 0.615483 -6.822782
v 0.190586 0.692020 -6.838032
v 0.190874 0.708030 -6.832015
v 0.191966 0.768637 -6.809237
v 0.205366 0.816764 -6.778974
v 0.197621 0.831611 -6.741555
v 0.197962 0.850552 -6.734437
v 0.792979 0.920964 -6.768004
v 0.199044 0.910573 -6.711879
v 0.199943 0.250673 -6.835423
v 0.787323 0.857932 -6.835708
v 0.787664 0.876872 -6.828589
v 0.796614 0.657041 -6.835423
v 0.796614 0.674147 -6.835423
v 0.790134 0.763098 -6.827334
v 0.790464 0.781395 -6.820458
v 0.796614 0.311270 -6.835423
v 0.796614 0.250673 -6.835423
v 0.796614 0.340595 -6.835423
v 0.796614 0.405349 -6.835423
v 0.796614 0.428565 -6.835423
v 0.806711 0.500567 -6.822829
v 0.796614 0.510426 -6.835423
v 0.796614 0.575180 -6.835423
v 0.796614 0.592286 -6.835423
v 0.201351 0.873369 -6.694345
v 0.795286 0.883760 -6.750470
v 0.793865 0.804856 -6.780124
v 0.789962 0.839083 -6.811275
v 0.796614 0.630933 -6.805789
v 0.796614 0.648039 -6.805789
v 0.796614 0.712794 -6.805789
v 0.792773 0.744250 -6.802902
v 0.796614 0.266350 -6.805789
v 0.796614 0.302268 -6.805789
v 0.796614 0.367023 -6.805789
v 0.796614 0.396347 -6.805789
v 0.796614 0.461102 -6.805789
v 0.796614 0.484317 -6.805789
v 0.796614 0.549072 -6.805789
v 0.796614 0.566178 -6.805789
v 0.199943 0.250673 -6.805789
v 0.199943 0.266350 -6.805789
v 0.199943 0.302268 -6.805789
v 0.199943 0.367023 -6.805789
v 0.199943 0.396347 -6.805789
v 0.199943 0.461102 -6.805789
v 0.199943 0.484317 -6.805789
v 0.199943 0.549072 -6.805789
v 0.196076 0.580625 -6.804366
v 0.197168 0.641231 -6.781589
v 0.193224 0.673171 -6.813600
v 0.198549 0.717848 -6.752794
v 0.198838 0.733859 -6.746777
v 0.199930 0.794465 -6.723999
v 0.200259 0.812763 -6.717123
v 0.796614 0.250673 -6.805789
v 0.796614 0.250673 -6.823554
v 0.796614 0.250673 -6.833684
v 0.199943 0.250673 -6.823554
v 0.199943 0.250673 -6.833684
v 0.201568 0.901142 -6.686907
v 0.795503 0.911533 -6.743032
v 0.474281 0.802475 -6.800801
v 0.450745 0.816638 -6.811727
v 0.468982 0.840862 -6.804851
v 0.456776 0.775209 -6.828083
v 0.637992 0.795152 -6.835850
v 0.642180 0.762620 -6.807632
v 0.648813 0.801582 -6.749850
v 0.641443 0.838071 -6.799572
v 0.460368 0.698296 -6.822566
v 0.508570 0.707251 -6.828487
v 0.489107 0.731938 -6.811612
v 0.498632 0.737776 -6.817192
v 0.647975 0.658645 -6.833055
v 0.652512 0.671097 -6.829812
v 0.648844 0.725871 -6.800650
v 0.645136 0.745053 -6.801341
v 0.497945 0.568386 -6.840907
v 0.497511 0.639141 -6.821095
v 0.496356 0.625770 -6.823888
v 0.497003 0.580431 -6.840824
v 0.499635 0.470178 -6.837782
v 0.492249 0.502040 -6.833755
v 0.496955 0.491334 -6.840317
v 0.495927 0.516221 -6.836925
v 0.498544 0.384139 -6.832092
v 0.493693 0.403552 -6.830364
v 0.501036 0.410470 -6.833423
v 0.462852 0.427862 -6.829523
v 0.649094 0.579727 -6.827817
v 0.649319 0.596079 -6.828254
v 0.649241 0.646822 -6.811471
v 0.649533 0.630655 -6.816780
v 0.657140 0.495276 -6.832411
v 0.656313 0.511328 -6.834354
v 0.617887 0.526305 -6.831549
v 0.631029 0.535030 -6.834846
v 0.339267 0.514815 -6.829079
v 0.341475 0.526276 -6.830283
v 0.346260 0.483336 -6.830019
v 0.345335 0.501721 -6.831781
v 0.321088 0.738358 -6.805314
v 0.320789 0.764319 -6.825885
v 0.328049 0.677115 -6.816112
v 0.322886 0.709844 -6.849260
v 0.336428 0.645949 -6.806343
v 0.316524 0.608417 -6.805653
v 0.347580 0.554876 -6.831592
v 0.346900 0.578211 -6.831927
vn -1.0000 0.0030 -0.0000
vn -0.1629 0.3497 -0.9226
vn -0.0000 -0.0000 -1.0000
vn -0.0126 0.2563 -0.9665
vn -0.0751 0.3567 -0.9312
vn -0.0635 -0.0162 -0.9978
vn 0.0193 -0.0945 -0.9953
vn 0.0036 -0.0508 -0.9987
vn 0.9999 0.0117 -0.0000
vn 0.0408 0.8084 0.5872
vn 0.1770 -0.0758 0.9813
vn -0.0000 -1.0000 -0.0000
vn 0.0169 0.9359 0.3518
vn 0.9610 0.2591 0.0961
vn -0.9952 -0.0135 0.0971
vn -0.3178 0.4726 -0.8220
vn 0.1372 -0.7473 0.6502
vn 0.9949 0.0192 -0.0988
vn -0.9954 -0.0174 0.0941
vn -0.5707 0.3051 -0.7623
vn 0.0761 -0.8307 0.5514
vn 0.9957 0.0230 -0.0898
vn -1.0000 -0.0000 -0.0000
vn 0.1165 0.3666 -0.9230
vn 0.0097 -0.4343 0.9007
vn 0.9959 0.0764 -0.0486
vn -0.1628 0.0346 -0.9860
vn 0.0438 -0.2120 0.9763
vn 1.0000 -0.0000 -0.0000
vn -0.8603 -0.0000 -0.5098
vn -0.0794 0.0490 -0.9956
vn -0.0599 -0.1034 0.9928
vn -0.0000 0.4693 -0.8830
vn 0.0171 -0.0844 0.9963
vn -0.0000 0.4756 -0.8797
vn -0.0000 -0.4693 0.8830
vn 0.9954 0.0174 -0.0941
vn -0.9953 -0.0121 0.0961
vn -0.0513 0.9272 -0.3709
vn -0.0000 -0.7498 0.6617
vn 0.0441 -0.9572 0.2859
vn 0.0338 0.6436 -0.7646
vn 0.0108 0.0381 0.9992
vn 0.0393 -0.6518 -0.7573
vn -0.1247 0.3510 -0.9280
vn -0.0787 0.1560 -0.9846
vn -0.1265 -0.6599 0.7406
vn -0.0288 0.1009 0.9945
vn -0.2482 0.6465 0.7214
vn 0.0744 -0.1649 0.9835
vn 0.0822 0.3652 -0.9273
vn 0.0781 -0.7033 -0.7066
vn -0.0073 0.4205 -0.9073
vn -0.1061 0.7721 0.6266
vn -0.0104 -0.3015 0.9534
vn -0.0899 -0.1655 -0.9821
vn 0.0918 -0.3905 0.9160
vn 0.0443 0.3138 -0.9485
vn 0.1013 0.0943 0.9904
vn 0.0850 -0.0278 -0.9960
vn 0.0489 0.0950 0.9943
vn 0.0489 -0.0189 0.9986
vn 0.0159 -0.0038 -0.9999
vn 0.0518 -0.1174 -0.9917
vn -0.0341 -0.3124 0.9493
vn -0.0431 -0.4689 0.8822
vn -0.0166 0.4693 -0.8829
vn -0.0068 -0.0000 -1.0000
vn 0.0942 -0.3517 0.9314
vn -0.0486 -0.0000 -0.9988
vn 0.0302 0.4691 -0.8826
vn -0.0614 -0.2854 0.9564
vn -0.0097 -0.7911 -0.6116
vn 0.0665 0.4683 -0.8811
vn -0.0469 0.2294 0.9722
vn -0.0134 -0.1284 0.9916
vn -0.0645 -0.4684 0.8812
vn 0.0544 0.6205 0.7823
vn -0.0339 0.1336 -0.9905
vn -0.0644 -0.1267 -0.9898
vn 0.2407 -0.0143 0.9705
vn 0.1841 0.3429 -0.9212
vn -0.1499 -0.9422 0.2995
vn 0.1009 0.3740 -0.9219
vn -0.1982 -0.7263 0.6581
vn -0.0731 0.3182 -0.9452
vn 0.1189 -0.2129 0.9698
vn -0.0592 0.0023 -0.9982
vn -0.9954 -0.0190 0.0935
vn -0.9809 0.0351 -0.1914
vn -0.0942 0.3517 -0.9314
vn 0.9789 0.1435 0.1457
vn -0.1624 0.5573 -0.8143
vn -0.9545 0.1198 -0.2730
vn -0.9991 -0.0412 -0.0012
vn 0.4035 0.0398 -0.9141
vn -0.7865 0.5301 -0.3168
vn -0.8480 0.1998 -0.4909
vn 0.7545 -0.0983 -0.6489
vn -0.4658 0.0317 -0.8843
vn 0.7395 -0.0000 -0.6731
vn 0.0561 0.0945 -0.9939
vn -0.8131 -0.1002 0.5734
vn 0.4775 0.0860 -0.8744
vn -0.0389 -0.0000 -0.9992
vn -0.1101 0.5509 -0.8273
vn 0.0841 0.3492 -0.9333
vn 0.0369 -0.0000 -0.9993
vn 0.0112 -0.0000 -0.9999
vn 0.9947 0.0111 -0.1020
vn 0.1361 0.6753 0.7249
vn 0.0998 0.7105 0.6966
vn 0.0170 0.9285 0.3710
vn -0.0290 0.9341 0.3557
vn 0.0169 0.9359 0.3517
vn -0.9957 -0.0230 0.0898
vn 0.0092 0.9978 0.0653
vn 0.0438 -0.9572 0.2860
vn -0.9959 -0.0769 0.0482
vn -0.0504 0.9571 -0.2853
vn 0.1521 -0.7463 0.6481
vn 0.9952 0.0135 -0.0971
vn -0.0208 0.1570 -0.9874
vn -0.0108 -0.4693 0.8830
vn 0.0472 0.4063 -0.9125
vn -0.0650 -0.4683 0.8812
vn -0.9135 0.1909 -0.3592
vn 0.0341 0.4691 -0.8825
vn -0.0904 -0.3468 0.9336
vn 0.0175 -0.4693 0.8829
vn -0.1448 0.6830 -0.7160
vn 0.1974 -0.7538 0.6267
vn -0.0833 0.3297 -0.9404
vn 0.0268 -0.0881 0.9957
vn -0.0791 0.3561 -0.9311
vn 0.0174 -0.6539 -0.7564
vn 0.1341 0.6334 -0.7621
vn -0.1689 -0.8081 0.5643
vn -0.1709 0.7821 0.5993
vn -0.1427 -0.0000 0.9898
vn 0.0229 -0.3272 0.9447
vn 0.0844 0.3699 -0.9253
vn 0.0617 -0.7601 -0.6468
vn -0.0439 0.3551 -0.9338
vn -0.0676 0.0228 0.9975
vn -0.0781 -0.4321 0.8985
vn 0.0500 0.2347 -0.9708
vn 0.1235 -0.2790 0.9523
vn 0.0455 0.3178 -0.9470
vn 0.0899 -0.0000 0.9959
vn 0.0853 0.0136 -0.9963
vn 0.0471 0.2062 0.9774
vn 0.0203 -0.1207 0.9925
vn 0.0200 0.1358 -0.9905
vn 0.0517 -0.1123 -0.9923
vn -0.0519 -0.1999 0.9784
vn 0.0693 -0.0713 0.9950
vn -0.0178 0.1814 -0.9832
vn -0.0076 -0.0498 -0.9987
vn -0.8953 -0.0000 0.4454
vn -0.0000 -0.0000 1.0000
vn -0.6850 -0.0695 0.7253
vn -0.0534 -0.1021 0.9933
vn -0.0809 -0.0000 0.9967
vn 0.5010 -0.7178 0.4835
vn -0.9293 0.1850 0.3197
vn -0.0702 -0.3124 0.9474
vn -0.6177 -0.1464 0.7727
vn -0.0385 -0.0000 0.9993
vn -0.8953 -0.0000 0.4455
vn -0.0523 -0.0260 -0.9983
vn -0.0381 0.3137 -0.9487
vn -0.0386 -0.2113 0.9767
vn 0.0676 -0.1165 -0.9909
vn -0.0078 -0.0290 -0.9995
vn -0.1103 0.4924 0.8634
vn -0.0098 -0.0402 0.9991
vn 0.1667 0.0076 0.9860
vn 0.0532 0.6432 0.7638
vn -0.0525 0.0526 -0.9972
vn -0.0587 -0.0982 -0.9934
vn 0.9778 -0.0419 0.2051
vn 0.2940 0.1403 0.9455
vn 0.2625 -0.3436 0.9017
vn 0.3315 0.5883 0.7376
vn -0.9686 -0.1521 0.1966
vn 0.1808 0.0682 0.9812
vn 0.4180 -0.3262 0.8479
vn 0.9961 0.0701 -0.0528
vn 0.1667 -0.0240 0.9857
vn -0.0808 -0.7155 -0.6939
vn 0.4074 -0.1135 0.9062
vn 0.1076 0.3955 -0.9121
vn 0.0744 -0.3995 0.9137
vn -0.0606 0.3445 -0.9368
vn 0.0899 -0.0294 0.9955
vn -0.0604 -0.0161 -0.9980
vt -0.717005 1.147941
vt -0.661547 1.147942
vt 1.450127 -0.070911
vt -0.717005 2.383491
vt -0.717005 2.366795
vt 0.269326 -0.070911
vt -0.772602 1.147941
vt -0.934631 -0.070911
vt -0.606090 1.147942
vt -0.772602 2.383491
vt 0.256987 -0.070911
vt -0.661547 2.366795
vt -0.828200 1.147941
vt -0.661547 2.366795
vt 1.450127 1.147942
vt -0.828200 2.383491
vt -0.717005 1.147942
vt 0.269326 1.147942
vt -0.772602 1.147941
vt -0.934631 1.147941
vt -0.606090 2.366795
vt 0.256987 1.147942
vt -0.772603 2.383491
vt -0.661547 1.147942
vt 1.356634 -0.037532
vt -0.824707 -0.037532
vt 0.116673 1.252805
vt -0.550492 1.147941
vt -0.771513 -0.037532
vt 1.187524 -0.037532
vt -0.654048 -0.037532
vt -0.550492 1.269737
vt 0.005479 1.374601
vt -0.611935 -0.037532
vt 1.029395 -0.037532
vt -0.494470 -0.037532
vt 0.005479 1.252805
vt -0.494895 1.147941
vt -0.463439 -0.037532
vt 0.882247 -0.037532
vt -0.345975 -0.037532
vt -0.494895 1.269737
vt -0.105715 1.374601
vt -0.314943 -0.037532
vt 0.735100 -0.037532
vt -0.197478 -0.037532
vt -0.105715 1.252805
vt -0.494895 1.374601
vt -0.166447 -0.037532
vt 0.587952 -0.037532
vt -0.048983 -0.037532
vt -0.494895 1.252806
vt -0.272507 1.374601
vt -0.013519 -0.037532
vt 0.436412 -0.037532
vt 0.103947 -0.037532
vt -0.272507 1.252806
vt 0.222575 1.147942
vt 0.140656 -0.037532
vt 0.222575 1.259183
vt 0.256987 1.087555
vt -0.661547 1.208327
vt 0.222575 1.268561
vt 0.256987 -0.037532
vt -0.661547 2.333415
vt -0.934631 -0.037532
vt -0.606090 1.181321
vt 0.116673 1.366781
vt 0.103947 1.087555
vt -0.383701 1.269737
vt 0.436412 1.087555
vt 0.268970 1.147941
vt 0.140656 1.087555
vt -0.197478 1.087555
vt -0.216910 1.269737
vt 0.735100 1.087555
vt -0.439298 1.147941
vt -0.166447 1.087555
vt -0.048983 1.087555
vt -0.439298 1.269737
vt 0.587952 1.087555
vt -0.383701 1.147941
vt -0.013519 1.087555
vt -0.824707 1.087555
vt 0.061076 1.261916
vt 1.356634 1.087555
vt -0.934631 1.087555
vt -0.606090 2.306408
vt 0.061076 1.147941
vt -0.272507 1.374601
vt -0.771513 1.087555
vt -0.272507 1.252805
vt 1.187524 1.087555
vt -0.654048 1.087555
vt -0.050118 1.147941
vt -0.611935 1.087555
vt -0.050118 1.269737
vt 1.029395 1.087555
vt -0.494470 1.087555
vt -0.105715 1.374601
vt -0.463439 1.087555
vt -0.105715 1.252805
vt 0.882247 1.087555
vt -0.345975 1.087555
vt -0.216910 1.147941
vt -0.314943 1.087555
vt -0.216910 1.147942
vt 0.320761 -0.037532
vt -0.328104 1.374600
vt 0.320761 1.087555
vt -0.383701 1.374601
vt 0.472301 1.087555
vt 0.101253 1.087555
vt -0.328104 1.252806
vt 0.437159 1.087555
vt -0.161312 1.147941
vt 0.766597 1.087555
vt -0.200171 1.087555
vt -0.161312 1.252805
vt 0.735847 1.087555
vt -0.161312 1.374601
vt 0.619449 1.087555
vt -0.051675 1.087555
vt -0.383701 1.252805
vt 0.588699 1.087555
vt 0.291349 1.147941
vt 1.421947 1.087555
vt 0.116673 1.244985
vt -0.934631 1.147941
vt 1.357382 1.087555
vt 0.116673 1.366781
vt 1.240984 1.087555
vt -0.656741 1.087555
vt -0.328104 1.269737
vt 1.188271 1.087555
vt -0.328104 1.147941
vt 1.071873 1.087555
vt -0.497163 1.087555
vt 0.005479 1.252805
vt 1.030142 1.087555
vt 0.005479 1.374601
vt 0.913744 1.087555
vt -0.348667 1.087555
vt -0.161312 1.269737
vt 0.882995 1.087555
vt 0.291347 1.173084
vt -0.661547 1.181321
vt 1.450127 -0.037532
vt 0.313370 1.192566
vt 1.421947 -0.037532
vt 0.172270 1.269737
vt -0.934631 2.273027
vt 1.357382 -0.037532
vt 0.172270 1.147941
vt 1.240984 -0.037532
vt -0.606090 1.252805
vt -0.656741 -0.037532
vt 1.188271 -0.037532
vt -0.606090 1.374600
vt 1.071873 -0.037532
vt 0.061076 1.269737
vt -0.497162 -0.037532
vt 1.030142 -0.037532
vt 0.061076 1.147941
vt 0.913744 -0.037532
vt -0.550492 1.252805
vt -0.348667 -0.037532
vt 0.882995 -0.037532
vt -0.550492 1.374601
vt 0.766597 -0.037532
vt -0.050118 1.269737
vt -0.200171 -0.037532
vt 0.735847 -0.037532
vt -0.050118 1.147941
vt 0.619449 -0.037532
vt -0.439298 1.269738
vt -0.051675 -0.037532
vt 0.588699 -0.037532
vt -0.439298 1.147942
vt 0.472301 -0.037532
vt -0.216910 1.269738
vt 0.101253 -0.037532
vt 0.437159 -0.037532
vt 0.269326 1.167422
vt -0.661547 2.306408
vt 1.450127 1.087555
vt 0.291349 1.192566
vt -0.628302 2.306408
vt 1.459378 1.087555
vt -0.609343 2.306408
vt 0.064337 1.147941
vt -0.828199 1.147941
vt 0.313370 1.147941
vt -0.628302 1.181321
vt 1.459378 -0.037532
vt -0.828199 2.273027
vt -0.609343 1.181321
vt 0.119935 1.366781
vt 0.172271 1.268561
vt -0.711726 2.333415
vt 0.269326 -0.037532
vt 0.268970 1.278727
vt 0.269326 1.087555
vt -0.711726 1.208327
vt 0.472301 0.525011
vt -0.013519 0.525012
vt 0.101253 0.525012
vt 0.437159 0.525011
vt 0.587952 0.525011
vt -0.048983 0.525012
vt -0.013519 0.806284
vt -0.048983 0.806284
vt 0.587952 0.806284
vt 0.472301 0.806284
vt 0.101253 0.806284
vt 0.437159 0.806284
vt 0.735100 0.525011
vt -0.197478 0.525011
vt -0.166447 0.525012
vt 0.619449 0.525011
vt -0.051675 0.525012
vt 0.588699 0.525011
vt 0.735100 0.806284
vt -0.197478 0.806284
vt -0.166447 0.806284
vt 0.619449 0.806284
vt -0.051675 0.806284
vt 0.588699 0.806284
vt 0.882247 0.525011
vt -0.345975 0.525011
vt -0.200171 0.525011
vt 0.735847 0.525011
vt 0.766597 0.525011
vt -0.314943 0.525011
vt 1.029395 0.525011
vt -0.494470 0.525011
vt 0.913744 0.525011
vt -0.463439 0.525011
vt 0.882995 0.525011
vt -0.348667 0.525011
vt 1.187524 0.525011
vt -0.654048 0.525011
vt 1.071873 0.525011
vt -0.611935 0.525011
vt -0.497162 0.525011
vt 1.030142 0.525011
vt -0.345975 0.806284
vt 0.882247 0.806284
vt -0.314943 0.806284
vt 0.735847 0.806284
vt -0.200171 0.806284
vt 0.766597 0.806284
vt -0.494470 0.806284
vt 1.029395 0.806284
vt -0.463439 0.806284
vt 0.913744 0.806284
vt -0.348667 0.806284
vt 0.882995 0.806284
vt 0.913744 0.243740
vt -0.348667 0.243740
vt 0.882995 0.243740
vt 1.029395 0.243740
vt -0.494470 0.243740
vt -0.463439 0.243740
vt 0.619449 0.243740
vt 0.588699 0.243740
vt -0.051675 0.243740
vt -0.197478 0.243740
vt 0.735100 0.243740
vt -0.166447 0.243740
vt -0.200171 0.243740
vt 0.735847 0.243740
vt 0.766597 0.243740
vt 0.882247 0.243740
vt -0.345975 0.243740
vt -0.314943 0.243740
s 0
f 2/4/1 3/7/1 1/1/1
f 26/69/2 22/59/2 27/73/2
f 32/84/3 9/26/3 34/91/3
f 92/225/4 28/74/4 91/224/4
f 19/51/5 80/206/5 82/210/5
f 125/275/6 16/44/6 126/276/6
f 117/263/7 14/39/7 118/264/7
f 103/242/8 12/34/8 105/244/8
f 8/23/9 5/13/9 7/19/9
f 85/214/10 44/115/10 86/216/10
f 123/272/11 66/170/11 124/273/11
f 75/194/12 3/9/12 76/197/12
f 78/204/13 77/200/13 2/5/13
f 21/57/14 71/181/14 20/53/14
f 26/70/15 44/114/15 42/109/15
f 80/206/16 71/182/16 81/207/16
f 26/71/17 41/108/17 21/55/17
f 19/52/18 69/176/18 18/48/18
f 30/80/19 48/124/19 43/111/19
f 122/270/20 69/177/20 120/267/20
f 30/81/21 85/214/21 84/213/21
f 17/47/22 67/171/22 16/43/22
f 28/75/23 46/119/23 47/121/23
f 126/276/24 67/172/24 123/271/24
f 28/76/25 93/226/25 91/223/25
f 15/42/26 65/166/26 14/38/26
f 39/102/23 56/144/23 45/116/23
f 118/264/27 65/167/27 116/260/27
f 39/103/28 110/252/28 107/248/28
f 13/37/29 63/161/29 12/33/29
f 37/97/30 54/139/30 55/141/30
f 105/244/31 63/162/31 106/245/31
f 37/98/32 113/256/32 111/254/32
f 11/32/29 61/156/29 10/28/29
f 35/92/23 52/134/23 53/136/23
f 34/91/33 61/157/33 52/133/33
f 35/93/34 104/243/34 103/241/34
f 9/27/29 59/151/29 76/198/29
f 50/128/23 51/131/23 32/85/23
f 59/152/35 74/192/35 76/196/35
f 32/86/36 60/155/36 9/25/36
f 77/199/37 22/58/37 24/63/37
f 23/60/38 27/72/38 78/202/38
f 27/73/39 77/201/39 78/203/39
f 75/193/29 58/149/29 57/146/29
f 49/126/23 73/187/23 72/184/23
f 58/150/40 73/189/40 49/127/40
f 82/209/41 70/180/41 19/50/41
f 83/211/42 81/207/42 86/215/42
f 93/226/43 48/125/43 94/228/43
f 82/210/44 83/211/44 84/212/44
f 84/212/45 31/83/45 30/79/45
f 31/83/46 86/215/46 44/113/46
f 84/213/47 79/205/47 82/209/47
f 79/205/48 86/216/48 81/208/48
f 113/256/49 56/145/49 114/258/49
f 87/217/50 119/265/50 121/269/50
f 92/225/51 90/221/51 94/227/51
f 122/270/52 87/218/52 121/268/52
f 29/78/53 94/227/53 48/123/53
f 89/220/54 94/228/54 90/222/54
f 91/223/55 89/220/55 87/217/55
f 88/219/56 91/224/56 87/218/56
f 95/229/57 124/273/57 125/274/57
f 108/249/58 96/231/58 109/251/58
f 106/246/59 62/160/59 104/243/59
f 107/247/60 98/234/60 108/249/60
f 115/259/61 102/239/61 116/261/61
f 99/235/62 115/259/62 117/262/62
f 112/255/63 102/240/63 114/257/63
f 111/253/64 101/238/64 112/255/64
f 109/250/65 97/233/65 110/252/65
f 103/241/66 62/160/66 11/30/66
f 36/96/67 106/245/67 54/138/67
f 35/94/68 105/244/68 36/96/68
f 6/18/69 43/112/69 48/125/69
f 39/104/70 108/249/70 40/106/70
f 40/106/71 109/251/71 46/118/71
f 107/248/72 97/233/72 95/229/72
f 37/99/73 112/255/73 38/101/73
f 38/101/74 114/257/74 56/143/74
f 100/237/75 114/258/75 102/239/75
f 111/254/76 100/237/76 99/235/76
f 117/262/77 64/165/77 13/35/77
f 119/265/78 90/222/78 120/266/78
f 101/238/79 116/260/79 102/240/79
f 99/236/80 118/264/80 101/238/80
f 1/3/81 64/165/81 65/168/81
f 18/49/82 121/268/82 17/46/82
f 121/269/83 68/175/83 17/45/83
f 88/219/84 120/267/84 90/221/84
f 125/274/85 66/170/85 15/40/85
f 98/234/86 123/271/86 96/231/86
f 96/232/87 124/273/87 97/233/87
f 95/230/88 126/276/88 98/234/88
f 2/4/89 4/10/89 3/7/89
f 26/69/2 21/56/2 22/59/2
f 25/66/3 3/8/3 9/26/3
f 3/8/90 4/11/90 15/41/90
f 9/26/3 3/8/3 10/29/3
f 4/11/91 24/64/91 22/59/91
f 21/56/92 20/54/92 4/11/92
f 20/54/93 19/51/93 4/11/93
f 4/11/91 22/59/91 21/56/91
f 10/29/3 3/8/3 11/31/3
f 7/20/3 33/87/3 32/84/3
f 18/49/94 17/46/94 4/11/94
f 17/46/95 16/44/95 4/11/95
f 4/11/94 19/51/94 18/49/94
f 8/22/96 7/20/96 39/104/96
f 7/20/3 32/84/3 34/91/3
f 27/73/97 23/61/97 8/22/97
f 30/79/98 31/83/98 8/22/98
f 31/83/99 26/69/99 8/22/99
f 26/69/91 27/73/91 8/22/91
f 15/41/100 14/39/100 3/8/100
f 14/39/3 13/36/3 3/8/3
f 4/11/91 16/44/91 15/41/91
f 40/106/101 28/74/101 8/22/101
f 28/74/101 29/78/101 8/22/101
f 29/78/102 30/79/102 8/22/102
f 12/34/3 11/31/3 3/8/3
f 12/34/3 3/8/3 13/36/3
f 37/99/103 38/101/103 7/20/103
f 38/101/3 39/104/3 7/20/3
f 39/104/101 40/106/101 8/22/101
f 34/91/3 35/94/3 7/20/3
f 35/94/3 36/96/3 7/20/3
f 7/20/104 36/96/104 37/99/104
f 9/26/3 10/29/3 34/91/3
f 92/225/105 29/78/105 28/74/105
f 19/51/106 20/54/106 80/206/106
f 125/275/107 15/41/107 16/44/107
f 117/263/108 13/36/108 14/39/108
f 103/242/109 11/31/109 12/34/109
f 8/23/110 6/16/110 5/13/110
f 85/214/111 43/112/111 44/115/111
f 123/272/112 67/173/112 66/170/112
f 74/190/12 33/88/12 7/21/12
f 7/21/12 5/14/12 73/188/12
f 5/14/12 72/185/12 73/188/12
f 74/190/12 7/21/12 73/188/12
f 75/194/12 57/147/12 1/2/12
f 74/190/12 73/188/12 75/194/12
f 3/9/12 25/67/12 76/197/12
f 76/197/12 74/190/12 75/194/12
f 75/194/12 1/2/12 3/9/12
f 24/65/13 4/12/13 77/200/13
f 4/12/13 2/5/13 77/200/13
f 6/17/113 8/24/113 78/204/113
f 8/24/114 23/62/114 78/204/114
f 6/17/115 78/204/115 2/5/115
f 21/57/37 41/107/37 71/181/37
f 26/70/116 31/82/116 44/114/116
f 80/206/117 20/54/117 71/182/117
f 26/71/118 42/110/118 41/108/118
f 19/52/18 70/179/18 69/176/18
f 30/80/119 29/77/119 48/124/119
f 122/270/120 18/49/120 69/177/120
f 30/81/121 43/112/121 85/214/121
f 17/47/122 68/174/122 67/171/122
f 28/75/23 40/105/23 46/119/23
f 126/276/123 16/44/123 67/172/123
f 28/76/124 47/122/124 93/226/124
f 15/42/37 66/169/37 65/166/37
f 39/102/23 38/100/23 56/144/23
f 118/264/125 14/39/125 65/167/125
f 39/103/126 45/117/126 110/252/126
f 13/37/29 64/164/29 63/161/29
f 37/97/127 36/95/127 54/139/127
f 105/244/128 12/34/128 63/162/128
f 37/98/129 55/142/129 113/256/129
f 11/32/29 62/159/29 61/156/29
f 35/92/23 34/90/23 52/134/23
f 34/91/33 10/29/33 61/157/33
f 35/93/130 53/137/130 104/243/130
f 76/198/29 25/68/29 9/27/29
f 9/27/29 60/154/29 59/151/29
f 33/89/23 74/191/23 32/85/23
f 74/191/23 50/128/23 32/85/23
f 59/152/35 50/129/35 74/192/35
f 32/86/36 51/132/36 60/155/36
f 27/73/131 22/59/131 77/201/131
f 58/150/40 75/195/40 73/189/40
f 82/209/132 79/205/132 70/180/132
f 83/211/133 80/206/133 81/207/133
f 93/226/134 47/122/134 48/125/134
f 82/210/135 80/206/135 83/211/135
f 84/212/136 83/211/136 31/83/136
f 31/83/137 83/211/137 86/215/137
f 84/213/138 85/214/138 79/205/138
f 79/205/139 85/214/139 86/216/139
f 113/256/140 55/142/140 56/145/140
f 87/217/141 89/220/141 119/265/141
f 92/225/142 88/219/142 90/221/142
f 122/270/143 88/219/143 87/218/143
f 29/78/144 92/225/144 94/227/144
f 89/220/145 93/226/145 94/228/145
f 91/223/146 93/226/146 89/220/146
f 88/219/147 92/225/147 91/224/147
f 95/229/148 97/233/148 124/273/148
f 108/249/149 98/234/149 96/231/149
f 106/246/150 63/163/150 62/160/150
f 107/247/151 95/230/151 98/234/151
f 115/259/152 100/237/152 102/239/152
f 99/235/153 100/237/153 115/259/153
f 112/255/154 101/238/154 102/240/154
f 111/253/155 99/236/155 101/238/155
f 109/250/156 96/232/156 97/233/156
f 103/241/157 104/243/157 62/160/157
f 36/96/158 105/244/158 106/245/158
f 35/94/159 103/242/159 105/244/159
f 45/117/160 56/145/160 6/18/160
f 56/145/161 55/142/161 5/15/161
f 6/18/162 56/145/162 5/15/162
f 54/140/163 106/246/163 104/243/163
f 55/142/161 54/140/161 5/15/161
f 54/140/164 104/243/164 53/137/164
f 52/135/161 61/158/161 60/155/161
f 54/140/161 53/137/161 5/15/161
f 52/135/161 60/155/161 51/132/161
f 53/137/161 52/135/161 5/15/161
f 51/132/161 50/130/161 5/15/161
f 50/130/161 49/127/161 5/15/161
f 51/132/161 5/15/161 52/135/161
f 49/127/161 72/186/161 5/15/161
f 6/18/69 2/6/69 42/110/69
f 2/6/69 41/108/69 42/110/69
f 42/110/165 44/115/165 6/18/165
f 44/115/166 43/112/166 6/18/166
f 109/250/167 110/252/167 45/117/167
f 48/125/168 47/122/168 6/18/168
f 47/122/160 46/120/160 6/18/160
f 46/120/169 109/250/169 45/117/169
f 46/120/170 45/117/170 6/18/170
f 39/104/171 107/247/171 108/249/171
f 40/106/172 108/249/172 109/251/172
f 107/248/173 110/252/173 97/233/173
f 37/99/174 111/253/174 112/255/174
f 38/101/175 112/255/175 114/257/175
f 100/237/176 113/256/176 114/258/176
f 111/254/177 113/256/177 100/237/177
f 117/262/178 115/259/178 64/165/178
f 119/265/179 89/220/179 90/222/179
f 101/238/180 118/264/180 116/260/180
f 99/236/181 117/263/181 118/264/181
f 41/108/69 2/6/69 71/183/69
f 2/6/182 1/3/182 65/168/182
f 71/183/69 2/6/69 70/180/69
f 1/3/161 57/148/161 58/150/161
f 58/150/161 49/127/161 50/130/161
f 59/153/161 60/155/161 1/3/161
f 60/155/161 61/158/161 1/3/161
f 58/150/161 50/130/161 59/153/161
f 70/180/69 2/6/69 69/178/69
f 79/205/183 81/208/183 71/183/183
f 70/180/184 79/205/184 71/183/184
f 1/3/161 58/150/161 59/153/161
f 61/158/161 62/160/161 1/3/161
f 62/160/161 63/163/161 1/3/161
f 69/178/69 2/6/69 68/175/69
f 119/265/185 120/266/185 69/178/185
f 68/175/186 2/6/186 67/173/186
f 64/165/187 115/259/187 116/261/187
f 1/3/161 63/163/161 64/165/161
f 68/175/188 119/265/188 69/178/188
f 65/168/69 66/170/69 2/6/69
f 66/170/189 67/173/189 2/6/189
f 64/165/190 116/261/190 65/168/190
f 18/49/191 122/270/191 121/268/191
f 121/269/192 119/265/192 68/175/192
f 88/219/193 122/270/193 120/267/193
f 125/274/194 124/273/194 66/170/194
f 98/234/195 126/276/195 123/271/195
f 96/232/196 123/272/196 124/273/196
f 95/230/197 125/275/197 126/276/197
