# Blender 3.3.1
# www.blender.org
o Vent_Grate.003
v 0.692000 0.118159 -8.033860
v 0.101917 0.052637 -7.743852
v 0.694735 0.147663 -8.034217
v 0.093928 0.081118 -7.742084
v 0.976979 0.098763 -7.453997
v 0.381149 0.094860 -7.162408
v 0.979713 0.128268 -7.454354
v 0.360580 0.162734 -7.157857
v 0.648437 0.152469 -7.991570
v 0.622256 0.155052 -7.978616
v 0.564442 0.160756 -7.950012
v 0.543715 0.162800 -7.939757
v 0.485901 0.168504 -7.911154
v 0.470628 0.170011 -7.903597
v 0.387646 0.171454 -7.870018
v 0.372924 0.166864 -7.862615
v 0.304614 0.188884 -7.831808
v 0.289891 0.184294 -7.824404
v 0.234161 0.166921 -7.796379
v 0.194307 0.140626 -7.762734
v 0.174184 0.104909 -7.762674
v 0.156768 0.099480 -7.753915
v 0.359325 0.121249 -7.189446
v 0.101575 0.082274 -7.726160
v 0.702539 0.147132 -8.018337
v 0.419355 0.183277 -7.223177
v 0.401938 0.177848 -7.214419
v 0.602783 0.165021 -7.303578
v 0.587510 0.166527 -7.296022
v 0.504491 0.166503 -7.262446
v 0.487665 0.161258 -7.253985
v 0.911492 0.134566 -7.456315
v 0.965594 0.129229 -7.483082
v 0.885311 0.137149 -7.443361
v 0.827497 0.142852 -7.414757
v 0.806770 0.144897 -7.404502
v 0.745775 0.138397 -7.363488
v 0.733684 0.152107 -7.368342
v 0.675870 0.157810 -7.339738
v 0.660597 0.159317 -7.332182
v 0.134191 0.061470 -7.740313
v 0.391941 0.100445 -7.203598
v 0.464497 0.123064 -7.240085
v 0.435092 0.157211 -7.228842
v 0.623359 0.133216 -7.314754
v 0.608086 0.134723 -7.307198
v 0.550272 0.140426 -7.278594
v 0.520228 0.140437 -7.268110
v 0.948864 0.101105 -7.475801
v 0.916795 0.104268 -7.459934
v 0.858981 0.109972 -7.431330
v 0.832800 0.112554 -7.418377
v 0.774986 0.118258 -7.389773
v 0.754259 0.120303 -7.379519
v 0.696445 0.126006 -7.350914
v 0.681173 0.127513 -7.343358
v 0.699805 0.117627 -8.017981
v 0.685809 0.119008 -8.011056
v 0.653740 0.122172 -7.995189
v 0.595926 0.127875 -7.966585
v 0.569745 0.130458 -7.953632
v 0.511931 0.136161 -7.925028
v 0.491204 0.138206 -7.914773
v 0.433390 0.143910 -7.886169
v 0.403383 0.145388 -7.875683
v 0.347653 0.128015 -7.847658
v 0.320351 0.162818 -7.837472
v 0.277200 0.106052 -7.812229
v 0.262477 0.101462 -7.804825
v 0.206747 0.084088 -7.776799
v 0.189921 0.078843 -7.768338
v 0.962860 0.099724 -7.482725
v 0.964499 0.117411 -7.482939
v 0.965434 0.127498 -7.483061
v 0.701444 0.135315 -8.018194
v 0.702379 0.145402 -8.018316
v 0.108804 0.056504 -7.727760
v 0.366554 0.095479 -7.191046
v 0.327636 0.153030 -7.528074
v 0.305622 0.165863 -7.543063
v 0.291400 0.160602 -7.515920
v 0.346779 0.178318 -7.556149
v 0.409583 0.182370 -7.384871
v 0.437871 0.151284 -7.395144
v 0.400678 0.096985 -7.371288
v 0.369438 0.149926 -7.362380
v 0.416523 0.165942 -7.586836
v 0.430325 0.171181 -7.539711
v 0.398146 0.157137 -7.546063
v 0.397648 0.162921 -7.535007
v 0.535602 0.167265 -7.436181
v 0.526185 0.164996 -7.426571
v 0.472975 0.140895 -7.405315
v 0.454278 0.143384 -7.400177
v 0.550766 0.171635 -7.610733
v 0.485576 0.158153 -7.579629
v 0.497263 0.159791 -7.586605
v 0.539590 0.172641 -7.606256
v 0.638905 0.159823 -7.652560
v 0.606830 0.158841 -7.645063
v 0.619069 0.164290 -7.645649
v 0.596083 0.163135 -7.635537
v 0.714716 0.146611 -7.691476
v 0.695086 0.146746 -7.687232
v 0.692429 0.150181 -7.677625
v 0.659707 0.148976 -7.704149
v 0.606071 0.155065 -7.469975
v 0.591611 0.156934 -7.462554
v 0.544724 0.144695 -7.440008
v 0.559777 0.148548 -7.446950
v 0.685442 0.151959 -7.500116
v 0.670925 0.155332 -7.493790
v 0.640353 0.155011 -7.521612
v 0.638661 0.158668 -7.506008
v 0.527547 0.159901 -7.776598
v 0.518399 0.162042 -7.769570
v 0.558823 0.157853 -7.784242
v 0.542163 0.161255 -7.776972
v 0.317758 0.156473 -7.693875
v 0.296345 0.179250 -7.682923
v 0.376502 0.161621 -7.714813
v 0.348063 0.197663 -7.705387
v 0.407120 0.148898 -7.720946
v 0.431791 0.145503 -7.755372
v 0.495677 0.165682 -7.751476
v 0.474574 0.168091 -7.741782
vn -0.4436 0.0303 -0.8957
vn -0.2989 0.9543 -0.0028
vn 0.0923 0.9957 -0.0120
vn -0.1453 0.9853 0.0903
vn -0.2657 0.9608 0.0790
vn 0.0785 0.9940 -0.0761
vn 0.1847 0.9821 -0.0364
vn 0.1391 0.9898 -0.0313
vn 0.4304 -0.0290 0.9022
vn -0.7580 -0.5147 0.4007
vn 0.0552 -0.9890 0.1371
vn 0.8928 -0.0881 -0.4417
vn -0.8606 -0.2683 0.4328
vn 0.1835 -0.1017 0.9777
vn -0.4357 -0.0680 -0.8975
vn -0.4862 0.8696 -0.0862
vn 0.6677 -0.7173 -0.1992
vn 0.4306 0.0702 0.8998
vn -0.4320 -0.0653 -0.8995
vn -0.4537 0.8030 -0.3864
vn 0.7244 -0.6245 -0.2920
vn 0.4268 0.0616 0.9023
vn -0.4409 0.0300 -0.8971
vn -0.1908 0.9478 0.2553
vn 0.3089 -0.9353 -0.1723
vn 0.3754 0.0253 0.9265
vn -0.0117 0.9897 -0.1427
vn 0.1185 -0.9920 -0.0426
vn 0.4409 -0.0300 0.8971
vn -0.3323 0.5334 -0.7779
vn 0.0132 0.9980 -0.0616
vn -0.0257 -0.9958 -0.0875
vn -0.3376 0.9205 0.1967
vn -0.0090 -0.9999 -0.0099
vn -0.3435 0.9177 0.1995
vn 0.3376 -0.9205 -0.1967
vn 0.4320 0.0653 0.8995
vn -0.4369 -0.0669 -0.8970
vn -0.8162 0.4525 0.3591
vn 0.6084 -0.7248 -0.3232
vn 0.8477 -0.3703 -0.3798
vn -0.4891 0.8170 0.3054
vn -0.1214 -0.9919 0.0385
vn 0.6692 0.6955 -0.2618
vn -0.2828 0.9587 0.0320
vn -0.0831 0.9964 -0.0135
vn 0.4650 -0.7918 -0.3960
vn -0.1946 -0.9804 0.0307
vn -0.7532 -0.6539 0.0716
vn 0.0893 -0.9960 0.0057
vn -0.2042 0.9530 0.2239
vn 0.7276 0.6392 -0.2491
vn -0.2949 0.9406 0.1683
vn -0.7939 -0.5527 0.2534
vn 0.1766 -0.9755 -0.1311
vn 0.1988 0.9660 -0.1656
vn 0.3046 -0.9492 -0.0791
vn -0.1731 0.9707 0.1669
vn -0.1309 -0.9808 0.1445
vn 0.1542 0.9867 0.0520
vn -0.1550 -0.9831 0.0978
vn -0.0537 -0.9974 0.0476
vn 0.1026 0.9947 0.0006
vn 0.2191 0.9755 -0.0173
vn 0.1763 -0.9717 -0.1571
vn 0.3182 -0.9184 -0.2352
vn -0.3448 0.9209 0.1818
vn 0.0893 0.9958 -0.0181
vn 0.2696 -0.9611 -0.0597
vn 0.0707 0.9959 -0.0556
vn -0.3241 0.9192 0.2236
vn 0.1395 -0.9756 -0.1696
vn 0.7585 0.5395 -0.3656
vn -0.3075 0.9165 0.2559
vn -0.3152 -0.9464 0.0710
vn 0.0173 -0.9982 -0.0568
vn 0.3084 -0.9167 -0.2541
vn -0.6022 -0.7259 0.3323
vn -0.0428 0.9989 0.0167
vn 0.1761 0.9763 -0.1257
vn 0.0293 -0.9748 0.2213
vn -0.1400 0.9418 0.3055
vn 0.7475 -0.3767 -0.5471
vn -0.2044 0.9478 0.2446
vn 0.5004 -0.7133 -0.4907
vn -0.2292 0.9713 0.0636
vn 0.1530 -0.9879 0.0243
vn 0.0639 0.9959 -0.0641
vn -0.4305 -0.0649 -0.9002
vn -0.4461 0.2231 -0.8667
vn -0.2696 0.9611 0.0597
vn 0.2900 -0.1618 0.9433
vn -0.4940 0.8647 0.0907
vn -0.5026 0.3110 -0.8067
vn -0.4036 0.0276 -0.9145
vn 0.2267 0.9016 0.3685
vn -0.7908 0.3857 -0.4752
vn -0.5069 0.5319 -0.6783
vn 0.4803 0.6148 0.6255
vn -0.1521 0.8972 -0.4145
vn 0.3881 0.6480 0.6553
vn 0.0321 0.9963 0.0801
vn -0.3219 -0.5554 -0.7668
vn 0.2145 0.8638 0.4558
vn 0.0750 0.9961 -0.0469
vn -0.4641 0.8755 0.1346
vn -0.1886 0.9574 0.2185
vn 0.1085 0.9939 0.0211
vn 0.0972 0.9953 -0.0020
vn 0.4380 0.0727 0.8960
vn -0.6098 -0.6664 0.4291
vn -0.6546 -0.6340 0.4117
vn -0.8557 -0.2881 0.4298
vn -0.8796 -0.2710 0.3909
vn -0.4268 -0.0616 -0.9023
vn -0.8928 0.0226 0.4498
vn 0.8475 -0.3704 -0.3801
vn -0.3748 -0.0249 -0.9268
vn -0.8504 0.3699 0.3741
vn 0.6735 -0.7155 -0.1854
vn 0.4357 0.0680 0.8975
vn -0.0582 0.9975 0.0388
vn 0.3328 -0.9201 -0.2064
vn -0.2578 0.9429 0.2108
vn 0.3082 -0.9166 -0.2545
vn -0.5401 0.4019 -0.7395
vn -0.3224 0.9190 0.2271
vn 0.1836 -0.9574 -0.2230
vn 0.3452 -0.9209 -0.1809
vn -0.6075 0.7774 0.1632
vn 0.7023 -0.6963 -0.1483
vn -0.2443 0.9679 0.0596
vn -0.0014 -1.0000 -0.0029
vn -0.2669 0.9608 0.0751
vn 0.6612 0.6950 -0.2824
vn -0.4361 0.8106 0.3909
vn 0.5950 -0.6279 -0.5017
vn -0.8289 -0.5227 0.1993
vn -0.1542 -0.9812 -0.1161
vn 0.2150 -0.9701 -0.1126
vn -0.2076 0.9513 0.2279
vn 0.7656 0.5752 -0.2882
vn -0.2502 0.9623 0.1063
vn -0.1422 -0.9891 -0.0385
vn 0.2685 -0.9303 -0.2501
vn -0.0979 0.9857 0.1368
vn 0.2157 -0.9765 -0.0010
vn -0.1763 0.9696 0.1698
vn -0.0523 -0.9943 0.0926
vn 0.1174 0.9906 0.0705
vn -0.2535 -0.9564 0.1451
vn 0.0252 -0.9994 -0.0232
vn -0.0211 0.9976 0.0660
vn 0.2146 0.9766 -0.0152
vn 0.0653 -0.9902 -0.1231
vn 0.0024 -0.9991 0.0427
vn -0.0791 0.9955 0.0524
vn 0.1332 0.9902 -0.0408
vn -0.4358 -0.4167 -0.7978
vn -0.0923 -0.9957 0.0120
vn -0.3068 -0.7077 -0.6364
vn -0.0241 -0.9964 -0.0810
vn -0.1276 -0.9900 -0.0605
vn 0.8171 -0.5597 0.1382
vn -0.6044 -0.2741 -0.7480
vn 0.1605 -0.9687 -0.1896
vn -0.2129 -0.7637 -0.6095
vn -0.1092 -0.9938 -0.0225
vn 0.0922 0.9932 -0.0704
vn -0.2094 0.9734 0.0930
vn 0.0816 -0.9899 -0.1162
vn 0.2252 0.9743 -0.0027
vn 0.1147 0.9929 -0.0319
vn -0.5678 -0.8130 0.1290
vn -0.0606 -0.9981 -0.0145
vn -0.0243 -0.9860 0.1648
vn -0.6213 -0.7055 0.3411
vn 0.0219 0.9991 -0.0359
vn 0.1535 0.9822 -0.1080
vn 0.4496 -0.2372 0.8612
vn -0.0829 -0.9378 0.3371
vn 0.3393 -0.9359 0.0945
vn -0.4471 -0.6925 0.5661
vn -0.3094 -0.1801 -0.9337
vn -0.0717 -0.9763 0.2041
vn 0.3973 -0.8855 0.2411
vn 0.3815 0.0288 0.9239
vn 0.0040 -0.9886 0.1508
vn 0.6672 0.6303 -0.3969
vn 0.1973 -0.9245 0.3262
vn -0.2216 0.9398 0.2602
vn 0.3052 -0.9472 -0.0988
vn -0.2478 0.9649 0.0865
vn -0.0260 -0.9965 0.0797
vn 0.0798 0.9941 -0.0733
vt -0.717005 1.147941
vt -0.661547 1.147942
vt 1.450127 -0.070911
vt -0.717005 2.383491
vt -0.717005 2.366795
vt 0.269326 -0.070911
vt -0.772602 1.147941
vt -0.934631 -0.070911
vt -0.606090 1.147942
vt -0.772602 2.383491
vt 0.256987 -0.070911
vt -0.661547 2.366795
vt -0.828200 1.147941
vt -0.661547 2.366795
vt 1.450127 1.147942
vt -0.828200 2.383491
vt -0.717005 1.147942
vt 0.269326 1.147942
vt -0.772602 1.147941
vt -0.934631 1.147941
vt -0.606090 2.366795
vt 0.256987 1.147942
vt -0.772603 2.383491
vt -0.661547 1.147942
vt 1.356634 -0.037532
vt -0.824707 -0.037532
vt 0.116673 1.252805
vt -0.550492 1.147941
vt -0.771513 -0.037532
vt 1.187524 -0.037532
vt -0.654048 -0.037532
vt -0.550492 1.269737
vt 0.005479 1.374601
vt -0.611935 -0.037532
vt 1.029395 -0.037532
vt -0.494470 -0.037532
vt 0.005479 1.252805
vt -0.494895 1.147941
vt -0.463439 -0.037532
vt 0.882247 -0.037532
vt -0.345975 -0.037532
vt -0.494895 1.269737
vt -0.105715 1.374601
vt -0.314943 -0.037532
vt 0.735100 -0.037532
vt -0.197478 -0.037532
vt -0.105715 1.252805
vt -0.494895 1.374601
vt -0.166447 -0.037532
vt 0.587952 -0.037532
vt -0.048983 -0.037532
vt -0.494895 1.252806
vt -0.272507 1.374601
vt -0.013519 -0.037532
vt 0.436412 -0.037532
vt 0.103947 -0.037532
vt -0.272507 1.252806
vt 0.222575 1.147942
vt 0.140656 -0.037532
vt 0.222575 1.259183
vt 0.256987 1.087555
vt -0.661547 1.208327
vt 0.222575 1.268561
vt 0.256987 -0.037532
vt -0.661547 2.333415
vt -0.934631 -0.037532
vt -0.606090 1.181321
vt 0.116673 1.366781
vt 0.103947 1.087555
vt -0.383701 1.269737
vt 0.436412 1.087555
vt 0.268970 1.147941
vt 0.140656 1.087555
vt -0.197478 1.087555
vt -0.216910 1.269737
vt 0.735100 1.087555
vt -0.439298 1.147941
vt -0.166447 1.087555
vt -0.048983 1.087555
vt -0.439298 1.269737
vt 0.587952 1.087555
vt -0.383701 1.147941
vt -0.013519 1.087555
vt -0.824707 1.087555
vt 0.061076 1.261916
vt 1.356634 1.087555
vt -0.934631 1.087555
vt -0.606090 2.306408
vt 0.061076 1.147941
vt -0.272507 1.374601
vt -0.771513 1.087555
vt -0.272507 1.252805
vt 1.187524 1.087555
vt -0.654048 1.087555
vt -0.050118 1.147941
vt -0.611935 1.087555
vt -0.050118 1.269737
vt 1.029395 1.087555
vt -0.494470 1.087555
vt -0.105715 1.374601
vt -0.463439 1.087555
vt -0.105715 1.252805
vt 0.882247 1.087555
vt -0.345975 1.087555
vt -0.216910 1.147941
vt -0.314943 1.087555
vt -0.216910 1.147942
vt 0.320761 -0.037532
vt -0.328104 1.374600
vt 0.320761 1.087555
vt -0.383701 1.374601
vt 0.472301 1.087555
vt 0.101253 1.087555
vt -0.328104 1.252806
vt 0.437159 1.087555
vt -0.161312 1.147941
vt 0.766597 1.087555
vt -0.200171 1.087555
vt -0.161312 1.252805
vt 0.735847 1.087555
vt -0.161312 1.374601
vt 0.619449 1.087555
vt -0.051675 1.087555
vt -0.383701 1.252805
vt 0.588699 1.087555
vt 0.291349 1.147941
vt 1.421947 1.087555
vt 0.116673 1.244985
vt -0.934631 1.147941
vt 1.357382 1.087555
vt 0.116673 1.366781
vt 1.240984 1.087555
vt -0.656741 1.087555
vt -0.328104 1.269737
vt 1.188271 1.087555
vt -0.328104 1.147941
vt 1.071873 1.087555
vt -0.497163 1.087555
vt 0.005479 1.252805
vt 1.030142 1.087555
vt 0.005479 1.374601
vt 0.913744 1.087555
vt -0.348667 1.087555
vt -0.161312 1.269737
vt 0.882995 1.087555
vt 0.291347 1.173084
vt -0.661547 1.181321
vt 1.450127 -0.037532
vt 0.313370 1.192566
vt 1.421947 -0.037532
vt 0.172270 1.269737
vt -0.934631 2.273027
vt 1.357382 -0.037532
vt 0.172270 1.147941
vt 1.240984 -0.037532
vt -0.606090 1.252805
vt -0.656741 -0.037532
vt 1.188271 -0.037532
vt -0.606090 1.374600
vt 1.071873 -0.037532
vt 0.061076 1.269737
vt -0.497162 -0.037532
vt 1.030142 -0.037532
vt 0.061076 1.147941
vt 0.913744 -0.037532
vt -0.550492 1.252805
vt -0.348667 -0.037532
vt 0.882995 -0.037532
vt -0.550492 1.374601
vt 0.766597 -0.037532
vt -0.050118 1.269737
vt -0.200171 -0.037532
vt 0.735847 -0.037532
vt -0.050118 1.147941
vt 0.619449 -0.037532
vt -0.439298 1.269738
vt -0.051675 -0.037532
vt 0.588699 -0.037532
vt -0.439298 1.147942
vt 0.472301 -0.037532
vt -0.216910 1.269738
vt 0.101253 -0.037532
vt 0.437159 -0.037532
vt 0.269326 1.167422
vt -0.661547 2.306408
vt 1.450127 1.087555
vt 0.291349 1.192566
vt -0.628302 2.306408
vt 1.459378 1.087555
vt -0.609343 2.306408
vt 0.064337 1.147941
vt -0.828199 1.147941
vt 0.313370 1.147941
vt -0.628302 1.181321
vt 1.459378 -0.037532
vt -0.828199 2.273027
vt -0.609343 1.181321
vt 0.119935 1.366781
vt 0.172271 1.268561
vt -0.711726 2.333415
vt 0.269326 -0.037532
vt 0.268970 1.278727
vt 0.269326 1.087555
vt -0.711726 1.208327
vt 0.472301 0.525011
vt -0.013519 0.525012
vt 0.101253 0.525012
vt 0.437159 0.525011
vt 0.587952 0.525011
vt -0.048983 0.525012
vt -0.013519 0.806284
vt -0.048983 0.806284
vt 0.587952 0.806284
vt 0.472301 0.806284
vt 0.101253 0.806284
vt 0.437159 0.806284
vt 0.735100 0.525011
vt -0.197478 0.525011
vt -0.166447 0.525012
vt 0.619449 0.525011
vt -0.051675 0.525012
vt 0.588699 0.525011
vt 0.735100 0.806284
vt -0.197478 0.806284
vt -0.166447 0.806284
vt 0.619449 0.806284
vt -0.051675 0.806284
vt 0.588699 0.806284
vt 0.882247 0.525011
vt -0.345975 0.525011
vt -0.200171 0.525011
vt 0.735847 0.525011
vt 0.766597 0.525011
vt -0.314943 0.525011
vt 1.029395 0.525011
vt -0.494470 0.525011
vt 0.913744 0.525011
vt -0.463439 0.525011
vt 0.882995 0.525011
vt -0.348667 0.525011
vt 1.187524 0.525011
vt -0.654048 0.525011
vt 1.071873 0.525011
vt -0.611935 0.525011
vt -0.497162 0.525011
vt 1.030142 0.525011
vt -0.345975 0.806284
vt 0.882247 0.806284
vt -0.314943 0.806284
vt 0.735847 0.806284
vt -0.200171 0.806284
vt 0.766597 0.806284
vt -0.494470 0.806284
vt 1.029395 0.806284
vt -0.463439 0.806284
vt 0.913744 0.806284
vt -0.348667 0.806284
vt 0.882995 0.806284
vt 0.913744 0.243740
vt -0.348667 0.243740
vt 0.882995 0.243740
vt 1.029395 0.243740
vt -0.494470 0.243740
vt -0.463439 0.243740
vt 0.619449 0.243740
vt 0.588699 0.243740
vt -0.051675 0.243740
vt -0.197478 0.243740
vt 0.735100 0.243740
vt -0.166447 0.243740
vt -0.200171 0.243740
vt 0.735847 0.243740
vt 0.766597 0.243740
vt 0.882247 0.243740
vt -0.345975 0.243740
vt -0.314943 0.243740
s 0
f 2/4/1 3/7/1 1/1/1
f 26/69/2 22/59/2 27/73/2
f 32/84/3 9/26/3 34/91/3
f 92/225/4 28/74/4 91/224/4
f 19/51/5 80/206/5 82/210/5
f 125/275/6 16/44/6 126/276/6
f 117/263/7 14/39/7 118/264/7
f 103/242/8 12/34/8 105/244/8
f 8/23/9 5/13/9 7/19/9
f 85/214/10 44/115/10 86/216/10
f 123/272/11 66/170/11 124/273/11
f 75/194/12 3/9/12 76/197/12
f 78/204/13 77/200/13 2/5/13
f 21/57/14 71/181/14 20/53/14
f 26/70/15 44/114/15 42/109/15
f 80/206/16 71/182/16 81/207/16
f 26/71/17 41/108/17 21/55/17
f 19/52/18 69/176/18 18/48/18
f 30/80/19 48/124/19 43/111/19
f 122/270/20 69/177/20 120/267/20
f 30/81/21 85/214/21 84/213/21
f 17/47/22 67/171/22 16/43/22
f 28/75/23 46/119/23 47/121/23
f 126/276/24 67/172/24 123/271/24
f 28/76/25 93/226/25 91/223/25
f 15/42/26 65/166/26 14/38/26
f 39/102/23 56/144/23 45/116/23
f 118/264/27 65/167/27 116/260/27
f 39/103/28 110/252/28 107/248/28
f 13/37/29 63/161/29 12/33/29
f 37/97/30 54/139/30 55/141/30
f 105/244/31 63/162/31 106/245/31
f 37/98/32 113/256/32 111/254/32
f 11/32/29 61/156/29 10/28/29
f 35/92/23 52/134/23 53/136/23
f 34/91/33 61/157/33 52/133/33
f 35/93/34 104/243/34 103/241/34
f 9/27/29 59/151/29 76/198/29
f 50/128/23 51/131/23 32/85/23
f 59/152/35 74/192/35 76/196/35
f 32/86/36 60/155/36 9/25/36
f 77/199/37 22/58/37 24/63/37
f 23/60/38 27/72/38 78/202/38
f 27/73/39 77/201/39 78/203/39
f 75/193/29 58/149/29 57/146/29
f 49/126/23 73/187/23 72/184/23
f 58/150/40 73/189/40 49/127/40
f 82/209/41 70/180/41 19/50/41
f 83/211/42 81/207/42 86/215/42
f 93/226/43 48/125/43 94/228/43
f 82/210/44 83/211/44 84/212/44
f 84/212/45 31/83/45 30/79/45
f 31/83/46 86/215/46 44/113/46
f 84/213/47 79/205/47 82/209/47
f 79/205/48 86/216/48 81/208/48
f 113/256/49 56/145/49 114/258/49
f 87/217/50 119/265/50 121/269/50
f 92/225/51 90/221/51 94/227/51
f 122/270/52 87/218/52 121/268/52
f 29/78/53 94/227/53 48/123/53
f 89/220/54 94/228/54 90/222/54
f 91/223/55 89/220/55 87/217/55
f 88/219/56 91/224/56 87/218/56
f 95/229/57 124/273/57 125/274/57
f 108/249/58 96/231/58 109/251/58
f 106/246/59 62/160/59 104/243/59
f 107/247/60 98/234/60 108/249/60
f 115/259/61 102/239/61 116/261/61
f 99/235/62 115/259/62 117/262/62
f 112/255/63 102/240/63 114/257/63
f 111/253/64 101/238/64 112/255/64
f 109/250/65 97/233/65 110/252/65
f 103/241/66 62/160/66 11/30/66
f 36/96/67 106/245/67 54/138/67
f 35/94/68 105/244/68 36/96/68
f 6/18/69 43/112/69 48/125/69
f 39/104/70 108/249/70 40/106/70
f 40/106/71 109/251/71 46/118/71
f 107/248/72 97/233/72 95/229/72
f 37/99/73 112/255/73 38/101/73
f 38/101/74 114/257/74 56/143/74
f 100/237/75 114/258/75 102/239/75
f 111/254/76 100/237/76 99/235/76
f 117/262/77 64/165/77 13/35/77
f 119/265/78 90/222/78 120/266/78
f 101/238/79 116/260/79 102/240/79
f 99/236/80 118/264/80 101/238/80
f 1/3/81 64/165/81 65/168/81
f 18/49/82 121/268/82 17/46/82
f 121/269/83 68/175/83 17/45/83
f 88/219/84 120/267/84 90/221/84
f 125/274/85 66/170/85 15/40/85
f 98/234/86 123/271/86 96/231/86
f 96/232/87 124/273/87 97/233/87
f 95/230/88 126/276/88 98/234/88
f 2/4/89 4/10/89 3/7/89
f 26/69/2 21/56/2 22/59/2
f 25/66/3 3/8/3 9/26/3
f 3/8/90 4/11/90 15/41/90
f 9/26/3 3/8/3 10/29/3
f 4/11/91 24/64/91 22/59/91
f 21/56/92 20/54/92 4/11/92
f 20/54/93 19/51/93 4/11/93
f 4/11/91 22/59/91 21/56/91
f 10/29/3 3/8/3 11/31/3
f 7/20/3 33/87/3 32/84/3
f 18/49/94 17/46/94 4/11/94
f 17/46/95 16/44/95 4/11/95
f 4/11/94 19/51/94 18/49/94
f 8/22/96 7/20/96 39/104/96
f 7/20/3 32/84/3 34/91/3
f 27/73/97 23/61/97 8/22/97
f 30/79/98 31/83/98 8/22/98
f 31/83/99 26/69/99 8/22/99
f 26/69/91 27/73/91 8/22/91
f 15/41/100 14/39/100 3/8/100
f 14/39/3 13/36/3 3/8/3
f 4/11/91 16/44/91 15/41/91
f 40/106/101 28/74/101 8/22/101
f 28/74/101 29/78/101 8/22/101
f 29/78/102 30/79/102 8/22/102
f 12/34/3 11/31/3 3/8/3
f 12/34/3 3/8/3 13/36/3
f 37/99/103 38/101/103 7/20/103
f 38/101/3 39/104/3 7/20/3
f 39/104/101 40/106/101 8/22/101
f 34/91/3 35/94/3 7/20/3
f 35/94/3 36/96/3 7/20/3
f 7/20/104 36/96/104 37/99/104
f 9/26/3 10/29/3 34/91/3
f 92/225/105 29/78/105 28/74/105
f 19/51/106 20/54/106 80/206/106
f 125/275/107 15/41/107 16/44/107
f 117/263/108 13/36/108 14/39/108
f 103/242/109 11/31/109 12/34/109
f 8/23/110 6/16/110 5/13/110
f 85/214/111 43/112/111 44/115/111
f 123/272/112 67/173/112 66/170/112
f 74/190/12 33/88/12 7/21/12
f 7/21/12 5/14/12 73/188/12
f 5/14/12 72/185/12 73/188/12
f 74/190/12 7/21/12 73/188/12
f 75/194/12 57/147/12 1/2/12
f 74/190/12 73/188/12 75/194/12
f 3/9/12 25/67/12 76/197/12
f 76/197/12 74/190/12 75/194/12
f 75/194/12 1/2/12 3/9/12
f 24/65/13 4/12/13 77/200/13
f 4/12/13 2/5/13 77/200/13
f 6/17/113 8/24/113 78/204/113
f 8/24/114 23/62/114 78/204/114
f 6/17/13 78/204/13 2/5/13
f 21/57/37 41/107/37 71/181/37
f 26/70/115 31/82/115 44/114/115
f 80/206/116 20/54/116 71/182/116
f 26/71/117 42/110/117 41/108/117
f 19/52/18 70/179/18 69/176/18
f 30/80/118 29/77/118 48/124/118
f 122/270/119 18/49/119 69/177/119
f 30/81/120 43/112/120 85/214/120
f 17/47/121 68/174/121 67/171/121
f 28/75/23 40/105/23 46/119/23
f 126/276/122 16/44/122 67/172/122
f 28/76/123 47/122/123 93/226/123
f 15/42/37 66/169/37 65/166/37
f 39/102/23 38/100/23 56/144/23
f 118/264/124 14/39/124 65/167/124
f 39/103/125 45/117/125 110/252/125
f 13/37/29 64/164/29 63/161/29
f 37/97/126 36/95/126 54/139/126
f 105/244/127 12/34/127 63/162/127
f 37/98/128 55/142/128 113/256/128
f 11/32/29 62/159/29 61/156/29
f 35/92/23 34/90/23 52/134/23
f 34/91/33 10/29/33 61/157/33
f 35/93/129 53/137/129 104/243/129
f 76/198/29 25/68/29 9/27/29
f 9/27/29 60/154/29 59/151/29
f 33/89/23 74/191/23 32/85/23
f 74/191/23 50/128/23 32/85/23
f 59/152/35 50/129/35 74/192/35
f 32/86/36 51/132/36 60/155/36
f 27/73/130 22/59/130 77/201/130
f 58/150/40 75/195/40 73/189/40
f 82/209/131 79/205/131 70/180/131
f 83/211/132 80/206/132 81/207/132
f 93/226/133 47/122/133 48/125/133
f 82/210/134 80/206/134 83/211/134
f 84/212/135 83/211/135 31/83/135
f 31/83/136 83/211/136 86/215/136
f 84/213/137 85/214/137 79/205/137
f 79/205/138 85/214/138 86/216/138
f 113/256/139 55/142/139 56/145/139
f 87/217/140 89/220/140 119/265/140
f 92/225/141 88/219/141 90/221/141
f 122/270/142 88/219/142 87/218/142
f 29/78/143 92/225/143 94/227/143
f 89/220/144 93/226/144 94/228/144
f 91/223/145 93/226/145 89/220/145
f 88/219/146 92/225/146 91/224/146
f 95/229/147 97/233/147 124/273/147
f 108/249/148 98/234/148 96/231/148
f 106/246/149 63/163/149 62/160/149
f 107/247/150 95/230/150 98/234/150
f 115/259/151 100/237/151 102/239/151
f 99/235/152 100/237/152 115/259/152
f 112/255/153 101/238/153 102/240/153
f 111/253/154 99/236/154 101/238/154
f 109/250/155 96/232/155 97/233/155
f 103/241/156 104/243/156 62/160/156
f 36/96/157 105/244/157 106/245/157
f 35/94/158 103/242/158 105/244/158
f 45/117/159 56/145/159 6/18/159
f 56/145/160 55/142/160 5/15/160
f 6/18/161 56/145/161 5/15/161
f 54/140/162 106/246/162 104/243/162
f 55/142/160 54/140/160 5/15/160
f 54/140/163 104/243/163 53/137/163
f 52/135/160 61/158/160 60/155/160
f 54/140/160 53/137/160 5/15/160
f 52/135/160 60/155/160 51/132/160
f 53/137/160 52/135/160 5/15/160
f 51/132/160 50/130/160 5/15/160
f 50/130/160 49/127/160 5/15/160
f 51/132/160 5/15/160 52/135/160
f 49/127/160 72/186/160 5/15/160
f 6/18/69 2/6/69 42/110/69
f 2/6/69 41/108/69 42/110/69
f 42/110/164 44/115/164 6/18/164
f 44/115/165 43/112/165 6/18/165
f 109/250/166 110/252/166 45/117/166
f 48/125/167 47/122/167 6/18/167
f 47/122/159 46/120/159 6/18/159
f 46/120/168 109/250/168 45/117/168
f 46/120/159 45/117/159 6/18/159
f 39/104/169 107/247/169 108/249/169
f 40/106/170 108/249/170 109/251/170
f 107/248/171 110/252/171 97/233/171
f 37/99/172 111/253/172 112/255/172
f 38/101/173 112/255/173 114/257/173
f 100/237/174 113/256/174 114/258/174
f 111/254/175 113/256/175 100/237/175
f 117/262/176 115/259/176 64/165/176
f 119/265/177 89/220/177 90/222/177
f 101/238/178 118/264/178 116/260/178
f 99/236/179 117/263/179 118/264/179
f 41/108/69 2/6/69 71/183/69
f 2/6/180 1/3/180 65/168/180
f 71/183/69 2/6/69 70/180/69
f 1/3/160 57/148/160 58/150/160
f 58/150/160 49/127/160 50/130/160
f 59/153/160 60/155/160 1/3/160
f 60/155/160 61/158/160 1/3/160
f 58/150/160 50/130/160 59/153/160
f 70/180/69 2/6/69 69/178/69
f 79/205/181 81/208/181 71/183/181
f 70/180/182 79/205/182 71/183/182
f 1/3/160 58/150/160 59/153/160
f 61/158/160 62/160/160 1/3/160
f 62/160/160 63/163/160 1/3/160
f 69/178/69 2/6/69 68/175/69
f 119/265/183 120/266/183 69/178/183
f 68/175/184 2/6/184 67/173/184
f 64/165/185 115/259/185 116/261/185
f 1/3/160 63/163/160 64/165/160
f 68/175/186 119/265/186 69/178/186
f 65/168/69 66/170/69 2/6/69
f 66/170/187 67/173/187 2/6/187
f 64/165/188 116/261/188 65/168/188
f 18/49/189 122/270/189 121/268/189
f 121/269/190 119/265/190 68/175/190
f 88/219/191 122/270/191 120/267/191
f 125/274/192 124/273/192 66/170/192
f 98/234/193 126/276/193 123/271/193
f 96/232/194 123/272/194 124/273/194
f 95/230/195 125/275/195 126/276/195
