# Blender 3.3.1
# www.blender.org
o Vent_Grate.003
v 0.649763 0.100142 -8.076906
v 0.085769 0.048510 -7.736553
v 0.652459 0.129598 -8.078694
v 0.077955 0.077067 -7.735294
v 0.981860 0.103408 -7.522351
v 0.412272 0.113428 -7.182467
v 0.984557 0.132864 -7.524139
v 0.392154 0.181501 -7.179006
v 0.609859 0.136296 -8.032589
v 0.584843 0.139494 -8.017626
v 0.529601 0.146556 -7.984586
v 0.509796 0.149088 -7.972741
v 0.454555 0.156150 -7.939701
v 0.439961 0.158015 -7.930973
v 0.360051 0.161110 -7.890718
v 0.345993 0.156876 -7.881939
v 0.280475 0.180366 -7.846502
v 0.266417 0.176132 -7.837722
v 0.213203 0.160106 -7.804487
v 0.176276 0.135340 -7.766609
v 0.156227 0.099725 -7.763421
v 0.139597 0.094716 -7.753034
v 0.388282 0.138768 -7.208659
v 0.086896 0.078845 -7.720120
v 0.661554 0.129687 -8.063507
v 0.445309 0.199165 -7.249757
v 0.428678 0.194156 -7.239371
v 0.621434 0.177019 -7.344271
v 0.606841 0.178885 -7.335542
v 0.526893 0.180513 -7.295228
v 0.510827 0.175675 -7.285194
v 0.916408 0.139311 -7.520695
v 0.968103 0.132702 -7.551614
v 0.891392 0.142509 -7.505733
v 0.836151 0.149571 -7.472692
v 0.816346 0.152102 -7.460847
v 0.758963 0.147488 -7.414688
v 0.746511 0.161030 -7.419079
v 0.691269 0.168092 -7.386039
v 0.676676 0.169957 -7.377311
v 0.118225 0.057370 -7.736065
v 0.419610 0.117293 -7.224604
v 0.488890 0.138158 -7.267872
v 0.460521 0.172836 -7.255636
v 0.641011 0.144716 -7.355804
v 0.626418 0.146581 -7.347075
v 0.571176 0.153643 -7.314035
v 0.542105 0.154184 -7.301107
v 0.952034 0.104955 -7.541827
v 0.921392 0.108873 -7.523500
v 0.866150 0.115935 -7.490460
v 0.841134 0.119133 -7.475498
v 0.785892 0.126195 -7.442458
v 0.766087 0.128726 -7.430613
v 0.710846 0.135788 -7.397572
v 0.696253 0.137654 -7.388844
v 0.658858 0.100231 -8.061719
v 0.645484 0.101941 -8.053720
v 0.614842 0.105858 -8.035394
v 0.559601 0.112920 -8.002354
v 0.534584 0.116118 -7.987391
v 0.479343 0.123180 -7.954351
v 0.459538 0.125712 -7.942506
v 0.404296 0.132774 -7.909466
v 0.375263 0.134781 -7.896598
v 0.322049 0.118754 -7.863363
v 0.295687 0.154037 -7.852381
v 0.254777 0.098494 -7.821348
v 0.240719 0.094261 -7.812568
v 0.187505 0.078234 -7.779334
v 0.171439 0.073396 -7.769300
v 0.965407 0.103246 -7.549826
v 0.967024 0.120904 -7.550898
v 0.967945 0.130974 -7.551509
v 0.660474 0.117889 -8.062791
v 0.661396 0.127959 -8.063402
v 0.093966 0.053006 -7.721259
v 0.395352 0.112930 -7.209798
v 0.328612 0.156837 -7.544510
v 0.305431 0.169123 -7.558136
v 0.293510 0.165022 -7.529715
v 0.345361 0.180894 -7.575086
v 0.422157 0.191705 -7.409912
v 0.449494 0.160129 -7.421215
v 0.414407 0.106975 -7.392159
v 0.384015 0.160342 -7.382863
v 0.412319 0.167040 -7.610916
v 0.429983 0.174146 -7.565351
v 0.397387 0.159965 -7.568435
v 0.397808 0.166197 -7.557621
v 0.543485 0.174090 -7.470829
v 0.534898 0.172247 -7.460388
v 0.483633 0.149215 -7.433827
v 0.465427 0.151974 -7.427263
v 0.544118 0.171294 -7.646070
v 0.481731 0.159314 -7.609145
v 0.492799 0.160626 -7.617126
v 0.533351 0.172519 -7.640727
v 0.628483 0.157486 -7.694541
v 0.597140 0.156920 -7.684377
v 0.609288 0.162299 -7.686198
v 0.587220 0.161635 -7.674177
v 0.700804 0.142440 -7.739033
v 0.681593 0.142815 -7.733186
v 0.679743 0.146647 -7.723540
v 0.644933 0.144475 -7.747189
v 0.610908 0.160283 -7.509820
v 0.597113 0.162501 -7.501309
v 0.552258 0.151352 -7.474473
v 0.566682 0.154868 -7.482791
v 0.687504 0.155680 -7.546285
v 0.673562 0.159357 -7.538920
v 0.640787 0.158008 -7.564076
v 0.640396 0.162303 -7.548548
v 0.507219 0.152892 -7.808822
v 0.498686 0.155349 -7.801153
v 0.537752 0.150428 -7.818941
v 0.521753 0.154181 -7.810461
v 0.305014 0.153557 -7.708924
v 0.284585 0.176834 -7.697176
v 0.361820 0.157646 -7.734852
v 0.334262 0.194139 -7.724583
v 0.391823 0.144579 -7.742976
v 0.413553 0.139699 -7.779160
v 0.477543 0.159801 -7.781401
v 0.457317 0.162676 -7.770098
vn -0.5164 -0.0047 -0.8564
vn -0.2981 0.9544 -0.0170
vn 0.0910 0.9940 -0.0603
vn -0.1372 0.9886 0.0616
vn -0.2582 0.9642 0.0614
vn 0.0720 0.9898 -0.1230
vn 0.1810 0.9792 -0.0917
vn 0.1361 0.9872 -0.0831
vn 0.5038 0.0063 0.8638
vn -0.7221 -0.4953 0.4829
vn 0.0663 -0.9828 0.1724
vn 0.8531 -0.1091 -0.5102
vn -0.8218 -0.2475 0.5132
vn 0.2639 -0.0624 0.9625
vn -0.5086 -0.1030 -0.8548
vn -0.4916 0.8670 -0.0811
vn 0.6488 -0.7271 -0.2244
vn 0.5038 0.1053 0.8574
vn -0.5051 -0.1004 -0.8572
vn -0.4842 0.7882 -0.3799
vn 0.6976 -0.6383 -0.3253
vn 0.5001 0.0968 0.8605
vn -0.5138 -0.0051 -0.8579
vn -0.1690 0.9581 0.2313
vn 0.2935 -0.9426 -0.1590
vn 0.4509 0.0617 0.8904
vn -0.0234 0.9831 -0.1816
vn 0.1145 -0.9934 -0.0117
vn 0.5138 0.0051 0.8579
vn -0.3956 0.5024 -0.7688
vn 0.0080 0.9946 -0.1032
vn -0.0329 -0.9985 -0.0443
vn -0.3200 0.9289 0.1862
vn -0.0098 -0.9994 0.0318
vn -0.3257 0.9263 0.1896
vn 0.3200 -0.9289 -0.1862
vn 0.5051 0.1004 0.8572
vn -0.5098 -0.1018 -0.8542
vn -0.7836 0.4696 0.4067
vn 0.5795 -0.7395 -0.3427
vn 0.8133 -0.3884 -0.4333
vn -0.4621 0.8304 0.3113
vn -0.1178 -0.9890 0.0890
vn 0.6452 0.6819 -0.3446
vn -0.2791 0.9601 0.0161
vn -0.0839 0.9953 -0.0473
vn 0.4306 -0.8088 -0.4005
vn -0.1914 -0.9777 0.0868
vn -0.7447 -0.6478 0.1605
vn 0.0894 -0.9952 0.0390
vn -0.1849 0.9620 0.2009
vn 0.7044 0.6260 -0.3345
vn -0.2799 0.9477 0.1535
vn -0.7702 -0.5392 0.3407
vn 0.1651 -0.9806 -0.1053
vn 0.1844 0.9577 -0.2209
vn 0.2970 -0.9527 -0.0652
vn -0.1586 0.9772 0.1409
vn -0.1185 -0.9737 0.1948
vn 0.1580 0.9874 -0.0013
vn -0.1463 -0.9777 0.1504
vn -0.0496 -0.9945 0.0926
vn 0.1024 0.9936 -0.0486
vn 0.2170 0.9733 -0.0753
vn 0.1626 -0.9779 -0.1314
vn 0.2976 -0.9283 -0.2230
vn -0.3285 0.9287 0.1719
vn 0.0875 0.9940 -0.0661
vn 0.2637 -0.9637 -0.0425
vn 0.0659 0.9926 -0.1020
vn -0.3044 0.9287 0.2120
vn 0.1249 -0.9822 -0.1406
vn 0.7256 0.5216 -0.4489
vn -0.2852 0.9272 0.2428
vn -0.3083 -0.9416 0.1355
vn 0.0125 -0.9998 -0.0171
vn 0.2862 -0.9273 -0.2411
vn -0.5726 -0.7097 0.4105
vn -0.0413 0.9989 -0.0207
vn 0.1651 0.9698 -0.1796
vn 0.0475 -0.9650 0.2577
vn -0.1141 0.9540 0.2773
vn 0.6995 -0.4012 -0.5913
vn -0.1833 0.9577 0.2217
vn 0.4579 -0.7344 -0.5010
vn -0.2231 0.9739 0.0426
vn 0.1544 -0.9866 0.0519
vn 0.0584 0.9922 -0.1098
vn -0.5037 -0.1000 -0.8580
vn -0.5165 0.1892 -0.8351
vn -0.2637 0.9637 0.0425
vn 0.3672 -0.1242 0.9218
vn -0.4847 0.8694 0.0959
vn -0.5678 0.2796 -0.7743
vn -0.4780 -0.0083 -0.8783
vn 0.2565 0.9150 0.3113
vn -0.8275 0.3688 -0.4234
vn -0.5614 0.5055 -0.6552
vn 0.5306 0.6381 0.5579
vn -0.1860 0.8801 -0.4368
vn 0.4412 0.6728 0.5938
vn 0.0387 0.9986 0.0363
vn -0.3844 -0.5850 -0.7141
vn 0.2516 0.8810 0.4008
vn 0.0709 0.9931 -0.0937
vn -0.4513 0.8819 0.1367
vn -0.1698 0.9662 0.1940
vn 0.1099 0.9935 -0.0286
vn 0.0967 0.9940 -0.0508
vn 0.5108 0.1076 0.8529
vn -0.5721 -0.6462 0.5050
vn -0.6182 -0.6145 0.4901
vn -0.8171 -0.2674 0.5107
vn -0.8442 -0.2519 0.4732
vn -0.5001 -0.0968 -0.8605
vn -0.8524 0.0439 0.5210
vn 0.8131 -0.3884 -0.4336
vn -0.4504 -0.0613 -0.8907
vn -0.8164 0.3877 0.4279
vn 0.6558 -0.7248 -0.2112
vn 0.5086 0.1030 0.8548
vn -0.0548 0.9985 0.0027
vn 0.3145 -0.9289 -0.1955
vn -0.2393 0.9516 0.1927
vn 0.2860 -0.9273 -0.2415
vn -0.5995 0.3733 -0.7080
vn -0.3024 0.9286 0.2153
vn 0.1645 -0.9663 -0.1981
vn 0.3290 -0.9287 -0.1711
vn -0.5919 0.7854 0.1810
vn 0.6875 -0.7042 -0.1774
vn -0.2385 0.9703 0.0400
vn -0.0016 -0.9993 0.0381
vn -0.2597 0.9640 0.0576
vn 0.6355 0.6807 -0.3644
vn -0.4021 0.8273 0.3922
vn 0.5513 -0.6499 -0.5232
vn -0.8095 -0.5113 0.2885
vn -0.1633 -0.9846 -0.0627
vn 0.2049 -0.9746 -0.0903
vn -0.1880 0.9605 0.2053
vn 0.7390 0.5604 -0.3739
vn -0.2405 0.9667 0.0872
vn -0.1450 -0.9893 0.0139
vn 0.2468 -0.9406 -0.2332
vn -0.0862 0.9908 0.1040
vn 0.2148 -0.9764 0.0210
vn -0.1616 0.9763 0.1441
vn -0.0444 -0.9895 0.1372
vn 0.1229 0.9922 0.0200
vn -0.2406 -0.9488 0.2046
vn 0.0231 -0.9996 0.0157
vn -0.0155 0.9995 0.0267
vn 0.2127 0.9744 -0.0728
vn 0.0548 -0.9947 -0.0875
vn 0.0059 -0.9965 0.0831
vn -0.0744 0.9971 0.0180
vn 0.1294 0.9873 -0.0922
vn -0.5005 -0.4473 -0.7412
vn -0.0910 -0.9940 0.0603
vn -0.3586 -0.7320 -0.5793
vn -0.0307 -0.9988 -0.0379
vn -0.1322 -0.9912 -0.0092
vn 0.8257 -0.5564 0.0928
vn -0.6644 -0.3023 -0.6835
vn 0.1442 -0.9761 -0.1625
vn -0.2628 -0.7871 -0.5580
vn -0.1107 -0.9935 0.0272
vn 0.0861 0.9892 -0.1183
vn -0.2009 0.9771 0.0702
vn 0.0716 -0.9941 -0.0820
vn 0.2242 0.9726 -0.0612
vn 0.1117 0.9904 -0.0818
vn -0.5552 -0.8051 0.2087
vn -0.0617 -0.9976 0.0314
vn -0.0106 -0.9784 0.2064
vn -0.5909 -0.6888 0.4199
vn 0.0189 0.9967 -0.0784
vn 0.1440 0.9765 -0.1604
vn 0.5195 -0.2035 0.8299
vn -0.0547 -0.9230 0.3809
vn 0.3459 -0.9325 0.1042
vn -0.3986 -0.6674 0.6291
vn -0.3858 -0.2169 -0.8967
vn -0.0546 -0.9669 0.2491
vn 0.4159 -0.8763 0.2433
vn 0.4568 0.0651 0.8872
vn 0.0165 -0.9816 0.1902
vn 0.6320 0.6113 -0.4763
vn 0.2236 -0.9111 0.3463
vn -0.1992 0.9504 0.2391
vn 0.2959 -0.9514 -0.0849
vn -0.2398 0.9685 0.0672
vn -0.0193 -0.9923 0.1222
vn 0.0735 0.9900 -0.1202
vt -0.717005 1.147941
vt -0.661547 1.147942
vt 1.450127 -0.070911
vt -0.717005 2.383491
vt -0.717005 2.366795
vt 0.269326 -0.070911
vt -0.772602 1.147941
vt -0.934631 -0.070911
vt -0.606090 1.147942
vt -0.772602 2.383491
vt 0.256987 -0.070911
vt -0.661547 2.366795
vt -0.828200 1.147941
vt -0.661547 2.366795
vt 1.450127 1.147942
vt -0.828200 2.383491
vt -0.717005 1.147942
vt 0.269326 1.147942
vt -0.772602 1.147941
vt -0.934631 1.147941
vt -0.606090 2.366795
vt 0.256987 1.147942
vt -0.772603 2.383491
vt -0.661547 1.147942
vt 1.356634 -0.037532
vt -0.824707 -0.037532
vt 0.116673 1.252805
vt -0.550492 1.147941
vt -0.771513 -0.037532
vt 1.187524 -0.037532
vt -0.654048 -0.037532
vt -0.550492 1.269737
vt 0.005479 1.374601
vt -0.611935 -0.037532
vt 1.029395 -0.037532
vt -0.494470 -0.037532
vt 0.005479 1.252805
vt -0.494895 1.147941
vt -0.463439 -0.037532
vt 0.882247 -0.037532
vt -0.345975 -0.037532
vt -0.494895 1.269737
vt -0.105715 1.374601
vt -0.314943 -0.037532
vt 0.735100 -0.037532
vt -0.197478 -0.037532
vt -0.105715 1.252805
vt -0.494895 1.374601
vt -0.166447 -0.037532
vt 0.587952 -0.037532
vt -0.048983 -0.037532
vt -0.494895 1.252806
vt -0.272507 1.374601
vt -0.013519 -0.037532
vt 0.436412 -0.037532
vt 0.103947 -0.037532
vt -0.272507 1.252806
vt 0.222575 1.147942
vt 0.140656 -0.037532
vt 0.222575 1.259183
vt 0.256987 1.087555
vt -0.661547 1.208327
vt 0.222575 1.268561
vt 0.256987 -0.037532
vt -0.661547 2.333415
vt -0.934631 -0.037532
vt -0.606090 1.181321
vt 0.116673 1.366781
vt 0.103947 1.087555
vt -0.383701 1.269737
vt 0.436412 1.087555
vt 0.268970 1.147941
vt 0.140656 1.087555
vt -0.197478 1.087555
vt -0.216910 1.269737
vt 0.735100 1.087555
vt -0.439298 1.147941
vt -0.166447 1.087555
vt -0.048983 1.087555
vt -0.439298 1.269737
vt 0.587952 1.087555
vt -0.383701 1.147941
vt -0.013519 1.087555
vt -0.824707 1.087555
vt 0.061076 1.261916
vt 1.356634 1.087555
vt -0.934631 1.087555
vt -0.606090 2.306408
vt 0.061076 1.147941
vt -0.272507 1.374601
vt -0.771513 1.087555
vt -0.272507 1.252805
vt 1.187524 1.087555
vt -0.654048 1.087555
vt -0.050118 1.147941
vt -0.611935 1.087555
vt -0.050118 1.269737
vt 1.029395 1.087555
vt -0.494470 1.087555
vt -0.105715 1.374601
vt -0.463439 1.087555
vt -0.105715 1.252805
vt 0.882247 1.087555
vt -0.345975 1.087555
vt -0.216910 1.147941
vt -0.314943 1.087555
vt -0.216910 1.147942
vt 0.320761 -0.037532
vt -0.328104 1.374600
vt 0.320761 1.087555
vt -0.383701 1.374601
vt 0.472301 1.087555
vt 0.101253 1.087555
vt -0.328104 1.252806
vt 0.437159 1.087555
vt -0.161312 1.147941
vt 0.766597 1.087555
vt -0.200171 1.087555
vt -0.161312 1.252805
vt 0.735847 1.087555
vt -0.161312 1.374601
vt 0.619449 1.087555
vt -0.051675 1.087555
vt -0.383701 1.252805
vt 0.588699 1.087555
vt 0.291349 1.147941
vt 1.421947 1.087555
vt 0.116673 1.244985
vt -0.934631 1.147941
vt 1.357382 1.087555
vt 0.116673 1.366781
vt 1.240984 1.087555
vt -0.656741 1.087555
vt -0.328104 1.269737
vt 1.188271 1.087555
vt -0.328104 1.147941
vt 1.071873 1.087555
vt -0.497163 1.087555
vt 0.005479 1.252805
vt 1.030142 1.087555
vt 0.005479 1.374601
vt 0.913744 1.087555
vt -0.348667 1.087555
vt -0.161312 1.269737
vt 0.882995 1.087555
vt 0.291347 1.173084
vt -0.661547 1.181321
vt 1.450127 -0.037532
vt 0.313370 1.192566
vt 1.421947 -0.037532
vt 0.172270 1.269737
vt -0.934631 2.273027
vt 1.357382 -0.037532
vt 0.172270 1.147941
vt 1.240984 -0.037532
vt -0.606090 1.252805
vt -0.656741 -0.037532
vt 1.188271 -0.037532
vt -0.606090 1.374600
vt 1.071873 -0.037532
vt 0.061076 1.269737
vt -0.497162 -0.037532
vt 1.030142 -0.037532
vt 0.061076 1.147941
vt 0.913744 -0.037532
vt -0.550492 1.252805
vt -0.348667 -0.037532
vt 0.882995 -0.037532
vt -0.550492 1.374601
vt 0.766597 -0.037532
vt -0.050118 1.269737
vt -0.200171 -0.037532
vt 0.735847 -0.037532
vt -0.050118 1.147941
vt 0.619449 -0.037532
vt -0.439298 1.269738
vt -0.051675 -0.037532
vt 0.588699 -0.037532
vt -0.439298 1.147942
vt 0.472301 -0.037532
vt -0.216910 1.269738
vt 0.101253 -0.037532
vt 0.437159 -0.037532
vt 0.269326 1.167422
vt -0.661547 2.306408
vt 1.450127 1.087555
vt 0.291349 1.192566
vt -0.628302 2.306408
vt 1.459378 1.087555
vt -0.609343 2.306408
vt 0.064337 1.147941
vt -0.828199 1.147941
vt 0.313370 1.147941
vt -0.628302 1.181321
vt 1.459378 -0.037532
vt -0.828199 2.273027
vt -0.609343 1.181321
vt 0.119935 1.366781
vt 0.172271 1.268561
vt -0.711726 2.333415
vt 0.269326 -0.037532
vt 0.268970 1.278727
vt 0.269326 1.087555
vt -0.711726 1.208327
vt 0.472301 0.525011
vt -0.013519 0.525012
vt 0.101253 0.525012
vt 0.437159 0.525011
vt 0.587952 0.525011
vt -0.048983 0.525012
vt -0.013519 0.806284
vt -0.048983 0.806284
vt 0.587952 0.806284
vt 0.472301 0.806284
vt 0.101253 0.806284
vt 0.437159 0.806284
vt 0.735100 0.525011
vt -0.197478 0.525011
vt -0.166447 0.525012
vt 0.619449 0.525011
vt -0.051675 0.525012
vt 0.588699 0.525011
vt 0.735100 0.806284
vt -0.197478 0.806284
vt -0.166447 0.806284
vt 0.619449 0.806284
vt -0.051675 0.806284
vt 0.588699 0.806284
vt 0.882247 0.525011
vt -0.345975 0.525011
vt -0.200171 0.525011
vt 0.735847 0.525011
vt 0.766597 0.525011
vt -0.314943 0.525011
vt 1.029395 0.525011
vt -0.494470 0.525011
vt 0.913744 0.525011
vt -0.463439 0.525011
vt 0.882995 0.525011
vt -0.348667 0.525011
vt 1.187524 0.525011
vt -0.654048 0.525011
vt 1.071873 0.525011
vt -0.611935 0.525011
vt -0.497162 0.525011
vt 1.030142 0.525011
vt -0.345975 0.806284
vt 0.882247 0.806284
vt -0.314943 0.806284
vt 0.735847 0.806284
vt -0.200171 0.806284
vt 0.766597 0.806284
vt -0.494470 0.806284
vt 1.029395 0.806284
vt -0.463439 0.806284
vt 0.913744 0.806284
vt -0.348667 0.806284
vt 0.882995 0.806284
vt 0.913744 0.243740
vt -0.348667 0.243740
vt 0.882995 0.243740
vt 1.029395 0.243740
vt -0.494470 0.243740
vt -0.463439 0.243740
vt 0.619449 0.243740
vt 0.588699 0.243740
vt -0.051675 0.243740
vt -0.197478 0.243740
vt 0.735100 0.243740
vt -0.166447 0.243740
vt -0.200171 0.243740
vt 0.735847 0.243740
vt 0.766597 0.243740
vt 0.882247 0.243740
vt -0.345975 0.243740
vt -0.314943 0.243740
s 0
f 2/4/1 3/7/1 1/1/1
f 26/69/2 22/59/2 27/73/2
f 32/84/3 9/26/3 34/91/3
f 92/225/4 28/74/4 91/224/4
f 19/51/5 80/206/5 82/210/5
f 125/275/6 16/44/6 126/276/6
f 117/263/7 14/39/7 118/264/7
f 103/242/8 12/34/8 105/244/8
f 8/23/9 5/13/9 7/19/9
f 85/214/10 44/115/10 86/216/10
f 123/272/11 66/170/11 124/273/11
f 75/194/12 3/9/12 76/197/12
f 78/204/13 77/200/13 2/5/13
f 21/57/14 71/181/14 20/53/14
f 26/70/15 44/114/15 42/109/15
f 80/206/16 71/182/16 81/207/16
f 26/71/17 41/108/17 21/55/17
f 19/52/18 69/176/18 18/48/18
f 30/80/19 48/124/19 43/111/19
f 122/270/20 69/177/20 120/267/20
f 30/81/21 85/214/21 84/213/21
f 17/47/22 67/171/22 16/43/22
f 28/75/23 46/119/23 47/121/23
f 126/276/24 67/172/24 123/271/24
f 28/76/25 93/226/25 91/223/25
f 15/42/26 65/166/26 14/38/26
f 39/102/23 56/144/23 45/116/23
f 118/264/27 65/167/27 116/260/27
f 39/103/28 110/252/28 107/248/28
f 13/37/29 63/161/29 12/33/29
f 37/97/30 54/139/30 55/141/30
f 105/244/31 63/162/31 106/245/31
f 37/98/32 113/256/32 111/254/32
f 11/32/29 61/156/29 10/28/29
f 35/92/23 52/134/23 53/136/23
f 34/91/33 61/157/33 52/133/33
f 35/93/34 104/243/34 103/241/34
f 9/27/29 59/151/29 76/198/29
f 50/128/23 51/131/23 32/85/23
f 59/152/35 74/192/35 76/196/35
f 32/86/36 60/155/36 9/25/36
f 77/199/37 22/58/37 24/63/37
f 23/60/38 27/72/38 78/202/38
f 27/73/39 77/201/39 78/203/39
f 75/193/29 58/149/29 57/146/29
f 49/126/23 73/187/23 72/184/23
f 58/150/40 73/189/40 49/127/40
f 82/209/41 70/180/41 19/50/41
f 83/211/42 81/207/42 86/215/42
f 93/226/43 48/125/43 94/228/43
f 82/210/44 83/211/44 84/212/44
f 84/212/45 31/83/45 30/79/45
f 31/83/46 86/215/46 44/113/46
f 84/213/47 79/205/47 82/209/47
f 79/205/48 86/216/48 81/208/48
f 113/256/49 56/145/49 114/258/49
f 87/217/50 119/265/50 121/269/50
f 92/225/51 90/221/51 94/227/51
f 122/270/52 87/218/52 121/268/52
f 29/78/53 94/227/53 48/123/53
f 89/220/54 94/228/54 90/222/54
f 91/223/55 89/220/55 87/217/55
f 88/219/56 91/224/56 87/218/56
f 95/229/57 124/273/57 125/274/57
f 108/249/58 96/231/58 109/251/58
f 106/246/59 62/160/59 104/243/59
f 107/247/60 98/234/60 108/249/60
f 115/259/61 102/239/61 116/261/61
f 99/235/62 115/259/62 117/262/62
f 112/255/63 102/240/63 114/257/63
f 111/253/64 101/238/64 112/255/64
f 109/250/65 97/233/65 110/252/65
f 103/241/66 62/160/66 11/30/66
f 36/96/67 106/245/67 54/138/67
f 35/94/68 105/244/68 36/96/68
f 6/18/69 43/112/69 48/125/69
f 39/104/70 108/249/70 40/106/70
f 40/106/71 109/251/71 46/118/71
f 107/248/72 97/233/72 95/229/72
f 37/99/73 112/255/73 38/101/73
f 38/101/74 114/257/74 56/143/74
f 100/237/75 114/258/75 102/239/75
f 111/254/76 100/237/76 99/235/76
f 117/262/77 64/165/77 13/35/77
f 119/265/78 90/222/78 120/266/78
f 101/238/79 116/260/79 102/240/79
f 99/236/80 118/264/80 101/238/80
f 1/3/81 64/165/81 65/168/81
f 18/49/82 121/268/82 17/46/82
f 121/269/83 68/175/83 17/45/83
f 88/219/84 120/267/84 90/221/84
f 125/274/85 66/170/85 15/40/85
f 98/234/86 123/271/86 96/231/86
f 96/232/87 124/273/87 97/233/87
f 95/230/88 126/276/88 98/234/88
f 2/4/89 4/10/89 3/7/89
f 26/69/2 21/56/2 22/59/2
f 25/66/3 3/8/3 9/26/3
f 3/8/90 4/11/90 15/41/90
f 9/26/3 3/8/3 10/29/3
f 4/11/91 24/64/91 22/59/91
f 21/56/92 20/54/92 4/11/92
f 20/54/93 19/51/93 4/11/93
f 4/11/91 22/59/91 21/56/91
f 10/29/3 3/8/3 11/31/3
f 7/20/3 33/87/3 32/84/3
f 18/49/94 17/46/94 4/11/94
f 17/46/95 16/44/95 4/11/95
f 4/11/94 19/51/94 18/49/94
f 8/22/96 7/20/96 39/104/96
f 7/20/3 32/84/3 34/91/3
f 27/73/97 23/61/97 8/22/97
f 30/79/98 31/83/98 8/22/98
f 31/83/99 26/69/99 8/22/99
f 26/69/91 27/73/91 8/22/91
f 15/41/100 14/39/100 3/8/100
f 14/39/3 13/36/3 3/8/3
f 4/11/91 16/44/91 15/41/91
f 40/106/101 28/74/101 8/22/101
f 28/74/101 29/78/101 8/22/101
f 29/78/102 30/79/102 8/22/102
f 12/34/3 11/31/3 3/8/3
f 12/34/3 3/8/3 13/36/3
f 37/99/103 38/101/103 7/20/103
f 38/101/3 39/104/3 7/20/3
f 39/104/101 40/106/101 8/22/101
f 34/91/3 35/94/3 7/20/3
f 35/94/3 36/96/3 7/20/3
f 7/20/104 36/96/104 37/99/104
f 9/26/3 10/29/3 34/91/3
f 92/225/105 29/78/105 28/74/105
f 19/51/106 20/54/106 80/206/106
f 125/275/107 15/41/107 16/44/107
f 117/263/108 13/36/108 14/39/108
f 103/242/109 11/31/109 12/34/109
f 8/23/110 6/16/110 5/13/110
f 85/214/111 43/112/111 44/115/111
f 123/272/112 67/173/112 66/170/112
f 74/190/12 33/88/12 7/21/12
f 7/21/12 5/14/12 73/188/12
f 5/14/12 72/185/12 73/188/12
f 74/190/12 7/21/12 73/188/12
f 75/194/12 57/147/12 1/2/12
f 74/190/12 73/188/12 75/194/12
f 3/9/12 25/67/12 76/197/12
f 76/197/12 74/190/12 75/194/12
f 75/194/12 1/2/12 3/9/12
f 24/65/13 4/12/13 77/200/13
f 4/12/13 2/5/13 77/200/13
f 6/17/113 8/24/113 78/204/113
f 8/24/114 23/62/114 78/204/114
f 6/17/13 78/204/13 2/5/13
f 21/57/37 41/107/37 71/181/37
f 26/70/115 31/82/115 44/114/115
f 80/206/116 20/54/116 71/182/116
f 26/71/117 42/110/117 41/108/117
f 19/52/18 70/179/18 69/176/18
f 30/80/118 29/77/118 48/124/118
f 122/270/119 18/49/119 69/177/119
f 30/81/120 43/112/120 85/214/120
f 17/47/121 68/174/121 67/171/121
f 28/75/23 40/105/23 46/119/23
f 126/276/122 16/44/122 67/172/122
f 28/76/123 47/122/123 93/226/123
f 15/42/37 66/169/37 65/166/37
f 39/102/23 38/100/23 56/144/23
f 118/264/124 14/39/124 65/167/124
f 39/103/125 45/117/125 110/252/125
f 13/37/29 64/164/29 63/161/29
f 37/97/126 36/95/126 54/139/126
f 105/244/127 12/34/127 63/162/127
f 37/98/128 55/142/128 113/256/128
f 11/32/29 62/159/29 61/156/29
f 35/92/23 34/90/23 52/134/23
f 34/91/33 10/29/33 61/157/33
f 35/93/129 53/137/129 104/243/129
f 76/198/29 25/68/29 9/27/29
f 9/27/29 60/154/29 59/151/29
f 33/89/23 74/191/23 32/85/23
f 74/191/23 50/128/23 32/85/23
f 59/152/35 50/129/35 74/192/35
f 32/86/36 51/132/36 60/155/36
f 27/73/130 22/59/130 77/201/130
f 58/150/40 75/195/40 73/189/40
f 82/209/131 79/205/131 70/180/131
f 83/211/132 80/206/132 81/207/132
f 93/226/133 47/122/133 48/125/133
f 82/210/134 80/206/134 83/211/134
f 84/212/135 83/211/135 31/83/135
f 31/83/136 83/211/136 86/215/136
f 84/213/137 85/214/137 79/205/137
f 79/205/138 85/214/138 86/216/138
f 113/256/139 55/142/139 56/145/139
f 87/217/140 89/220/140 119/265/140
f 92/225/141 88/219/141 90/221/141
f 122/270/142 88/219/142 87/218/142
f 29/78/143 92/225/143 94/227/143
f 89/220/144 93/226/144 94/228/144
f 91/223/145 93/226/145 89/220/145
f 88/219/146 92/225/146 91/224/146
f 95/229/147 97/233/147 124/273/147
f 108/249/148 98/234/148 96/231/148
f 106/246/149 63/163/149 62/160/149
f 107/247/150 95/230/150 98/234/150
f 115/259/151 100/237/151 102/239/151
f 99/235/152 100/237/152 115/259/152
f 112/255/153 101/238/153 102/240/153
f 111/253/154 99/236/154 101/238/154
f 109/250/155 96/232/155 97/233/155
f 103/241/156 104/243/156 62/160/156
f 36/96/157 105/244/157 106/245/157
f 35/94/158 103/242/158 105/244/158
f 45/117/159 56/145/159 6/18/159
f 56/145/160 55/142/160 5/15/160
f 6/18/161 56/145/161 5/15/161
f 54/140/162 106/246/162 104/243/162
f 55/142/160 54/140/160 5/15/160
f 54/140/163 104/243/163 53/137/163
f 52/135/160 61/158/160 60/155/160
f 54/140/160 53/137/160 5/15/160
f 52/135/160 60/155/160 51/132/160
f 53/137/160 52/135/160 5/15/160
f 51/132/160 50/130/160 5/15/160
f 50/130/160 49/127/160 5/15/160
f 51/132/160 5/15/160 52/135/160
f 49/127/160 72/186/160 5/15/160
f 6/18/69 2/6/69 42/110/69
f 2/6/69 41/108/69 42/110/69
f 42/110/164 44/115/164 6/18/164
f 44/115/165 43/112/165 6/18/165
f 109/250/166 110/252/166 45/117/166
f 48/125/167 47/122/167 6/18/167
f 47/122/159 46/120/159 6/18/159
f 46/120/168 109/250/168 45/117/168
f 46/120/159 45/117/159 6/18/159
f 39/104/169 107/247/169 108/249/169
f 40/106/170 108/249/170 109/251/170
f 107/248/171 110/252/171 97/233/171
f 37/99/172 111/253/172 112/255/172
f 38/101/173 112/255/173 114/257/173
f 100/237/174 113/256/174 114/258/174
f 111/254/175 113/256/175 100/237/175
f 117/262/176 115/259/176 64/165/176
f 119/265/177 89/220/177 90/222/177
f 101/238/178 118/264/178 116/260/178
f 99/236/179 117/263/179 118/264/179
f 41/108/69 2/6/69 71/183/69
f 2/6/180 1/3/180 65/168/180
f 71/183/69 2/6/69 70/180/69
f 1/3/160 57/148/160 58/150/160
f 58/150/160 49/127/160 50/130/160
f 59/153/160 60/155/160 1/3/160
f 60/155/160 61/158/160 1/3/160
f 58/150/160 50/130/160 59/153/160
f 70/180/69 2/6/69 69/178/69
f 79/205/181 81/208/181 71/183/181
f 70/180/182 79/205/182 71/183/182
f 1/3/160 58/150/160 59/153/160
f 61/158/160 62/160/160 1/3/160
f 62/160/160 63/163/160 1/3/160
f 69/178/69 2/6/69 68/175/69
f 119/265/183 120/266/183 69/178/183
f 68/175/184 2/6/184 67/173/184
f 64/165/185 115/259/185 116/261/185
f 1/3/160 63/163/160 64/165/160
f 68/175/186 119/265/186 69/178/186
f 65/168/69 66/170/69 2/6/69
f 66/170/187 67/173/187 2/6/187
f 64/165/188 116/261/188 65/168/188
f 18/49/189 122/270/189 121/268/189
f 121/269/190 119/265/190 68/175/190
f 88/219/191 122/270/191 120/267/191
f 125/274/192 124/273/192 66/170/192
f 98/234/193 126/276/193 123/271/193
f 96/232/194 123/272/194 124/273/194
f 95/230/195 125/275/195 126/276/195
