# Blender 3.3.1
# www.blender.org
o Vent_Grate.003
v -0.091537 0.117933 -7.510195
v 0.098914 0.354860 -8.096871
v -0.091512 0.088820 -7.515722
v 0.099297 0.329757 -8.112614
v 0.526958 0.083414 -7.325527
v 0.717897 0.262775 -7.934974
v 0.526984 0.054300 -7.331055
v 0.718893 0.203385 -7.973992
v -0.056962 0.098705 -7.567626
v -0.048440 0.103945 -7.595191
v -0.029620 0.115518 -7.656060
v -0.022873 0.119667 -7.677882
v -0.004053 0.131240 -7.738751
v 0.000919 0.134298 -7.754831
v 0.020569 0.157067 -7.839158
v 0.025493 0.165825 -7.853003
v 0.044746 0.164688 -7.928688
v 0.049670 0.173446 -7.942533
v 0.068309 0.206597 -7.994943
v 0.095092 0.244215 -8.030709
v 0.091964 0.284044 -8.039898
v 0.097789 0.294404 -8.056277
v 0.687614 0.242234 -7.958737
v 0.116249 0.327235 -8.108180
v -0.074574 0.087875 -7.510665
v 0.663942 0.164756 -7.913731
v 0.669767 0.175116 -7.930110
v 0.614446 0.128637 -7.722188
v 0.619417 0.131694 -7.738267
v 0.639062 0.155883 -7.822223
v 0.644689 0.165892 -7.838046
v 0.513953 0.066841 -7.397165
v 0.496341 0.056011 -7.340204
v 0.522476 0.072081 -7.424729
v 0.541296 0.083654 -7.485599
v 0.548043 0.087803 -7.507421
v 0.578619 0.112505 -7.569869
v 0.571834 0.102434 -7.584370
v 0.590654 0.114007 -7.645238
v 0.595626 0.117064 -7.661318
v 0.107629 0.337690 -8.069279
v 0.678995 0.252689 -7.919836
v 0.654727 0.209529 -7.851604
v 0.660967 0.185250 -7.890703
v 0.606832 0.153084 -7.692119
v 0.611804 0.156141 -7.708198
v 0.630624 0.167714 -7.769067
v 0.636088 0.176378 -7.799195
v 0.500872 0.087926 -7.349412
v 0.511311 0.094345 -7.383175
v 0.530131 0.105918 -7.444045
v 0.538654 0.111159 -7.471609
v 0.557474 0.122732 -7.532478
v 0.564221 0.126881 -7.554301
v 0.583041 0.138454 -7.615170
v 0.588012 0.141511 -7.631249
v -0.074599 0.116988 -7.505137
v -0.070043 0.119790 -7.519873
v -0.059604 0.126209 -7.553637
v -0.040784 0.137782 -7.614506
v -0.032261 0.143023 -7.642070
v -0.013442 0.154596 -7.702940
v -0.006694 0.158745 -7.724762
v 0.012125 0.170318 -7.785631
v 0.017595 0.177561 -7.816130
v 0.036235 0.210713 -7.868539
v 0.041771 0.185183 -7.905660
v 0.059798 0.252621 -7.934793
v 0.064722 0.261379 -7.948638
v 0.083362 0.294530 -8.001047
v 0.088990 0.304538 -8.016870
v 0.496316 0.085124 -7.334676
v 0.496331 0.067671 -7.337990
v 0.496340 0.057718 -7.339880
v -0.074584 0.099535 -7.508451
v -0.074575 0.089582 -7.510341
v 0.115902 0.349949 -8.093936
v 0.687268 0.264948 -7.944493
v 0.348265 0.205857 -7.944523
v 0.329870 0.198910 -7.966599
v 0.354355 0.209021 -7.982876
v 0.323615 0.175115 -7.928983
v 0.502811 0.161371 -7.897407
v 0.497339 0.183056 -7.860367
v 0.514959 0.246433 -7.884318
v 0.518556 0.204499 -7.929998
v 0.304693 0.166598 -7.854630
v 0.353422 0.159806 -7.850381
v 0.341959 0.181837 -7.875999
v 0.352775 0.176889 -7.879807
v 0.472687 0.139187 -7.765718
v 0.480644 0.144356 -7.775522
v 0.493029 0.182992 -7.822617
v 0.495056 0.185939 -7.841836
v 0.302907 0.123354 -7.725202
v 0.323039 0.155487 -7.788139
v 0.318050 0.150415 -7.776422
v 0.305507 0.125639 -7.736777
v 0.275979 0.108782 -7.631820
v 0.278169 0.118827 -7.663130
v 0.279566 0.110216 -7.652946
v 0.285812 0.118052 -7.676000
v 0.249924 0.099054 -7.550194
v 0.250923 0.104480 -7.569506
v 0.259963 0.102319 -7.574481
v 0.228479 0.111298 -7.601011
v 0.450817 0.130169 -7.690238
v 0.455785 0.132650 -7.705627
v 0.470444 0.158212 -7.750216
v 0.466029 0.150091 -7.735927
v 0.433975 0.110133 -7.609413
v 0.437851 0.111137 -7.625101
v 0.405434 0.118622 -7.649634
v 0.420547 0.116241 -7.654696
v 0.135499 0.133874 -7.717971
v 0.140944 0.134622 -7.728338
v 0.133042 0.126952 -7.686558
v 0.137502 0.128555 -7.704432
v 0.183054 0.198144 -7.928861
v 0.190331 0.182591 -7.957187
v 0.171925 0.176219 -7.871318
v 0.176525 0.149778 -7.909741
v 0.170876 0.179799 -7.837806
v 0.140922 0.174832 -7.808084
v 0.155098 0.138121 -7.753722
v 0.161230 0.141998 -7.775914
vn -0.9559 0.0539 -0.2885
vn -0.0535 -0.8352 -0.5473
vn 0.0009 -0.9824 -0.1865
vn 0.0633 -0.9031 -0.4249
vn 0.0326 -0.8471 -0.5304
vn -0.0646 -0.9798 -0.1891
vn -0.0082 -0.9958 -0.0914
vn -0.0105 -0.9904 -0.1375
vn 0.9602 -0.0513 0.2747
vn 0.2734 0.7192 -0.6387
vn 0.1465 0.9411 0.3049
vn -0.2906 -0.1787 0.9400
vn 0.2879 0.5119 -0.8094
vn 0.9948 0.0894 0.0489
vn -0.9562 0.1461 -0.2535
vn -0.1660 -0.7061 -0.6883
vn -0.0865 0.4979 0.8629
vn 0.9576 -0.1467 0.2478
vn -0.9576 0.1425 -0.2505
vn -0.4568 -0.6639 -0.5921
vn -0.1691 0.3892 0.9055
vn 0.9595 -0.1373 0.2461
vn -0.9568 0.0534 -0.2857
vn 0.2188 -0.8475 -0.4835
vn -0.1178 0.8068 0.5790
vn 0.9751 -0.0873 0.2037
vn -0.1449 -0.9539 -0.2629
vn -0.0205 0.9189 0.3939
vn 0.9568 -0.0534 0.2857
vn -0.8227 -0.4549 -0.3409
vn -0.0609 -0.9652 -0.2544
vn -0.0883 0.9601 0.2653
vn 0.1372 -0.7836 -0.6059
vn -0.0090 0.9628 0.2701
vn 0.1390 -0.7792 -0.6111
vn -0.1372 0.7836 0.6059
vn 0.9576 -0.1425 0.2505
vn -0.9559 0.1454 -0.2551
vn 0.2207 -0.1960 -0.9554
vn -0.2185 0.5160 0.8282
vn -0.2362 0.1075 0.9657
vn 0.2201 -0.6380 -0.7379
vn 0.0205 0.9879 0.1537
vn -0.1512 -0.8626 0.4827
vn -0.0165 -0.8423 -0.5387
vn -0.0291 -0.9352 -0.3528
vn -0.3135 0.6165 0.7223
vn 0.0009 0.9966 0.0824
vn -0.0502 0.8375 -0.5441
vn 0.0224 0.9328 0.3597
vn 0.1856 -0.8501 -0.4928
vn -0.1291 -0.8240 0.5516
vn 0.1160 -0.8158 -0.5666
vn 0.1223 0.7593 -0.6392
vn -0.0984 0.8833 0.4583
vn -0.1333 -0.9896 -0.0533
vn -0.0264 0.8252 0.5642
vn 0.1344 -0.8781 -0.4592
vn 0.1235 0.9844 0.1250
vn 0.0742 -0.9880 -0.1354
vn 0.0736 0.9912 0.1102
vn 0.0405 0.9751 0.2180
vn 0.0150 -0.9838 -0.1784
vn 0.0163 -0.9981 -0.0599
vn -0.1242 0.8787 0.4610
vn -0.1783 0.7852 0.5930
vn 0.1213 -0.7826 -0.6105
vn -0.0056 -0.9821 -0.1885
vn -0.0129 0.8471 0.5312
vn -0.0457 -0.9787 -0.2002
vn 0.1660 -0.7849 -0.5970
vn -0.1425 0.8919 0.4291
vn -0.2387 -0.7417 0.6268
vn 0.2005 -0.7855 -0.5855
vn 0.0210 0.9986 -0.0477
vn -0.0510 0.9520 0.3019
vn -0.1986 0.7855 0.5862
vn 0.2317 0.8766 -0.4218
vn 0.0073 -0.9474 -0.3200
vn -0.0976 -0.9917 -0.0839
vn 0.2253 0.9381 0.2632
vn 0.2766 -0.8536 -0.4415
vn -0.4176 0.1339 0.8987
vn 0.2060 -0.8443 -0.4947
vn -0.4013 0.5274 0.7489
vn 0.0234 -0.8678 -0.4963
vn 0.0511 0.9084 0.4149
vn -0.0551 -0.9772 -0.2053
vn -0.9581 0.1416 -0.2491
vn -0.9282 -0.1294 -0.3489
vn 0.0129 -0.8471 -0.5312
vn 0.9782 0.1165 0.1719
vn 0.0073 -0.6918 -0.7221
vn -0.8783 -0.1958 -0.4362
vn -0.9680 0.0448 -0.2469
vn 0.3984 -0.9125 -0.0927
vn -0.5982 -0.1745 -0.7821
vn -0.7529 -0.4013 -0.5216
vn 0.6939 -0.6954 0.1869
vn -0.4357 -0.8382 -0.3279
vn 0.0129 -0.8471 -0.5313
vn 0.7082 -0.7008 0.0857
vn 0.0820 -0.9626 -0.2582
vn -0.8076 0.5889 -0.0311
vn 0.4827 -0.8692 -0.1075
vn -0.0364 -0.9796 -0.1975
vn 0.0554 -0.7084 -0.7036
vn 0.1828 -0.8590 -0.4783
vn 0.0362 -0.9838 -0.1759
vn 0.0115 -0.9830 -0.1833
vn 0.9551 -0.1513 0.2547
vn 0.3258 0.8256 -0.4607
vn 0.3013 0.8060 -0.5094
vn 0.2878 0.5119 -0.8094
vn 0.2879 0.5120 -0.8094
vn 0.2858 0.5295 -0.7987
vn 0.2434 0.5180 -0.8200
vn -0.9595 0.1373 -0.2461
vn 0.2988 0.2420 -0.9231
vn -0.2366 0.1075 0.9656
vn -0.9753 0.0868 -0.2032
vn 0.2302 -0.1066 -0.9673
vn -0.0719 0.4952 0.8658
vn 0.9562 -0.1461 0.2535
vn 0.0266 -0.9409 -0.3377
vn -0.1475 0.7842 0.6028
vn 0.1640 -0.8264 -0.5387
vn -0.1990 0.7855 0.5860
vn -0.8183 -0.2700 -0.5075
vn 0.1697 -0.7850 -0.5958
vn -0.1881 0.8600 0.4743
vn -0.1204 0.7826 0.6108
vn 0.0606 -0.5736 -0.8169
vn -0.0307 0.4704 0.8819
vn 0.0169 -0.8605 -0.5091
vn -0.0008 0.9611 0.2762
vn 0.0286 -0.8469 -0.5310
vn -0.1728 -0.8609 0.4785
vn 0.3130 -0.6427 -0.6992
vn -0.3969 0.4190 0.8166
vn 0.0632 0.7377 -0.6722
vn -0.1373 0.9800 0.1439
vn -0.0740 0.8684 0.4903
vn 0.1890 -0.8474 -0.4961
vn -0.1613 -0.7746 0.6115
vn 0.0620 -0.8516 -0.5205
vn -0.0589 0.9876 0.1453
vn -0.2010 0.8096 0.5514
vn 0.1169 -0.9145 -0.3874
vn 0.0362 0.8791 0.4752
vn 0.1367 -0.8761 -0.4624
vn 0.0852 0.9737 0.2115
vn 0.0864 -0.9809 -0.1742
vn 0.1042 0.9946 0.0019
vn -0.0166 0.9524 0.3044
vn 0.0595 -0.9499 -0.3067
vn 0.0177 -0.9977 -0.0647
vn -0.1086 0.9283 0.3556
vn 0.0447 0.9612 0.2724
vn 0.0366 -0.9326 -0.3590
vn -0.0209 -0.9897 -0.1417
vn -0.8570 0.4854 -0.1727
vn -0.0009 0.9824 0.1865
vn -0.6762 0.7367 0.0050
vn -0.0816 0.9605 0.2660
vn -0.0782 0.9836 0.1628
vn 0.2704 0.3200 0.9080
vn -0.8357 0.3968 -0.3798
vn -0.1588 0.8787 0.4503
vn -0.6342 0.7659 0.1052
vn -0.0377 0.9838 0.1754
vn -0.0567 -0.9826 -0.1767
vn 0.0556 -0.8740 -0.4828
vn -0.0992 0.9238 0.3698
vn 0.0317 -0.9979 -0.0561
vn -0.0150 -0.9868 -0.1614
vn 0.0369 0.9421 -0.3333
vn -0.0219 0.9750 0.2213
vn 0.1609 0.9611 0.2244
vn 0.2372 0.8625 -0.4470
vn -0.0341 -0.9675 -0.2505
vn -0.0839 -0.9904 -0.1098
vn 0.9233 0.1418 0.3570
vn 0.3213 0.9382 0.1284
vn 0.1505 0.8104 0.5662
vn 0.4876 0.8121 -0.3207
vn -0.9712 0.2177 -0.0971
vn 0.1920 0.9665 0.1705
vn 0.3044 0.7524 0.5842
vn 0.9736 -0.0925 0.2088
vn 0.1517 0.9552 0.2541
vn -0.2847 -0.8053 0.5201
vn 0.3560 0.8482 0.3921
vn 0.2187 -0.8312 -0.5112
vn -0.0457 0.8223 0.5672
vn 0.0429 -0.8556 -0.5159
vn 0.0766 0.9680 0.2390
vn -0.0616 -0.9802 -0.1883
vt -0.717005 1.147941
vt -0.661547 1.147942
vt 1.450127 -0.070911
vt -0.717005 2.383491
vt -0.717005 2.366795
vt 0.269326 -0.070911
vt -0.772602 1.147941
vt -0.934631 -0.070911
vt -0.606090 1.147942
vt -0.772602 2.383491
vt 0.256987 -0.070911
vt -0.661547 2.366795
vt -0.828200 1.147941
vt -0.661547 2.366795
vt 1.450127 1.147942
vt -0.828200 2.383491
vt -0.717005 1.147942
vt 0.269326 1.147942
vt -0.772602 1.147941
vt -0.934631 1.147941
vt -0.606090 2.366795
vt 0.256987 1.147942
vt -0.772603 2.383491
vt -0.661547 1.147942
vt 1.356634 -0.037532
vt -0.824707 -0.037532
vt 0.116673 1.252805
vt -0.550492 1.147941
vt -0.771513 -0.037532
vt 1.187524 -0.037532
vt -0.654048 -0.037532
vt -0.550492 1.269737
vt 0.005479 1.374601
vt -0.611935 -0.037532
vt 1.029395 -0.037532
vt -0.494470 -0.037532
vt 0.005479 1.252805
vt -0.494895 1.147941
vt -0.463439 -0.037532
vt 0.882247 -0.037532
vt -0.345975 -0.037532
vt -0.494895 1.269737
vt -0.105715 1.374601
vt -0.314943 -0.037532
vt 0.735100 -0.037532
vt -0.197478 -0.037532
vt -0.105715 1.252805
vt -0.494895 1.374601
vt -0.166447 -0.037532
vt 0.587952 -0.037532
vt -0.048983 -0.037532
vt -0.494895 1.252806
vt -0.272507 1.374601
vt -0.013519 -0.037532
vt 0.436412 -0.037532
vt 0.103947 -0.037532
vt -0.272507 1.252806
vt 0.222575 1.147942
vt 0.140656 -0.037532
vt 0.222575 1.259183
vt 0.256987 1.087555
vt -0.661547 1.208327
vt 0.222575 1.268561
vt 0.256987 -0.037532
vt -0.661547 2.333415
vt -0.934631 -0.037532
vt -0.606090 1.181321
vt 0.116673 1.366781
vt 0.103947 1.087555
vt -0.383701 1.269737
vt 0.436412 1.087555
vt 0.268970 1.147941
vt 0.140656 1.087555
vt -0.197478 1.087555
vt -0.216910 1.269737
vt 0.735100 1.087555
vt -0.439298 1.147941
vt -0.166447 1.087555
vt -0.048983 1.087555
vt -0.439298 1.269737
vt 0.587952 1.087555
vt -0.383701 1.147941
vt -0.013519 1.087555
vt -0.824707 1.087555
vt 0.061076 1.261916
vt 1.356634 1.087555
vt -0.934631 1.087555
vt -0.606090 2.306408
vt 0.061076 1.147941
vt -0.272507 1.374601
vt -0.771513 1.087555
vt -0.272507 1.252805
vt 1.187524 1.087555
vt -0.654048 1.087555
vt -0.050118 1.147941
vt -0.611935 1.087555
vt -0.050118 1.269737
vt 1.029395 1.087555
vt -0.494470 1.087555
vt -0.105715 1.374601
vt -0.463439 1.087555
vt -0.105715 1.252805
vt 0.882247 1.087555
vt -0.345975 1.087555
vt -0.216910 1.147941
vt -0.314943 1.087555
vt -0.216910 1.147942
vt 0.320761 -0.037532
vt -0.328104 1.374600
vt 0.320761 1.087555
vt -0.383701 1.374601
vt 0.472301 1.087555
vt 0.101253 1.087555
vt -0.328104 1.252806
vt 0.437159 1.087555
vt -0.161312 1.147941
vt 0.766597 1.087555
vt -0.200171 1.087555
vt -0.161312 1.252805
vt 0.735847 1.087555
vt -0.161312 1.374601
vt 0.619449 1.087555
vt -0.051675 1.087555
vt -0.383701 1.252805
vt 0.588699 1.087555
vt 0.291349 1.147941
vt 1.421947 1.087555
vt 0.116673 1.244985
vt -0.934631 1.147941
vt 1.357382 1.087555
vt 0.116673 1.366781
vt 1.240984 1.087555
vt -0.656741 1.087555
vt -0.328104 1.269737
vt 1.188271 1.087555
vt -0.328104 1.147941
vt 1.071873 1.087555
vt -0.497163 1.087555
vt 0.005479 1.252805
vt 1.030142 1.087555
vt 0.005479 1.374601
vt 0.913744 1.087555
vt -0.348667 1.087555
vt -0.161312 1.269737
vt 0.882995 1.087555
vt 0.291347 1.173084
vt -0.661547 1.181321
vt 1.450127 -0.037532
vt 0.313370 1.192566
vt 1.421947 -0.037532
vt 0.172270 1.269737
vt -0.934631 2.273027
vt 1.357382 -0.037532
vt 0.172270 1.147941
vt 1.240984 -0.037532
vt -0.606090 1.252805
vt -0.656741 -0.037532
vt 1.188271 -0.037532
vt -0.606090 1.374600
vt 1.071873 -0.037532
vt 0.061076 1.269737
vt -0.497162 -0.037532
vt 1.030142 -0.037532
vt 0.061076 1.147941
vt 0.913744 -0.037532
vt -0.550492 1.252805
vt -0.348667 -0.037532
vt 0.882995 -0.037532
vt -0.550492 1.374601
vt 0.766597 -0.037532
vt -0.050118 1.269737
vt -0.200171 -0.037532
vt 0.735847 -0.037532
vt -0.050118 1.147941
vt 0.619449 -0.037532
vt -0.439298 1.269738
vt -0.051675 -0.037532
vt 0.588699 -0.037532
vt -0.439298 1.147942
vt 0.472301 -0.037532
vt -0.216910 1.269738
vt 0.101253 -0.037532
vt 0.437159 -0.037532
vt 0.269326 1.167422
vt -0.661547 2.306408
vt 1.450127 1.087555
vt 0.291349 1.192566
vt -0.628302 2.306408
vt 1.459378 1.087555
vt -0.609343 2.306408
vt 0.064337 1.147941
vt -0.828199 1.147941
vt 0.313370 1.147941
vt -0.628302 1.181321
vt 1.459378 -0.037532
vt -0.828199 2.273027
vt -0.609343 1.181321
vt 0.119935 1.366781
vt 0.172271 1.268561
vt -0.711726 2.333415
vt 0.269326 -0.037532
vt 0.268970 1.278727
vt 0.269326 1.087555
vt -0.711726 1.208327
vt 0.472301 0.525011
vt -0.013519 0.525012
vt 0.101253 0.525012
vt 0.437159 0.525011
vt 0.587952 0.525011
vt -0.048983 0.525012
vt -0.013519 0.806284
vt -0.048983 0.806284
vt 0.587952 0.806284
vt 0.472301 0.806284
vt 0.101253 0.806284
vt 0.437159 0.806284
vt 0.735100 0.525011
vt -0.197478 0.525011
vt -0.166447 0.525012
vt 0.619449 0.525011
vt -0.051675 0.525012
vt 0.588699 0.525011
vt 0.735100 0.806284
vt -0.197478 0.806284
vt -0.166447 0.806284
vt 0.619449 0.806284
vt -0.051675 0.806284
vt 0.588699 0.806284
vt 0.882247 0.525011
vt -0.345975 0.525011
vt -0.200171 0.525011
vt 0.735847 0.525011
vt 0.766597 0.525011
vt -0.314943 0.525011
vt 1.029395 0.525011
vt -0.494470 0.525011
vt 0.913744 0.525011
vt -0.463439 0.525011
vt 0.882995 0.525011
vt -0.348667 0.525011
vt 1.187524 0.525011
vt -0.654048 0.525011
vt 1.071873 0.525011
vt -0.611935 0.525011
vt -0.497162 0.525011
vt 1.030142 0.525011
vt -0.345975 0.806284
vt 0.882247 0.806284
vt -0.314943 0.806284
vt 0.735847 0.806284
vt -0.200171 0.806284
vt 0.766597 0.806284
vt -0.494470 0.806284
vt 1.029395 0.806284
vt -0.463439 0.806284
vt 0.913744 0.806284
vt -0.348667 0.806284
vt 0.882995 0.806284
vt 0.913744 0.243740
vt -0.348667 0.243740
vt 0.882995 0.243740
vt 1.029395 0.243740
vt -0.494470 0.243740
vt -0.463439 0.243740
vt 0.619449 0.243740
vt 0.588699 0.243740
vt -0.051675 0.243740
vt -0.197478 0.243740
vt 0.735100 0.243740
vt -0.166447 0.243740
vt -0.200171 0.243740
vt 0.735847 0.243740
vt 0.766597 0.243740
vt 0.882247 0.243740
vt -0.345975 0.243740
vt -0.314943 0.243740
s 0
f 2/4/1 3/7/1 1/1/1
f 26/69/2 22/59/2 27/73/2
f 32/84/3 9/26/3 34/91/3
f 92/225/4 28/74/4 91/224/4
f 19/51/5 80/206/5 82/210/5
f 125/275/6 16/44/6 126/276/6
f 117/263/7 14/39/7 118/264/7
f 103/242/8 12/34/8 105/244/8
f 8/23/9 5/13/9 7/19/9
f 85/214/10 44/115/10 86/216/10
f 123/272/11 66/170/11 124/273/11
f 75/194/12 3/9/12 76/197/12
f 78/204/13 77/200/13 2/5/13
f 21/57/14 71/181/14 20/53/14
f 26/70/15 44/114/15 42/109/15
f 80/206/16 71/182/16 81/207/16
f 26/71/17 41/108/17 21/55/17
f 19/52/18 69/176/18 18/48/18
f 30/80/19 48/124/19 43/111/19
f 122/270/20 69/177/20 120/267/20
f 30/81/21 85/214/21 84/213/21
f 17/47/22 67/171/22 16/43/22
f 28/75/23 46/119/23 47/121/23
f 126/276/24 67/172/24 123/271/24
f 28/76/25 93/226/25 91/223/25
f 15/42/26 65/166/26 14/38/26
f 39/102/23 56/144/23 45/116/23
f 118/264/27 65/167/27 116/260/27
f 39/103/28 110/252/28 107/248/28
f 13/37/29 63/161/29 12/33/29
f 37/97/30 54/139/30 55/141/30
f 105/244/31 63/162/31 106/245/31
f 37/98/32 113/256/32 111/254/32
f 11/32/29 61/156/29 10/28/29
f 35/92/23 52/134/23 53/136/23
f 34/91/33 61/157/33 52/133/33
f 35/93/34 104/243/34 103/241/34
f 9/27/29 59/151/29 76/198/29
f 50/128/23 51/131/23 32/85/23
f 59/152/35 74/192/35 76/196/35
f 32/86/36 60/155/36 9/25/36
f 77/199/37 22/58/37 24/63/37
f 23/60/38 27/72/38 78/202/38
f 27/73/39 77/201/39 78/203/39
f 75/193/29 58/149/29 57/146/29
f 49/126/23 73/187/23 72/184/23
f 58/150/40 73/189/40 49/127/40
f 82/209/41 70/180/41 19/50/41
f 83/211/42 81/207/42 86/215/42
f 93/226/43 48/125/43 94/228/43
f 82/210/44 83/211/44 84/212/44
f 84/212/45 31/83/45 30/79/45
f 31/83/46 86/215/46 44/113/46
f 84/213/47 79/205/47 82/209/47
f 79/205/48 86/216/48 81/208/48
f 113/256/49 56/145/49 114/258/49
f 87/217/50 119/265/50 121/269/50
f 92/225/51 90/221/51 94/227/51
f 122/270/52 87/218/52 121/268/52
f 29/78/53 94/227/53 48/123/53
f 89/220/54 94/228/54 90/222/54
f 91/223/55 89/220/55 87/217/55
f 88/219/56 91/224/56 87/218/56
f 95/229/57 124/273/57 125/274/57
f 108/249/58 96/231/58 109/251/58
f 106/246/59 62/160/59 104/243/59
f 107/247/60 98/234/60 108/249/60
f 115/259/61 102/239/61 116/261/61
f 99/235/62 115/259/62 117/262/62
f 112/255/63 102/240/63 114/257/63
f 111/253/64 101/238/64 112/255/64
f 109/250/65 97/233/65 110/252/65
f 103/241/66 62/160/66 11/30/66
f 36/96/67 106/245/67 54/138/67
f 35/94/68 105/244/68 36/96/68
f 6/18/69 43/112/69 48/125/69
f 39/104/70 108/249/70 40/106/70
f 40/106/71 109/251/71 46/118/71
f 107/248/72 97/233/72 95/229/72
f 37/99/73 112/255/73 38/101/73
f 38/101/74 114/257/74 56/143/74
f 100/237/75 114/258/75 102/239/75
f 111/254/76 100/237/76 99/235/76
f 117/262/77 64/165/77 13/35/77
f 119/265/78 90/222/78 120/266/78
f 101/238/79 116/260/79 102/240/79
f 99/236/80 118/264/80 101/238/80
f 1/3/81 64/165/81 65/168/81
f 18/49/82 121/268/82 17/46/82
f 121/269/83 68/175/83 17/45/83
f 88/219/84 120/267/84 90/221/84
f 125/274/85 66/170/85 15/40/85
f 98/234/86 123/271/86 96/231/86
f 96/232/87 124/273/87 97/233/87
f 95/230/88 126/276/88 98/234/88
f 2/4/89 4/10/89 3/7/89
f 26/69/2 21/56/2 22/59/2
f 25/66/3 3/8/3 9/26/3
f 3/8/90 4/11/90 15/41/90
f 9/26/3 3/8/3 10/29/3
f 4/11/91 24/64/91 22/59/91
f 21/56/92 20/54/92 4/11/92
f 20/54/93 19/51/93 4/11/93
f 4/11/91 22/59/91 21/56/91
f 10/29/3 3/8/3 11/31/3
f 7/20/3 33/87/3 32/84/3
f 18/49/94 17/46/94 4/11/94
f 17/46/95 16/44/95 4/11/95
f 4/11/94 19/51/94 18/49/94
f 8/22/96 7/20/96 39/104/96
f 7/20/3 32/84/3 34/91/3
f 27/73/97 23/61/97 8/22/97
f 30/79/98 31/83/98 8/22/98
f 31/83/99 26/69/99 8/22/99
f 26/69/91 27/73/91 8/22/91
f 15/41/100 14/39/100 3/8/100
f 14/39/3 13/36/3 3/8/3
f 4/11/101 16/44/101 15/41/101
f 40/106/102 28/74/102 8/22/102
f 28/74/102 29/78/102 8/22/102
f 29/78/103 30/79/103 8/22/103
f 12/34/3 11/31/3 3/8/3
f 12/34/3 3/8/3 13/36/3
f 37/99/104 38/101/104 7/20/104
f 38/101/3 39/104/3 7/20/3
f 39/104/102 40/106/102 8/22/102
f 34/91/3 35/94/3 7/20/3
f 35/94/3 36/96/3 7/20/3
f 7/20/105 36/96/105 37/99/105
f 9/26/3 10/29/3 34/91/3
f 92/225/106 29/78/106 28/74/106
f 19/51/107 20/54/107 80/206/107
f 125/275/108 15/41/108 16/44/108
f 117/263/109 13/36/109 14/39/109
f 103/242/110 11/31/110 12/34/110
f 8/23/111 6/16/111 5/13/111
f 85/214/112 43/112/112 44/115/112
f 123/272/113 67/173/113 66/170/113
f 74/190/12 33/88/12 7/21/12
f 7/21/12 5/14/12 73/188/12
f 5/14/12 72/185/12 73/188/12
f 74/190/12 7/21/12 73/188/12
f 75/194/12 57/147/12 1/2/12
f 74/190/12 73/188/12 75/194/12
f 3/9/12 25/67/12 76/197/12
f 76/197/12 74/190/12 75/194/12
f 75/194/12 1/2/12 3/9/12
f 24/65/114 4/12/114 77/200/114
f 4/12/115 2/5/115 77/200/115
f 6/17/116 8/24/116 78/204/116
f 8/24/117 23/62/117 78/204/117
f 6/17/13 78/204/13 2/5/13
f 21/57/37 41/107/37 71/181/37
f 26/70/118 31/82/118 44/114/118
f 80/206/119 20/54/119 71/182/119
f 26/71/120 42/110/120 41/108/120
f 19/52/18 70/179/18 69/176/18
f 30/80/121 29/77/121 48/124/121
f 122/270/122 18/49/122 69/177/122
f 30/81/123 43/112/123 85/214/123
f 17/47/124 68/174/124 67/171/124
f 28/75/23 40/105/23 46/119/23
f 126/276/125 16/44/125 67/172/125
f 28/76/126 47/122/126 93/226/126
f 15/42/37 66/169/37 65/166/37
f 39/102/23 38/100/23 56/144/23
f 118/264/127 14/39/127 65/167/127
f 39/103/128 45/117/128 110/252/128
f 13/37/29 64/164/29 63/161/29
f 37/97/129 36/95/129 54/139/129
f 105/244/130 12/34/130 63/162/130
f 37/98/131 55/142/131 113/256/131
f 11/32/29 62/159/29 61/156/29
f 35/92/23 34/90/23 52/134/23
f 34/91/33 10/29/33 61/157/33
f 35/93/132 53/137/132 104/243/132
f 76/198/29 25/68/29 9/27/29
f 9/27/29 60/154/29 59/151/29
f 33/89/23 74/191/23 32/85/23
f 74/191/23 50/128/23 32/85/23
f 59/152/35 50/129/35 74/192/35
f 32/86/36 51/132/36 60/155/36
f 27/73/133 22/59/133 77/201/133
f 58/150/40 75/195/40 73/189/40
f 82/209/134 79/205/134 70/180/134
f 83/211/135 80/206/135 81/207/135
f 93/226/136 47/122/136 48/125/136
f 82/210/137 80/206/137 83/211/137
f 84/212/138 83/211/138 31/83/138
f 31/83/139 83/211/139 86/215/139
f 84/213/140 85/214/140 79/205/140
f 79/205/141 85/214/141 86/216/141
f 113/256/142 55/142/142 56/145/142
f 87/217/143 89/220/143 119/265/143
f 92/225/144 88/219/144 90/221/144
f 122/270/145 88/219/145 87/218/145
f 29/78/146 92/225/146 94/227/146
f 89/220/147 93/226/147 94/228/147
f 91/223/148 93/226/148 89/220/148
f 88/219/149 92/225/149 91/224/149
f 95/229/150 97/233/150 124/273/150
f 108/249/151 98/234/151 96/231/151
f 106/246/152 63/163/152 62/160/152
f 107/247/153 95/230/153 98/234/153
f 115/259/154 100/237/154 102/239/154
f 99/235/155 100/237/155 115/259/155
f 112/255/156 101/238/156 102/240/156
f 111/253/157 99/236/157 101/238/157
f 109/250/158 96/232/158 97/233/158
f 103/241/159 104/243/159 62/160/159
f 36/96/160 105/244/160 106/245/160
f 35/94/161 103/242/161 105/244/161
f 45/117/162 56/145/162 6/18/162
f 56/145/163 55/142/163 5/15/163
f 6/18/164 56/145/164 5/15/164
f 54/140/165 106/246/165 104/243/165
f 55/142/163 54/140/163 5/15/163
f 54/140/166 104/243/166 53/137/166
f 52/135/163 61/158/163 60/155/163
f 54/140/163 53/137/163 5/15/163
f 52/135/163 60/155/163 51/132/163
f 53/137/163 52/135/163 5/15/163
f 51/132/163 50/130/163 5/15/163
f 50/130/163 49/127/163 5/15/163
f 51/132/163 5/15/163 52/135/163
f 49/127/163 72/186/163 5/15/163
f 6/18/69 2/6/69 42/110/69
f 2/6/69 41/108/69 42/110/69
f 42/110/167 44/115/167 6/18/167
f 44/115/168 43/112/168 6/18/168
f 109/250/169 110/252/169 45/117/169
f 48/125/170 47/122/170 6/18/170
f 47/122/162 46/120/162 6/18/162
f 46/120/171 109/250/171 45/117/171
f 46/120/162 45/117/162 6/18/162
f 39/104/172 107/247/172 108/249/172
f 40/106/173 108/249/173 109/251/173
f 107/248/174 110/252/174 97/233/174
f 37/99/175 111/253/175 112/255/175
f 38/101/176 112/255/176 114/257/176
f 100/237/177 113/256/177 114/258/177
f 111/254/178 113/256/178 100/237/178
f 117/262/179 115/259/179 64/165/179
f 119/265/180 89/220/180 90/222/180
f 101/238/181 118/264/181 116/260/181
f 99/236/182 117/263/182 118/264/182
f 41/108/69 2/6/69 71/183/69
f 2/6/183 1/3/183 65/168/183
f 71/183/69 2/6/69 70/180/69
f 1/3/163 57/148/163 58/150/163
f 58/150/163 49/127/163 50/130/163
f 59/153/163 60/155/163 1/3/163
f 60/155/163 61/158/163 1/3/163
f 58/150/163 50/130/163 59/153/163
f 70/180/69 2/6/69 69/178/69
f 79/205/184 81/208/184 71/183/184
f 70/180/185 79/205/185 71/183/185
f 1/3/163 58/150/163 59/153/163
f 61/158/163 62/160/163 1/3/163
f 62/160/163 63/163/163 1/3/163
f 69/178/69 2/6/69 68/175/69
f 119/265/186 120/266/186 69/178/186
f 68/175/187 2/6/187 67/173/187
f 64/165/188 115/259/188 116/261/188
f 1/3/163 63/163/163 64/165/163
f 68/175/189 119/265/189 69/178/189
f 65/168/69 66/170/69 2/6/69
f 66/170/190 67/173/190 2/6/190
f 64/165/191 116/261/191 65/168/191
f 18/49/192 122/270/192 121/268/192
f 121/269/193 119/265/193 68/175/193
f 88/219/194 122/270/194 120/267/194
f 125/274/195 124/273/195 66/170/195
f 98/234/196 126/276/196 123/271/196
f 96/232/197 123/272/197 124/273/197
f 95/230/198 125/275/198 126/276/198
