# Blender 3.3.1
# www.blender.org
o Vent_Grate.003
v 0.720050 0.130268 -7.998586
v 0.114906 0.055509 -7.744013
v 0.722688 0.159778 -7.997988
v 0.106722 0.083913 -7.741923
v 0.972180 0.095694 -7.404392
v 0.360975 0.082474 -7.146893
v 0.974818 0.125203 -7.403795
v 0.339925 0.150152 -7.141663
v 0.674056 0.163312 -7.957889
v 0.647181 0.165481 -7.946359
v 0.587835 0.170270 -7.920898
v 0.566559 0.171986 -7.911771
v 0.507212 0.176775 -7.886310
v 0.491535 0.178040 -7.879584
v 0.406798 0.178377 -7.850685
v 0.391701 0.173554 -7.844246
v 0.321690 0.194568 -7.816732
v 0.306594 0.189745 -7.810294
v 0.249447 0.171486 -7.785920
v 0.207872 0.144191 -7.755290
v 0.187914 0.108441 -7.757327
v 0.170055 0.102734 -7.749709
v 0.340599 0.109542 -7.174386
v 0.113460 0.084652 -7.725571
v 0.729593 0.158831 -7.981715
v 0.402188 0.172605 -7.203002
v 0.384328 0.166898 -7.195385
v 0.589898 0.156968 -7.273454
v 0.574221 0.158233 -7.266728
v 0.489452 0.157103 -7.237875
v 0.472199 0.151590 -7.230515
v 0.906790 0.131398 -7.409407
v 0.962326 0.126916 -7.433233
v 0.879915 0.133566 -7.397877
v 0.820569 0.138355 -7.372416
v 0.799292 0.140072 -7.363288
v 0.736121 0.132315 -7.325951
v 0.724269 0.146125 -7.331101
v 0.664922 0.150914 -7.305641
v 0.649245 0.152179 -7.298915
v 0.146896 0.064316 -7.738431
v 0.374035 0.089207 -7.187246
v 0.448434 0.112978 -7.218979
v 0.418316 0.146739 -7.208480
v 0.611188 0.125527 -7.284317
v 0.595511 0.126792 -7.277592
v 0.536165 0.131581 -7.252131
v 0.505580 0.131237 -7.243353
v 0.945322 0.098566 -7.427667
v 0.912403 0.101222 -7.413544
v 0.853056 0.106011 -7.388083
v 0.826181 0.108179 -7.376554
v 0.766835 0.112968 -7.351093
v 0.745559 0.114685 -7.341965
v 0.686212 0.119473 -7.316504
v 0.670535 0.120738 -7.309778
v 0.726955 0.129322 -7.982313
v 0.712588 0.130481 -7.976150
v 0.679669 0.133137 -7.962027
v 0.620323 0.137926 -7.936566
v 0.593448 0.140094 -7.925036
v 0.534101 0.144883 -7.899575
v 0.512825 0.146600 -7.890448
v 0.453479 0.151388 -7.864987
v 0.422926 0.152512 -7.856164
v 0.365780 0.134253 -7.831789
v 0.337818 0.168703 -7.822211
v 0.293538 0.111170 -7.800977
v 0.278441 0.106346 -7.794538
v 0.221295 0.088087 -7.770164
v 0.204042 0.082575 -7.762805
v 0.959689 0.097407 -7.433831
v 0.961270 0.115097 -7.433472
v 0.962172 0.125185 -7.433268
v 0.728536 0.147012 -7.981955
v 0.729438 0.157100 -7.981750
v 0.120865 0.058951 -7.727462
v 0.348004 0.083842 -7.176277
v 0.327802 0.150486 -7.513270
v 0.306614 0.163673 -7.529117
v 0.290915 0.157641 -7.502967
v 0.348391 0.176574 -7.539532
v 0.401489 0.176091 -7.364954
v 0.430426 0.145361 -7.374464
v 0.392163 0.090346 -7.354214
v 0.360272 0.142954 -7.345638
v 0.419791 0.165200 -7.566583
v 0.430912 0.169181 -7.518633
v 0.399193 0.155243 -7.527159
v 0.398055 0.160722 -7.515995
v 0.530241 0.162679 -7.409506
v 0.520309 0.160128 -7.400505
v 0.466084 0.135334 -7.382928
v 0.447119 0.137639 -7.378781
v 0.555140 0.171849 -7.582750
v 0.488361 0.157375 -7.555728
v 0.500414 0.159229 -7.561991
v 0.543726 0.172706 -7.578881
v 0.645527 0.161384 -7.619874
v 0.613086 0.160125 -7.614216
v 0.625318 0.165615 -7.613967
v 0.601807 0.164133 -7.605195
v 0.723448 0.149412 -7.654820
v 0.703610 0.149387 -7.651682
v 0.700407 0.152551 -7.642149
v 0.669226 0.151997 -7.670490
v 0.602538 0.151567 -7.439613
v 0.587678 0.153200 -7.432967
v 0.539649 0.140243 -7.413426
v 0.555051 0.144319 -7.419407
v 0.683483 0.149466 -7.465329
v 0.668621 0.152632 -7.459738
v 0.639657 0.153001 -7.489229
v 0.637081 0.156227 -7.473651
v 0.541291 0.164595 -7.749914
v 0.531755 0.166523 -7.743354
v 0.572952 0.162829 -7.755845
v 0.555899 0.165993 -7.749431
v 0.327212 0.158433 -7.679211
v 0.305133 0.180854 -7.668863
v 0.387017 0.164284 -7.696673
v 0.357958 0.199991 -7.687882
v 0.417979 0.151804 -7.701422
v 0.444551 0.149405 -7.734490
v 0.508042 0.169616 -7.726471
v 0.486420 0.171712 -7.717914
vn -0.3928 0.0537 -0.9180
vn -0.3019 0.9533 0.0063
vn 0.0890 0.9958 0.0202
vn -0.1538 0.9821 0.1087
vn -0.2733 0.9577 0.0900
vn 0.0789 0.9959 -0.0446
vn 0.1827 0.9832 0.0007
vn 0.1369 0.9906 0.0035
vn 0.3793 -0.0526 0.9238
vn -0.7772 -0.5272 0.3435
vn 0.0512 -0.9923 0.1131
vn 0.9165 -0.0740 -0.3932
vn -0.8825 -0.2820 0.3764
vn 0.1288 -0.1280 0.9834
vn -0.3844 -0.0444 -0.9221
vn -0.4839 0.8705 -0.0897
vn 0.6805 -0.7101 -0.1809
vn 0.3793 0.0466 0.9241
vn -0.3807 -0.0417 -0.9238
vn -0.4344 0.8122 -0.3893
vn 0.7420 -0.6146 -0.2678
vn 0.3753 0.0379 0.9261
vn -0.3901 0.0535 -0.9192
vn -0.2084 0.9401 0.2698
vn 0.3216 -0.9296 -0.1801
vn 0.3228 0.0008 0.9465
vn -0.0074 0.9932 -0.1162
vn 0.1244 -0.9902 -0.0628
vn 0.3901 -0.0535 0.9192
vn -0.2902 0.5536 -0.7806
vn 0.0128 0.9994 -0.0336
vn -0.0170 -0.9931 -0.1158
vn -0.3515 0.9140 0.2024
vn -0.0046 -0.9993 -0.0375
vn -0.3576 0.9112 0.2047
vn 0.3515 -0.9140 -0.2024
vn 0.3807 0.0417 0.9238
vn -0.3857 -0.0433 -0.9216
vn -0.8368 0.4407 0.3249
vn 0.6283 -0.7143 -0.3082
vn 0.8690 -0.3579 -0.3416
vn -0.5086 0.8072 0.2996
vn -0.1196 -0.9928 0.0047
vn 0.6801 0.7039 -0.2049
vn -0.2877 0.9568 0.0421
vn -0.0860 0.9963 0.0089
vn 0.4895 -0.7796 -0.3907
vn -0.1923 -0.9813 -0.0069
vn -0.7535 -0.6573 0.0115
vn 0.0926 -0.9956 -0.0163
vn -0.2201 0.9460 0.2378
vn 0.7379 0.6474 -0.1905
vn -0.3075 0.9350 0.1769
vn -0.8048 -0.5612 0.1934
vn 0.1874 -0.9712 -0.1474
vn 0.2041 0.9706 -0.1279
vn 0.3122 -0.9460 -0.0876
vn -0.1859 0.9653 0.1832
vn -0.1351 -0.9847 0.1102
vn 0.1473 0.9852 0.0873
vn -0.1565 -0.9857 0.0623
vn -0.0525 -0.9985 0.0174
vn 0.0987 0.9946 0.0333
vn 0.2161 0.9761 0.0215
vn 0.1885 -0.9667 -0.1733
vn 0.3344 -0.9109 -0.2418
vn -0.3580 0.9148 0.1871
vn 0.0864 0.9962 0.0140
vn 0.2762 -0.9585 -0.0705
vn 0.0699 0.9972 -0.0245
vn -0.3396 0.9120 0.2300
vn 0.1524 -0.9703 -0.1880
vn 0.7757 0.5510 -0.3077
vn -0.3248 0.9085 0.2630
vn -0.3151 -0.9487 0.0275
vn 0.0242 -0.9963 -0.0828
vn 0.3256 -0.9087 -0.2612
vn -0.6171 -0.7361 0.2782
vn -0.0475 0.9980 0.0414
vn 0.1791 0.9798 -0.0891
vn 0.0206 -0.9804 0.1960
vn -0.1605 0.9328 0.3226
vn 0.7784 -0.3599 -0.5143
vn -0.2213 0.9403 0.2584
vn 0.5298 -0.6985 -0.4811
vn -0.2361 0.9687 0.0770
vn 0.1551 -0.9879 0.0060
vn 0.0636 0.9974 -0.0334
vn -0.3792 -0.0412 -0.9244
vn -0.3977 0.2457 -0.8840
vn -0.2762 0.9585 0.0705
vn 0.2373 -0.1868 0.9533
vn -0.5016 0.8608 0.0863
vn -0.4578 0.3317 -0.8248
vn -0.3518 0.0516 -0.9346
vn 0.2023 0.8917 0.4050
vn -0.7644 0.3968 -0.5081
vn -0.4702 0.5490 -0.6910
vn 0.4422 0.5986 0.6679
vn -0.1321 0.9079 -0.3979
vn 0.3484 0.6308 0.6934
vn 0.0238 0.9938 0.1087
vn -0.2763 -0.5349 -0.7984
vn 0.1853 0.8516 0.4904
vn 0.0738 0.9972 -0.0156
vn -0.4742 0.8705 0.1320
vn -0.2042 0.9507 0.2335
vn 0.1033 0.9932 0.0541
vn 0.0934 0.9952 0.0304
vn 0.3869 0.0492 0.9208
vn -0.6303 -0.6792 0.3759
vn -0.6742 -0.6465 0.3570
vn -0.8773 -0.3017 0.3732
vn -0.8991 -0.2836 0.3334
vn -0.3753 -0.0379 -0.9261
vn -0.9167 0.0082 0.3995
vn 0.8689 -0.3579 -0.3419
vn -0.3222 -0.0004 -0.9467
vn -0.8714 0.3576 0.3357
vn 0.6856 -0.7087 -0.1667
vn 0.3844 0.0444 0.9221
vn -0.0641 0.9960 0.0626
vn 0.3473 -0.9134 -0.2123
vn -0.2727 0.9362 0.2215
vn 0.3255 -0.9086 -0.2616
vn -0.4993 0.4207 -0.7574
vn -0.3381 0.9117 0.2335
vn 0.1995 -0.9505 -0.2383
vn 0.3583 -0.9148 -0.1862
vn -0.6187 0.7712 0.1499
vn 0.7121 -0.6904 -0.1275
vn -0.2509 0.9653 0.0720
vn 0.0026 -0.9995 -0.0301
vn -0.2743 0.9578 0.0861
vn 0.6734 0.7040 -0.2259
vn -0.4604 0.7986 0.3877
vn 0.6245 -0.6127 -0.4844
vn -0.8368 -0.5298 0.1383
vn -0.1437 -0.9780 -0.1511
vn 0.2247 -0.9662 -0.1266
vn -0.2237 0.9442 0.2417
vn 0.7783 0.5846 -0.2291
vn -0.2594 0.9585 0.1181
vn -0.1361 -0.9880 -0.0733
vn 0.2856 -0.9225 -0.2598
vn -0.1091 0.9814 0.1578
vn 0.2191 -0.9756 -0.0154
vn -0.1893 0.9642 0.1859
vn -0.0536 -0.9966 0.0626
vn 0.1095 0.9886 0.1038
vn -0.2576 -0.9606 0.1047
vn 0.0302 -0.9983 -0.0489
vn -0.0285 0.9954 0.0918
vn 0.2114 0.9771 0.0234
vn 0.0759 -0.9864 -0.1461
vn 0.0038 -0.9999 0.0156
vn -0.0857 0.9935 0.0748
vn 0.1315 0.9913 -0.0064
vn -0.3889 -0.3957 -0.8320
vn -0.0890 -0.9958 -0.0202
vn -0.2680 -0.6907 -0.6716
vn -0.0157 -0.9939 -0.1092
vn -0.1203 -0.9882 -0.0944
vn 0.8102 -0.5614 0.1686
vn -0.5605 -0.2550 -0.7879
vn 0.1746 -0.9627 -0.2065
vn -0.1756 -0.7472 -0.6409
vn -0.1040 -0.9930 -0.0556
vn 0.0923 0.9950 -0.0381
vn -0.2179 0.9700 0.1075
vn 0.0917 -0.9861 -0.1383
vn 0.2213 0.9745 0.0363
vn 0.1125 0.9936 0.0016
vn -0.5711 -0.8175 0.0748
vn -0.0559 -0.9974 -0.0450
vn -0.0297 -0.9902 0.1363
vn -0.6367 -0.7159 0.2864
vn 0.0201 0.9998 -0.0075
vn 0.1555 0.9852 -0.0725
vn 0.4015 -0.2596 0.8783
vn -0.0981 -0.9469 0.3063
vn 0.3370 -0.9374 0.0880
vn -0.4755 -0.7087 0.5212
vn -0.2559 -0.1552 -0.9542
vn -0.0793 -0.9817 0.1732
vn 0.3865 -0.8908 0.2389
vn 0.3290 0.0045 0.9443
vn -0.0007 -0.9923 0.1239
vn 0.6860 0.6424 -0.3416
vn 0.1822 -0.9326 0.3116
vn -0.2394 0.9318 0.2728
vn 0.3138 -0.9434 -0.1072
vn -0.2560 0.9616 0.0986
vn -0.0266 -0.9983 0.0510
vn 0.0800 0.9959 -0.0417
vt -0.717005 1.147941
vt -0.661547 1.147942
vt 1.450127 -0.070911
vt -0.717005 2.383491
vt -0.717005 2.366795
vt 0.269326 -0.070911
vt -0.772602 1.147941
vt -0.934631 -0.070911
vt -0.606090 1.147942
vt -0.772602 2.383491
vt 0.256987 -0.070911
vt -0.661547 2.366795
vt -0.828200 1.147941
vt -0.661547 2.366795
vt 1.450127 1.147942
vt -0.828200 2.383491
vt -0.717005 1.147942
vt 0.269326 1.147942
vt -0.772602 1.147941
vt -0.934631 1.147941
vt -0.606090 2.366795
vt 0.256987 1.147942
vt -0.772603 2.383491
vt -0.661547 1.147942
vt 1.356634 -0.037532
vt -0.824707 -0.037532
vt 0.116673 1.252805
vt -0.550492 1.147941
vt -0.771513 -0.037532
vt 1.187524 -0.037532
vt -0.654048 -0.037532
vt -0.550492 1.269737
vt 0.005479 1.374601
vt -0.611935 -0.037532
vt 1.029395 -0.037532
vt -0.494470 -0.037532
vt 0.005479 1.252805
vt -0.494895 1.147941
vt -0.463439 -0.037532
vt 0.882247 -0.037532
vt -0.345975 -0.037532
vt -0.494895 1.269737
vt -0.105715 1.374601
vt -0.314943 -0.037532
vt 0.735100 -0.037532
vt -0.197478 -0.037532
vt -0.105715 1.252805
vt -0.494895 1.374601
vt -0.166447 -0.037532
vt 0.587952 -0.037532
vt -0.048983 -0.037532
vt -0.494895 1.252806
vt -0.272507 1.374601
vt -0.013519 -0.037532
vt 0.436412 -0.037532
vt 0.103947 -0.037532
vt -0.272507 1.252806
vt 0.222575 1.147942
vt 0.140656 -0.037532
vt 0.222575 1.259183
vt 0.256987 1.087555
vt -0.661547 1.208327
vt 0.222575 1.268561
vt 0.256987 -0.037532
vt -0.661547 2.333415
vt -0.934631 -0.037532
vt -0.606090 1.181321
vt 0.116673 1.366781
vt 0.103947 1.087555
vt -0.383701 1.269737
vt 0.436412 1.087555
vt 0.268970 1.147941
vt 0.140656 1.087555
vt -0.197478 1.087555
vt -0.216910 1.269737
vt 0.735100 1.087555
vt -0.439298 1.147941
vt -0.166447 1.087555
vt -0.048983 1.087555
vt -0.439298 1.269737
vt 0.587952 1.087555
vt -0.383701 1.147941
vt -0.013519 1.087555
vt -0.824707 1.087555
vt 0.061076 1.261916
vt 1.356634 1.087555
vt -0.934631 1.087555
vt -0.606090 2.306408
vt 0.061076 1.147941
vt -0.272507 1.374601
vt -0.771513 1.087555
vt -0.272507 1.252805
vt 1.187524 1.087555
vt -0.654048 1.087555
vt -0.050118 1.147941
vt -0.611935 1.087555
vt -0.050118 1.269737
vt 1.029395 1.087555
vt -0.494470 1.087555
vt -0.105715 1.374601
vt -0.463439 1.087555
vt -0.105715 1.252805
vt 0.882247 1.087555
vt -0.345975 1.087555
vt -0.216910 1.147941
vt -0.314943 1.087555
vt -0.216910 1.147942
vt 0.320761 -0.037532
vt -0.328104 1.374600
vt 0.320761 1.087555
vt -0.383701 1.374601
vt 0.472301 1.087555
vt 0.101253 1.087555
vt -0.328104 1.252806
vt 0.437159 1.087555
vt -0.161312 1.147941
vt 0.766597 1.087555
vt -0.200171 1.087555
vt -0.161312 1.252805
vt 0.735847 1.087555
vt -0.161312 1.374601
vt 0.619449 1.087555
vt -0.051675 1.087555
vt -0.383701 1.252805
vt 0.588699 1.087555
vt 0.291349 1.147941
vt 1.421947 1.087555
vt 0.116673 1.244985
vt -0.934631 1.147941
vt 1.357382 1.087555
vt 0.116673 1.366781
vt 1.240984 1.087555
vt -0.656741 1.087555
vt -0.328104 1.269737
vt 1.188271 1.087555
vt -0.328104 1.147941
vt 1.071873 1.087555
vt -0.497163 1.087555
vt 0.005479 1.252805
vt 1.030142 1.087555
vt 0.005479 1.374601
vt 0.913744 1.087555
vt -0.348667 1.087555
vt -0.161312 1.269737
vt 0.882995 1.087555
vt 0.291347 1.173084
vt -0.661547 1.181321
vt 1.450127 -0.037532
vt 0.313370 1.192566
vt 1.421947 -0.037532
vt 0.172270 1.269737
vt -0.934631 2.273027
vt 1.357382 -0.037532
vt 0.172270 1.147941
vt 1.240984 -0.037532
vt -0.606090 1.252805
vt -0.656741 -0.037532
vt 1.188271 -0.037532
vt -0.606090 1.374600
vt 1.071873 -0.037532
vt 0.061076 1.269737
vt -0.497162 -0.037532
vt 1.030142 -0.037532
vt 0.061076 1.147941
vt 0.913744 -0.037532
vt -0.550492 1.252805
vt -0.348667 -0.037532
vt 0.882995 -0.037532
vt -0.550492 1.374601
vt 0.766597 -0.037532
vt -0.050118 1.269737
vt -0.200171 -0.037532
vt 0.735847 -0.037532
vt -0.050118 1.147941
vt 0.619449 -0.037532
vt -0.439298 1.269738
vt -0.051675 -0.037532
vt 0.588699 -0.037532
vt -0.439298 1.147942
vt 0.472301 -0.037532
vt -0.216910 1.269738
vt 0.101253 -0.037532
vt 0.437159 -0.037532
vt 0.269326 1.167422
vt -0.661547 2.306408
vt 1.450127 1.087555
vt 0.291349 1.192566
vt -0.628302 2.306408
vt 1.459378 1.087555
vt -0.609343 2.306408
vt 0.064337 1.147941
vt -0.828199 1.147941
vt 0.313370 1.147941
vt -0.628302 1.181321
vt 1.459378 -0.037532
vt -0.828199 2.273027
vt -0.609343 1.181321
vt 0.119935 1.366781
vt 0.172271 1.268561
vt -0.711726 2.333415
vt 0.269326 -0.037532
vt 0.268970 1.278727
vt 0.269326 1.087555
vt -0.711726 1.208327
vt 0.472301 0.525011
vt -0.013519 0.525012
vt 0.101253 0.525012
vt 0.437159 0.525011
vt 0.587952 0.525011
vt -0.048983 0.525012
vt -0.013519 0.806284
vt -0.048983 0.806284
vt 0.587952 0.806284
vt 0.472301 0.806284
vt 0.101253 0.806284
vt 0.437159 0.806284
vt 0.735100 0.525011
vt -0.197478 0.525011
vt -0.166447 0.525012
vt 0.619449 0.525011
vt -0.051675 0.525012
vt 0.588699 0.525011
vt 0.735100 0.806284
vt -0.197478 0.806284
vt -0.166447 0.806284
vt 0.619449 0.806284
vt -0.051675 0.806284
vt 0.588699 0.806284
vt 0.882247 0.525011
vt -0.345975 0.525011
vt -0.200171 0.525011
vt 0.735847 0.525011
vt 0.766597 0.525011
vt -0.314943 0.525011
vt 1.029395 0.525011
vt -0.494470 0.525011
vt 0.913744 0.525011
vt -0.463439 0.525011
vt 0.882995 0.525011
vt -0.348667 0.525011
vt 1.187524 0.525011
vt -0.654048 0.525011
vt 1.071873 0.525011
vt -0.611935 0.525011
vt -0.497162 0.525011
vt 1.030142 0.525011
vt -0.345975 0.806284
vt 0.882247 0.806284
vt -0.314943 0.806284
vt 0.735847 0.806284
vt -0.200171 0.806284
vt 0.766597 0.806284
vt -0.494470 0.806284
vt 1.029395 0.806284
vt -0.463439 0.806284
vt 0.913744 0.806284
vt -0.348667 0.806284
vt 0.882995 0.806284
vt 0.913744 0.243740
vt -0.348667 0.243740
vt 0.882995 0.243740
vt 1.029395 0.243740
vt -0.494470 0.243740
vt -0.463439 0.243740
vt 0.619449 0.243740
vt 0.588699 0.243740
vt -0.051675 0.243740
vt -0.197478 0.243740
vt 0.735100 0.243740
vt -0.166447 0.243740
vt -0.200171 0.243740
vt 0.735847 0.243740
vt 0.766597 0.243740
vt 0.882247 0.243740
vt -0.345975 0.243740
vt -0.314943 0.243740
s 0
f 2/4/1 3/7/1 1/1/1
f 26/69/2 22/59/2 27/73/2
f 32/84/3 9/26/3 34/91/3
f 92/225/4 28/74/4 91/224/4
f 19/51/5 80/206/5 82/210/5
f 125/275/6 16/44/6 126/276/6
f 117/263/7 14/39/7 118/264/7
f 103/242/8 12/34/8 105/244/8
f 8/23/9 5/13/9 7/19/9
f 85/214/10 44/115/10 86/216/10
f 123/272/11 66/170/11 124/273/11
f 75/194/12 3/9/12 76/197/12
f 78/204/13 77/200/13 2/5/13
f 21/57/14 71/181/14 20/53/14
f 26/70/15 44/114/15 42/109/15
f 80/206/16 71/182/16 81/207/16
f 26/71/17 41/108/17 21/55/17
f 19/52/18 69/176/18 18/48/18
f 30/80/19 48/124/19 43/111/19
f 122/270/20 69/177/20 120/267/20
f 30/81/21 85/214/21 84/213/21
f 17/47/22 67/171/22 16/43/22
f 28/75/23 46/119/23 47/121/23
f 126/276/24 67/172/24 123/271/24
f 28/76/25 93/226/25 91/223/25
f 15/42/26 65/166/26 14/38/26
f 39/102/23 56/144/23 45/116/23
f 118/264/27 65/167/27 116/260/27
f 39/103/28 110/252/28 107/248/28
f 13/37/29 63/161/29 12/33/29
f 37/97/30 54/139/30 55/141/30
f 105/244/31 63/162/31 106/245/31
f 37/98/32 113/256/32 111/254/32
f 11/32/29 61/156/29 10/28/29
f 35/92/23 52/134/23 53/136/23
f 34/91/33 61/157/33 52/133/33
f 35/93/34 104/243/34 103/241/34
f 9/27/29 59/151/29 76/198/29
f 50/128/23 51/131/23 32/85/23
f 59/152/35 74/192/35 76/196/35
f 32/86/36 60/155/36 9/25/36
f 77/199/37 22/58/37 24/63/37
f 23/60/38 27/72/38 78/202/38
f 27/73/39 77/201/39 78/203/39
f 75/193/29 58/149/29 57/146/29
f 49/126/23 73/187/23 72/184/23
f 58/150/40 73/189/40 49/127/40
f 82/209/41 70/180/41 19/50/41
f 83/211/42 81/207/42 86/215/42
f 93/226/43 48/125/43 94/228/43
f 82/210/44 83/211/44 84/212/44
f 84/212/45 31/83/45 30/79/45
f 31/83/46 86/215/46 44/113/46
f 84/213/47 79/205/47 82/209/47
f 79/205/48 86/216/48 81/208/48
f 113/256/49 56/145/49 114/258/49
f 87/217/50 119/265/50 121/269/50
f 92/225/51 90/221/51 94/227/51
f 122/270/52 87/218/52 121/268/52
f 29/78/53 94/227/53 48/123/53
f 89/220/54 94/228/54 90/222/54
f 91/223/55 89/220/55 87/217/55
f 88/219/56 91/224/56 87/218/56
f 95/229/57 124/273/57 125/274/57
f 108/249/58 96/231/58 109/251/58
f 106/246/59 62/160/59 104/243/59
f 107/247/60 98/234/60 108/249/60
f 115/259/61 102/239/61 116/261/61
f 99/235/62 115/259/62 117/262/62
f 112/255/63 102/240/63 114/257/63
f 111/253/64 101/238/64 112/255/64
f 109/250/65 97/233/65 110/252/65
f 103/241/66 62/160/66 11/30/66
f 36/96/67 106/245/67 54/138/67
f 35/94/68 105/244/68 36/96/68
f 6/18/69 43/112/69 48/125/69
f 39/104/70 108/249/70 40/106/70
f 40/106/71 109/251/71 46/118/71
f 107/248/72 97/233/72 95/229/72
f 37/99/73 112/255/73 38/101/73
f 38/101/74 114/257/74 56/143/74
f 100/237/75 114/258/75 102/239/75
f 111/254/76 100/237/76 99/235/76
f 117/262/77 64/165/77 13/35/77
f 119/265/78 90/222/78 120/266/78
f 101/238/79 116/260/79 102/240/79
f 99/236/80 118/264/80 101/238/80
f 1/3/81 64/165/81 65/168/81
f 18/49/82 121/268/82 17/46/82
f 121/269/83 68/175/83 17/45/83
f 88/219/84 120/267/84 90/221/84
f 125/274/85 66/170/85 15/40/85
f 98/234/86 123/271/86 96/231/86
f 96/232/87 124/273/87 97/233/87
f 95/230/88 126/276/88 98/234/88
f 2/4/89 4/10/89 3/7/89
f 26/69/2 21/56/2 22/59/2
f 25/66/3 3/8/3 9/26/3
f 3/8/90 4/11/90 15/41/90
f 9/26/3 3/8/3 10/29/3
f 4/11/91 24/64/91 22/59/91
f 21/56/92 20/54/92 4/11/92
f 20/54/93 19/51/93 4/11/93
f 4/11/91 22/59/91 21/56/91
f 10/29/3 3/8/3 11/31/3
f 7/20/3 33/87/3 32/84/3
f 18/49/94 17/46/94 4/11/94
f 17/46/95 16/44/95 4/11/95
f 4/11/94 19/51/94 18/49/94
f 8/22/96 7/20/96 39/104/96
f 7/20/3 32/84/3 34/91/3
f 27/73/97 23/61/97 8/22/97
f 30/79/98 31/83/98 8/22/98
f 31/83/99 26/69/99 8/22/99
f 26/69/91 27/73/91 8/22/91
f 15/41/100 14/39/100 3/8/100
f 14/39/3 13/36/3 3/8/3
f 4/11/91 16/44/91 15/41/91
f 40/106/101 28/74/101 8/22/101
f 28/74/101 29/78/101 8/22/101
f 29/78/102 30/79/102 8/22/102
f 12/34/3 11/31/3 3/8/3
f 12/34/3 3/8/3 13/36/3
f 37/99/103 38/101/103 7/20/103
f 38/101/3 39/104/3 7/20/3
f 39/104/101 40/106/101 8/22/101
f 34/91/3 35/94/3 7/20/3
f 35/94/3 36/96/3 7/20/3
f 7/20/104 36/96/104 37/99/104
f 9/26/3 10/29/3 34/91/3
f 92/225/105 29/78/105 28/74/105
f 19/51/106 20/54/106 80/206/106
f 125/275/107 15/41/107 16/44/107
f 117/263/108 13/36/108 14/39/108
f 103/242/109 11/31/109 12/34/109
f 8/23/110 6/16/110 5/13/110
f 85/214/111 43/112/111 44/115/111
f 123/272/112 67/173/112 66/170/112
f 74/190/12 33/88/12 7/21/12
f 7/21/12 5/14/12 73/188/12
f 5/14/12 72/185/12 73/188/12
f 74/190/12 7/21/12 73/188/12
f 75/194/12 57/147/12 1/2/12
f 74/190/12 73/188/12 75/194/12
f 3/9/12 25/67/12 76/197/12
f 76/197/12 74/190/12 75/194/12
f 75/194/12 1/2/12 3/9/12
f 24/65/13 4/12/13 77/200/13
f 4/12/13 2/5/13 77/200/13
f 6/17/113 8/24/113 78/204/113
f 8/24/114 23/62/114 78/204/114
f 6/17/13 78/204/13 2/5/13
f 21/57/37 41/107/37 71/181/37
f 26/70/115 31/82/115 44/114/115
f 80/206/116 20/54/116 71/182/116
f 26/71/117 42/110/117 41/108/117
f 19/52/18 70/179/18 69/176/18
f 30/80/118 29/77/118 48/124/118
f 122/270/119 18/49/119 69/177/119
f 30/81/120 43/112/120 85/214/120
f 17/47/121 68/174/121 67/171/121
f 28/75/23 40/105/23 46/119/23
f 126/276/122 16/44/122 67/172/122
f 28/76/123 47/122/123 93/226/123
f 15/42/37 66/169/37 65/166/37
f 39/102/23 38/100/23 56/144/23
f 118/264/124 14/39/124 65/167/124
f 39/103/125 45/117/125 110/252/125
f 13/37/29 64/164/29 63/161/29
f 37/97/126 36/95/126 54/139/126
f 105/244/127 12/34/127 63/162/127
f 37/98/128 55/142/128 113/256/128
f 11/32/29 62/159/29 61/156/29
f 35/92/23 34/90/23 52/134/23
f 34/91/33 10/29/33 61/157/33
f 35/93/129 53/137/129 104/243/129
f 76/198/29 25/68/29 9/27/29
f 9/27/29 60/154/29 59/151/29
f 33/89/23 74/191/23 32/85/23
f 74/191/23 50/128/23 32/85/23
f 59/152/35 50/129/35 74/192/35
f 32/86/36 51/132/36 60/155/36
f 27/73/130 22/59/130 77/201/130
f 58/150/40 75/195/40 73/189/40
f 82/209/131 79/205/131 70/180/131
f 83/211/132 80/206/132 81/207/132
f 93/226/133 47/122/133 48/125/133
f 82/210/134 80/206/134 83/211/134
f 84/212/135 83/211/135 31/83/135
f 31/83/136 83/211/136 86/215/136
f 84/213/137 85/214/137 79/205/137
f 79/205/138 85/214/138 86/216/138
f 113/256/139 55/142/139 56/145/139
f 87/217/140 89/220/140 119/265/140
f 92/225/141 88/219/141 90/221/141
f 122/270/142 88/219/142 87/218/142
f 29/78/143 92/225/143 94/227/143
f 89/220/144 93/226/144 94/228/144
f 91/223/145 93/226/145 89/220/145
f 88/219/146 92/225/146 91/224/146
f 95/229/147 97/233/147 124/273/147
f 108/249/148 98/234/148 96/231/148
f 106/246/149 63/163/149 62/160/149
f 107/247/150 95/230/150 98/234/150
f 115/259/151 100/237/151 102/239/151
f 99/235/152 100/237/152 115/259/152
f 112/255/153 101/238/153 102/240/153
f 111/253/154 99/236/154 101/238/154
f 109/250/155 96/232/155 97/233/155
f 103/241/156 104/243/156 62/160/156
f 36/96/157 105/244/157 106/245/157
f 35/94/158 103/242/158 105/244/158
f 45/117/159 56/145/159 6/18/159
f 56/145/160 55/142/160 5/15/160
f 6/18/161 56/145/161 5/15/161
f 54/140/162 106/246/162 104/243/162
f 55/142/160 54/140/160 5/15/160
f 54/140/163 104/243/163 53/137/163
f 52/135/160 61/158/160 60/155/160
f 54/140/160 53/137/160 5/15/160
f 52/135/160 60/155/160 51/132/160
f 53/137/160 52/135/160 5/15/160
f 51/132/160 50/130/160 5/15/160
f 50/130/160 49/127/160 5/15/160
f 51/132/160 5/15/160 52/135/160
f 49/127/160 72/186/160 5/15/160
f 6/18/69 2/6/69 42/110/69
f 2/6/69 41/108/69 42/110/69
f 42/110/164 44/115/164 6/18/164
f 44/115/165 43/112/165 6/18/165
f 109/250/166 110/252/166 45/117/166
f 48/125/167 47/122/167 6/18/167
f 47/122/159 46/120/159 6/18/159
f 46/120/168 109/250/168 45/117/168
f 46/120/159 45/117/159 6/18/159
f 39/104/169 107/247/169 108/249/169
f 40/106/170 108/249/170 109/251/170
f 107/248/171 110/252/171 97/233/171
f 37/99/172 111/253/172 112/255/172
f 38/101/173 112/255/173 114/257/173
f 100/237/174 113/256/174 114/258/174
f 111/254/175 113/256/175 100/237/175
f 117/262/176 115/259/176 64/165/176
f 119/265/177 89/220/177 90/222/177
f 101/238/178 118/264/178 116/260/178
f 99/236/179 117/263/179 118/264/179
f 41/108/69 2/6/69 71/183/69
f 2/6/180 1/3/180 65/168/180
f 71/183/69 2/6/69 70/180/69
f 1/3/160 57/148/160 58/150/160
f 58/150/160 49/127/160 50/130/160
f 59/153/160 60/155/160 1/3/160
f 60/155/160 61/158/160 1/3/160
f 58/150/160 50/130/160 59/153/160
f 70/180/69 2/6/69 69/178/69
f 79/205/181 81/208/181 71/183/181
f 70/180/182 79/205/182 71/183/182
f 1/3/160 58/150/160 59/153/160
f 61/158/160 62/160/160 1/3/160
f 62/160/160 63/163/160 1/3/160
f 69/178/69 2/6/69 68/175/69
f 119/265/183 120/266/183 69/178/183
f 68/175/184 2/6/184 67/173/184
f 64/165/185 115/259/185 116/261/185
f 1/3/160 63/163/160 64/165/160
f 68/175/186 119/265/186 69/178/186
f 65/168/69 66/170/69 2/6/69
f 66/170/187 67/173/187 2/6/187
f 64/165/188 116/261/188 65/168/188
f 18/49/189 122/270/189 121/268/189
f 121/269/190 119/265/190 68/175/190
f 88/219/191 122/270/191 120/267/191
f 125/274/192 124/273/192 66/170/192
f 98/234/193 126/276/193 123/271/193
f 96/232/194 123/272/194 124/273/194
f 95/230/195 125/275/195 126/276/195
