# Blender 3.3.1
# www.blender.org
o Vent_Grate.003
v 0.232680 0.205968 -7.168953
v 0.154118 0.860576 -7.125226
v 0.230467 0.202083 -7.198247
v 0.147861 0.866848 -7.153503
v 0.871054 0.288482 -7.228124
v 0.783467 0.945808 -7.245581
v 0.868841 0.284597 -7.257418
v 0.767989 0.962215 -7.312974
v 0.239576 0.263917 -7.207136
v 0.235523 0.292746 -7.210652
v 0.226575 0.356408 -7.218419
v 0.223366 0.379231 -7.221203
v 0.214418 0.442892 -7.228969
v 0.212054 0.459710 -7.231020
v 0.193819 0.547292 -7.234557
v 0.192341 0.563857 -7.230555
v 0.177524 0.636701 -7.254523
v 0.176045 0.653267 -7.250521
v 0.170450 0.715976 -7.235373
v 0.179292 0.768969 -7.212454
v 0.172386 0.787482 -7.176536
v 0.170637 0.807079 -7.171802
v 0.746030 0.947857 -7.267896
v 0.165096 0.869182 -7.156799
v 0.247949 0.204343 -7.199868
v 0.744099 0.876292 -7.326748
v 0.742350 0.895890 -7.322014
v 0.781057 0.680016 -7.303223
v 0.778693 0.696834 -7.305274
v 0.760605 0.784516 -7.307354
v 0.758916 0.803448 -7.302781
v 0.828840 0.340083 -7.261754
v 0.837214 0.280509 -7.254487
v 0.824787 0.368913 -7.265271
v 0.815839 0.432574 -7.273037
v 0.812631 0.455397 -7.275821
v 0.813592 0.529123 -7.272932
v 0.801318 0.535876 -7.285639
v 0.792370 0.599537 -7.293406
v 0.790006 0.616355 -7.295457
v 0.173826 0.835200 -7.135215
v 0.754760 0.913875 -7.246312
v 0.762045 0.832234 -7.266034
v 0.751134 0.861302 -7.300576
v 0.786878 0.658234 -7.270798
v 0.784514 0.675051 -7.272849
v 0.775566 0.738712 -7.280615
v 0.767641 0.769526 -7.281182
v 0.837260 0.299806 -7.227072
v 0.832297 0.335118 -7.231380
v 0.823348 0.398779 -7.239146
v 0.819296 0.427609 -7.242663
v 0.810347 0.491270 -7.250430
v 0.807139 0.514093 -7.253214
v 0.798191 0.577755 -7.260980
v 0.795827 0.594572 -7.263031
v 0.250163 0.208228 -7.170574
v 0.247996 0.223639 -7.172454
v 0.243033 0.258952 -7.176762
v 0.234084 0.322613 -7.184528
v 0.230032 0.351442 -7.188045
v 0.221083 0.415104 -7.195811
v 0.217875 0.437927 -7.198595
v 0.208927 0.501588 -7.206361
v 0.200854 0.532301 -7.208385
v 0.195258 0.595010 -7.193237
v 0.184559 0.621711 -7.228351
v 0.188185 0.674285 -7.174087
v 0.186706 0.690850 -7.170085
v 0.181111 0.753559 -7.154937
v 0.179421 0.772491 -7.150363
v 0.839427 0.284394 -7.225193
v 0.838100 0.282065 -7.242754
v 0.837343 0.280737 -7.252768
v 0.248836 0.205899 -7.188135
v 0.248079 0.204571 -7.198150
v 0.170758 0.863507 -7.131214
v 0.751692 0.942182 -7.242310
v 0.445214 0.786387 -7.256934
v 0.419196 0.795874 -7.267279
v 0.434373 0.822919 -7.265056
v 0.429657 0.753771 -7.279031
v 0.605286 0.795491 -7.305689
v 0.616026 0.767742 -7.274276
v 0.621507 0.814468 -7.222435
v 0.605473 0.842882 -7.275290
v 0.444245 0.679337 -7.264681
v 0.490169 0.693518 -7.276022
v 0.468795 0.717516 -7.260519
v 0.476979 0.723740 -7.267607
v 0.634219 0.662929 -7.287469
v 0.637221 0.676176 -7.286171
v 0.628207 0.733379 -7.263577
v 0.621843 0.751674 -7.266221
v 0.497937 0.554014 -7.270672
v 0.489210 0.626116 -7.259533
v 0.489709 0.612457 -7.260585
v 0.495349 0.565746 -7.271948
v 0.513411 0.458088 -7.255960
v 0.502014 0.488998 -7.255124
v 0.507652 0.478213 -7.260757
v 0.503451 0.502994 -7.260294
v 0.524649 0.374109 -7.239915
v 0.517304 0.392801 -7.240091
v 0.523372 0.400139 -7.244617
v 0.483550 0.412875 -7.239353
v 0.646620 0.586173 -7.272929
v 0.644551 0.602221 -7.275342
v 0.638715 0.654297 -7.264830
v 0.640841 0.637745 -7.268166
v 0.665894 0.503573 -7.268078
v 0.662714 0.518994 -7.271848
v 0.622904 0.529181 -7.267354
v 0.634432 0.539004 -7.272862
v 0.349516 0.482642 -7.238029
v 0.350022 0.494034 -7.240796
v 0.360702 0.452464 -7.235823
v 0.357116 0.470189 -7.239686
v 0.302445 0.703206 -7.239683
v 0.297026 0.725994 -7.263104
v 0.316977 0.642470 -7.243649
v 0.304880 0.669641 -7.279870
v 0.330289 0.614180 -7.231021
v 0.315870 0.574831 -7.224016
v 0.352001 0.522758 -7.246079
v 0.348080 0.545569 -7.249147
vn -0.9880 -0.1247 0.0912
vn -0.2781 0.2020 -0.9391
vn -0.0747 -0.1311 -0.9886
vn -0.1201 0.1237 -0.9850
vn -0.1930 0.2190 -0.9564
vn -0.1350 -0.1548 -0.9787
vn -0.0422 -0.2209 -0.9744
vn -0.0640 -0.1804 -0.9815
vn 0.9859 0.1391 -0.0929
vn -0.0276 0.8769 0.4798
vn 0.2586 0.0767 0.9629
vn 0.1382 -0.9831 0.1199
vn -0.0864 0.9684 0.2339
vn 0.9205 0.3900 -0.0240
vn -0.9737 -0.1276 0.1887
vn -0.4405 0.3163 -0.8402
vn 0.2873 -0.6319 0.7198
vn 0.9725 0.1329 -0.1910
vn -0.9736 -0.1319 0.1862
vn -0.6627 0.1272 -0.7380
vn 0.2312 -0.7347 0.6378
vn 0.9735 0.1379 -0.1827
vn -0.9876 -0.1277 0.0915
vn -0.0046 0.2543 -0.9671
vn 0.1368 -0.3077 0.9416
vn 0.9693 0.1958 -0.1484
vn -0.2392 -0.1161 -0.9640
vn 0.1455 -0.0748 0.9865
vn 0.9876 0.1277 -0.0915
vn -0.8877 -0.1766 -0.4252
vn -0.1595 -0.0925 -0.9829
vn 0.0292 0.0208 0.9994
vn -0.1308 0.3457 -0.9292
vn 0.1030 0.0498 0.9934
vn -0.1314 0.3522 -0.9266
vn 0.1308 -0.3457 0.9292
vn 0.9736 0.1319 -0.1862
vn -0.9741 -0.1263 0.1875
vn -0.2065 0.8564 -0.4732
vn 0.1530 -0.6504 0.7440
vn 0.1972 -0.8980 0.3934
vn -0.1126 0.5368 -0.8362
vn 0.0800 0.1698 0.9822
vn 0.0723 -0.7351 -0.6741
vn -0.2410 0.2075 -0.9481
vn -0.1728 0.0143 -0.9849
vn 0.0216 -0.5678 0.8229
vn 0.0319 0.2259 0.9736
vn -0.2806 0.6985 0.6583
vn 0.1697 -0.0237 0.9852
vn -0.0385 0.2479 -0.9680
vn 0.1216 -0.7741 -0.6213
vn -0.1331 0.2935 -0.9466
vn -0.1647 0.8276 0.5366
vn 0.1026 -0.1728 0.9796
vn -0.1393 -0.3030 -0.9428
vn 0.2131 -0.2521 0.9439
vn -0.0705 0.1898 -0.9793
vn 0.1610 0.2355 0.9585
vn 0.0134 -0.1470 -0.9890
vn 0.1095 0.2300 0.9670
vn 0.1255 0.1185 0.9850
vn -0.0584 -0.1327 -0.9894
vn -0.0067 -0.2388 -0.9711
vn 0.0804 -0.1870 0.9791
vn 0.0881 -0.3508 0.9323
vn -0.1472 0.3435 -0.9276
vn -0.0814 -0.1320 -0.9879
vn 0.2112 -0.2117 0.9543
vn -0.1226 -0.1371 -0.9829
vn -0.1010 0.3493 -0.9315
vn 0.0502 -0.1630 0.9853
vn 0.0540 -0.8592 -0.5088
vn -0.0648 0.3534 -0.9332
vn -0.0054 0.3470 0.9378
vn 0.0786 0.0020 0.9969
vn 0.0668 -0.3532 0.9332
vn 0.0264 0.7195 0.6940
vn -0.1259 -0.0028 -0.9920
vn -0.1200 -0.2626 -0.9574
vn 0.3121 0.1439 0.9391
vn 0.0656 0.2398 -0.9686
vn 0.0045 -0.9062 0.4228
vn -0.0209 0.2597 -0.9655
vn -0.0462 -0.6531 0.7559
vn -0.1868 0.1796 -0.9658
vn 0.2192 -0.0669 0.9734
vn -0.1333 -0.1362 -0.9817
vn -0.9735 -0.1335 0.1858
vn -0.9879 -0.1158 -0.1037
vn -0.2112 0.2117 -0.9543
vn 0.9578 0.2852 0.0372
vn -0.2982 0.4204 -0.8570
vn -0.9796 -0.0399 -0.1968
vn -0.9811 -0.1682 0.0952
vn 0.3247 -0.0292 -0.9454
vn -0.8737 0.3793 -0.3048
vn -0.9017 0.0238 -0.4317
vn 0.7102 -0.0855 -0.6988
vn -0.5305 -0.1442 -0.8353
vn 0.6801 0.0062 -0.7331
vn -0.0319 -0.0303 -0.9990
vn -0.7463 -0.1272 0.6533
vn 0.3944 0.0309 -0.9184
vn -0.1130 -0.1360 -0.9842
vn -0.2467 0.4191 -0.8738
vn -0.0349 0.2317 -0.9722
vn -0.0382 -0.1263 -0.9913
vn -0.0637 -0.1297 -0.9895
vn 0.9732 0.1245 -0.1932
vn 0.0952 0.7763 0.6232
vn 0.0524 0.8025 0.5943
vn -0.0838 0.9636 0.2539
vn -0.1312 0.9613 0.2423
vn -0.9735 -0.1379 0.1827
vn -0.1239 0.9907 -0.0559
vn 0.1969 -0.8980 0.3935
vn -0.9693 -0.1964 0.1480
vn -0.2034 0.8971 -0.3922
vn 0.3017 -0.6293 0.7162
vn 0.9737 0.1276 -0.1887
vn -0.1159 0.0222 -0.9930
vn 0.1201 -0.3470 0.9301
vn -0.0777 0.2858 -0.9551
vn 0.0664 -0.3532 0.9332
vn -0.9554 0.0240 -0.2944
vn -0.0971 0.3498 -0.9318
vn 0.0284 -0.2301 0.9728
vn 0.1481 -0.3434 0.9275
vn -0.2908 0.5591 -0.7764
vn 0.3460 -0.6337 0.6919
vn -0.1981 0.1902 -0.9616
vn 0.1130 0.0473 0.9925
vn -0.1969 0.2179 -0.9559
vn 0.0510 -0.7398 -0.6709
vn -0.0120 0.5399 -0.8416
vn -0.0130 -0.7421 0.6702
vn -0.2321 0.8256 0.5143
vn -0.0670 0.1115 0.9915
vn 0.1384 -0.1949 0.9710
vn -0.0369 0.2531 -0.9667
vn 0.1177 -0.8242 -0.5539
vn -0.1621 0.2211 -0.9617
vn 0.0046 0.1446 0.9895
vn 0.0497 -0.3170 0.9471
vn -0.0555 0.1098 -0.9924
vn 0.2316 -0.1337 0.9636
vn -0.0697 0.1941 -0.9785
vn 0.1632 0.1420 0.9763
vn 0.0079 -0.1064 -0.9943
vn 0.0910 0.3369 0.9371
vn 0.1108 0.0140 0.9937
vn -0.0730 0.0063 -0.9973
vn -0.0075 -0.2339 -0.9722
vn 0.0494 -0.0749 0.9960
vn 0.1526 0.0692 0.9859
vn -0.1160 0.0472 -0.9921
vn -0.0752 -0.1808 -0.9806
vn -0.8509 -0.0559 0.5223
vn 0.0747 0.1311 0.9886
vn -0.6127 -0.0607 0.7880
vn 0.0356 0.0231 0.9991
vn -0.0054 0.1203 0.9927
vn 0.6301 -0.5783 0.5182
vn -0.9194 0.1052 0.3789
vn 0.0446 -0.1919 0.9804
vn -0.5321 -0.1215 0.8379
vn 0.0366 0.1261 0.9913
vn -0.1226 -0.1631 -0.9790
vn -0.1518 0.1792 -0.9720
vn 0.0640 -0.0847 0.9944
vn 0.0088 -0.2358 -0.9718
vn -0.0783 -0.1606 -0.9839
vn -0.1124 0.5831 0.8045
vn 0.0705 0.0902 0.9934
vn 0.2372 0.1580 0.9585
vn 0.0207 0.7393 0.6731
vn -0.1336 -0.0857 -0.9873
vn -0.1186 -0.2343 -0.9649
vn 0.9868 0.1105 0.1183
vn 0.3416 0.2994 0.8909
vn 0.3740 -0.1861 0.9086
vn 0.3012 0.7173 0.6283
vn -0.9209 -0.2474 0.3012
vn 0.2424 0.2188 0.9452
vn 0.5212 -0.1562 0.8390
vn 0.9701 0.1892 -0.1518
vn 0.2416 0.1269 0.9620
vn -0.0328 -0.8047 -0.5927
vn 0.4857 0.0593 0.8721
vn -0.0166 0.2830 -0.9590
vn 0.1969 -0.2635 0.9443
vn -0.1774 0.2081 -0.9619
vn 0.1672 0.1131 0.9794
vn -0.1319 -0.1544 -0.9792
vt -0.717005 1.147941
vt -0.661547 1.147942
vt 1.450127 -0.070911
vt -0.717005 2.383491
vt -0.717005 2.366795
vt 0.269326 -0.070911
vt -0.772602 1.147941
vt -0.934631 -0.070911
vt -0.606090 1.147942
vt -0.772602 2.383491
vt 0.256987 -0.070911
vt -0.661547 2.366795
vt -0.828200 1.147941
vt -0.661547 2.366795
vt 1.450127 1.147942
vt -0.828200 2.383491
vt -0.717005 1.147942
vt 0.269326 1.147942
vt -0.772602 1.147941
vt -0.934631 1.147941
vt -0.606090 2.366795
vt 0.256987 1.147942
vt -0.772603 2.383491
vt -0.661547 1.147942
vt 1.356634 -0.037532
vt -0.824707 -0.037532
vt 0.116673 1.252805
vt -0.550492 1.147941
vt -0.771513 -0.037532
vt 1.187524 -0.037532
vt -0.654048 -0.037532
vt -0.550492 1.269737
vt 0.005479 1.374601
vt -0.611935 -0.037532
vt 1.029395 -0.037532
vt -0.494470 -0.037532
vt 0.005479 1.252805
vt -0.494895 1.147941
vt -0.463439 -0.037532
vt 0.882247 -0.037532
vt -0.345975 -0.037532
vt -0.494895 1.269737
vt -0.105715 1.374601
vt -0.314943 -0.037532
vt 0.735100 -0.037532
vt -0.197478 -0.037532
vt -0.105715 1.252805
vt -0.494895 1.374601
vt -0.166447 -0.037532
vt 0.587952 -0.037532
vt -0.048983 -0.037532
vt -0.494895 1.252806
vt -0.272507 1.374601
vt -0.013519 -0.037532
vt 0.436412 -0.037532
vt 0.103947 -0.037532
vt -0.272507 1.252806
vt 0.222575 1.147942
vt 0.140656 -0.037532
vt 0.222575 1.259183
vt 0.256987 1.087555
vt -0.661547 1.208327
vt 0.222575 1.268561
vt 0.256987 -0.037532
vt -0.661547 2.333415
vt -0.934631 -0.037532
vt -0.606090 1.181321
vt 0.116673 1.366781
vt 0.103947 1.087555
vt -0.383701 1.269737
vt 0.436412 1.087555
vt 0.268970 1.147941
vt 0.140656 1.087555
vt -0.197478 1.087555
vt -0.216910 1.269737
vt 0.735100 1.087555
vt -0.439298 1.147941
vt -0.166447 1.087555
vt -0.048983 1.087555
vt -0.439298 1.269737
vt 0.587952 1.087555
vt -0.383701 1.147941
vt -0.013519 1.087555
vt -0.824707 1.087555
vt 0.061076 1.261916
vt 1.356634 1.087555
vt -0.934631 1.087555
vt -0.606090 2.306408
vt 0.061076 1.147941
vt -0.272507 1.374601
vt -0.771513 1.087555
vt -0.272507 1.252805
vt 1.187524 1.087555
vt -0.654048 1.087555
vt -0.050118 1.147941
vt -0.611935 1.087555
vt -0.050118 1.269737
vt 1.029395 1.087555
vt -0.494470 1.087555
vt -0.105715 1.374601
vt -0.463439 1.087555
vt -0.105715 1.252805
vt 0.882247 1.087555
vt -0.345975 1.087555
vt -0.216910 1.147941
vt -0.314943 1.087555
vt -0.216910 1.147942
vt 0.320761 -0.037532
vt -0.328104 1.374600
vt 0.320761 1.087555
vt -0.383701 1.374601
vt 0.472301 1.087555
vt 0.101253 1.087555
vt -0.328104 1.252806
vt 0.437159 1.087555
vt -0.161312 1.147941
vt 0.766597 1.087555
vt -0.200171 1.087555
vt -0.161312 1.252805
vt 0.735847 1.087555
vt -0.161312 1.374601
vt 0.619449 1.087555
vt -0.051675 1.087555
vt -0.383701 1.252805
vt 0.588699 1.087555
vt 0.291349 1.147941
vt 1.421947 1.087555
vt 0.116673 1.244985
vt -0.934631 1.147941
vt 1.357382 1.087555
vt 0.116673 1.366781
vt 1.240984 1.087555
vt -0.656741 1.087555
vt -0.328104 1.269737
vt 1.188271 1.087555
vt -0.328104 1.147941
vt 1.071873 1.087555
vt -0.497163 1.087555
vt 0.005479 1.252805
vt 1.030142 1.087555
vt 0.005479 1.374601
vt 0.913744 1.087555
vt -0.348667 1.087555
vt -0.161312 1.269737
vt 0.882995 1.087555
vt 0.291347 1.173084
vt -0.661547 1.181321
vt 1.450127 -0.037532
vt 0.313370 1.192566
vt 1.421947 -0.037532
vt 0.172270 1.269737
vt -0.934631 2.273027
vt 1.357382 -0.037532
vt 0.172270 1.147941
vt 1.240984 -0.037532
vt -0.606090 1.252805
vt -0.656741 -0.037532
vt 1.188271 -0.037532
vt -0.606090 1.374600
vt 1.071873 -0.037532
vt 0.061076 1.269737
vt -0.497162 -0.037532
vt 1.030142 -0.037532
vt 0.061076 1.147941
vt 0.913744 -0.037532
vt -0.550492 1.252805
vt -0.348667 -0.037532
vt 0.882995 -0.037532
vt -0.550492 1.374601
vt 0.766597 -0.037532
vt -0.050118 1.269737
vt -0.200171 -0.037532
vt 0.735847 -0.037532
vt -0.050118 1.147941
vt 0.619449 -0.037532
vt -0.439298 1.269738
vt -0.051675 -0.037532
vt 0.588699 -0.037532
vt -0.439298 1.147942
vt 0.472301 -0.037532
vt -0.216910 1.269738
vt 0.101253 -0.037532
vt 0.437159 -0.037532
vt 0.269326 1.167422
vt -0.661547 2.306408
vt 1.450127 1.087555
vt 0.291349 1.192566
vt -0.628302 2.306408
vt 1.459378 1.087555
vt -0.609343 2.306408
vt 0.064337 1.147941
vt -0.828199 1.147941
vt 0.313370 1.147941
vt -0.628302 1.181321
vt 1.459378 -0.037532
vt -0.828199 2.273027
vt -0.609343 1.181321
vt 0.119935 1.366781
vt 0.172271 1.268561
vt -0.711726 2.333415
vt 0.269326 -0.037532
vt 0.268970 1.278727
vt 0.269326 1.087555
vt -0.711726 1.208327
vt 0.472301 0.525011
vt -0.013519 0.525012
vt 0.101253 0.525012
vt 0.437159 0.525011
vt 0.587952 0.525011
vt -0.048983 0.525012
vt -0.013519 0.806284
vt -0.048983 0.806284
vt 0.587952 0.806284
vt 0.472301 0.806284
vt 0.101253 0.806284
vt 0.437159 0.806284
vt 0.735100 0.525011
vt -0.197478 0.525011
vt -0.166447 0.525012
vt 0.619449 0.525011
vt -0.051675 0.525012
vt 0.588699 0.525011
vt 0.735100 0.806284
vt -0.197478 0.806284
vt -0.166447 0.806284
vt 0.619449 0.806284
vt -0.051675 0.806284
vt 0.588699 0.806284
vt 0.882247 0.525011
vt -0.345975 0.525011
vt -0.200171 0.525011
vt 0.735847 0.525011
vt 0.766597 0.525011
vt -0.314943 0.525011
vt 1.029395 0.525011
vt -0.494470 0.525011
vt 0.913744 0.525011
vt -0.463439 0.525011
vt 0.882995 0.525011
vt -0.348667 0.525011
vt 1.187524 0.525011
vt -0.654048 0.525011
vt 1.071873 0.525011
vt -0.611935 0.525011
vt -0.497162 0.525011
vt 1.030142 0.525011
vt -0.345975 0.806284
vt 0.882247 0.806284
vt -0.314943 0.806284
vt 0.735847 0.806284
vt -0.200171 0.806284
vt 0.766597 0.806284
vt -0.494470 0.806284
vt 1.029395 0.806284
vt -0.463439 0.806284
vt 0.913744 0.806284
vt -0.348667 0.806284
vt 0.882995 0.806284
vt 0.913744 0.243740
vt -0.348667 0.243740
vt 0.882995 0.243740
vt 1.029395 0.243740
vt -0.494470 0.243740
vt -0.463439 0.243740
vt 0.619449 0.243740
vt 0.588699 0.243740
vt -0.051675 0.243740
vt -0.197478 0.243740
vt 0.735100 0.243740
vt -0.166447 0.243740
vt -0.200171 0.243740
vt 0.735847 0.243740
vt 0.766597 0.243740
vt 0.882247 0.243740
vt -0.345975 0.243740
vt -0.314943 0.243740
s 0
f 2/4/1 3/7/1 1/1/1
f 26/69/2 22/59/2 27/73/2
f 32/84/3 9/26/3 34/91/3
f 92/225/4 28/74/4 91/224/4
f 19/51/5 80/206/5 82/210/5
f 125/275/6 16/44/6 126/276/6
f 117/263/7 14/39/7 118/264/7
f 103/242/8 12/34/8 105/244/8
f 8/23/9 5/13/9 7/19/9
f 85/214/10 44/115/10 86/216/10
f 123/272/11 66/170/11 124/273/11
f 75/194/12 3/9/12 76/197/12
f 78/204/13 77/200/13 2/5/13
f 21/57/14 71/181/14 20/53/14
f 26/70/15 44/114/15 42/109/15
f 80/206/16 71/182/16 81/207/16
f 26/71/17 41/108/17 21/55/17
f 19/52/18 69/176/18 18/48/18
f 30/80/19 48/124/19 43/111/19
f 122/270/20 69/177/20 120/267/20
f 30/81/21 85/214/21 84/213/21
f 17/47/22 67/171/22 16/43/22
f 28/75/23 46/119/23 47/121/23
f 126/276/24 67/172/24 123/271/24
f 28/76/25 93/226/25 91/223/25
f 15/42/26 65/166/26 14/38/26
f 39/102/23 56/144/23 45/116/23
f 118/264/27 65/167/27 116/260/27
f 39/103/28 110/252/28 107/248/28
f 13/37/29 63/161/29 12/33/29
f 37/97/30 54/139/30 55/141/30
f 105/244/31 63/162/31 106/245/31
f 37/98/32 113/256/32 111/254/32
f 11/32/29 61/156/29 10/28/29
f 35/92/23 52/134/23 53/136/23
f 34/91/33 61/157/33 52/133/33
f 35/93/34 104/243/34 103/241/34
f 9/27/29 59/151/29 76/198/29
f 50/128/23 51/131/23 32/85/23
f 59/152/35 74/192/35 76/196/35
f 32/86/36 60/155/36 9/25/36
f 77/199/37 22/58/37 24/63/37
f 23/60/38 27/72/38 78/202/38
f 27/73/39 77/201/39 78/203/39
f 75/193/29 58/149/29 57/146/29
f 49/126/23 73/187/23 72/184/23
f 58/150/40 73/189/40 49/127/40
f 82/209/41 70/180/41 19/50/41
f 83/211/42 81/207/42 86/215/42
f 93/226/43 48/125/43 94/228/43
f 82/210/44 83/211/44 84/212/44
f 84/212/45 31/83/45 30/79/45
f 31/83/46 86/215/46 44/113/46
f 84/213/47 79/205/47 82/209/47
f 79/205/48 86/216/48 81/208/48
f 113/256/49 56/145/49 114/258/49
f 87/217/50 119/265/50 121/269/50
f 92/225/51 90/221/51 94/227/51
f 122/270/52 87/218/52 121/268/52
f 29/78/53 94/227/53 48/123/53
f 89/220/54 94/228/54 90/222/54
f 91/223/55 89/220/55 87/217/55
f 88/219/56 91/224/56 87/218/56
f 95/229/57 124/273/57 125/274/57
f 108/249/58 96/231/58 109/251/58
f 106/246/59 62/160/59 104/243/59
f 107/247/60 98/234/60 108/249/60
f 115/259/61 102/239/61 116/261/61
f 99/235/62 115/259/62 117/262/62
f 112/255/63 102/240/63 114/257/63
f 111/253/64 101/238/64 112/255/64
f 109/250/65 97/233/65 110/252/65
f 103/241/66 62/160/66 11/30/66
f 36/96/67 106/245/67 54/138/67
f 35/94/68 105/244/68 36/96/68
f 6/18/69 43/112/69 48/125/69
f 39/104/70 108/249/70 40/106/70
f 40/106/71 109/251/71 46/118/71
f 107/248/72 97/233/72 95/229/72
f 37/99/73 112/255/73 38/101/73
f 38/101/74 114/257/74 56/143/74
f 100/237/75 114/258/75 102/239/75
f 111/254/76 100/237/76 99/235/76
f 117/262/77 64/165/77 13/35/77
f 119/265/78 90/222/78 120/266/78
f 101/238/79 116/260/79 102/240/79
f 99/236/80 118/264/80 101/238/80
f 1/3/81 64/165/81 65/168/81
f 18/49/82 121/268/82 17/46/82
f 121/269/83 68/175/83 17/45/83
f 88/219/84 120/267/84 90/221/84
f 125/274/85 66/170/85 15/40/85
f 98/234/86 123/271/86 96/231/86
f 96/232/87 124/273/87 97/233/87
f 95/230/88 126/276/88 98/234/88
f 2/4/89 4/10/89 3/7/89
f 26/69/2 21/56/2 22/59/2
f 25/66/3 3/8/3 9/26/3
f 3/8/90 4/11/90 15/41/90
f 9/26/3 3/8/3 10/29/3
f 4/11/91 24/64/91 22/59/91
f 21/56/92 20/54/92 4/11/92
f 20/54/93 19/51/93 4/11/93
f 4/11/91 22/59/91 21/56/91
f 10/29/3 3/8/3 11/31/3
f 7/20/3 33/87/3 32/84/3
f 18/49/94 17/46/94 4/11/94
f 17/46/95 16/44/95 4/11/95
f 4/11/94 19/51/94 18/49/94
f 8/22/96 7/20/96 39/104/96
f 7/20/3 32/84/3 34/91/3
f 27/73/97 23/61/97 8/22/97
f 30/79/98 31/83/98 8/22/98
f 31/83/99 26/69/99 8/22/99
f 26/69/91 27/73/91 8/22/91
f 15/41/100 14/39/100 3/8/100
f 14/39/3 13/36/3 3/8/3
f 4/11/91 16/44/91 15/41/91
f 40/106/101 28/74/101 8/22/101
f 28/74/101 29/78/101 8/22/101
f 29/78/102 30/79/102 8/22/102
f 12/34/3 11/31/3 3/8/3
f 12/34/3 3/8/3 13/36/3
f 37/99/103 38/101/103 7/20/103
f 38/101/3 39/104/3 7/20/3
f 39/104/101 40/106/101 8/22/101
f 34/91/3 35/94/3 7/20/3
f 35/94/3 36/96/3 7/20/3
f 7/20/104 36/96/104 37/99/104
f 9/26/3 10/29/3 34/91/3
f 92/225/105 29/78/105 28/74/105
f 19/51/106 20/54/106 80/206/106
f 125/275/107 15/41/107 16/44/107
f 117/263/108 13/36/108 14/39/108
f 103/242/109 11/31/109 12/34/109
f 8/23/110 6/16/110 5/13/110
f 85/214/111 43/112/111 44/115/111
f 123/272/112 67/173/112 66/170/112
f 74/190/12 33/88/12 7/21/12
f 7/21/12 5/14/12 73/188/12
f 5/14/12 72/185/12 73/188/12
f 74/190/12 7/21/12 73/188/12
f 75/194/12 57/147/12 1/2/12
f 74/190/12 73/188/12 75/194/12
f 3/9/12 25/67/12 76/197/12
f 76/197/12 74/190/12 75/194/12
f 75/194/12 1/2/12 3/9/12
f 24/65/13 4/12/13 77/200/13
f 4/12/13 2/5/13 77/200/13
f 6/17/113 8/24/113 78/204/113
f 8/24/114 23/62/114 78/204/114
f 6/17/13 78/204/13 2/5/13
f 21/57/37 41/107/37 71/181/37
f 26/70/115 31/82/115 44/114/115
f 80/206/116 20/54/116 71/182/116
f 26/71/117 42/110/117 41/108/117
f 19/52/18 70/179/18 69/176/18
f 30/80/118 29/77/118 48/124/118
f 122/270/119 18/49/119 69/177/119
f 30/81/120 43/112/120 85/214/120
f 17/47/121 68/174/121 67/171/121
f 28/75/23 40/105/23 46/119/23
f 126/276/122 16/44/122 67/172/122
f 28/76/123 47/122/123 93/226/123
f 15/42/37 66/169/37 65/166/37
f 39/102/23 38/100/23 56/144/23
f 118/264/124 14/39/124 65/167/124
f 39/103/125 45/117/125 110/252/125
f 13/37/29 64/164/29 63/161/29
f 37/97/126 36/95/126 54/139/126
f 105/244/127 12/34/127 63/162/127
f 37/98/128 55/142/128 113/256/128
f 11/32/29 62/159/29 61/156/29
f 35/92/23 34/90/23 52/134/23
f 34/91/33 10/29/33 61/157/33
f 35/93/129 53/137/129 104/243/129
f 76/198/29 25/68/29 9/27/29
f 9/27/29 60/154/29 59/151/29
f 33/89/23 74/191/23 32/85/23
f 74/191/23 50/128/23 32/85/23
f 59/152/35 50/129/35 74/192/35
f 32/86/36 51/132/36 60/155/36
f 27/73/130 22/59/130 77/201/130
f 58/150/40 75/195/40 73/189/40
f 82/209/131 79/205/131 70/180/131
f 83/211/132 80/206/132 81/207/132
f 93/226/133 47/122/133 48/125/133
f 82/210/134 80/206/134 83/211/134
f 84/212/135 83/211/135 31/83/135
f 31/83/136 83/211/136 86/215/136
f 84/213/137 85/214/137 79/205/137
f 79/205/138 85/214/138 86/216/138
f 113/256/139 55/142/139 56/145/139
f 87/217/140 89/220/140 119/265/140
f 92/225/141 88/219/141 90/221/141
f 122/270/142 88/219/142 87/218/142
f 29/78/143 92/225/143 94/227/143
f 89/220/144 93/226/144 94/228/144
f 91/223/145 93/226/145 89/220/145
f 88/219/146 92/225/146 91/224/146
f 95/229/147 97/233/147 124/273/147
f 108/249/148 98/234/148 96/231/148
f 106/246/149 63/163/149 62/160/149
f 107/247/150 95/230/150 98/234/150
f 115/259/151 100/237/151 102/239/151
f 99/235/152 100/237/152 115/259/152
f 112/255/153 101/238/153 102/240/153
f 111/253/154 99/236/154 101/238/154
f 109/250/155 96/232/155 97/233/155
f 103/241/156 104/243/156 62/160/156
f 36/96/157 105/244/157 106/245/157
f 35/94/158 103/242/158 105/244/158
f 45/117/159 56/145/159 6/18/159
f 56/145/160 55/142/160 5/15/160
f 6/18/161 56/145/161 5/15/161
f 54/140/162 106/246/162 104/243/162
f 55/142/160 54/140/160 5/15/160
f 54/140/163 104/243/163 53/137/163
f 52/135/160 61/158/160 60/155/160
f 54/140/160 53/137/160 5/15/160
f 52/135/160 60/155/160 51/132/160
f 53/137/160 52/135/160 5/15/160
f 51/132/160 50/130/160 5/15/160
f 50/130/160 49/127/160 5/15/160
f 51/132/160 5/15/160 52/135/160
f 49/127/160 72/186/160 5/15/160
f 6/18/69 2/6/69 42/110/69
f 2/6/69 41/108/69 42/110/69
f 42/110/164 44/115/164 6/18/164
f 44/115/165 43/112/165 6/18/165
f 109/250/166 110/252/166 45/117/166
f 48/125/167 47/122/167 6/18/167
f 47/122/159 46/120/159 6/18/159
f 46/120/168 109/250/168 45/117/168
f 46/120/159 45/117/159 6/18/159
f 39/104/169 107/247/169 108/249/169
f 40/106/170 108/249/170 109/251/170
f 107/248/171 110/252/171 97/233/171
f 37/99/172 111/253/172 112/255/172
f 38/101/173 112/255/173 114/257/173
f 100/237/174 113/256/174 114/258/174
f 111/254/175 113/256/175 100/237/175
f 117/262/176 115/259/176 64/165/176
f 119/265/177 89/220/177 90/222/177
f 101/238/178 118/264/178 116/260/178
f 99/236/179 117/263/179 118/264/179
f 41/108/69 2/6/69 71/183/69
f 2/6/180 1/3/180 65/168/180
f 71/183/69 2/6/69 70/180/69
f 1/3/160 57/148/160 58/150/160
f 58/150/160 49/127/160 50/130/160
f 59/153/160 60/155/160 1/3/160
f 60/155/160 61/158/160 1/3/160
f 58/150/160 50/130/160 59/153/160
f 70/180/69 2/6/69 69/178/69
f 79/205/181 81/208/181 71/183/181
f 70/180/182 79/205/182 71/183/182
f 1/3/160 58/150/160 59/153/160
f 61/158/160 62/160/160 1/3/160
f 62/160/160 63/163/160 1/3/160
f 69/178/69 2/6/69 68/175/69
f 119/265/183 120/266/183 69/178/183
f 68/175/184 2/6/184 67/173/184
f 64/165/185 115/259/185 116/261/185
f 1/3/160 63/163/160 64/165/160
f 68/175/186 119/265/186 69/178/186
f 65/168/69 66/170/69 2/6/69
f 66/170/187 67/173/187 2/6/187
f 64/165/188 116/261/188 65/168/188
f 18/49/189 122/270/189 121/268/189
f 121/269/190 119/265/190 68/175/190
f 88/219/191 122/270/191 120/267/191
f 125/274/192 124/273/192 66/170/192
f 98/234/193 126/276/193 123/271/193
f 96/232/194 123/272/194 124/273/194
f 95/230/195 125/275/195 126/276/195
