# Blender 3.3.1
# www.blender.org
o Papers.003
v 0.211789 0.468259 0.224947
v 0.118364 0.468259 0.157634
v 0.122978 0.468259 0.348209
v 0.029553 0.468259 0.280896
v 0.122978 0.469755 0.348209
v 0.211789 0.469755 0.224947
v 0.118364 0.469755 0.157634
v 0.029553 0.469755 0.280896
v -0.041952 0.468259 0.115045
v 0.073075 0.468259 0.120355
v -0.034945 0.468259 -0.036718
v 0.080081 0.468259 -0.031407
v -0.034945 0.469755 -0.036718
v -0.041952 0.469755 0.115045
v 0.073075 0.469755 0.120355
v 0.080081 0.469755 -0.031407
v -0.172342 0.005920 0.879627
v -0.076383 0.005920 0.815977
v -0.256319 0.005920 0.753023
v -0.160361 0.005920 0.689373
v -0.256319 0.007416 0.753023
v -0.172342 0.007416 0.879627
v -0.076383 0.007416 0.815977
v -0.160361 0.007416 0.689373
v 0.159975 0.005920 0.774094
v 0.066550 0.005920 0.706781
v 0.071164 0.005920 0.897356
v -0.022261 0.005920 0.830044
v 0.071164 0.007416 0.897356
v 0.159975 0.007416 0.774094
v 0.066550 0.007416 0.706781
v -0.022261 0.007416 0.830044
v -0.093765 0.005920 0.664192
v 0.021261 0.005920 0.669502
v -0.086759 0.005920 0.512429
v 0.028268 0.005920 0.517740
v -0.086759 0.007416 0.512429
v -0.093765 0.007416 0.664192
v 0.021261 0.007416 0.669502
v 0.028268 0.007416 0.517740
v 0.228397 0.005920 0.728675
v 0.343410 0.005920 0.734264
v 0.235771 0.005920 0.576930
v 0.350785 0.005920 0.582519
v 0.235771 0.007416 0.576930
v 0.228397 0.007416 0.728675
v 0.343410 0.007416 0.734264
v 0.350785 0.007416 0.582519
v 0.055489 0.005920 0.328393
v 0.087415 0.005920 0.439028
v 0.201457 0.005920 0.286271
v 0.233383 0.005920 0.396906
v 0.201457 0.007416 0.286271
v 0.055489 0.007416 0.328393
v 0.087415 0.007416 0.439028
v 0.233383 0.007416 0.396906
v 0.492833 0.005920 0.412446
v 0.519686 0.005920 0.300472
v 0.345097 0.005920 0.377016
v 0.371951 0.005920 0.265042
v 0.345097 0.007416 0.377016
v 0.492833 0.007416 0.412446
v 0.519686 0.007416 0.300472
v 0.371951 0.007416 0.265042
v 0.461459 0.005920 0.613997
v 0.404749 0.005920 0.714213
v 0.593682 0.005920 0.688818
v 0.536972 0.005920 0.789034
v 0.593682 0.007416 0.688818
v 0.461459 0.007416 0.613997
v 0.404749 0.007416 0.714213
v 0.536972 0.007416 0.789034
v 0.290812 0.005920 0.480803
v 0.350482 0.005920 0.579286
v 0.420748 0.005920 0.402077
v 0.480417 0.005920 0.500559
v 0.420748 0.007416 0.402077
v 0.290812 0.007416 0.480803
v 0.350482 0.007416 0.579286
v 0.480417 0.007416 0.500559
v 0.157097 0.468259 -0.197870
v 0.062602 0.468259 -0.132067
v 0.243915 0.468259 -0.073196
v 0.149420 0.468259 -0.007393
v 0.243915 0.469755 -0.073196
v 0.157097 0.469755 -0.197870
v 0.062602 0.469755 -0.132067
v 0.149420 0.469755 -0.007393
v 0.086407 0.468259 0.054520
v 0.187017 0.468259 0.110528
v 0.160303 0.470849 -0.078222
v 0.260913 0.468259 -0.022213
v 0.160303 0.472345 -0.078222
v 0.086407 0.469755 0.054520
v 0.187017 0.469755 0.110528
v 0.260913 0.469755 -0.022213
vn -0.0000 -1.0000 -0.0000
vn -0.0000 1.0000 -0.0000
vn 0.5846 -0.0000 -0.8113
vn -0.8113 -0.0000 -0.5846
vn 0.8113 -0.0000 0.5846
vn -0.5846 -0.0000 0.8113
vn -0.0461 -0.0000 0.9989
vn 0.9989 -0.0000 0.0461
vn -0.9989 -0.0000 -0.0461
vn 0.0461 -0.0000 -0.9989
vn 0.5528 -0.0000 0.8333
vn 0.8333 -0.0000 -0.5528
vn -0.8333 -0.0000 0.5528
vn -0.5528 -0.0000 -0.8333
vn -0.0485 -0.0000 0.9988
vn 0.9988 -0.0000 0.0485
vn -0.9988 -0.0000 -0.0485
vn 0.0485 -0.0000 -0.9988
vn -0.9608 -0.0000 0.2773
vn 0.2773 -0.0000 0.9608
vn -0.2773 -0.0000 -0.9608
vn 0.9608 -0.0000 -0.2773
vn 0.9724 -0.0000 0.2332
vn 0.2332 -0.0000 -0.9724
vn -0.2332 -0.0000 0.9724
vn -0.9724 -0.0000 -0.2332
vn -0.8703 -0.0000 -0.4925
vn -0.4925 -0.0000 0.8703
vn 0.4925 -0.0000 -0.8703
vn 0.8703 -0.0000 0.4925
vn -0.8553 -0.0000 0.5182
vn 0.5182 -0.0000 0.8553
vn -0.5182 -0.0000 -0.8553
vn 0.8553 -0.0000 -0.5182
vn -0.5715 -0.0000 -0.8206
vn -0.8206 -0.0000 0.5715
vn 0.8206 -0.0000 -0.5715
vn 0.5715 -0.0000 0.8206
vn 0.0114 0.9996 0.0258
vn -0.4864 -0.0000 0.8737
vn 0.8737 -0.0000 0.4864
vn -0.8737 -0.0000 -0.4864
vn 0.4864 -0.0000 -0.8737
vn -0.0114 -0.9996 -0.0258
vt 0.000000 0.000000
vt 1.000000 0.000000
vt 0.000000 1.000000
vt 1.000000 1.000000
vt 0.000000 1.000000
vt 0.000000 0.000000
vt 1.000000 0.000000
vt 1.000000 1.000000
vt 0.000000 0.000000
vt 1.000000 0.000000
vt 0.000000 1.000000
vt 1.000000 1.000000
vt 0.000000 1.000000
vt 0.000000 0.000000
vt 1.000000 0.000000
vt 1.000000 1.000000
vt 0.000000 0.000000
vt 1.000000 0.000000
vt 0.000000 1.000000
vt 1.000000 1.000000
vt 0.000000 1.000000
vt 0.000000 0.000000
vt 1.000000 0.000000
vt 1.000000 1.000000
vt 0.000000 0.000000
vt 1.000000 0.000000
vt 0.000000 1.000000
vt 1.000000 1.000000
vt 0.000000 1.000000
vt 0.000000 0.000000
vt 1.000000 0.000000
vt 1.000000 1.000000
vt 0.000000 0.000000
vt 1.000000 0.000000
vt 0.000000 1.000000
vt 1.000000 1.000000
vt 0.000000 1.000000
vt 0.000000 0.000000
vt 1.000000 0.000000
vt 1.000000 1.000000
vt 0.000000 0.000000
vt 1.000000 0.000000
vt 0.000000 1.000000
vt 1.000000 1.000000
vt 0.000000 1.000000
vt 0.000000 0.000000
vt 1.000000 0.000000
vt 1.000000 1.000000
vt 0.000000 0.000000
vt 1.000000 0.000000
vt 0.000000 1.000000
vt 1.000000 1.000000
vt 0.000000 1.000000
vt 0.000000 0.000000
vt 1.000000 0.000000
vt 1.000000 1.000000
vt 0.000000 0.000000
vt 1.000000 0.000000
vt 0.000000 1.000000
vt 1.000000 1.000000
vt 0.000000 1.000000
vt 0.000000 0.000000
vt 1.000000 0.000000
vt 1.000000 1.000000
vt 0.000000 0.000000
vt 1.000000 0.000000
vt 0.000000 1.000000
vt 1.000000 1.000000
vt 0.000000 1.000000
vt 0.000000 0.000000
vt 1.000000 0.000000
vt 1.000000 1.000000
vt 0.000000 0.000000
vt 1.000000 0.000000
vt 0.000000 1.000000
vt 1.000000 1.000000
vt 0.000000 1.000000
vt 0.000000 0.000000
vt 1.000000 0.000000
vt 1.000000 1.000000
vt 0.000000 0.000000
vt 1.000000 0.000000
vt 0.000000 1.000000
vt 1.000000 1.000000
vt 0.000000 1.000000
vt 0.000000 0.000000
vt 1.000000 0.000000
vt 1.000000 1.000000
vt 0.000000 0.000000
vt 1.000000 0.000000
vt 0.000000 1.000000
vt 1.000000 1.000000
vt 0.000000 1.000000
vt 0.000000 0.000000
vt 1.000000 0.000000
vt 1.000000 1.000000
s 0
f 3/3/1 2/2/1 1/1/1
f 7/7/2 5/5/2 6/6/2
f 2/2/3 6/6/3 1/1/3
f 4/4/4 7/7/4 2/2/4
f 1/1/5 5/5/5 3/3/5
f 3/3/6 8/8/6 4/4/6
f 11/11/1 10/10/1 9/9/1
f 15/15/2 13/13/2 14/14/2
f 10/10/7 14/14/7 9/9/7
f 12/12/8 15/15/8 10/10/8
f 9/9/9 13/13/9 11/11/9
f 11/11/10 16/16/10 12/12/10
f 17/17/1 20/20/1 18/18/1
f 22/22/2 24/24/2 21/21/2
f 18/18/11 22/22/11 17/17/11
f 20/20/12 23/23/12 18/18/12
f 17/17/13 21/21/13 19/19/13
f 19/19/14 24/24/14 20/20/14
f 27/27/1 26/26/1 25/25/1
f 31/31/2 29/29/2 30/30/2
f 26/26/3 30/30/3 25/25/3
f 28/28/4 31/31/4 26/26/4
f 25/25/5 29/29/5 27/27/5
f 27/27/6 32/32/6 28/28/6
f 35/35/1 34/34/1 33/33/1
f 39/39/2 37/37/2 38/38/2
f 34/34/7 38/38/7 33/33/7
f 36/36/8 39/39/8 34/34/8
f 33/33/9 37/37/9 35/35/9
f 35/35/10 40/40/10 36/36/10
f 43/43/1 42/42/1 41/41/1
f 47/47/2 45/45/2 46/46/2
f 42/42/15 46/46/15 41/41/15
f 44/44/16 47/47/16 42/42/16
f 41/41/17 45/45/17 43/43/17
f 43/43/18 48/48/18 44/44/18
f 51/51/1 50/50/1 49/49/1
f 55/55/2 53/53/2 54/54/2
f 50/50/19 54/54/19 49/49/19
f 52/52/20 55/55/20 50/50/20
f 49/49/21 53/53/21 51/51/21
f 51/51/22 56/56/22 52/52/22
f 57/57/1 60/60/1 58/58/1
f 62/62/2 64/64/2 61/61/2
f 58/58/23 62/62/23 57/57/23
f 60/60/24 63/63/24 58/58/24
f 57/57/25 61/61/25 59/59/25
f 59/59/26 64/64/26 60/60/26
f 65/65/1 68/68/1 66/66/1
f 70/70/2 72/72/2 69/69/2
f 66/66/27 70/70/27 65/65/27
f 68/68/28 71/71/28 66/66/28
f 65/65/29 69/69/29 67/67/29
f 67/67/30 72/72/30 68/68/30
f 75/75/1 74/74/1 73/73/1
f 79/79/2 77/77/2 78/78/2
f 74/74/31 78/78/31 73/73/31
f 76/76/32 79/79/32 74/74/32
f 73/73/33 77/77/33 75/75/33
f 75/75/34 80/80/34 76/76/34
f 83/83/1 82/82/1 81/81/1
f 87/87/2 85/85/2 86/86/2
f 82/82/35 86/86/35 81/81/35
f 84/84/36 87/87/36 82/82/36
f 81/81/37 85/85/37 83/83/37
f 83/83/38 88/88/38 84/84/38
f 89/89/1 92/92/1 90/90/1
f 94/94/39 96/96/39 93/93/39
f 90/90/40 94/94/40 89/89/40
f 92/92/41 95/95/41 90/90/41
f 91/91/42 94/94/42 93/93/42
f 91/91/43 96/96/43 92/92/43
f 3/3/1 4/4/1 2/2/1
f 7/7/2 8/8/2 5/5/2
f 2/2/3 7/7/3 6/6/3
f 4/4/4 8/8/4 7/7/4
f 1/1/5 6/6/5 5/5/5
f 3/3/6 5/5/6 8/8/6
f 11/11/1 12/12/1 10/10/1
f 15/15/2 16/16/2 13/13/2
f 10/10/7 15/15/7 14/14/7
f 12/12/8 16/16/8 15/15/8
f 9/9/9 14/14/9 13/13/9
f 11/11/10 13/13/10 16/16/10
f 17/17/1 19/19/1 20/20/1
f 22/22/2 23/23/2 24/24/2
f 18/18/11 23/23/11 22/22/11
f 20/20/12 24/24/12 23/23/12
f 17/17/13 22/22/13 21/21/13
f 19/19/14 21/21/14 24/24/14
f 27/27/1 28/28/1 26/26/1
f 31/31/2 32/32/2 29/29/2
f 26/26/3 31/31/3 30/30/3
f 28/28/4 32/32/4 31/31/4
f 25/25/5 30/30/5 29/29/5
f 27/27/6 29/29/6 32/32/6
f 35/35/1 36/36/1 34/34/1
f 39/39/2 40/40/2 37/37/2
f 34/34/7 39/39/7 38/38/7
f 36/36/8 40/40/8 39/39/8
f 33/33/9 38/38/9 37/37/9
f 35/35/10 37/37/10 40/40/10
f 43/43/1 44/44/1 42/42/1
f 47/47/2 48/48/2 45/45/2
f 42/42/15 47/47/15 46/46/15
f 44/44/16 48/48/16 47/47/16
f 41/41/17 46/46/17 45/45/17
f 43/43/18 45/45/18 48/48/18
f 51/51/1 52/52/1 50/50/1
f 55/55/2 56/56/2 53/53/2
f 50/50/19 55/55/19 54/54/19
f 52/52/20 56/56/20 55/55/20
f 49/49/21 54/54/21 53/53/21
f 51/51/22 53/53/22 56/56/22
f 57/57/1 59/59/1 60/60/1
f 62/62/2 63/63/2 64/64/2
f 58/58/23 63/63/23 62/62/23
f 60/60/24 64/64/24 63/63/24
f 57/57/25 62/62/25 61/61/25
f 59/59/26 61/61/26 64/64/26
f 65/65/1 67/67/1 68/68/1
f 70/70/2 71/71/2 72/72/2
f 66/66/27 71/71/27 70/70/27
f 68/68/28 72/72/28 71/71/28
f 65/65/29 70/70/29 69/69/29
f 67/67/30 69/69/30 72/72/30
f 75/75/1 76/76/1 74/74/1
f 79/79/2 80/80/2 77/77/2
f 74/74/31 79/79/31 78/78/31
f 76/76/32 80/80/32 79/79/32
f 73/73/33 78/78/33 77/77/33
f 75/75/34 77/77/34 80/80/34
f 83/83/1 84/84/1 82/82/1
f 87/87/2 88/88/2 85/85/2
f 82/82/35 87/87/35 86/86/35
f 84/84/36 88/88/36 87/87/36
f 81/81/37 86/86/37 85/85/37
f 83/83/38 85/85/38 88/88/38
f 89/89/44 91/91/44 92/92/44
f 94/94/2 95/95/2 96/96/2
f 90/90/40 95/95/40 94/94/40
f 92/92/41 96/96/41 95/95/41
f 91/91/42 89/89/42 94/94/42
f 91/91/43 93/93/43 96/96/43
