# Blender 3.3.1
# www.blender.org
o Walls
v -1.890510 0.004205 1.748643
v -1.890510 2.004205 1.748643
v -1.890510 0.004205 -0.412724
v -1.890510 2.004205 -0.412724
v 1.000000 0.004205 1.748643
v 1.000000 2.004205 1.748643
v 1.000000 0.004205 -0.412724
v 1.000000 2.004205 -0.412724
vn -1.0000 -0.0000 -0.0000
vn -0.0000 -0.0000 -1.0000
vn 1.0000 -0.0000 -0.0000
vn -0.0000 -0.0000 1.0000
vt 0.387378 0.867055
vt 1.662994 -0.976536
vt 1.662994 0.867055
vt 0.387378 -0.976536
vt 0.387378 0.867055
vt 0.387378 2.245593
vt 1.662994 2.245593
vt -0.888238 0.867055
vt 1.662994 0.867055
vt -0.888238 2.245593
vt 0.387378 2.245593
vt 0.387378 0.867055
vt -0.888238 0.867055
vt 0.387378 -0.976536
vt -0.888238 -0.976536
vt 0.387378 0.867055
s 0
f 2/3/1 3/6/1 1/1/1
f 4/8/2 7/14/2 3/5/2
f 8/16/3 5/10/3 7/13/3
f 6/12/4 1/2/4 5/9/4
f 2/3/1 4/7/1 3/6/1
f 4/8/2 8/15/2 7/14/2
f 8/16/3 6/11/3 5/10/3
f 6/12/4 2/4/4 1/2/4
