# Blender 3.3.1
# www.blender.org
o Floor
v 0.483322 0.000855 -0.996030
v 0.483322 0.000855 0.000387
v -0.483322 0.000855 -0.996030
v -0.483322 0.000855 0.000387
v 0.483322 0.000855 0.996931
v -0.483322 0.000855 -6.995195
v -0.483322 0.000855 0.996931
v 0.483322 0.000855 -6.995195
v 0.483322 0.000855 -1.996544
v -0.483322 0.000855 -1.996544
v 0.483322 0.000855 -2.994359
v -0.483322 0.000855 -2.994359
v 0.483322 0.000855 -4.000167
v -0.483322 0.000855 -4.000167
v 0.483322 0.000855 -4.994965
v -0.483322 0.000855 -4.994965
v 0.483322 0.000855 -5.998655
v -0.483322 0.000855 -5.998655
vn -0.0000 1.0000 -0.0000
vt 0.884457 2.777593
vt 1.281069 3.814853
vt 1.890723 2.392832
vt 2.287336 3.430092
vt 1.677731 4.852245
vt -0.497171 -3.852245
vt 2.683998 4.467484
vt -1.503439 -3.467484
vt 0.486214 1.736067
vt 1.492481 1.351305
vt 0.089045 0.697351
vt 1.095312 0.312589
vt -0.311305 -0.349686
vt 0.694963 -0.734447
vt -0.707272 -1.385261
vt 0.298997 -1.770023
vt -1.106778 -2.430095
vt -0.100510 -2.814855
s 0
f 4/4/1 1/1/1 3/3/1
f 7/7/1 2/2/1 4/4/1
f 9/9/1 3/3/1 1/1/1
f 13/13/1 12/12/1 11/11/1
f 11/11/1 10/10/1 9/9/1
f 15/15/1 14/14/1 13/13/1
f 17/17/1 16/16/1 15/15/1
f 6/6/1 17/17/1 8/8/1
f 4/4/1 2/2/1 1/1/1
f 7/7/1 5/5/1 2/2/1
f 9/9/1 10/10/1 3/3/1
f 13/13/1 14/14/1 12/12/1
f 11/11/1 12/12/1 10/10/1
f 15/15/1 16/16/1 14/14/1
f 17/17/1 18/18/1 16/16/1
f 6/6/1 18/18/1 17/17/1
o Floor.001
v -6.698507 0.000855 -7.254358
v -7.694924 0.000855 -7.254358
v -6.698507 0.000855 -8.221002
v -7.694924 0.000855 -8.221002
v -8.691468 0.000855 -7.254358
v -0.699342 0.000855 -8.221002
v -8.691468 0.000855 -8.221002
v -0.699342 0.000855 -7.254357
v -5.697993 0.000855 -7.254358
v -5.697993 0.000855 -8.221002
v -4.700178 0.000855 -7.254358
v -4.700178 0.000855 -8.221002
v -3.694370 0.000855 -7.254358
v -3.694370 0.000855 -8.221002
v -2.699573 0.000855 -7.254358
v -2.699573 0.000855 -8.221002
v -1.695882 0.000855 -7.254358
v -1.695882 0.000855 -8.221002
vn -0.0000 1.0000 -0.0000
vt 0.884457 2.777593
vt 1.281069 3.814853
vt 1.890723 2.392832
vt 2.287336 3.430092
vt 1.677731 4.852245
vt -0.497171 -3.852245
vt 2.683998 4.467484
vt -1.503439 -3.467484
vt 0.486214 1.736067
vt 1.492481 1.351305
vt 0.089045 0.697351
vt 1.095312 0.312589
vt -0.311305 -0.349686
vt 0.694963 -0.734447
vt -0.707272 -1.385261
vt 0.298997 -1.770023
vt -1.106778 -2.430095
vt -0.100510 -2.814855
s 0
f 22/22/2 19/19/2 21/21/2
f 25/25/2 20/20/2 22/22/2
f 27/27/2 21/21/2 19/19/2
f 31/31/2 30/30/2 29/29/2
f 29/29/2 28/28/2 27/27/2
f 33/33/2 32/32/2 31/31/2
f 35/35/2 34/34/2 33/33/2
f 24/24/2 35/35/2 26/26/2
f 22/22/2 20/20/2 19/19/2
f 25/25/2 23/23/2 20/20/2
f 27/27/2 28/28/2 21/21/2
f 31/31/2 32/32/2 30/30/2
f 29/29/2 30/30/2 28/28/2
f 33/33/2 34/34/2 32/32/2
f 35/35/2 36/36/2 34/34/2
f 24/24/2 36/36/2 35/35/2
