# Blender 3.3.1
# www.blender.org
o Box
v -0.699344 -0.020131 -6.995194
v -0.699344 1.900463 -6.995194
v -0.699344 -0.020131 -8.439479
v -0.699344 1.900463 -8.439479
v 0.699344 -0.020131 -6.995194
v 0.699344 1.900463 -6.995194
v 0.699344 -0.020131 -8.439479
v 0.699344 1.900463 -8.439479
v 0.483322 0.949529 -6.995199
v 0.483322 0.000855 -6.995199
v -0.483322 0.949529 -6.995199
v -0.483322 0.000855 -6.995199
v 0.479026 0.974968 -6.995199
v -0.479026 0.974968 -6.995199
v 0.470433 1.067820 -6.995199
v -0.470433 1.067820 -6.995199
v 0.449350 1.158129 -6.995199
v -0.449350 1.158129 -6.995199
v 0.408961 1.240276 -6.995199
v -0.408961 1.240276 -6.995199
v 0.343691 1.311823 -6.995199
v -0.343691 1.311823 -6.995199
v 0.276867 1.367471 -6.995199
v -0.276867 1.367471 -6.995199
v 0.178915 1.420469 -6.995199
v -0.178915 1.420469 -6.995199
v 0.102209 1.444318 -6.995199
v -0.102209 1.444318 -6.995199
v 0.031958 1.456684 -6.995199
v -0.031958 1.456684 -6.995199
v -0.343691 1.311823 -6.995194
v -0.276867 1.367471 -6.995194
v -0.178915 1.420469 -6.995194
v -0.102209 1.444318 -6.995194
v 0.102209 1.444318 -6.995194
v 0.031958 1.456684 -6.995194
v -0.031958 1.456684 -6.995194
v 0.276867 1.367471 -6.995194
v 0.343691 1.311823 -6.995194
v 0.408961 1.240276 -6.995194
v 0.470433 1.067820 -6.995194
v 0.483322 0.949529 -6.995194
v 0.479026 0.974968 -6.995194
v 0.449350 1.158129 -6.995194
v 0.178915 1.420469 -6.995194
v -0.483322 0.000855 -6.995194
v -0.479026 0.974968 -6.995194
v -0.483322 0.949529 -6.995194
v -0.449350 1.158129 -6.995194
v 0.483322 0.000855 -6.995194
v -0.408961 1.240276 -6.995194
v -0.470433 1.067820 -6.995194
v -0.699344 0.000855 -7.254357
v -0.699344 1.311823 -8.081370
v -0.699344 1.240276 -8.146641
v -0.699344 1.311823 -8.081370
v -0.699344 0.974968 -8.216705
v -0.699344 0.974968 -8.216705
v -0.699344 1.067820 -8.208113
v -0.699344 0.949529 -8.221002
v -0.699344 0.000855 -8.221002
v -0.699344 1.158129 -8.187030
v -0.699344 1.158129 -8.187029
v -0.699344 0.949529 -7.254357
v -0.699344 0.949529 -7.254357
v -0.699344 0.974968 -7.258654
v -0.699344 0.974968 -7.258654
v -0.699344 1.067820 -7.267246
v -0.699344 1.067821 -7.267246
v -0.699344 1.158129 -7.288330
v -0.699344 1.311823 -7.393989
v -0.699344 1.311824 -7.393989
v -0.699344 1.311823 -7.393989
v -0.699344 1.240276 -7.328718
v -0.699344 1.240276 -7.328719
v -0.699344 1.367471 -7.460813
v -0.699344 1.367471 -7.460813
v -0.699344 1.420469 -7.558764
v -0.699344 1.367471 -7.460813
v -0.699344 1.420469 -7.558764
v -0.699344 1.420469 -7.558765
v -0.699344 1.456684 -7.705722
v -0.699344 1.444318 -7.635471
v -0.699344 1.456684 -7.769637
v -0.699344 1.456684 -7.769638
v -0.699344 1.444318 -7.635471
v -0.699344 1.444318 -7.635471
v -0.699344 1.444318 -7.839889
v -0.699344 1.444318 -7.839888
v -0.699344 1.444318 -7.839889
v -0.699344 1.367471 -8.014546
v -0.699344 1.420469 -7.916595
v -0.699344 1.367471 -8.014546
v -0.699344 1.367471 -8.014547
v -0.699344 1.420469 -7.916595
v -0.699344 1.420469 -7.916595
v -0.699344 1.456684 -7.769638
vn 1.0000 -0.0000 -0.0000
vn 0.9827 -0.0000 0.1851
vn -0.0000 -0.0000 1.0000
vn -1.0000 -0.0000 -0.0000
vn -0.0000 -0.0000 -1.0000
vn -0.0000 1.0000 -0.0000
vn -0.0000 -1.0000 -0.0000
vn 0.4786 0.8780 -0.0000
vn 0.9957 0.0931 -0.0000
vn -0.4786 0.8780 -0.0000
vn -0.9957 0.0931 -0.0000
vn 0.1753 0.9845 -0.0000
vn 0.8918 0.4524 -0.0000
vn -0.1753 0.9845 -0.0000
vn -0.8918 0.4524 -0.0000
vn -0.7352 0.6779 -0.0000
vn 0.7352 0.6779 -0.0000
vn -0.9723 0.2337 -0.0000
vn -0.2980 0.9546 -0.0000
vn 0.9723 0.2337 -0.0000
vn 0.2980 0.9546 -0.0000
vn -0.9858 0.1682 -0.0000
vn -0.6448 0.7644 -0.0000
vn 0.9858 0.1682 -0.0000
vn 0.6448 0.7644 -0.0000
vn 0.4959 -0.0000 0.8684
vn 0.9734 -0.0000 -0.2292
vn 0.9973 -0.0000 -0.0740
vn 0.9899 -0.0000 0.1414
vn 0.9985 -0.0000 -0.0554
vn 0.9447 -0.0000 0.3280
vn -0.9701 -0.0000 0.2425
vn 0.9879 -0.0000 0.1551
vn -0.0000 0.0001 -1.0000
vn 0.8994 0.4372 -0.0000
vn -0.8994 0.4372 -0.0000
vn -0.9744 0.2248 -0.0000
vn 0.9744 0.2248 -0.0000
vt 0.663122 0.460719
vt 0.000000 0.158667
vt 0.366140 0.003464
vt 1.664222 0.003464
vt 0.989365 0.690695
vt 0.366140 0.994873
vt 1.664222 0.994873
vt 0.165386 0.994722
vt 1.664222 0.003464
vt 0.989365 0.460719
vt 0.336878 0.158667
vt -0.725957 0.003464
vt -0.725957 0.994873
vt 1.664222 0.994873
vt 0.165386 0.537240
vt 0.366140 0.003464
vt 0.606602 0.003464
vt 0.336878 0.460719
vt 0.663122 0.690695
vt 0.366140 0.994873
vt 0.606602 0.994873
vt 0.814369 0.994722
vt -0.725957 0.003464
vt 0.606602 0.003464
vt 0.663122 0.460719
vt 0.814369 0.537240
vt 0.606602 0.994873
vt -0.725957 0.994873
vt 0.326245 0.611419
vt 0.326245 0.461724
vt 0.326247 0.566801
vt 0.326243 0.610922
vt 0.326247 0.461724
vt 0.326245 0.615525
vt 0.326243 0.615030
vt 0.326245 0.630360
vt 0.326243 0.629847
vt 0.326245 0.645060
vt 0.326243 0.644575
vt 0.326245 0.658885
vt 0.326243 0.658501
vt 0.326245 0.671568
vt 0.326248 0.461724
vt 0.326243 0.671379
vt 0.326248 0.536444
vt 0.326248 0.468988
vt 0.326248 0.529180
vt 0.326248 0.479636
vt 0.326248 0.518533
vt 0.326248 0.487974
vt 0.326248 0.510195
vt 0.326248 0.495610
vt 0.326248 0.502558
vt 0.326247 0.536444
vt 1.395294 0.691018
vt 0.326244 0.671379
vt 1.344765 0.719743
vt 0.326247 0.529180
vt 1.270699 0.747100
vt 0.326247 0.518533
vt 1.212697 0.759411
vt 0.326247 0.510195
vt 1.058126 0.759411
vt 0.326247 0.487974
vt 1.111247 0.765795
vt 0.326247 0.495610
vt 1.159576 0.765795
vt 0.326247 0.502558
vt 0.926058 0.719743
vt 0.326247 0.468988
vt 0.875529 0.691018
vt 0.326244 0.671568
vt 0.326247 0.461724
vt 0.826175 0.654085
vt 0.326244 0.658885
vt 0.779693 0.565064
vt 0.326244 0.630360
vt 0.769947 0.504002
vt 0.326244 0.611419
vt 0.773196 0.517133
vt 0.326244 0.615525
vt 0.795635 0.611681
vt 0.326244 0.645060
vt 1.000124 0.747100
vt 0.326247 0.479636
vt 1.500876 0.014297
vt 0.612735 0.464061
vt 0.326244 0.461724
vt 1.497627 0.517133
vt 0.326244 0.615030
vt 1.500876 0.504002
vt 0.326244 0.610922
vt 1.475188 0.611681
vt 0.326244 0.644575
vt 0.326245 0.566801
vt 0.769947 0.014297
vt 0.387266 0.464061
vt 0.326244 0.461724
vt 1.444648 0.654085
vt 0.326244 0.658501
vt 1.491130 0.565064
vt 0.326244 0.629847
vt 0.060450 0.161978
vt 0.170173 0.014297
vt -0.455173 0.691018
vt -0.504527 0.654085
vt -0.455173 0.691018
vt -0.557507 0.517133
vt -0.557507 0.517133
vt -0.551009 0.565063
vt -0.560755 0.504002
vt 0.285919 0.161978
vt -0.560755 0.014297
vt -0.535068 0.611681
vt -0.535067 0.611681
vt 0.170173 0.504002
vt 0.170173 0.504002
vt 0.166925 0.517133
vt 0.166925 0.517133
vt 0.160428 0.565063
vt 0.160428 0.565064
vt 0.144485 0.611681
vt 0.064591 0.691018
vt 0.064591 0.691018
vt 0.064591 0.691018
vt 0.113945 0.654085
vt 0.113945 0.654085
vt 0.014062 0.719743
vt 0.014062 0.719743
vt -0.060004 0.747101
vt 0.014062 0.719743
vt -0.060004 0.747101
vt -0.060005 0.747101
vt -0.171126 0.765795
vt -0.118006 0.759411
vt -0.219455 0.765795
vt -0.219456 0.765795
vt -0.118006 0.759411
vt -0.118006 0.759411
vt -0.272576 0.759411
vt -0.272576 0.759411
vt -0.272576 0.759411
vt -0.404644 0.719743
vt -0.330578 0.747100
vt -0.404644 0.719743
vt -0.404645 0.719743
vt -0.330578 0.747101
vt -0.330578 0.747100
vt -0.219456 0.765795
s 0
f 53/103/1 3/11/1 61/112/1
f 2/6/2 86/138/2 87/139/2
f 7/24/3 4/14/3 3/9/3
f 5/16/4 8/28/4 7/23/4
f 35/63/5 36/65/5 2/7/5
f 46/87/5 5/18/5 1/1/5
f 1/5/6 7/25/6 3/10/6
f 6/22/7 4/15/7 8/26/7
f 38/70/8 25/48/8 45/85/8
f 41/77/9 13/34/9 15/36/9
f 42/79/1 10/30/1 9/29/1
f 33/60/10 24/47/10 32/58/10
f 47/90/11 16/37/11 14/35/11
f 35/64/12 29/52/12 36/66/12
f 40/75/13 17/38/13 19/40/13
f 46/88/7 10/31/7 50/95/7
f 37/68/14 28/51/14 34/62/14
f 49/94/15 20/41/15 18/39/15
f 46/88/4 11/32/4 12/33/4
f 31/56/16 20/41/16 51/100/16
f 39/72/17 19/40/17 21/42/17
f 52/102/18 18/39/18 16/37/18
f 34/62/19 26/49/19 33/60/19
f 44/83/20 15/36/20 17/38/20
f 45/85/21 27/50/21 35/64/21
f 48/92/22 14/35/22 11/32/22
f 32/58/23 22/45/23 31/54/23
f 36/66/6 30/53/6 37/68/6
f 43/81/24 9/29/24 13/34/24
f 39/73/25 23/46/25 38/70/25
f 53/103/1 1/2/1 3/11/1
f 59/110/26 57/108/26 58/109/26
f 60/111/1 61/113/1 3/12/1
f 59/110/1 58/109/1 60/111/1
f 59/110/1 60/111/1 3/12/1
f 2/6/1 1/3/1 53/104/1
f 64/116/1 65/117/1 66/118/1
f 2/6/1 53/104/1 64/116/1
f 59/110/1 3/12/1 4/13/1
f 62/114/1 59/110/1 4/13/1
f 2/6/1 64/116/1 66/118/1
f 66/118/1 67/119/1 68/120/1
f 2/6/1 66/118/1 68/120/1
f 63/115/1 62/114/1 4/13/1
f 56/107/1 54/105/1 55/106/1
f 55/106/1 63/115/1 4/13/1
f 2/6/27 68/120/27 69/121/27
f 2/6/1 69/121/1 70/122/1
f 56/107/1 55/106/1 4/13/1
f 91/143/1 93/145/1 94/146/1
f 94/146/1 56/107/1 4/13/1
f 2/6/1 70/122/1 74/126/1
f 2/6/28 74/126/28 75/127/28
f 91/143/29 94/146/29 4/13/29
f 96/148/3 92/144/3 91/143/3
f 88/140/1 90/142/1 95/147/1
f 95/147/6 96/148/6 91/143/6
f 2/6/1 75/127/1 71/123/1
f 73/125/6 72/124/6 76/128/6
f 2/6/30 71/123/30 73/125/30
f 95/147/1 91/143/1 4/13/1
f 88/140/1 95/147/1 4/13/1
f 2/6/1 73/125/1 76/128/1
f 77/129/6 79/131/6 78/130/6
f 2/6/31 76/128/31 77/129/31
f 88/140/1 4/13/1 2/6/1
f 89/141/1 88/140/1 2/6/1
f 2/6/1 77/129/1 78/130/1
f 78/130/32 80/132/32 81/133/32
f 2/6/33 78/130/33 81/133/33
f 97/149/1 89/141/1 2/6/1
f 84/136/6 85/137/6 97/149/6
f 87/139/6 83/135/6 82/134/6
f 84/136/1 97/149/1 2/6/1
f 82/134/1 84/136/1 2/6/1
f 2/6/1 81/133/1 86/138/1
f 87/139/1 82/134/1 2/6/1
f 7/24/3 8/27/3 4/14/3
f 5/16/4 6/20/4 8/28/4
f 42/78/5 43/80/5 41/76/5
f 5/17/5 50/96/5 42/78/5
f 46/86/5 1/4/5 2/7/5
f 52/101/5 47/89/5 48/91/5
f 48/91/5 46/86/5 2/7/5
f 6/21/5 5/17/5 42/78/5
f 6/21/5 42/78/5 41/76/5
f 52/101/5 48/91/5 2/7/5
f 49/93/5 52/101/5 2/7/5
f 6/21/5 41/76/5 44/82/5
f 6/21/5 44/82/5 40/74/5
f 51/99/5 49/93/5 2/7/5
f 31/55/5 51/99/5 2/7/5
f 6/21/5 40/74/5 39/71/5
f 6/21/5 39/71/5 38/69/5
f 32/57/5 31/55/5 2/7/5
f 33/59/5 32/57/5 2/7/5
f 2/7/5 6/21/5 38/69/5
f 2/7/34 38/69/34 45/84/34
f 34/61/5 33/59/5 2/7/5
f 37/67/5 34/61/5 2/7/5
f 2/7/5 45/84/5 35/63/5
f 36/65/5 37/67/5 2/7/5
f 46/87/5 50/97/5 5/18/5
f 1/5/6 5/19/6 7/25/6
f 6/22/7 2/8/7 4/15/7
f 38/70/8 23/46/8 25/48/8
f 41/77/9 43/81/9 13/34/9
f 42/79/1 50/98/1 10/30/1
f 33/60/10 26/49/10 24/47/10
f 47/90/11 52/102/11 16/37/11
f 35/64/12 27/50/12 29/52/12
f 40/75/35 44/83/35 17/38/35
f 46/88/7 12/33/7 10/31/7
f 37/68/14 30/53/14 28/51/14
f 49/94/36 51/100/36 20/41/36
f 46/88/4 48/92/4 11/32/4
f 31/56/16 22/44/16 20/41/16
f 39/72/17 40/75/17 19/40/17
f 52/102/37 49/94/37 18/39/37
f 34/62/19 28/51/19 26/49/19
f 44/83/38 41/77/38 15/36/38
f 45/85/21 25/48/21 27/50/21
f 48/92/22 47/90/22 14/35/22
f 32/58/23 24/47/23 22/45/23
f 36/66/6 29/52/6 30/53/6
f 43/81/24 42/79/24 9/29/24
f 39/73/25 21/43/25 23/46/25
o Box.002
v -8.691290 -0.020131 -8.481236
v -8.691290 1.900463 -8.481236
v -8.691290 -0.020131 -7.036952
v -8.691290 1.900463 -7.036952
v -10.089978 -0.020131 -8.481236
v -10.089978 1.900463 -8.481236
v -10.089979 -0.020131 -7.036952
v -10.089979 1.900463 -7.036952
v -9.873957 0.949529 -8.481232
v -9.873957 0.000855 -8.481232
v -8.907312 0.949529 -8.481232
v -8.907312 0.000855 -8.481232
v -9.869660 0.974968 -8.481232
v -8.911609 0.974968 -8.481232
v -9.861068 1.067820 -8.481232
v -8.920201 1.067820 -8.481232
v -9.839984 1.158129 -8.481232
v -8.941284 1.158129 -8.481232
v -9.799596 1.240276 -8.481232
v -8.981673 1.240276 -8.481232
v -9.734325 1.311823 -8.481232
v -9.046944 1.311823 -8.481232
v -9.667501 1.367471 -8.481232
v -9.113768 1.367471 -8.481232
v -9.569550 1.420469 -8.481232
v -9.211720 1.420469 -8.481232
v -9.492843 1.444318 -8.481232
v -9.288425 1.444318 -8.481232
v -9.422592 1.456684 -8.481232
v -9.358677 1.456684 -8.481232
v -9.046944 1.311823 -8.481236
v -9.113768 1.367471 -8.481236
v -9.211720 1.420469 -8.481236
v -9.288425 1.444318 -8.481236
v -9.492843 1.444318 -8.481236
v -9.422592 1.456684 -8.481236
v -9.358677 1.456684 -8.481236
v -9.667501 1.367471 -8.481236
v -9.734325 1.311823 -8.481236
v -9.799596 1.240276 -8.481236
v -9.861068 1.067820 -8.481236
v -9.873957 0.949529 -8.481236
v -9.869660 0.974968 -8.481236
v -9.839984 1.158129 -8.481236
v -9.569550 1.420469 -8.481236
v -8.907312 0.000855 -8.481236
v -8.911609 0.974968 -8.481236
v -8.907312 0.949529 -8.481236
v -8.941284 1.158129 -8.481236
v -9.873957 0.000855 -8.481236
v -8.981673 1.240276 -8.481236
v -8.920201 1.067820 -8.481236
v -8.691290 0.000855 -8.222073
v -8.691290 1.311823 -7.395060
v -8.691290 1.240276 -7.329790
v -8.691290 1.311823 -7.395060
v -8.691290 0.974968 -7.259725
v -8.691290 0.974968 -7.259725
v -8.691290 1.067820 -7.268318
v -8.691290 0.949529 -7.255429
v -8.691290 0.000855 -7.255429
v -8.691290 1.158129 -7.289401
v -8.691290 1.158129 -7.289401
v -8.691290 0.949529 -8.222073
v -8.691290 0.949529 -8.222073
v -8.691290 0.974968 -8.217776
v -8.691290 0.974968 -8.217776
v -8.691290 1.067820 -8.209184
v -8.691290 1.067821 -8.209184
v -8.691290 1.158129 -8.188101
v -8.691290 1.311823 -8.082441
v -8.691290 1.311824 -8.082441
v -8.691290 1.311823 -8.082441
v -8.691290 1.240276 -8.147712
v -8.691290 1.240276 -8.147712
v -8.691290 1.367471 -8.015618
v -8.691290 1.367471 -8.015617
v -8.691290 1.420469 -7.917666
v -8.691290 1.367471 -8.015617
v -8.691290 1.420469 -7.917666
v -8.691290 1.420469 -7.917665
v -8.691290 1.456684 -7.770709
v -8.691290 1.444318 -7.840959
v -8.691290 1.456684 -7.706793
v -8.691290 1.456684 -7.706793
v -8.691290 1.444318 -7.840960
v -8.691290 1.444318 -7.840960
v -8.691290 1.444318 -7.636542
v -8.691290 1.444318 -7.636542
v -8.691290 1.444318 -7.636541
v -8.691290 1.367471 -7.461884
v -8.691290 1.420469 -7.559835
v -8.691290 1.367471 -7.461884
v -8.691290 1.367471 -7.461883
v -8.691290 1.420469 -7.559835
v -8.691290 1.420469 -7.559835
v -8.691290 1.456684 -7.706793
vn -1.0000 -0.0000 -0.0000
vn -0.9827 -0.0000 -0.1851
vn -0.0000 -0.0000 -1.0000
vn 1.0000 -0.0000 -0.0000
vn -0.0000 -0.0000 1.0000
vn -0.0000 1.0000 -0.0000
vn -0.0000 -1.0000 -0.0000
vn -0.4786 0.8780 -0.0000
vn -0.9957 0.0931 -0.0000
vn 0.4786 0.8780 -0.0000
vn 0.9957 0.0931 -0.0000
vn -0.1753 0.9845 -0.0000
vn -0.8918 0.4524 -0.0000
vn 0.1753 0.9845 -0.0000
vn 0.8918 0.4524 -0.0000
vn 0.7352 0.6779 -0.0000
vn -0.7352 0.6779 -0.0000
vn 0.9723 0.2337 -0.0000
vn 0.2980 0.9546 -0.0000
vn -0.9723 0.2337 -0.0000
vn -0.2980 0.9546 -0.0000
vn 0.9858 0.1682 -0.0000
vn 0.6448 0.7644 -0.0000
vn -0.9858 0.1682 -0.0000
vn -0.6448 0.7644 -0.0000
vn -0.4959 -0.0000 -0.8684
vn -0.9734 -0.0000 0.2292
vn -0.9973 -0.0000 0.0740
vn -0.9899 -0.0000 -0.1414
vn -0.9985 -0.0000 0.0554
vn -0.9447 -0.0000 -0.3280
vn 0.9701 -0.0000 -0.2425
vn -0.9879 -0.0000 -0.1551
vn -0.0000 0.0001 1.0000
vn -0.8994 0.4372 -0.0000
vn 0.8994 0.4372 -0.0000
vn 0.9744 0.2248 -0.0000
vn -0.9744 0.2248 -0.0000
vt 0.647628 0.407577
vt 0.000000 0.158667
vt 0.366140 0.003464
vt 1.656639 0.005847
vt 0.989365 0.690695
vt 0.366140 0.994873
vt 1.656639 0.994909
vt 0.165386 0.994722
vt 1.664222 0.003464
vt 0.989365 0.460719
vt 0.336878 0.158667
vt -0.725957 0.003464
vt -0.725957 0.994873
vt 1.664222 0.994873
vt 0.165386 0.537240
vt 0.366140 0.003464
vt 0.609079 0.005847
vt 0.305608 0.407577
vt 0.663122 0.690695
vt 0.366140 0.994873
vt 0.609079 0.994909
vt 0.814369 0.994722
vt -0.725957 0.003464
vt 0.606602 0.003464
vt 0.663122 0.460719
vt 0.814369 0.537240
vt 0.606602 0.994873
vt -0.725957 0.994873
vt 0.358432 0.601725
vt 0.770870 0.505200
vt 0.358432 0.369747
vt 0.770870 0.016655
vt 0.594805 0.601725
vt 1.494848 0.505200
vt 0.594805 0.369747
vt 1.494848 0.016655
vt 0.359482 0.607945
vt 0.774088 0.518300
vt 0.593754 0.607945
vt 1.491629 0.518300
vt 0.361584 0.630650
vt 0.780523 0.566117
vt 0.591653 0.630650
vt 1.485194 0.566117
vt 0.366739 0.652734
vt 0.796314 0.612624
vt 0.586497 0.652734
vt 1.469404 0.612624
vt 0.376615 0.672821
vt 0.826563 0.654928
vt 0.576621 0.672821
vt 1.439154 0.654928
vt 0.392576 0.690316
vt 0.875448 0.691773
vt 0.560661 0.690316
vt 1.390269 0.691773
vt 0.408916 0.703924
vt 0.925497 0.720430
vt 0.544320 0.703924
vt 1.340221 0.720430
vt 0.432868 0.716883
vt 0.998858 0.747723
vt 0.520368 0.716883
vt 1.266859 0.747723
vt 0.451625 0.722715
vt 1.056309 0.760005
vt 0.501611 0.722715
vt 1.209409 0.760005
vt 0.468803 0.725739
vt 1.108923 0.766373
vt 0.484433 0.725739
vt 1.156793 0.766373
vt 1.390269 0.691773
vt 0.560661 0.690316
vt 1.340221 0.720430
vt 0.544320 0.703924
vt 1.266859 0.747723
vt 0.520368 0.716883
vt 1.209409 0.760005
vt 0.501611 0.722715
vt 1.056309 0.760005
vt 0.451625 0.722715
vt 1.108923 0.766373
vt 0.468803 0.725739
vt 1.156793 0.766373
vt 0.484433 0.725739
vt 0.925497 0.720430
vt 0.408916 0.703924
vt 0.875448 0.691773
vt 0.392576 0.690316
vt 0.826563 0.654928
vt 0.376615 0.672821
vt 0.780523 0.566117
vt 0.361584 0.630650
vt 0.770870 0.505200
vt 0.358432 0.601725
vt 0.774088 0.518300
vt 0.359482 0.607945
vt 0.796314 0.612624
vt 0.366739 0.652734
vt 0.998858 0.747723
vt 0.432868 0.716883
vt 1.494848 0.016655
vt 0.594805 0.411080
vt 0.594805 0.369747
vt 1.491629 0.518300
vt 0.593754 0.607945
vt 1.494848 0.505200
vt 0.594805 0.601725
vt 1.469404 0.612624
vt 0.586497 0.652734
vt 0.770870 0.016655
vt 0.358432 0.411080
vt 0.358432 0.369747
vt 1.439154 0.654928
vt 0.576621 0.672821
vt 1.485194 0.566117
vt 0.591653 0.630650
vt 0.060450 0.161978
vt 0.170173 0.014297
vt -0.455173 0.691018
vt -0.504527 0.654085
vt -0.455173 0.691018
vt -0.557507 0.517133
vt -0.557507 0.517133
vt -0.551009 0.565063
vt -0.560755 0.504002
vt 0.285919 0.161978
vt -0.560755 0.014297
vt -0.535068 0.611681
vt -0.535067 0.611681
vt 0.170173 0.504002
vt 0.170173 0.504002
vt 0.166925 0.517133
vt 0.166925 0.517133
vt 0.160428 0.565063
vt 0.160428 0.565064
vt 0.144485 0.611681
vt 0.064591 0.691018
vt 0.064591 0.691018
vt 0.064591 0.691018
vt 0.113945 0.654085
vt 0.113945 0.654085
vt 0.014062 0.719743
vt 0.014062 0.719743
vt -0.060004 0.747101
vt 0.014062 0.719743
vt -0.060004 0.747101
vt -0.060005 0.747101
vt -0.171126 0.765795
vt -0.118006 0.759411
vt -0.219455 0.765795
vt -0.219456 0.765795
vt -0.118006 0.759411
vt -0.118006 0.759411
vt -0.272576 0.759411
vt -0.272576 0.759411
vt -0.272576 0.759411
vt -0.404644 0.719743
vt -0.330578 0.747100
vt -0.404644 0.719743
vt -0.404645 0.719743
vt -0.330578 0.747101
vt -0.330578 0.747100
vt -0.219456 0.765795
s 0
f 150/268/39 100/160/39 158/277/39
f 99/155/40 183/303/40 184/304/40
f 104/173/41 101/163/41 100/158/41
f 102/165/42 105/177/42 104/172/42
f 132/230/43 133/232/43 99/156/43
f 143/253/43 102/167/43 98/150/43
f 98/154/44 104/174/44 100/159/44
f 103/171/45 101/164/45 105/175/45
f 135/237/46 122/210/46 142/251/46
f 138/243/47 110/186/47 112/190/47
f 139/245/39 107/180/39 106/178/39
f 130/227/48 121/208/48 129/225/48
f 144/256/49 113/192/49 111/188/49
f 132/231/50 126/218/50 133/233/50
f 137/241/51 114/194/51 116/198/51
f 143/254/45 107/180/45 147/263/45
f 134/235/52 125/216/52 131/229/52
f 146/260/53 117/200/53 115/196/53
f 143/254/42 108/182/42 109/184/42
f 128/223/54 117/200/54 148/265/54
f 136/239/55 116/198/55 118/202/55
f 149/267/56 115/196/56 113/192/56
f 131/229/57 123/212/57 130/227/57
f 141/249/58 112/190/58 114/194/58
f 142/251/59 124/214/59 132/231/59
f 145/258/60 111/188/60 108/182/60
f 129/225/61 119/204/61 128/223/61
f 133/233/44 127/220/44 134/235/44
f 140/247/62 106/178/62 110/186/62
f 136/239/63 120/206/63 135/237/63
f 115/197/43 123/213/43 116/199/43
f 150/268/39 98/151/39 100/160/39
f 156/275/64 154/273/64 155/274/64
f 157/276/39 158/278/39 100/161/39
f 156/275/39 155/274/39 157/276/39
f 156/275/39 157/276/39 100/161/39
f 99/155/39 98/152/39 150/269/39
f 161/281/39 162/282/39 163/283/39
f 99/155/39 150/269/39 161/281/39
f 156/275/39 100/161/39 101/162/39
f 159/279/39 156/275/39 101/162/39
f 99/155/39 161/281/39 163/283/39
f 163/283/39 164/284/39 165/285/39
f 99/155/39 163/283/39 165/285/39
f 160/280/39 159/279/39 101/162/39
f 153/272/39 151/270/39 152/271/39
f 152/271/39 160/280/39 101/162/39
f 99/155/65 165/285/65 166/286/65
f 99/155/39 166/286/39 167/287/39
f 153/272/39 152/271/39 101/162/39
f 188/308/39 190/310/39 191/311/39
f 191/311/39 153/272/39 101/162/39
f 99/155/39 167/287/39 171/291/39
f 99/155/66 171/291/66 172/292/66
f 188/308/67 191/311/67 101/162/67
f 193/313/41 189/309/41 188/308/41
f 185/305/39 187/307/39 192/312/39
f 192/312/44 193/313/44 188/308/44
f 99/155/39 172/292/39 168/288/39
f 170/290/44 169/289/44 173/293/44
f 99/155/68 168/288/68 170/290/68
f 192/312/39 188/308/39 101/162/39
f 185/305/39 192/312/39 101/162/39
f 99/155/39 170/290/39 173/293/39
f 174/294/44 176/296/44 175/295/44
f 99/155/69 173/293/69 174/294/69
f 185/305/39 101/162/39 99/155/39
f 186/306/39 185/305/39 99/155/39
f 99/155/39 174/294/39 175/295/39
f 175/295/70 177/297/70 178/298/70
f 99/155/71 175/295/71 178/298/71
f 194/314/39 186/306/39 99/155/39
f 181/301/44 182/302/44 194/314/44
f 184/304/44 180/300/44 179/299/44
f 181/301/39 194/314/39 99/155/39
f 179/299/39 181/301/39 99/155/39
f 99/155/39 178/298/39 183/303/39
f 184/304/39 179/299/39 99/155/39
f 104/173/41 105/176/41 101/163/41
f 102/165/42 103/169/42 105/177/42
f 139/244/43 140/246/43 138/242/43
f 102/166/43 147/261/43 139/244/43
f 143/252/43 98/153/43 99/156/43
f 149/266/43 144/255/43 145/257/43
f 145/257/43 143/252/43 99/156/43
f 103/170/43 102/166/43 139/244/43
f 103/170/43 139/244/43 138/242/43
f 149/266/43 145/257/43 99/156/43
f 146/259/43 149/266/43 99/156/43
f 103/170/43 138/242/43 141/248/43
f 103/170/43 141/248/43 137/240/43
f 148/264/43 146/259/43 99/156/43
f 128/222/43 148/264/43 99/156/43
f 103/170/43 137/240/43 136/238/43
f 103/170/43 136/238/43 135/236/43
f 129/224/43 128/222/43 99/156/43
f 130/226/43 129/224/43 99/156/43
f 99/156/43 103/170/43 135/236/43
f 99/156/72 135/236/72 142/250/72
f 131/228/43 130/226/43 99/156/43
f 134/234/43 131/228/43 99/156/43
f 99/156/43 142/250/43 132/230/43
f 133/232/43 134/234/43 99/156/43
f 143/253/43 147/262/43 102/167/43
f 98/154/44 102/168/44 104/174/44
f 103/171/45 99/157/45 101/164/45
f 135/237/46 120/206/46 122/210/46
f 138/243/47 140/247/47 110/186/47
f 139/245/39 147/263/39 107/180/39
f 130/227/48 123/212/48 121/208/48
f 144/256/49 149/267/49 113/192/49
f 132/231/50 124/214/50 126/218/50
f 137/241/73 141/249/73 114/194/73
f 143/254/45 109/184/45 107/180/45
f 134/235/52 127/220/52 125/216/52
f 146/260/74 148/265/74 117/200/74
f 143/254/42 145/258/42 108/182/42
f 128/223/54 119/204/54 117/200/54
f 136/239/55 137/241/55 116/198/55
f 149/267/75 146/260/75 115/196/75
f 131/229/57 125/216/57 123/212/57
f 141/249/76 138/243/76 112/190/76
f 142/251/59 122/210/59 124/214/59
f 145/258/60 144/256/60 111/188/60
f 129/225/61 121/208/61 119/204/61
f 133/233/44 126/218/44 127/220/44
f 140/247/62 139/245/62 106/178/62
f 136/239/63 118/202/63 120/206/63
f 110/187/43 106/179/43 107/181/43
f 107/181/43 109/185/43 108/183/43
f 111/189/43 113/193/43 115/197/43
f 107/181/43 108/183/43 111/189/43
f 112/191/43 110/187/43 107/181/43
f 116/199/43 114/195/43 112/191/43
f 120/207/43 118/203/43 116/199/43
f 124/215/43 122/211/43 120/207/43
f 127/221/43 126/219/43 124/215/43
f 123/213/43 125/217/43 127/221/43
f 119/205/43 121/209/43 123/213/43
f 115/197/43 117/201/43 119/205/43
f 107/181/43 111/189/43 115/197/43
f 116/199/43 112/191/43 107/181/43
f 124/215/43 120/207/43 116/199/43
f 123/213/43 127/221/43 124/215/43
f 115/197/43 119/205/43 123/213/43
f 116/199/43 107/181/43 115/197/43
f 123/213/43 124/215/43 116/199/43
