# Blender 3.3.1
# www.blender.org
o Cylinder
v 0.000000 -0.011734 -0.021024
v 0.000000 0.030314 -0.021024
v 0.004102 -0.011734 -0.020620
v 0.004102 0.030314 -0.020620
v 0.008046 -0.011734 -0.019424
v 0.008046 0.030314 -0.019424
v 0.011680 -0.011734 -0.017481
v 0.011680 0.030314 -0.017481
v 0.014866 -0.011734 -0.014866
v 0.014866 0.030314 -0.014866
v 0.017481 -0.011734 -0.011680
v 0.017481 0.030314 -0.011680
v 0.019424 -0.011734 -0.008046
v 0.019424 0.030314 -0.008046
v 0.020620 -0.011734 -0.004102
v 0.020620 0.030314 -0.004102
v 0.021024 -0.011734 0.000000
v 0.021024 0.030314 0.000000
v 0.020620 -0.011734 0.004102
v 0.020620 0.030314 0.004102
v 0.019424 -0.011734 0.008046
v 0.019424 0.030314 0.008046
v 0.017481 -0.011734 0.011680
v 0.017481 0.030314 0.011680
v 0.014866 -0.011734 0.014866
v 0.014866 0.030314 0.014866
v 0.011680 -0.011734 0.017481
v 0.011680 0.030314 0.017481
v 0.008046 -0.011734 0.019424
v 0.008046 0.030314 0.019424
v 0.004102 -0.011734 0.020620
v 0.004102 0.030314 0.020620
v 0.000000 -0.011734 0.021024
v 0.000000 0.030314 0.021024
v -0.004102 -0.011734 0.020620
v -0.004102 0.030314 0.020620
v -0.008046 -0.011734 0.019424
v -0.008046 0.030314 0.019424
v -0.011680 -0.011734 0.017481
v -0.011680 0.030314 0.017481
v -0.014866 -0.011734 0.014866
v -0.014866 0.030314 0.014866
v -0.017481 -0.011734 0.011680
v -0.017481 0.030314 0.011680
v -0.019424 -0.011734 0.008046
v -0.019424 0.030314 0.008046
v -0.020620 -0.011734 0.004102
v -0.020620 0.030314 0.004102
v -0.021024 -0.011734 0.000000
v -0.021024 0.030314 0.000000
v -0.020620 -0.011734 -0.004102
v -0.020620 0.030314 -0.004102
v -0.019424 -0.011734 -0.008046
v -0.019424 0.030314 -0.008046
v -0.017481 -0.011734 -0.011680
v -0.017481 0.030314 -0.011680
v -0.014866 -0.011734 -0.014866
v -0.014866 0.030314 -0.014866
v -0.011680 -0.011734 -0.017481
v -0.011680 0.030314 -0.017481
v -0.008046 -0.011734 -0.019424
v -0.008046 0.030314 -0.019424
v -0.004102 -0.011734 -0.020620
v -0.004102 0.030314 -0.020620
v -0.000000 -0.018582 -0.018126
v 0.003536 -0.018582 -0.017778
v 0.006936 -0.018582 -0.016746
v 0.010070 -0.018582 -0.015071
v 0.012817 -0.018582 -0.012817
v 0.015071 -0.018582 -0.010070
v 0.016746 -0.018582 -0.006936
v 0.017778 -0.018582 -0.003536
v 0.018126 -0.018582 -0.000000
v 0.017778 -0.018582 0.003536
v 0.016746 -0.018582 0.006936
v 0.015071 -0.018582 0.010070
v 0.012817 -0.018582 0.012817
v 0.010070 -0.018582 0.015071
v 0.006936 -0.018582 0.016746
v 0.003536 -0.018582 0.017778
v -0.000000 -0.018582 0.018126
v -0.003536 -0.018582 0.017778
v -0.006936 -0.018582 0.016746
v -0.010070 -0.018582 0.015071
v -0.012817 -0.018582 0.012817
v -0.015071 -0.018582 0.010070
v -0.016746 -0.018582 0.006936
v -0.017778 -0.018582 0.003536
v -0.018126 -0.018582 -0.000000
v -0.017778 -0.018582 -0.003536
v -0.016746 -0.018582 -0.006936
v -0.015071 -0.018582 -0.010070
v -0.012817 -0.018582 -0.012817
v -0.010070 -0.018582 -0.015071
v -0.006936 -0.018582 -0.016746
v -0.003536 -0.018582 -0.017778
v -0.000000 -0.022893 -0.012107
v 0.002362 -0.022893 -0.011874
v 0.004633 -0.022893 -0.011185
v 0.006726 -0.022893 -0.010066
v 0.008561 -0.022893 -0.008561
v 0.010066 -0.022893 -0.006726
v 0.011185 -0.022893 -0.004633
v 0.011874 -0.022893 -0.002362
v 0.012107 -0.022893 -0.000000
v 0.011874 -0.022893 0.002362
v 0.011185 -0.022893 0.004633
v 0.010066 -0.022893 0.006726
v 0.008561 -0.022893 0.008561
v 0.006726 -0.022893 0.010066
v 0.004633 -0.022893 0.011185
v 0.002362 -0.022893 0.011874
v -0.000000 -0.022893 0.012107
v -0.002362 -0.022893 0.011874
v -0.004633 -0.022893 0.011185
v -0.006726 -0.022893 0.010066
v -0.008561 -0.022893 0.008561
v -0.010066 -0.022893 0.006726
v -0.011185 -0.022893 0.004633
v -0.011874 -0.022893 0.002362
v -0.012107 -0.022893 -0.000000
v -0.011874 -0.022893 -0.002362
v -0.011185 -0.022893 -0.004633
v -0.010066 -0.022893 -0.006726
v -0.008561 -0.022893 -0.008561
v -0.006726 -0.022893 -0.010066
v -0.004633 -0.022893 -0.011185
v -0.002362 -0.022893 -0.011874
v 0.000000 -0.026191 -0.003419
v 0.000667 -0.026191 -0.003353
v 0.001308 -0.026191 -0.003158
v 0.001899 -0.026191 -0.002842
v 0.002417 -0.026191 -0.002417
v 0.002842 -0.026191 -0.001899
v 0.003158 -0.026191 -0.001308
v 0.003353 -0.026191 -0.000667
v 0.003419 -0.026191 0.000000
v 0.003353 -0.026191 0.000667
v 0.003158 -0.026191 0.001308
v 0.002842 -0.026191 0.001899
v 0.002417 -0.026191 0.002417
v 0.001899 -0.026191 0.002842
v 0.001308 -0.026191 0.003158
v 0.000667 -0.026191 0.003353
v 0.000000 -0.026191 0.003419
v -0.000667 -0.026191 0.003353
v -0.001308 -0.026191 0.003158
v -0.001899 -0.026191 0.002842
v -0.002417 -0.026191 0.002417
v -0.002842 -0.026191 0.001899
v -0.003158 -0.026191 0.001308
v -0.003353 -0.026191 0.000667
v -0.003419 -0.026191 0.000000
v -0.003353 -0.026191 -0.000667
v -0.003158 -0.026191 -0.001308
v -0.002842 -0.026191 -0.001899
v -0.002417 -0.026191 -0.002417
v -0.001899 -0.026191 -0.002842
v -0.001308 -0.026191 -0.003158
v -0.000667 -0.026191 -0.003353
vn 0.0980 -0.0000 -0.9952
vn 0.2903 -0.0000 -0.9569
vn 0.4714 -0.0000 -0.8819
vn 0.6344 -0.0000 -0.7730
vn 0.7730 -0.0000 -0.6344
vn 0.8819 -0.0000 -0.4714
vn 0.9569 -0.0000 -0.2903
vn 0.9952 -0.0000 -0.0980
vn 0.9952 -0.0000 0.0980
vn 0.9569 -0.0000 0.2903
vn 0.8819 -0.0000 0.4714
vn 0.7730 -0.0000 0.6344
vn 0.6344 -0.0000 0.7730
vn 0.4714 -0.0000 0.8819
vn 0.2903 -0.0000 0.9569
vn 0.0980 -0.0000 0.9952
vn -0.0980 -0.0000 0.9952
vn -0.2903 -0.0000 0.9569
vn -0.4714 -0.0000 0.8819
vn -0.6344 -0.0000 0.7730
vn -0.7730 -0.0000 0.6344
vn -0.8819 -0.0000 0.4714
vn -0.9569 -0.0000 0.2903
vn -0.9952 -0.0000 0.0980
vn -0.9952 -0.0000 -0.0980
vn -0.9569 -0.0000 -0.2903
vn -0.8819 -0.0000 -0.4714
vn -0.7730 -0.0000 -0.6344
vn -0.6344 -0.0000 -0.7730
vn -0.4714 -0.0000 -0.8819
vn -0.0000 1.0000 -0.0000
vn -0.2903 -0.0000 -0.9569
vn -0.0980 -0.0000 -0.9952
vn 0.9171 -0.3882 0.0903
vn 0.5590 -0.8116 0.1696
vn -0.2675 -0.3882 0.8819
vn -0.8128 -0.3882 -0.4344
vn 0.7124 -0.3882 -0.5846
vn 0.4344 -0.3882 0.8128
vn -0.8819 -0.3882 0.2675
vn 0.0903 -0.3882 -0.9171
vn -0.0903 -0.3882 -0.9171
vn 0.8819 -0.3882 0.2675
vn -0.4344 -0.3882 0.8128
vn -0.7124 -0.3882 -0.5846
vn 0.8128 -0.3882 -0.4344
vn 0.2675 -0.3882 0.8819
vn -0.9171 -0.3882 0.0903
vn 0.2675 -0.3882 -0.8819
vn 0.8128 -0.3882 0.4344
vn -0.5846 -0.3882 0.7124
vn -0.5846 -0.3882 -0.7124
vn 0.8819 -0.3882 -0.2675
vn 0.0903 -0.3882 0.9171
vn -0.9171 -0.3882 -0.0903
vn 0.4344 -0.3882 -0.8128
vn 0.7124 -0.3882 0.5846
vn -0.7124 -0.3882 0.5846
vn -0.4344 -0.3882 -0.8128
vn 0.9171 -0.3882 -0.0903
vn -0.0903 -0.3882 0.9171
vn -0.8819 -0.3882 -0.2675
vn 0.5846 -0.3882 -0.7124
vn 0.5846 -0.3882 0.7124
vn -0.8128 -0.3882 0.4344
vn -0.2675 -0.3882 -0.8819
vn 0.2260 -0.9344 0.2754
vn -0.5814 -0.8116 0.0573
vn 0.5152 -0.8116 0.2754
vn -0.5814 -0.8116 -0.0573
vn 0.4516 -0.8116 0.3706
vn -0.5590 -0.8116 -0.1696
vn 0.3706 -0.8116 0.4516
vn -0.5152 -0.8116 -0.2754
vn 0.2754 -0.8116 0.5152
vn 0.0573 -0.8116 -0.5814
vn -0.4516 -0.8116 -0.3706
vn 0.1696 -0.8116 0.5590
vn 0.1696 -0.8116 -0.5590
vn -0.3706 -0.8116 -0.4516
vn 0.0573 -0.8116 0.5814
vn 0.2754 -0.8116 -0.5152
vn -0.2754 -0.8116 -0.5152
vn -0.0573 -0.8116 0.5814
vn 0.3706 -0.8116 -0.4516
vn -0.1696 -0.8116 -0.5590
vn -0.1696 -0.8116 0.5590
vn 0.4516 -0.8116 -0.3706
vn -0.0573 -0.8116 -0.5814
vn -0.2754 -0.8116 0.5152
vn 0.5152 -0.8116 -0.2754
vn -0.3706 -0.8116 0.4516
vn 0.5590 -0.8116 -0.1696
vn -0.4516 -0.8116 0.3706
vn 0.5814 -0.8116 -0.0573
vn -0.5152 -0.8116 0.2754
vn 0.5814 -0.8116 0.0573
vn -0.5590 -0.8116 0.1696
vn -0.0000 -1.0000 -0.0000
vn -0.3142 -0.9344 -0.1680
vn 0.1680 -0.9344 0.3142
vn 0.0349 -0.9344 -0.3546
vn -0.2754 -0.9344 -0.2260
vn 0.1034 -0.9344 0.3410
vn 0.1034 -0.9344 -0.3410
vn -0.2260 -0.9344 -0.2754
vn 0.0349 -0.9344 0.3546
vn 0.1680 -0.9344 -0.3142
vn -0.1680 -0.9344 -0.3142
vn -0.0349 -0.9344 0.3546
vn 0.2260 -0.9344 -0.2754
vn -0.1034 -0.9344 -0.3410
vn -0.1034 -0.9344 0.3410
vn 0.2754 -0.9344 -0.2260
vn -0.0349 -0.9344 -0.3546
vn -0.1680 -0.9344 0.3142
vn 0.3142 -0.9344 -0.1680
vn -0.2260 -0.9344 0.2754
vn 0.3410 -0.9344 -0.1034
vn -0.2754 -0.9344 0.2260
vn 0.3546 -0.9344 -0.0349
vn -0.3142 -0.9344 0.1680
vn 0.3546 -0.9344 0.0349
vn -0.3410 -0.9344 0.1034
vn 0.3410 -0.9344 0.1034
vn -0.3546 -0.9344 0.0349
vn 0.3142 -0.9344 0.1680
vn -0.3546 -0.9344 -0.0349
vn 0.2754 -0.9344 0.2260
vn -0.3410 -0.9344 -0.1034
vt 0.311916 0.630096
vt 0.797977 0.262213
vt 0.061643 0.760883
vt 0.298996 0.614191
vt 0.048028 0.729970
vt 0.818534 0.241657
vt 0.288067 0.598198
vt 0.035976 0.698690
vt 0.834684 0.217486
vt 0.278969 0.582113
vt 0.025567 0.667061
vt 0.845809 0.190628
vt 0.271578 0.565939
vt 0.016864 0.635119
vt 0.851481 0.162116
vt 0.265802 0.549683
vt 0.009923 0.602914
vt 0.851481 0.133045
vt 0.261570 0.533352
vt 0.004783 0.570505
vt 0.845809 0.104533
vt 0.258838 0.516956
vt 0.001472 0.537959
vt 0.834684 0.077675
vt 0.257577 0.500502
vt 0.000000 0.505346
vt 0.818534 0.053503
vt 0.257776 0.483993
vt 0.000367 0.472739
vt 0.797978 0.032947
vt 0.259445 0.467436
vt 0.002556 0.440209
vt 0.773806 0.016796
vt 0.262613 0.450831
vt 0.006538 0.407821
vt 0.746948 0.005671
vt 0.267330 0.434178
vt 0.012271 0.375631
vt 0.718436 0.000000
vt 0.273672 0.417468
vt 0.019700 0.343686
vt 0.689365 0.000000
vt 0.281747 0.400693
vt 0.028761 0.312017
vt 0.660853 0.005671
vt 0.291695 0.383840
vt 0.039379 0.280639
vt 0.633995 0.016796
vt 0.303709 0.366887
vt 0.051473 0.249545
vt 0.609824 0.032947
vt 0.318039 0.349804
vt 0.064956 0.218704
vt 0.589267 0.053503
vt 0.335017 0.332547
vt 0.079740 0.188055
vt 0.573117 0.077675
vt 0.355076 0.315053
vt 0.095739 0.157504
vt 0.561992 0.104533
vt 0.378788 0.297228
vt 0.112877 0.126914
vt 0.556320 0.133045
vt 0.406891 0.278918
vt 0.131097 0.096100
vt 0.556320 0.162116
vt 0.440294 0.259854
vt 0.150373 0.064820
vt 0.561992 0.190628
vt 0.479963 0.239512
vt 0.170729 0.032772
vt 0.573117 0.217486
vt 0.521178 0.766070
vt 0.526325 0.216748
vt 0.191974 0.000000
vt 0.215195 1.000000
vt 0.589267 0.241657
vt 0.482733 0.744784
vt 0.192616 0.970019
vt 0.609824 0.262213
vt 0.447273 0.726417
vt 0.170807 0.940318
vt 0.633995 0.278364
vt 0.415942 0.709546
vt 0.149861 0.910762
vt 0.660853 0.289489
vt 0.388666 0.693370
vt 0.129877 0.881209
vt 0.689365 0.295160
vt 0.365046 0.677489
vt 0.110956 0.851531
vt 0.718436 0.295160
vt 0.344637 0.661707
vt 0.746948 0.289489
vt 0.093207 0.821629
vt 0.327039 0.645926
vt 0.773806 0.278364
vt 0.076735 0.791428
vt 0.337996 0.603770
vt 0.325641 0.591829
vt 0.315192 0.579426
vt 0.306501 0.566649
vt 0.299455 0.553572
vt 0.293965 0.540257
vt 0.289968 0.526761
vt 0.287424 0.513134
vt 0.286310 0.499420
vt 0.286612 0.485653
vt 0.288346 0.471876
vt 0.291540 0.458136
vt 0.296247 0.444475
vt 0.302540 0.430929
vt 0.310524 0.417558
vt 0.320333 0.404433
vt 0.332147 0.391642
vt 0.346207 0.379291
vt 0.362819 0.367533
vt 0.382390 0.356576
vt 0.405466 0.346713
vt 0.432813 0.338369
vt 0.465554 0.332161
vt 0.505554 0.329015
vt 0.556320 0.663063
vt 0.556320 0.330302
vt 0.507822 0.661709
vt 0.469747 0.657791
vt 0.438287 0.651903
vt 0.411657 0.644425
vt 0.388878 0.635651
vt 0.369299 0.625824
vt 0.352455 0.615144
vt 0.361233 0.572505
vt 0.350713 0.565182
vt 0.341699 0.557026
vt 0.334144 0.548211
vt 0.328016 0.538886
vt 0.323210 0.529152
vt 0.319711 0.519126
vt 0.317505 0.508913
vt 0.316586 0.498620
vt 0.316930 0.488247
vt 0.318548 0.477900
vt 0.321459 0.467686
vt 0.325686 0.457725
vt 0.331320 0.448035
vt 0.338412 0.438752
vt 0.347026 0.430034
vt 0.357240 0.422066
vt 0.369230 0.415075
vt 0.383117 0.409348
vt 0.399046 0.405268
vt 0.417177 0.403344
vt 0.437640 0.404364
vt 0.460529 0.409302
vt 0.485667 0.419735
vt 0.517189 0.554158
vt 0.512311 0.437689
vt 0.489514 0.570785
vt 0.464275 0.580954
vt 0.441553 0.586318
vt 0.421156 0.588083
vt 0.403129 0.586999
vt 0.387241 0.583733
vt 0.373318 0.578779
vt 0.382165 0.518946
vt 0.378027 0.517819
vt 0.374366 0.516008
vt 0.371228 0.513594
vt 0.368610 0.510962
vt 0.366599 0.507935
vt 0.365232 0.504617
vt 0.364523 0.501100
vt 0.363995 0.497558
vt 0.364167 0.493998
vt 0.365031 0.490512
vt 0.366574 0.487184
vt 0.368254 0.483779
vt 0.370586 0.480743
vt 0.373525 0.478156
vt 0.377024 0.476101
vt 0.380959 0.474267
vt 0.385309 0.473204
vt 0.389996 0.472989
vt 0.394915 0.473707
vt 0.400131 0.475453
vt 0.405188 0.478345
vt 0.410251 0.482506
vt 0.414673 0.487905
vt 0.414625 0.495592
vt 0.412982 0.503173
vt 0.409986 0.509423
vt 0.406188 0.514485
vt 0.401408 0.517250
vt 0.396432 0.518943
vt 0.391482 0.519597
vt 0.386711 0.519294
s 0
f 2/3/1 3/4/1 1/1/1
f 4/5/2 5/7/2 3/4/2
f 6/8/3 7/10/3 5/7/3
f 8/11/4 9/13/4 7/10/4
f 10/14/5 11/16/5 9/13/5
f 12/17/6 13/19/6 11/16/6
f 14/20/7 15/22/7 13/19/7
f 16/23/8 17/25/8 15/22/8
f 18/26/9 19/28/9 17/25/9
f 20/29/10 21/31/10 19/28/10
f 22/32/11 23/34/11 21/31/11
f 24/35/12 25/37/12 23/34/12
f 26/38/13 27/40/13 25/37/13
f 28/41/14 29/43/14 27/40/14
f 30/44/15 31/46/15 29/43/15
f 32/47/16 33/49/16 31/46/16
f 34/50/17 35/52/17 33/49/17
f 36/53/18 37/55/18 35/52/18
f 38/56/19 39/58/19 37/55/19
f 40/59/20 41/61/20 39/58/20
f 42/62/21 43/64/21 41/61/21
f 44/65/22 45/67/22 43/64/22
f 46/68/23 47/70/23 45/67/23
f 48/71/24 49/74/24 47/70/24
f 50/76/25 51/78/25 49/73/25
f 52/79/26 53/81/26 51/78/26
f 54/82/27 55/84/27 53/81/27
f 56/85/28 57/87/28 55/84/28
f 58/88/29 59/90/29 57/87/29
f 60/91/30 61/93/30 59/90/30
f 38/57/31 22/33/31 6/9/31
f 62/95/32 63/96/32 61/93/32
f 64/98/33 1/1/33 63/96/33
f 19/28/34 73/107/34 17/25/34
f 75/109/35 106/141/35 74/108/35
f 35/52/36 83/117/36 82/116/36
f 55/84/37 91/126/37 53/81/37
f 11/16/38 69/103/38 9/13/38
f 29/43/39 78/112/39 27/40/39
f 47/70/40 87/121/40 45/67/40
f 3/4/41 65/99/41 1/1/41
f 1/1/42 96/131/42 63/96/42
f 19/28/43 75/109/43 74/108/43
f 39/58/44 83/117/44 37/55/44
f 57/87/45 92/127/45 55/84/45
f 13/19/46 70/104/46 11/16/46
f 31/46/47 79/113/47 29/43/47
f 49/74/48 88/122/48 47/70/48
f 3/4/49 67/101/49 66/100/49
f 23/34/50 75/109/50 21/31/50
f 41/61/51 84/118/51 39/58/51
f 59/90/52 93/128/52 57/87/52
f 15/22/53 71/105/53 13/19/53
f 33/49/54 80/114/54 31/46/54
f 51/78/55 89/123/55 49/73/55
f 7/10/56 67/101/56 5/7/56
f 25/37/57 76/110/57 23/34/57
f 43/64/58 85/119/58 41/61/58
f 61/93/59 94/129/59 59/90/59
f 17/25/60 72/106/60 15/22/60
f 35/52/61 81/115/61 33/49/61
f 51/78/62 91/126/62 90/125/62
f 9/13/63 68/102/63 7/10/63
f 27/40/64 77/111/64 25/37/64
f 45/67/65 86/120/65 43/64/65
f 63/96/66 95/130/66 61/93/66
f 110/145/67 141/177/67 109/144/67
f 89/124/68 120/155/68 88/122/68
f 76/110/69 107/142/69 75/109/69
f 90/125/70 121/156/70 89/123/70
f 77/111/71 108/143/71 76/110/71
f 91/126/72 122/158/72 90/125/72
f 78/112/73 109/144/73 77/111/73
f 92/127/74 123/159/74 91/126/74
f 78/112/75 111/146/75 110/145/75
f 66/100/76 97/132/76 65/99/76
f 93/128/77 124/160/77 92/127/77
f 79/113/78 112/147/78 111/146/78
f 67/101/79 98/133/79 66/100/79
f 94/129/80 125/161/80 93/128/80
f 80/114/81 113/148/81 112/147/81
f 68/102/82 99/134/82 67/101/82
f 95/130/83 126/162/83 94/129/83
f 82/116/84 113/148/84 81/115/84
f 68/102/85 101/136/85 100/135/85
f 95/130/86 128/164/86 127/163/86
f 83/117/87 114/149/87 82/116/87
f 70/104/88 101/136/88 69/103/88
f 65/99/89 128/164/89 96/131/89
f 84/118/90 115/150/90 83/117/90
f 71/105/91 102/137/91 70/104/91
f 84/118/92 117/152/92 116/151/92
f 71/105/93 104/139/93 103/138/93
f 86/120/94 117/152/94 85/119/94
f 73/107/95 104/139/95 72/106/95
f 87/121/96 118/153/96 86/120/96
f 74/108/97 105/140/97 73/107/97
f 87/121/98 120/155/98 119/154/98
f 144/180/99 152/188/99 160/196/99
f 124/160/100 155/191/100 123/159/100
f 111/146/101 142/178/101 110/145/101
f 98/133/102 129/165/102 97/132/102
f 124/160/103 157/193/103 156/192/103
f 112/147/104 143/179/104 111/146/104
f 99/134/105 130/166/105 98/133/105
f 126/162/106 157/193/106 125/161/106
f 113/148/107 144/180/107 112/147/107
f 100/135/108 131/167/108 99/134/108
f 127/163/109 158/194/109 126/162/109
f 114/149/110 145/181/110 113/148/110
f 101/136/111 132/168/111 100/135/111
f 128/164/112 159/195/112 127/163/112
f 115/150/113 146/182/113 114/149/113
f 102/137/114 133/169/114 101/136/114
f 97/132/115 160/196/115 128/164/115
f 116/151/116 147/183/116 115/150/116
f 103/138/117 134/170/117 102/137/117
f 117/152/118 148/184/118 116/151/118
f 103/138/119 136/172/119 135/171/119
f 118/153/120 149/185/120 117/152/120
f 105/140/121 136/172/121 104/139/121
f 119/154/122 150/186/122 118/153/122
f 106/141/123 137/173/123 105/140/123
f 120/155/124 151/187/124 119/154/124
f 107/142/125 138/174/125 106/141/125
f 121/157/126 152/188/126 120/155/126
f 108/143/127 139/175/127 107/142/127
f 122/158/128 153/189/128 121/156/128
f 109/144/129 140/176/129 108/143/129
f 123/159/130 154/190/130 122/158/130
f 2/3/1 4/5/1 3/4/1
f 4/5/2 6/8/2 5/7/2
f 6/8/3 8/11/3 7/10/3
f 8/11/4 10/14/4 9/13/4
f 10/14/5 12/17/5 11/16/5
f 12/17/6 14/20/6 13/19/6
f 14/20/7 16/23/7 15/22/7
f 16/23/8 18/26/8 17/25/8
f 18/26/9 20/29/9 19/28/9
f 20/29/10 22/32/10 21/31/10
f 22/32/11 24/35/11 23/34/11
f 24/35/12 26/38/12 25/37/12
f 26/38/13 28/41/13 27/40/13
f 28/41/14 30/44/14 29/43/14
f 30/44/15 32/47/15 31/46/15
f 32/47/16 34/50/16 33/49/16
f 34/50/17 36/53/17 35/52/17
f 36/53/18 38/56/18 37/55/18
f 38/56/19 40/59/19 39/58/19
f 40/59/20 42/62/20 41/61/20
f 42/62/21 44/65/21 43/64/21
f 44/65/22 46/68/22 45/67/22
f 46/68/23 48/71/23 47/70/23
f 48/71/24 50/75/24 49/74/24
f 50/76/25 52/79/25 51/78/25
f 52/79/26 54/82/26 53/81/26
f 54/82/27 56/85/27 55/84/27
f 56/85/28 58/88/28 57/87/28
f 58/88/29 60/91/29 59/90/29
f 60/91/30 62/95/30 61/93/30
f 6/9/31 4/6/31 2/2/31
f 2/2/31 64/97/31 62/94/31
f 62/94/31 60/92/31 58/89/31
f 58/89/31 56/86/31 54/83/31
f 54/83/31 52/80/31 50/77/31
f 50/77/31 48/72/31 46/69/31
f 46/69/31 44/66/31 42/63/31
f 42/63/31 40/60/31 38/57/31
f 38/57/31 36/54/31 34/51/31
f 34/51/31 32/48/31 30/45/31
f 30/45/31 28/42/31 26/39/31
f 26/39/31 24/36/31 22/33/31
f 22/33/31 20/30/31 18/27/31
f 18/27/31 16/24/31 14/21/31
f 14/21/31 12/18/31 10/15/31
f 10/15/31 8/12/31 6/9/31
f 6/9/31 2/2/31 62/94/31
f 62/94/31 58/89/31 54/83/31
f 54/83/31 50/77/31 46/69/31
f 46/69/31 42/63/31 38/57/31
f 38/57/31 34/51/31 30/45/31
f 30/45/31 26/39/31 22/33/31
f 22/33/31 18/27/31 14/21/31
f 14/21/31 10/15/31 6/9/31
f 6/9/31 62/94/31 54/83/31
f 54/83/31 46/69/31 38/57/31
f 38/57/31 30/45/31 22/33/31
f 22/33/31 14/21/31 6/9/31
f 6/9/31 54/83/31 38/57/31
f 62/95/32 64/98/32 63/96/32
f 64/98/33 2/3/33 1/1/33
f 19/28/34 74/108/34 73/107/34
f 75/109/35 107/142/35 106/141/35
f 35/52/36 37/55/36 83/117/36
f 55/84/37 92/127/37 91/126/37
f 11/16/38 70/104/38 69/103/38
f 29/43/39 79/113/39 78/112/39
f 47/70/40 88/122/40 87/121/40
f 3/4/41 66/100/41 65/99/41
f 1/1/42 65/99/42 96/131/42
f 19/28/43 21/31/43 75/109/43
f 39/58/44 84/118/44 83/117/44
f 57/87/45 93/128/45 92/127/45
f 13/19/46 71/105/46 70/104/46
f 31/46/47 80/114/47 79/113/47
f 49/74/48 89/124/48 88/122/48
f 3/4/49 5/7/49 67/101/49
f 23/34/50 76/110/50 75/109/50
f 41/61/51 85/119/51 84/118/51
f 59/90/52 94/129/52 93/128/52
f 15/22/53 72/106/53 71/105/53
f 33/49/54 81/115/54 80/114/54
f 51/78/55 90/125/55 89/123/55
f 7/10/56 68/102/56 67/101/56
f 25/37/57 77/111/57 76/110/57
f 43/64/58 86/120/58 85/119/58
f 61/93/59 95/130/59 94/129/59
f 17/25/60 73/107/60 72/106/60
f 35/52/61 82/116/61 81/115/61
f 51/78/62 53/81/62 91/126/62
f 9/13/63 69/103/63 68/102/63
f 27/40/64 78/112/64 77/111/64
f 45/67/65 87/121/65 86/120/65
f 63/96/66 96/131/66 95/130/66
f 110/145/67 142/178/67 141/177/67
f 89/124/68 121/157/68 120/155/68
f 76/110/69 108/143/69 107/142/69
f 90/125/70 122/158/70 121/156/70
f 77/111/71 109/144/71 108/143/71
f 91/126/72 123/159/72 122/158/72
f 78/112/73 110/145/73 109/144/73
f 92/127/74 124/160/74 123/159/74
f 78/112/75 79/113/75 111/146/75
f 66/100/76 98/133/76 97/132/76
f 93/128/77 125/161/77 124/160/77
f 79/113/78 80/114/78 112/147/78
f 67/101/79 99/134/79 98/133/79
f 94/129/80 126/162/80 125/161/80
f 80/114/81 81/115/81 113/148/81
f 68/102/82 100/135/82 99/134/82
f 95/130/83 127/163/83 126/162/83
f 82/116/84 114/149/84 113/148/84
f 68/102/85 69/103/85 101/136/85
f 95/130/86 96/131/86 128/164/86
f 83/117/87 115/150/87 114/149/87
f 70/104/88 102/137/88 101/136/88
f 65/99/89 97/132/89 128/164/89
f 84/118/90 116/151/90 115/150/90
f 71/105/91 103/138/91 102/137/91
f 84/118/92 85/119/92 117/152/92
f 71/105/93 72/106/93 104/139/93
f 86/120/94 118/153/94 117/152/94
f 73/107/95 105/140/95 104/139/95
f 87/121/96 119/154/96 118/153/96
f 74/108/97 106/141/97 105/140/97
f 87/121/98 88/122/98 120/155/98
f 160/196/99 129/165/99 130/166/99
f 130/166/99 131/167/99 132/168/99
f 132/168/99 133/169/99 134/170/99
f 134/170/99 135/171/99 136/172/99
f 136/172/99 137/173/99 138/174/99
f 138/174/99 139/175/99 140/176/99
f 140/176/99 141/177/99 142/178/99
f 142/178/99 143/179/99 144/180/99
f 144/180/99 145/181/99 146/182/99
f 146/182/99 147/183/99 148/184/99
f 148/184/99 149/185/99 150/186/99
f 150/186/99 151/187/99 152/188/99
f 152/188/99 153/189/99 154/190/99
f 154/190/99 155/191/99 156/192/99
f 156/192/99 157/193/99 158/194/99
f 158/194/99 159/195/99 160/196/99
f 160/196/99 130/166/99 132/168/99
f 132/168/99 134/170/99 136/172/99
f 136/172/99 138/174/99 140/176/99
f 140/176/99 142/178/99 144/180/99
f 144/180/99 146/182/99 148/184/99
f 148/184/99 150/186/99 152/188/99
f 152/188/99 154/190/99 156/192/99
f 156/192/99 158/194/99 160/196/99
f 160/196/99 132/168/99 136/172/99
f 136/172/99 140/176/99 144/180/99
f 144/180/99 148/184/99 152/188/99
f 152/188/99 156/192/99 160/196/99
f 160/196/99 136/172/99 144/180/99
f 124/160/100 156/192/100 155/191/100
f 111/146/101 143/179/101 142/178/101
f 98/133/102 130/166/102 129/165/102
f 124/160/103 125/161/103 157/193/103
f 112/147/104 144/180/104 143/179/104
f 99/134/105 131/167/105 130/166/105
f 126/162/106 158/194/106 157/193/106
f 113/148/107 145/181/107 144/180/107
f 100/135/108 132/168/108 131/167/108
f 127/163/109 159/195/109 158/194/109
f 114/149/110 146/182/110 145/181/110
f 101/136/111 133/169/111 132/168/111
f 128/164/112 160/196/112 159/195/112
f 115/150/113 147/183/113 146/182/113
f 102/137/114 134/170/114 133/169/114
f 97/132/115 129/165/115 160/196/115
f 116/151/116 148/184/116 147/183/116
f 103/138/117 135/171/117 134/170/117
f 117/152/118 149/185/118 148/184/118
f 103/138/119 104/139/119 136/172/119
f 118/153/120 150/186/120 149/185/120
f 105/140/121 137/173/121 136/172/121
f 119/154/122 151/187/122 150/186/122
f 106/141/123 138/174/123 137/173/123
f 120/155/124 152/188/124 151/187/124
f 107/142/125 139/175/125 138/174/125
f 121/157/126 153/189/126 152/188/126
f 108/143/127 140/176/127 139/175/127
f 122/158/128 154/190/128 153/189/128
f 109/144/129 141/177/129 140/176/129
f 123/159/130 155/191/130 154/190/130
