# Blender 3.3.1
# www.blender.org
o Shelf_Objects.005
v -0.178652 0.154280 0.145550
v 0.172436 0.154280 0.148270
v 0.172436 -0.164900 0.148270
v -0.178653 -0.164900 0.145550
v -0.178776 0.154280 0.161508
v -0.178776 -0.164900 0.161508
v 0.172312 -0.164900 0.164228
v 0.172312 0.154280 0.164228
v -0.160222 -0.164899 -0.173496
v 0.158950 -0.164899 -0.171023
v 0.156476 -0.164900 0.148146
v -0.162695 -0.164900 0.145674
v -0.160222 -0.148941 -0.173496
v -0.162695 -0.148941 0.145674
v 0.156476 -0.148941 0.148146
v 0.158950 -0.148941 -0.171023
v 0.174909 -0.164899 -0.170900
v 0.174909 0.154280 -0.170900
v 0.172436 0.154280 0.148270
v 0.172436 -0.164900 0.148270
v 0.158950 -0.164899 -0.171024
v 0.156476 -0.164900 0.148146
v 0.156476 0.154280 0.148146
v 0.158950 0.154280 -0.171024
v -0.160222 -0.164899 -0.173495
v -0.160222 0.154280 -0.173495
v -0.162695 0.154280 0.145674
v -0.162695 -0.164900 0.145674
v -0.176181 -0.164899 -0.173621
v -0.178652 -0.164900 0.145550
v -0.178652 0.154280 0.145550
v -0.176179 0.154280 -0.173621
v -0.176058 0.154280 -0.189579
v 0.175030 0.154280 -0.186859
v 0.175030 -0.164900 -0.186859
v -0.176058 -0.164899 -0.189579
v -0.176179 0.154280 -0.173619
v -0.176181 -0.164899 -0.173621
v 0.174907 -0.164899 -0.170900
v 0.174907 0.154280 -0.170901
v -0.164857 0.143356 -0.189491
v -0.052015 0.256203 -0.188617
v -0.054734 0.256203 0.162469
v -0.167577 0.143356 0.161596
v -0.176141 0.154640 -0.189578
v -0.178863 0.154641 0.161509
v -0.066019 0.267488 0.162382
v -0.063299 0.267488 -0.188704
v 0.035124 0.233043 -0.187943
v 0.165849 0.141506 -0.186930
v 0.163131 0.141506 0.164157
v 0.032405 0.233043 0.163145
v 0.044278 0.246115 -0.187872
v 0.041560 0.246115 0.163216
v 0.172284 0.154579 0.164228
v 0.175004 0.154579 -0.186860
vn 0.0077 -0.0000 -1.0000
vn -0.0077 -0.0000 1.0000
vn -0.0000 -1.0000 -0.0000
vn -0.0000 1.0000 -0.0000
vn 1.0000 -0.0000 0.0078
vn -1.0000 -0.0000 -0.0078
vn 1.0000 -0.0000 0.0077
vn -1.0000 -0.0000 -0.0077
vn -0.0078 -0.0000 1.0000
vn 0.0079 -0.0000 -1.0000
vn -1.0000 -0.0000 -0.0076
vn 0.7071 -0.7071 0.0055
vn -0.7071 0.7071 -0.0055
vn 0.0078 -0.0000 -1.0000
vn 0.7071 0.7071 0.0055
vn 0.7070 0.7071 0.0055
vn -0.7070 -0.7072 -0.0055
vn -0.5736 -0.8192 -0.0044
vn 0.5736 0.8192 0.0044
vn 0.8192 -0.5735 0.0063
vn 0.8191 -0.5736 0.0063
vn 0.8192 -0.5734 0.0063
vn -0.8191 0.5736 -0.0063
vt 0.737605 0.579563
vt 0.893373 0.963649
vt 0.908208 0.579563
vt 0.885956 0.579563
vt 0.893373 0.579563
vt 0.900791 0.963649
vt 0.900791 0.579563
vt 0.885956 0.963649
vt 0.915626 0.963649
vt 0.915626 0.579563
vt 0.737605 0.963649
vt 0.908208 0.963649
vt 0.589255 0.963649
vt 0.900791 0.579563
vt 0.885956 0.963649
vt 0.589255 0.579563
vt 0.908208 0.579563
vt 0.900791 0.963649
vt 0.737605 0.579563
vt 0.908208 0.963649
vt 0.893373 0.579563
vt 0.885956 0.579563
vt 0.737605 0.963649
vt 0.893373 0.963649
vt 0.589255 0.579563
vt 0.589255 0.963649
vt 0.915626 0.963649
vt 0.915626 0.579563
vt 0.589255 0.579563
vt 0.915626 0.579563
vt 0.915626 0.963649
vt 0.589255 0.963649
vt 0.137494 0.592408
vt 0.443682 0.963649
vt 0.458517 0.592408
vt 0.443682 0.592408
vt 0.474285 0.592408
vt 0.451100 0.963649
vt 0.451100 0.592408
vt 0.474285 0.978941
vt 0.465935 0.963649
vt 0.465935 0.592408
vt 0.137494 0.978941
vt 0.458517 0.963649
vt 0.139564 0.963649
vt 0.451100 0.592408
vt 0.436265 0.963649
vt 0.139564 0.592408
vt 0.458517 0.592408
vt 0.451100 0.963649
vt 0.287914 0.592408
vt 0.458517 0.963649
vt 0.443682 0.592408
vt 0.287914 0.963649
vt 0.436265 0.592408
vt 0.443682 0.963649
vt 0.589255 0.579563
vt 0.589255 0.963649
vt 0.915626 0.963649
vt 0.915626 0.579563
vt 0.589255 0.579563
vt 0.915626 0.579563
vt 0.915626 0.963649
vt 0.589255 0.963649
vt 0.737605 0.579563
vt 0.893373 0.963649
vt 0.908208 0.579563
vt 0.893373 0.579563
vt 0.885956 0.579563
vt 0.900791 0.963649
vt 0.900791 0.579563
vt 0.885956 0.963649
vt 0.915626 0.963649
vt 0.915626 0.579563
vt 0.737605 0.963649
vt 0.908208 0.963649
vt 0.589255 0.963649
vt 0.900791 0.579563
vt 0.885956 0.963649
vt 0.589255 0.579563
vt 0.908208 0.579563
vt 0.900791 0.963649
vt 0.737605 0.579563
vt 0.908208 0.963649
vt 0.893373 0.579563
vt 0.737605 0.963649
vt 0.885956 0.579563
vt 0.893373 0.963649
vt 0.589980 0.913718
vt 0.749030 0.888625
vt 0.913816 0.939060
vt 0.590406 0.871190
vt 0.748614 0.936630
vt 0.914024 0.915058
vt 0.748822 0.912627
vt 0.916492 0.870174
vt 0.914440 0.867053
vt 0.749238 0.864622
vt 0.918242 0.920383
vt 0.914232 0.891055
vt 0.916492 0.870174
vt 0.913608 0.963063
vt 0.748822 0.912627
vt 0.590406 0.871190
vt 0.749030 0.888625
vt 0.914024 0.915058
vt 0.589255 0.579563
vt 0.914232 0.891055
vt 0.748614 0.936630
vt 0.748406 0.960633
vt 0.915341 0.578547
vt 0.913816 0.939060
vt 0.344329 0.594869
vt 0.173726 0.594869
vt 0.329494 0.978955
vt 0.322076 0.594869
vt 0.329494 0.594869
vt 0.336911 0.978955
vt 0.322076 0.978955
vt 0.351746 0.978955
vt 0.336911 0.594869
vt 0.173726 0.978955
vt 0.351746 0.594869
vt 0.344329 0.978955
vt 0.025375 0.978955
vt 0.322076 0.978955
vt 0.336911 0.594869
vt 0.344329 0.594869
vt 0.025375 0.594869
vt 0.336911 0.978955
vt 0.329494 0.594869
vt 0.173726 0.594869
vt 0.344329 0.978955
vt 0.173726 0.978955
vt 0.322076 0.594869
vt 0.329494 0.978955
s 1
f 2/4/1 4/11/1 1/1/1
f 6/16/2 8/23/2 5/13/2
f 3/9/3 6/17/3 4/10/3
f 2/5/4 5/15/4 8/22/4
f 2/6/5 7/21/5 3/7/5
f 1/3/6 6/18/6 5/14/6
f 10/26/3 12/28/3 9/25/3
f 14/30/4 16/32/4 13/29/4
f 12/28/2 15/31/2 14/30/2
f 9/25/1 16/32/1 10/26/1
f 10/26/7 15/31/7 11/27/7
f 9/25/8 14/30/8 13/29/8
f 18/37/7 20/43/7 17/33/7
f 22/48/8 24/54/8 21/45/8
f 19/41/9 22/49/9 20/42/9
f 17/34/1 24/55/1 18/36/1
f 18/38/4 23/53/4 19/39/4
f 17/35/3 22/50/3 21/46/3
f 26/58/7 28/60/7 25/57/7
f 30/62/8 32/64/8 29/61/8
f 27/59/2 30/62/2 28/60/2
f 25/57/10 32/64/10 26/58/10
f 27/59/4 32/64/4 31/63/4
f 25/57/3 30/62/3 29/61/3
f 34/69/1 36/75/1 33/65/1
f 38/80/2 40/86/2 37/77/2
f 35/73/3 38/81/3 36/74/3
f 33/66/4 40/87/4 34/68/4
f 34/70/7 39/85/7 35/71/7
f 33/67/11 38/82/8 37/78/11
f 42/92/12 44/99/12 41/89/12
f 46/104/13 48/111/13 45/101/13
f 43/97/2 46/105/2 44/98/2
f 42/93/14 45/102/1 48/110/14
f 42/94/15 47/109/16 43/95/16
f 44/100/17 45/103/17 41/90/17
f 49/114/18 51/119/18 52/122/18
f 53/125/19 55/132/19 56/134/19
f 52/123/2 55/133/2 54/128/2
f 50/117/1 53/126/1 56/135/1
f 51/121/20 56/136/21 55/131/22
f 52/124/23 53/127/23 49/113/23
f 2/4/1 3/8/1 4/11/1
f 6/16/2 7/19/2 8/23/2
f 3/9/3 7/20/3 6/17/3
f 2/5/4 1/2/4 5/15/4
f 2/6/5 8/24/5 7/21/5
f 1/3/6 4/12/6 6/18/6
f 10/26/3 11/27/3 12/28/3
f 14/30/4 15/31/4 16/32/4
f 12/28/2 11/27/2 15/31/2
f 9/25/1 13/29/1 16/32/1
f 10/26/7 16/32/7 15/31/7
f 9/25/8 12/28/8 14/30/8
f 18/37/7 19/40/7 20/43/7
f 22/48/8 23/51/8 24/54/8
f 19/41/9 23/52/9 22/49/9
f 17/34/1 21/47/1 24/55/1
f 18/38/4 24/56/4 23/53/4
f 17/35/3 20/44/3 22/50/3
f 26/58/7 27/59/7 28/60/7
f 30/62/8 31/63/8 32/64/8
f 27/59/2 31/63/2 30/62/2
f 25/57/10 29/61/10 32/64/10
f 27/59/4 26/58/4 32/64/4
f 25/57/3 28/60/3 30/62/3
f 34/69/1 35/72/1 36/75/1
f 38/80/2 39/83/2 40/86/2
f 35/73/3 39/84/3 38/81/3
f 33/66/4 37/79/4 40/87/4
f 34/70/7 40/88/7 39/85/7
f 33/67/11 36/76/8 38/82/8
f 42/92/12 43/96/12 44/99/12
f 46/104/13 47/107/13 48/111/13
f 43/97/2 47/108/2 46/105/2
f 42/93/14 41/91/1 45/102/1
f 42/94/15 48/112/15 47/109/16
f 44/100/17 46/106/17 45/103/17
f 49/114/18 50/116/18 51/119/18
f 53/125/19 54/129/19 55/132/19
f 52/123/2 51/120/2 55/133/2
f 50/117/1 49/115/1 53/126/1
f 51/121/20 50/118/21 56/136/21
f 52/124/23 54/130/23 53/127/23
