# Blender 3.3.1
# www.blender.org
o Cube
v -0.017279 -0.022970 0.000553
v -0.017279 0.294897 0.000553
v -0.017279 -0.022970 -0.000553
v -0.017279 0.294897 -0.000553
v 0.017279 -0.022970 0.000553
v 0.017279 0.294897 0.000553
v 0.017279 -0.022970 -0.000553
v 0.017279 0.294897 -0.000553
v -0.017279 0.135963 0.000553
v -0.017279 0.135963 0.000000
v -0.017279 0.135963 -0.000553
v 0.017279 0.135963 0.000000
v 0.017279 0.135963 0.000553
v 0.000000 0.135963 -0.000553
v 0.017279 0.135963 -0.000553
v 0.000000 0.135963 0.000553
v -0.017279 0.215430 0.000553
v -0.017279 0.215430 -0.000553
v 0.017279 0.215430 -0.000276
v 0.017279 0.215430 0.000553
v 0.017279 0.215430 -0.000553
v 0.008639 0.215430 0.000553
v -0.017279 0.215430 0.000277
v -0.008639 0.215430 -0.000553
v -0.017279 0.056497 -0.000276
v 0.008639 0.056497 -0.000553
v -0.017279 0.056497 0.000553
v -0.017279 0.056497 -0.000553
v 0.017279 0.056497 0.000277
v 0.017279 0.056497 0.000553
v 0.017279 0.056497 -0.000553
v -0.008639 0.056497 0.000553
vn -1.0000 -0.0000 -0.0000
vn -0.0000 -0.0000 -1.0000
vn 1.0000 -0.0000 -0.0000
vn -0.0000 -0.0000 1.0000
vn -0.0000 -1.0000 -0.0000
vn -0.0000 1.0000 -0.0000
vt 0.000038 0.003158
vt 0.006881 0.992775
vt 0.000038 0.003158
vt 0.006881 0.992775
vt 0.989132 0.003158
vt 0.995976 0.992775
vt 0.989132 0.003158
vt 0.995976 0.992775
vt 0.003459 0.497966
vt 0.003459 0.497966
vt 0.003459 0.497966
vt 0.992554 0.497966
vt 0.992554 0.497966
vt 0.498006 0.497966
vt 0.992554 0.497966
vt 0.498007 0.497966
vt 0.005170 0.745371
vt 0.005170 0.745371
vt 0.994265 0.745371
vt 0.994265 0.745371
vt 0.994265 0.745371
vt 0.746992 0.745371
vt 0.005170 0.745371
vt 0.252444 0.745371
vt 0.001749 0.250562
vt 0.743569 0.250562
vt 0.001749 0.250562
vt 0.001749 0.250562
vt 0.990843 0.250562
vt 0.990843 0.250562
vt 0.990843 0.250562
vt 0.249022 0.250562
s 0
f 25/25/1 1/1/1 27/27/1
f 26/26/2 3/3/2 28/28/2
f 29/29/3 7/7/3 31/31/3
f 32/32/4 5/5/4 30/30/4
f 7/7/5 1/1/5 3/3/5
f 4/4/6 6/6/6 8/8/6
f 11/11/1 25/25/1 10/10/1
f 26/26/2 31/31/2 7/7/2
f 13/13/3 29/29/3 12/12/3
f 32/32/4 27/27/4 1/1/4
f 7/7/5 5/5/5 1/1/5
f 4/4/6 2/2/6 6/6/6
f 17/17/4 16/16/4 22/22/4
f 21/21/2 14/14/2 24/24/2
f 22/22/4 13/13/4 20/20/4
f 24/24/2 11/11/2 18/18/2
f 4/4/2 24/24/2 18/18/2
f 6/6/4 22/22/4 20/20/4
f 8/8/2 24/24/2 4/4/2
f 2/2/4 22/22/4 6/6/4
f 6/6/3 19/19/3 8/8/3
f 4/4/1 23/23/1 2/2/1
f 9/9/4 32/32/4 16/16/4
f 15/15/2 26/26/2 14/14/2
f 16/16/4 30/30/4 13/13/4
f 12/12/3 15/15/3 21/21/3
f 14/14/2 28/28/2 11/11/2
f 23/23/1 25/25/1 9/9/1
f 25/25/1 3/3/1 1/1/1
f 26/26/2 7/7/2 3/3/2
f 29/29/3 5/5/3 7/7/3
f 32/32/4 1/1/4 5/5/4
f 10/10/1 23/23/1 18/18/1
f 11/11/3 28/28/3 3/3/3
f 10/10/1 18/18/1 11/11/1
f 11/11/1 3/3/1 25/25/1
f 12/12/3 19/19/3 20/20/3
f 13/13/1 30/30/1 5/5/1
f 12/12/3 20/20/3 13/13/3
f 13/13/3 5/5/3 29/29/3
f 17/17/4 9/9/4 16/16/4
f 21/21/2 15/15/2 14/14/2
f 22/22/4 16/16/4 13/13/4
f 24/24/2 14/14/2 11/11/2
f 8/8/2 21/21/2 24/24/2
f 2/2/4 17/17/4 22/22/4
f 6/6/3 20/20/3 19/19/3
f 4/4/1 18/18/1 23/23/1
f 9/9/4 27/27/4 32/32/4
f 15/15/2 31/31/2 26/26/2
f 16/16/4 32/32/4 30/30/4
f 21/21/3 8/8/3 19/19/3
f 12/12/3 29/29/3 31/31/3
f 21/21/3 19/19/3 12/12/3
f 12/12/3 31/31/3 15/15/3
f 14/14/2 26/26/2 28/28/2
f 17/17/1 2/2/1 23/23/1
f 23/23/1 10/10/1 25/25/1
f 25/25/1 27/27/1 9/9/1
f 9/9/1 17/17/1 23/23/1
o Cube.001
v -0.008160 -0.022970 0.015240
v -0.008160 0.294897 0.015240
v -0.009118 -0.022970 0.014687
v -0.009118 0.294897 0.014687
v 0.009118 -0.022970 -0.014687
v 0.009118 0.294897 -0.014687
v 0.008160 -0.022970 -0.015240
v 0.008160 0.294897 -0.015240
v -0.008160 0.135963 0.015240
v -0.008639 0.135963 0.014964
v -0.009118 0.135963 0.014687
v 0.008639 0.135963 -0.014963
v 0.009118 0.135963 -0.014687
v -0.000479 0.135963 -0.000276
v 0.008160 0.135963 -0.015240
v 0.000479 0.135963 0.000277
v -0.008160 0.215430 0.015240
v -0.009118 0.215430 0.014687
v 0.008399 0.215430 -0.015102
v 0.009118 0.215430 -0.014687
v 0.008160 0.215430 -0.015240
v 0.004799 0.215430 -0.007205
v -0.008399 0.215430 0.015102
v -0.004798 0.215430 0.007205
v -0.008879 0.056497 0.014825
v 0.003841 0.056497 -0.007758
v -0.008160 0.056497 0.015240
v -0.009118 0.056497 0.014687
v 0.008879 0.056497 -0.014825
v 0.009118 0.056497 -0.014687
v 0.008160 0.056497 -0.015240
v -0.003840 0.056497 0.007758
vn -0.4999 -0.0000 0.8661
vn -0.8660 -0.0000 -0.5000
vn 0.4999 -0.0000 -0.8661
vn 0.8660 -0.0000 0.5000
vn -0.0000 -1.0000 -0.0000
vn -0.0000 1.0000 -0.0000
vn -1.0000 -0.0000 -0.0000
vn 1.0000 -0.0000 -0.0000
vt 0.000038 0.003158
vt 0.006881 0.992775
vt 0.000038 0.003158
vt 0.006881 0.992775
vt 0.989132 0.003158
vt 0.995976 0.992775
vt 0.989132 0.003158
vt 0.995976 0.992775
vt 0.003459 0.497966
vt 0.003459 0.497966
vt 0.003459 0.497966
vt 0.992554 0.497966
vt 0.992554 0.497966
vt 0.498006 0.497966
vt 0.992554 0.497966
vt 0.498007 0.497966
vt 0.005170 0.745371
vt 0.005170 0.745371
vt 0.994265 0.745371
vt 0.994265 0.745371
vt 0.994265 0.745371
vt 0.746992 0.745371
vt 0.005170 0.745371
vt 0.252444 0.745371
vt 0.001749 0.250562
vt 0.743569 0.250562
vt 0.001749 0.250562
vt 0.001749 0.250562
vt 0.990843 0.250562
vt 0.990843 0.250562
vt 0.990843 0.250562
vt 0.249022 0.250562
s 0
f 57/57/7 33/33/7 59/59/7
f 58/58/8 35/35/8 60/60/8
f 61/61/9 39/39/9 63/63/9
f 64/64/10 37/37/10 62/62/10
f 39/39/11 33/33/11 35/35/11
f 36/36/12 38/38/12 40/40/12
f 50/50/7 60/60/7 57/57/7
f 58/58/8 63/63/8 39/39/8
f 52/52/9 62/62/9 61/61/9
f 64/64/10 59/59/10 33/33/10
f 39/39/11 37/37/11 33/33/11
f 36/36/12 34/34/12 38/38/12
f 49/49/10 48/48/10 54/54/10
f 53/53/8 46/46/8 56/56/8
f 54/54/10 45/45/10 52/52/10
f 56/56/8 43/43/8 50/50/8
f 36/36/8 56/56/8 50/50/8
f 38/38/10 54/54/10 52/52/10
f 40/40/8 56/56/8 36/36/8
f 34/34/10 54/54/10 38/38/10
f 38/38/9 51/51/9 40/40/9
f 36/36/7 55/55/7 34/34/7
f 41/41/10 64/64/10 48/48/10
f 47/47/8 58/58/8 46/46/8
f 48/48/10 62/62/10 45/45/10
f 44/44/9 47/47/9 53/53/9
f 46/46/8 60/60/8 43/43/8
f 42/42/7 41/41/7 49/49/7
f 57/57/7 35/35/7 33/33/7
f 58/58/8 39/39/8 35/35/8
f 61/61/9 37/37/9 39/39/9
f 64/64/10 33/33/10 37/37/10
f 42/42/7 55/55/7 50/50/7
f 50/50/13 43/43/13 60/60/13
f 60/60/7 35/35/7 57/57/7
f 57/57/7 42/42/7 50/50/7
f 44/44/9 51/51/9 52/52/9
f 52/52/14 45/45/14 62/62/14
f 62/62/9 37/37/9 61/61/9
f 61/61/9 44/44/9 52/52/9
f 49/49/10 41/41/10 48/48/10
f 53/53/8 47/47/8 46/46/8
f 54/54/10 48/48/10 45/45/10
f 56/56/8 46/46/8 43/43/8
f 40/40/8 53/53/8 56/56/8
f 34/34/10 49/49/10 54/54/10
f 38/38/9 52/52/9 51/51/9
f 36/36/7 50/50/7 55/55/7
f 41/41/10 59/59/10 64/64/10
f 47/47/8 63/63/8 58/58/8
f 48/48/10 64/64/10 62/62/10
f 53/53/9 40/40/9 51/51/9
f 44/44/9 61/61/9 63/63/9
f 53/53/9 51/51/9 44/44/9
f 44/44/9 63/63/9 47/47/9
f 46/46/8 58/58/8 60/60/8
f 49/49/7 34/34/7 55/55/7
f 42/42/7 57/57/7 59/59/7
f 49/49/7 55/55/7 42/42/7
f 42/42/7 59/59/7 41/41/7
o Cube.002
v -0.009118 -0.022970 -0.014687
v -0.009118 0.294897 -0.014687
v -0.008160 -0.022970 -0.015240
v -0.008160 0.294897 -0.015240
v 0.008160 -0.022970 0.015240
v 0.008160 0.294897 0.015240
v 0.009118 -0.022970 0.014687
v 0.009118 0.294897 0.014687
v -0.009118 0.135963 -0.014687
v -0.008639 0.135963 -0.014963
v -0.008160 0.135963 -0.015240
v 0.008639 0.135963 0.014964
v 0.008160 0.135963 0.015240
v 0.000479 0.135963 -0.000276
v 0.009118 0.135963 0.014687
v -0.000479 0.135963 0.000277
v -0.009118 0.215430 -0.014687
v -0.008160 0.215430 -0.015240
v 0.008879 0.215430 0.014825
v 0.008160 0.215430 0.015240
v 0.009118 0.215430 0.014687
v 0.003841 0.215430 0.007758
v -0.008879 0.215430 -0.014825
v -0.003840 0.215430 -0.007758
v -0.008399 0.056497 -0.015102
v 0.004799 0.056497 0.007205
v -0.009118 0.056497 -0.014687
v -0.008160 0.056497 -0.015240
v 0.008399 0.056497 0.015102
v 0.008160 0.056497 0.015240
v 0.009118 0.056497 0.014687
v -0.004798 0.056497 -0.007205
vn -0.4999 -0.0000 -0.8661
vn 0.8660 -0.0000 -0.5000
vn 0.4999 -0.0000 0.8661
vn -0.8660 -0.0000 0.5000
vn -0.0000 -1.0000 -0.0000
vn -0.0000 1.0000 -0.0000
vn 1.0000 -0.0000 -0.0000
vn -1.0000 -0.0000 -0.0000
vt 0.000038 0.003158
vt 0.006881 0.992775
vt 0.000038 0.003158
vt 0.006881 0.992775
vt 0.989132 0.003158
vt 0.995976 0.992775
vt 0.989132 0.003158
vt 0.995976 0.992775
vt 0.003459 0.497966
vt 0.003459 0.497966
vt 0.003459 0.497966
vt 0.992554 0.497966
vt 0.992554 0.497966
vt 0.498006 0.497966
vt 0.992554 0.497966
vt 0.498007 0.497966
vt 0.005170 0.745371
vt 0.005170 0.745371
vt 0.994265 0.745371
vt 0.994265 0.745371
vt 0.994265 0.745371
vt 0.746992 0.745371
vt 0.005170 0.745371
vt 0.252444 0.745371
vt 0.001749 0.250562
vt 0.743569 0.250562
vt 0.001749 0.250562
vt 0.001749 0.250562
vt 0.990843 0.250562
vt 0.990843 0.250562
vt 0.990843 0.250562
vt 0.249022 0.250562
s 0
f 89/89/15 65/65/15 91/91/15
f 90/90/16 67/67/16 92/92/16
f 93/93/17 71/71/17 95/95/17
f 96/96/18 69/69/18 94/94/18
f 71/71/19 65/65/19 67/67/19
f 68/68/20 70/70/20 72/72/20
f 75/75/15 89/89/15 74/74/15
f 90/90/16 95/95/16 71/71/16
f 77/77/17 93/93/17 76/76/17
f 96/96/18 91/91/18 65/65/18
f 71/71/19 69/69/19 65/65/19
f 68/68/20 66/66/20 70/70/20
f 81/81/18 80/80/18 86/86/18
f 85/85/16 78/78/16 88/88/16
f 86/86/18 77/77/18 84/84/18
f 88/88/16 75/75/16 82/82/16
f 68/68/16 88/88/16 82/82/16
f 70/70/18 86/86/18 84/84/18
f 72/72/16 88/88/16 68/68/16
f 66/66/18 86/86/18 70/70/18
f 70/70/17 83/83/17 72/72/17
f 68/68/15 87/87/15 66/66/15
f 73/73/18 96/96/18 80/80/18
f 79/79/16 90/90/16 78/78/16
f 80/80/18 94/94/18 77/77/18
f 76/76/17 79/79/17 85/85/17
f 78/78/16 92/92/16 75/75/16
f 74/74/15 73/73/15 81/81/15
f 89/89/15 67/67/15 65/65/15
f 90/90/16 71/71/16 67/67/16
f 93/93/17 69/69/17 71/71/17
f 96/96/18 65/65/18 69/69/18
f 74/74/15 87/87/15 82/82/15
f 75/75/21 92/92/21 67/67/21
f 74/74/15 82/82/15 75/75/15
f 75/75/15 67/67/15 89/89/15
f 76/76/17 83/83/17 84/84/17
f 77/77/22 94/94/22 69/69/22
f 76/76/17 84/84/17 77/77/17
f 77/77/17 69/69/17 93/93/17
f 81/81/18 73/73/18 80/80/18
f 85/85/16 79/79/16 78/78/16
f 86/86/18 80/80/18 77/77/18
f 88/88/16 78/78/16 75/75/16
f 72/72/16 85/85/16 88/88/16
f 66/66/18 81/81/18 86/86/18
f 70/70/17 84/84/17 83/83/17
f 68/68/15 82/82/15 87/87/15
f 73/73/18 91/91/18 96/96/18
f 79/79/16 95/95/16 90/90/16
f 80/80/18 96/96/18 94/94/18
f 85/85/17 72/72/17 83/83/17
f 76/76/17 93/93/17 95/95/17
f 85/85/17 83/83/17 76/76/17
f 76/76/17 95/95/17 79/79/17
f 78/78/16 90/90/16 92/92/16
f 81/81/15 66/66/15 87/87/15
f 74/74/15 89/89/15 91/91/15
f 81/81/15 87/87/15 74/74/15
f 74/74/15 91/91/15 73/73/15
