# Blender 3.3.1
# www.blender.org
o Air_Duct
v 0.810775 0.263587 -4.586046
v 0.186118 0.263587 -4.586046
v 0.810775 0.263587 -6.818882
v 0.186118 0.263587 -6.818882
v 0.810775 0.896824 -4.586046
v 0.810775 0.263587 -4.586046
v 0.186118 0.896824 -4.586046
v 0.186118 0.263587 -4.586046
v 0.810775 0.896824 -6.818882
v 0.810775 0.263587 -6.818882
v 0.186118 0.896824 -6.818882
v 0.186118 0.263587 -6.818882
v 0.810775 0.896824 -4.586046
v 0.186118 0.896824 -4.586046
v 0.810775 0.896824 -6.818882
v 0.186118 0.896824 -6.818882
v 0.810775 0.263587 -4.538479
v 0.186118 0.263587 -4.538479
v 0.810775 0.896824 -4.538479
v 0.810775 0.263587 -4.538479
v 0.186118 0.896824 -4.538479
v 0.186118 0.263587 -4.538479
v 0.810775 0.896824 -4.538479
v 0.186118 0.896824 -4.538479
v 0.864220 0.209408 -4.532347
v 0.132674 0.209408 -4.532347
v 0.864220 0.951003 -4.532347
v 0.864220 0.209408 -4.532347
v 0.132674 0.951003 -4.532347
v 0.132674 0.209408 -4.532347
v 0.864220 0.951003 -4.532347
v 0.132674 0.951003 -4.532347
v 0.864220 0.209408 -4.667285
v 0.132674 0.209408 -4.667285
v 0.864220 0.951003 -4.667285
v 0.864220 0.209408 -4.667285
v 0.132674 0.951003 -4.667285
v 0.132674 0.209408 -4.667285
v 0.864220 0.951003 -4.667285
v 0.132674 0.951003 -4.667285
v 0.810775 0.263587 -6.858875
v 0.186118 0.263587 -6.858875
v 0.810775 0.896824 -6.858875
v 0.810775 0.263587 -6.858875
v 0.186118 0.896824 -6.858875
v 0.186118 0.263587 -6.858875
v 0.810775 0.896824 -6.858875
v 0.186118 0.896824 -6.858875
v 0.859134 0.214563 -6.858875
v 0.137759 0.214563 -6.858875
v 0.859134 0.945848 -6.858875
v 0.859134 0.214563 -6.858875
v 0.137759 0.945848 -6.858875
v 0.137759 0.214563 -6.858875
v 0.859134 0.945848 -6.858875
v 0.137759 0.945848 -6.858875
v 0.859134 0.214563 -6.743895
v 0.137759 0.214563 -6.743895
v 0.859134 0.945848 -6.743895
v 0.859134 0.214563 -6.743895
v 0.137759 0.945848 -6.743895
v 0.137759 0.214563 -6.743895
v 0.859134 0.945848 -6.743895
v 0.137759 0.945848 -6.743895
vn -0.0000 1.0000 -0.0000
vn -1.0000 -0.0000 -0.0000
vn 1.0000 -0.0000 -0.0000
vn -0.0000 -1.0000 -0.0000
vn -0.0000 -0.1125 0.9937
vn -0.1140 -0.0000 0.9935
vn 0.1140 -0.0000 0.9935
vn -0.0000 0.1125 0.9937
vn -0.0000 -0.0000 -1.0000
vn -0.0000 0.0001 -1.0000
vn -0.0000 -0.0001 -1.0000
vt 1.000000 0.000000
vt 1.004090 -1.963658
vt -0.006025 -1.963658
vt 1.000000 0.660824
vt 1.004090 1.005768
vt 0.901815 0.000000
vt 0.901815 0.766769
vt -0.006025 1.005768
vt 0.798714 0.669901
vt 1.011827 -1.973597
vt -0.018340 -1.973597
vt 0.798714 0.000000
vt -0.001215 0.995096
vt 0.899357 0.669901
vt 0.899357 0.000000
vt -0.001215 -0.013528
vt 1.011827 0.993984
vt 0.901815 0.777303
vt 0.901815 0.000000
vt -0.018340 0.993984
vt 0.803633 0.777303
vt 2.945550 0.995096
vt 2.945550 -0.013528
vt 0.803633 0.000000
vt 0.998844 -1.964367
vt 0.949678 0.660824
vt 0.949678 0.000000
vt -0.006368 -1.964367
vt 0.950909 0.766769
vt 0.998844 0.996245
vt -0.006368 0.996245
vt 0.950909 0.000000
vt 0.571004 0.717363
vt 0.949678 0.000000
vt 0.949678 0.660824
vt 0.571004 0.056539
vt 0.628320 0.727217
vt 0.849035 0.669901
vt 0.849035 0.000000
vt 0.628320 0.057316
vt 0.849035 0.669901
vt 0.742175 0.057316
vt 0.742175 0.727217
vt 0.849035 0.000000
vt 0.899357 0.660824
vt 0.684859 0.056539
vt 0.684859 0.717363
vt 0.899357 0.000000
vt 0.428253 0.000000
vt 0.628320 0.773902
vt 0.628320 0.000000
vt 0.428253 0.773902
vt 0.142751 0.784533
vt 0.684859 0.784533
vt 0.684859 0.000000
vt 0.142751 0.000000
vt 0.798714 0.000000
vt 0.142751 0.784533
vt 0.142751 0.000000
vt 0.798714 0.784533
vt 0.742175 0.000000
vt 0.571004 0.773902
vt 0.571004 0.000000
vt 0.742175 0.773902
vt 0.285502 0.000000
vt 0.285502 0.773902
vt 0.285501 0.784533
vt 0.285501 0.000000
vt 0.000000 0.784533
vt 0.000000 0.000000
vt 0.428253 0.773902
vt 0.428253 0.000000
vt 0.950907 0.000000
vt 0.624734 0.826130
vt 0.950907 0.766769
vt 0.624734 0.059361
vt 0.852724 0.777303
vt 0.744271 0.060176
vt 0.744271 0.837479
vt 0.852724 0.000000
vt 0.744271 0.060176
vt 0.852724 0.777303
vt 0.852724 0.000000
vt 0.744271 0.837479
vt 0.624734 0.826130
vt 1.000000 0.766769
vt 1.000000 0.000000
vt 0.624734 0.059361
vt 0.564558 0.885491
vt 0.564558 0.000000
vt 0.803632 0.000000
vt 0.141140 0.897655
vt 0.141140 0.000000
vt 0.803632 0.897655
vt 0.141140 0.897655
vt 0.684910 0.000000
vt 0.684910 0.897655
vt 0.141140 0.000000
vt 0.423418 0.000000
vt 0.684910 0.885491
vt 0.684910 0.000000
vt 0.423418 0.885491
vt 0.423418 0.885491
vt 0.423418 0.000000
vt 0.000000 0.897655
vt 0.000000 0.000000
vt 0.282280 0.897655
vt 0.282280 0.000000
vt 0.282278 0.000000
vt 0.282278 0.885491
s 0
f 1/2/1 4/8/1 2/3/1
f 5/10/2 10/20/2 6/11/2
f 8/16/3 11/22/3 7/13/3
f 14/28/4 15/30/4 13/25/4
f 7/14/3 22/44/3 8/15/3
f 13/26/4 24/48/4 14/27/4
f 6/12/2 19/38/2 5/9/2
f 2/4/1 17/34/1 1/1/1
f 23/46/5 32/64/5 24/47/5
f 20/40/6 27/54/6 19/37/6
f 21/42/7 30/60/7 22/43/7
f 18/36/8 25/50/8 17/33/8
f 29/58/2 38/70/2 30/59/2
f 26/52/4 33/65/4 25/49/4
f 31/62/1 40/72/1 32/63/1
f 28/56/3 35/67/3 27/53/3
f 9/18/2 44/80/2 10/19/2
f 16/32/4 47/86/4 15/29/4
f 12/24/3 45/82/3 11/21/3
f 3/6/1 42/75/1 4/7/1
f 48/88/9 55/100/9 47/85/9
f 43/78/9 52/94/9 44/79/9
f 46/84/9 53/96/9 45/81/9
f 42/76/10 49/89/10 50/90/10
f 49/89/4 58/104/4 50/90/4
f 56/102/1 63/109/1 55/99/1
f 51/92/3 60/106/3 52/93/3
f 54/98/2 61/107/2 53/95/2
f 1/2/1 3/5/1 4/8/1
f 5/10/2 9/17/2 10/20/2
f 8/16/3 12/23/3 11/22/3
f 14/28/4 16/31/4 15/30/4
f 7/14/3 21/41/3 22/44/3
f 13/26/4 23/45/4 24/48/4
f 6/12/2 20/39/2 19/38/2
f 2/4/1 18/35/1 17/34/1
f 23/46/5 31/61/5 32/64/5
f 20/40/6 28/55/6 27/54/6
f 21/42/7 29/57/7 30/60/7
f 18/36/8 26/51/8 25/50/8
f 29/58/2 37/69/2 38/70/2
f 26/52/4 34/66/4 33/65/4
f 31/62/1 39/71/1 40/72/1
f 28/56/3 36/68/3 35/67/3
f 9/18/2 43/77/2 44/80/2
f 16/32/4 48/87/4 47/86/4
f 12/24/3 46/83/3 45/82/3
f 3/6/1 41/73/1 42/75/1
f 48/88/11 56/101/11 55/100/11
f 43/78/9 51/91/9 52/94/9
f 46/84/9 54/97/9 53/96/9
f 42/76/9 41/74/9 49/89/9
f 49/89/4 57/103/4 58/104/4
f 56/102/1 64/110/1 63/109/1
f 51/92/3 59/105/3 60/106/3
f 54/98/2 62/108/2 61/107/2
