# Blender 3.3.1
# www.blender.org
o Wall.002
v -1.590027 0.077379 -11.671524
v -1.590027 1.217989 -11.671524
v -1.590027 0.077379 -12.481579
v -1.590027 1.217989 -12.481579
v -5.196656 0.077379 -11.671524
v -5.196656 1.217989 -11.671524
v -5.196656 0.077379 -12.726599
v -5.196656 1.217989 -12.726599
v -1.590027 0.077379 -10.467155
v -1.590027 1.217989 -10.467155
v -5.196656 0.077379 -10.467155
v -5.196656 1.217989 -10.467155
v -1.590027 0.077379 -13.074013
v -1.590027 1.217989 -13.074013
v -5.196656 0.077379 -13.074013
v -5.196656 1.217989 -13.074013
v 0.472883 0.077379 -11.671524
v 0.472883 1.217989 -11.671524
v 0.472883 0.077379 -12.481579
v 0.472883 1.217989 -12.481579
v 3.841406 0.077379 -11.671524
v 3.841406 1.217989 -11.671524
v 3.841406 0.077379 -12.726599
v 3.841406 1.217989 -12.726599
v 0.472883 0.077379 -13.060116
v 0.472883 1.217989 -13.060116
v 3.841406 0.077379 -13.060116
v 3.841406 1.217989 -13.060116
v 0.472883 0.077379 -10.515331
v 0.472883 1.217989 -10.515331
v 3.841406 0.077379 -10.515331
v 3.841406 1.217989 -10.515331
v -1.590027 1.373630 -11.671524
v -1.590027 1.373630 -12.481579
v -5.196656 1.373630 -11.671524
v -5.196656 1.373630 -12.726599
v -1.590027 1.373630 -10.467155
v -5.196656 1.373630 -10.467155
v -5.196656 1.373630 -13.074013
v -1.590027 1.373630 -13.074013
v 0.472883 1.373630 -12.481579
v 0.472883 1.373630 -11.671524
v 3.841406 1.373630 -12.726599
v 3.841406 1.373630 -11.671524
v 3.841406 1.373630 -13.060116
v 0.472883 1.373630 -13.060116
v 0.472883 1.373630 -10.515331
v 3.841406 1.373630 -10.515331
v 2.349908 1.217989 -13.060116
v 2.349908 1.274763 -13.060116
v 2.748356 1.274763 -13.060116
v 2.748356 1.217989 -13.060116
v 2.349908 0.902036 -13.060116
v 2.748356 0.902036 -13.060116
v -4.250338 1.217989 -13.074013
v -3.851889 0.902036 -13.074013
v -3.851889 1.217989 -13.074013
v -4.250338 0.902036 -13.074013
v -3.851889 1.274763 -13.074013
v -4.250338 1.274763 -13.074013
vn -0.0000 -0.0000 1.0000
vn 1.0000 -0.0000 -0.0000
vn -0.0000 -0.0000 -1.0000
vn -1.0000 -0.0000 -0.0000
vn -0.0000 0.0001 1.0000
vt 5.986970 0.021115
vt 5.986970 0.675743
vt 6.873989 0.021115
vt 6.873989 0.675743
vt 5.986970 0.021115
vt 5.986970 0.675743
vt 6.873989 0.021115
vt 6.873989 0.675743
vt -3.336462 0.037220
vt 4.974441 0.021115
vt -3.336462 0.667235
vt 4.974441 0.675743
vt -6.254605 0.037220
vt 4.974441 0.021115
vt 4.974441 0.675743
vt -6.254605 0.667235
vt -3.336462 0.037220
vt 7.166064 0.021115
vt 7.166064 0.675743
vt -3.336462 0.667235
vt -6.254605 0.037220
vt 7.166064 0.021115
vt 7.166064 0.675743
vt -6.254605 0.667235
vt 5.986970 0.021115
vt 5.986970 0.675743
vt 6.873989 0.021115
vt 6.873989 0.675743
vt 5.986970 0.021115
vt 5.986970 0.675743
vt 6.873989 0.021115
vt 6.873989 0.675743
vt 7.154379 0.021115
vt -1.667351 0.037220
vt -1.667351 0.667235
vt 7.154379 0.675743
vt 1.058140 0.037220
vt 7.154379 0.021115
vt 1.058140 0.667235
vt 7.154379 0.675743
vt -1.667351 0.037220
vt 5.014942 0.021115
vt -1.667351 0.667235
vt 5.014942 0.675743
vt 1.058140 0.037220
vt 5.014942 0.021115
vt 1.058140 0.667235
vt 5.014942 0.675743
vt 5.986970 0.765069
vt 6.873989 0.765069
vt 5.986970 0.765069
vt 6.873989 0.765069
vt 4.974441 0.765069
vt -3.336462 0.753204
vt 4.974441 0.765069
vt -6.254605 0.753204
vt 7.166064 0.765069
vt -6.254605 0.753203
vt 7.166064 0.765069
vt -3.336462 0.753203
vt 6.873989 0.765069
vt 5.986970 0.765069
vt 6.873989 0.765069
vt 5.986970 0.765069
vt 1.058140 0.753203
vt 7.154379 0.765069
vt -1.667351 0.753203
vt 7.154379 0.765069
vt -1.667351 0.753204
vt 5.014942 0.765069
vt 1.058140 0.753204
vt 5.014942 0.765069
vt -0.148640 0.667235
vt -0.148640 0.698594
vt 0.173747 0.698594
vt 0.173747 0.667235
vt -0.148640 0.492719
vt 0.173747 0.492719
vt -5.488934 0.667235
vt -5.166547 0.492719
vt -5.166547 0.667235
vt -5.488934 0.492719
vt -5.166547 0.698594
vt -5.488934 0.698594
s 0
f 51/75/1 45/65/1 50/74/1
f 5/5/2 8/8/2 6/6/2
f 6/6/2 38/55/2 12/15/2
f 9/9/3 12/16/3 10/11/3
f 6/6/2 11/14/2 5/5/2
f 1/1/4 10/12/4 2/2/4
f 58/82/1 15/21/1 56/80/1
f 4/4/4 13/18/4 3/3/4
f 30/43/3 48/71/3 32/47/3
f 7/7/2 16/23/2 8/8/2
f 19/27/2 26/36/2 20/28/2
f 22/30/4 23/31/4 21/29/4
f 22/30/4 43/63/4 24/32/4
f 53/77/1 27/37/1 54/78/1
f 20/28/2 42/62/2 18/26/2
f 24/32/4 27/38/4 23/31/4
f 30/43/3 31/45/3 29/41/3
f 18/26/2 29/42/2 17/25/2
f 10/12/4 33/49/4 2/2/4
f 21/29/4 32/48/4 22/30/4
f 4/4/4 40/59/4 14/19/4
f 26/36/2 41/61/2 20/28/2
f 16/23/2 36/52/2 8/8/2
f 24/32/4 45/66/4 28/40/4
f 18/26/2 47/70/2 30/44/2
f 2/2/4 34/50/4 4/4/4
f 12/16/3 37/54/3 10/11/3
f 8/8/2 35/51/2 6/6/2
f 32/48/4 44/64/4 22/30/4
f 59/83/1 39/58/1 60/84/1
f 51/75/1 52/76/1 28/39/1
f 45/65/1 46/67/1 26/35/1
f 26/35/1 49/73/1 50/74/1
f 51/75/1 28/39/1 45/65/1
f 45/65/5 26/35/5 50/74/5
f 5/5/2 7/7/2 8/8/2
f 6/6/2 35/51/2 38/55/2
f 9/9/3 11/13/3 12/16/3
f 6/6/2 12/15/2 11/14/2
f 1/1/4 9/10/4 10/12/4
f 58/82/1 55/79/1 16/24/1
f 15/21/1 13/17/1 14/20/1
f 14/20/1 57/81/1 56/80/1
f 58/82/1 16/24/1 15/21/1
f 15/21/1 14/20/1 56/80/1
f 4/4/4 14/19/4 13/18/4
f 30/43/3 47/69/3 48/71/3
f 7/7/2 15/22/2 16/23/2
f 19/27/2 25/33/2 26/36/2
f 22/30/4 24/32/4 23/31/4
f 22/30/4 44/64/4 43/63/4
f 53/77/1 49/73/1 26/35/1
f 26/35/1 25/34/1 27/37/1
f 27/37/1 28/39/1 52/76/1
f 27/37/1 52/76/1 54/78/1
f 53/77/1 26/35/1 27/37/1
f 20/28/2 41/61/2 42/62/2
f 24/32/4 28/40/4 27/38/4
f 30/43/3 32/47/3 31/45/3
f 18/26/2 30/44/2 29/42/2
f 10/12/4 37/53/4 33/49/4
f 21/29/4 31/46/4 32/48/4
f 4/4/4 34/50/4 40/59/4
f 26/36/2 46/68/2 41/61/2
f 16/23/2 39/57/2 36/52/2
f 24/32/4 43/63/4 45/66/4
f 18/26/2 42/62/2 47/70/2
f 2/2/4 33/49/4 34/50/4
f 12/16/3 38/56/3 37/54/3
f 8/8/2 36/52/2 35/51/2
f 32/48/4 48/72/4 44/64/4
f 59/83/1 57/81/1 14/20/1
f 14/20/1 40/60/1 39/58/1
f 39/58/1 16/24/1 55/79/1
f 39/58/1 55/79/1 60/84/1
f 59/83/1 14/20/1 39/58/1
