# Blender 3.3.1
# www.blender.org
o Ceiling
v 2.961019 1.510338 6.224111
v 2.961019 1.510338 11.444908
v 1.382142 1.510338 6.224111
v 1.382142 1.510338 11.444908
v 2.961019 1.510338 5.281763
v 1.382142 1.510338 5.281763
v 3.132969 1.510338 6.224111
v 3.132969 1.510338 5.281763
v 3.920262 1.510338 6.224111
v 3.920262 1.510338 5.281763
v 3.132969 1.510338 4.998242
v 3.920262 1.510338 4.998242
v 3.132969 1.510338 7.120037
v 3.920262 1.510338 7.120037
v 1.224631 1.510338 6.224111
v 1.224631 1.510338 5.281763
v -3.996577 1.510338 6.224111
v -3.996577 1.510338 5.281763
v 1.224631 1.510338 4.661507
v -3.996577 1.510338 4.661507
v 1.224631 1.510338 8.478102
v -3.996577 1.510338 8.478102
v 5.054347 1.510338 6.224111
v 5.054347 1.510338 5.281763
v 5.054347 1.510338 4.998242
v 5.054347 1.510338 7.120037
v 7.322516 1.510338 6.224111
v 7.322516 1.510338 5.281763
v 7.322516 1.510338 4.998242
v 7.322516 1.510338 7.120037
v 3.920262 1.199782 7.120037
v 5.054347 1.199782 7.120037
v 3.920262 1.199782 7.253922
v 5.054347 1.199782 7.253922
v 2.961019 1.510338 3.365159
v 1.382142 1.510338 3.365159
v 2.961019 1.510338 1.970359
v 1.382142 1.510338 1.970359
v -0.618258 1.510338 3.365159
v -0.618258 1.510338 1.970359
v 5.671940 1.510338 3.365159
v 5.671940 1.510338 1.970359
v 5.671940 1.510338 -0.889720
v 7.272364 1.510338 -0.889720
v 7.272364 1.510338 3.365159
v 7.272364 1.510338 1.970359
v 7.404674 1.436671 3.126580
v 7.404674 1.436671 2.208938
v 9.800426 1.436671 3.126580
v 9.800426 1.436671 2.208938
v 7.404674 1.436671 2.043550
v 9.800426 1.436671 2.043550
v 7.404674 1.436671 3.835385
v 9.800426 1.436671 3.835385
v 5.671940 1.510338 -1.820580
v 7.272364 1.510338 -1.820580
v 5.671940 1.510338 -4.583322
v 7.272364 1.510338 -4.583322
v 7.453503 1.712528 -0.889720
v 7.453503 1.712528 -1.820580
v 7.725684 1.712528 -0.889720
v 7.725684 1.712528 -1.820580
v 7.453503 1.712528 -2.217510
v 7.725684 1.712528 -2.217510
v 7.453503 1.712528 -0.436085
v 7.725684 1.712528 -0.436085
v 11.025975 1.712528 -0.889720
v 11.025975 1.712528 -1.820580
v 11.025975 1.712528 -2.217510
v 11.025975 1.712528 -0.436085
v 7.725684 1.712528 1.546485
v 11.025975 1.712528 1.546485
v 11.496305 1.712528 -0.889720
v 11.496305 1.712528 -1.820580
v 11.496305 1.712528 -0.436085
v 11.496305 1.712528 1.546485
v 5.490801 1.941759 -0.889720
v 5.490801 1.941759 -1.820580
v 5.066198 1.941759 -0.889720
v 5.066198 1.941759 -1.820580
v 5.490801 1.941759 -0.430308
v 5.066198 1.941759 -0.430308
v 5.490801 1.941759 -2.283288
v 5.066198 1.941759 -2.283288
v 0.914884 1.941759 -0.889720
v 0.914884 1.941759 -1.820580
v 0.914884 1.941759 -0.430308
v 0.914884 1.941759 -2.283288
v 5.066198 1.941759 0.205534
v 0.914884 1.941759 0.205534
v 5.066198 1.941759 -4.586046
v 0.914884 1.941759 -4.586046
v 0.082009 1.941759 -0.889720
v 0.082009 1.941759 -1.820580
v 0.082009 1.941759 -0.430308
v 0.082009 1.941759 -2.283288
v 0.082009 1.941759 0.205534
v 0.082009 1.941759 -4.586046
v -0.734536 1.941759 -0.889720
v -0.734536 1.941759 -1.820580
v -0.734536 1.941759 -0.430308
v -0.734536 1.941759 -2.283288
v -0.734536 1.941759 0.205534
v -0.734536 1.941759 -4.586046
v 6.999581 1.217989 -4.583322
v 6.009792 1.217989 -4.583322
v 6.009792 1.217989 -4.839441
v 6.999581 1.217989 -4.839441
v 6.009792 1.581219 -4.839441
v 6.999581 1.581219 -4.839441
v 6.009792 1.581219 -6.818882
v 6.999581 1.581219 -6.818882
v 5.686687 1.581219 -4.839441
v 5.686687 1.581219 -6.818882
v 7.291164 1.581219 -4.839441
v 7.291164 1.581219 -6.818882
v 6.009792 1.581219 -8.284679
v 6.999581 1.581219 -8.284679
v 5.686687 1.581219 -8.284679
v 7.291164 1.581219 -8.284679
v 1.263199 1.581219 -6.818882
v 0.279876 1.581219 -8.284679
v -1.376947 1.581219 -6.818882
v -1.376947 1.581219 -8.284679
v 0.279876 1.581219 -11.671524
v -1.376947 1.581219 -11.671524
v 0.279876 1.581219 -12.726599
v -1.376947 1.581219 -12.726599
v 0.279876 1.581219 -13.074013
v -1.376947 1.581219 -13.074013
v 0.101791 1.495932 -13.209118
v -1.183183 1.495932 -13.209118
v -0.096076 1.495932 -14.765244
v -0.985315 1.495932 -14.765244
v 0.285287 1.495932 -13.209118
v 0.285287 1.495932 -14.765244
v -1.373142 1.495932 -13.209118
v -1.373142 1.495932 -14.765244
v -1.590027 1.373630 -11.671524
v -1.590027 1.373630 -12.726599
v -5.196656 1.373630 -11.671524
v -5.196656 1.373630 -12.726599
v -1.590027 1.373630 -10.467155
v -5.196656 1.373630 -10.467155
v -5.196656 1.373630 -13.074013
v -1.590027 1.373630 -13.074013
v 0.472883 1.373630 -12.726599
v 0.472883 1.373630 -11.671524
v 3.841406 1.373630 -12.726599
v 3.841406 1.373630 -11.671524
v 3.841406 1.373630 -13.060116
v 0.472883 1.373630 -13.060116
v 0.472883 1.373630 -10.515331
v 3.841406 1.373630 -10.515331
v -0.096076 1.217989 -16.936268
v -0.985315 1.217989 -16.936268
v -0.096076 1.495932 -16.936268
v -0.985315 1.495932 -16.936268
v 0.285287 1.495932 -16.936268
v -1.373142 1.495932 -16.936268
v -4.641615 1.495932 -14.765244
v -4.641615 1.495932 -16.936268
v 6.772200 1.495932 -14.765244
v 6.772200 1.495932 -16.936268
v -0.985315 1.217989 -17.064699
v -0.096076 1.217989 -17.064699
v -0.144809 1.941759 -4.586046
v -0.144809 1.941759 -2.283288
v 0.629715 1.941759 -4.586046
v 0.629715 1.941759 -2.283288
v 0.629715 2.246026 -2.283288
v 0.082009 2.246026 -2.283288
v 0.082009 2.246026 -4.586046
v -0.144809 2.246026 -4.586046
v -0.144809 2.246026 -2.283288
v 0.629715 2.246026 -4.586046
v 0.629272 1.970900 -2.241976
v -0.062171 1.967194 -2.241976
v -0.062171 1.967194 -4.637954
v -0.062171 2.283997 -4.635108
v -0.148467 1.968897 -4.637954
v -0.148467 1.968897 -2.241976
v 0.629272 1.970900 -4.637954
v 1.223811 2.298713 -1.662742
v -0.062171 2.298713 -1.662742
v -0.594725 2.283997 -4.635108
v -0.594725 2.298713 -1.662742
v 1.223811 2.283997 -4.635108
v -0.900475 1.581219 -8.284679
v -0.906467 1.581219 -6.818882
v -0.137043 1.581219 -6.818882
v -0.134330 1.581219 -8.284679
v -0.902027 1.581219 -7.905066
v -0.135033 1.581219 -7.905066
v -1.192993 1.974072 -6.416086
v 0.147092 1.974072 -6.416086
v -1.185260 1.974072 -8.307863
v 0.150593 1.974072 -8.307863
vn -0.0000 -1.0000 -0.0000
vn 0.9910 0.1336 -0.0000
vn 0.0832 -0.9965 0.0049
vn -0.9999 -0.0152 -0.0000
vn -0.0000 -0.7908 -0.6120
vn 0.0175 0.8866 0.4623
vn -0.0000 0.8516 -0.5243
vn -0.4660 0.8848 -0.0000
vn -0.0000 -0.0090 1.0000
vn -0.0000 0.8703 -0.4925
vn 0.0171 0.8678 -0.4967
vn 0.5910 0.8067 -0.0040
vn -0.0000 -0.9964 0.0846
vn -0.0048 0.8927 0.4507
vn -0.0841 -0.9965 -0.0000
vn -0.0000 0.8172 -0.5764
vn -0.0000 -0.7908 -0.6121
vn -0.8095 0.5871 -0.0015
vn -0.0000 0.7159 -0.6982
vn -0.0000 0.7159 0.6982
vn 0.8095 0.5870 0.0033
vn 0.0638 -0.9980 -0.0000
vn -0.0000 -0.7909 -0.6120
vn -0.0000 0.8980 0.4400
vn 0.0165 0.8364 -0.5479
vn -0.4796 0.8775 -0.0043
vn -0.0002 -0.0090 1.0000
vn -0.0000 -0.0091 1.0000
vn -0.0047 0.8679 -0.4967
vn -0.0000 0.8690 -0.4948
vn 0.5768 0.8169 -0.0000
vn -0.0000 0.8720 0.4895
vn -0.1096 -0.9940 0.0049
vn -0.0045 0.8444 -0.5357
vt 0.504257 -1.087133
vt 0.504257 -1.858520
vt 0.162534 -1.087133
vt 0.162534 -1.858520
vt 0.504257 -0.947898
vt 0.162534 -0.947898
vt 0.541473 -1.087133
vt 0.541473 -0.947898
vt 0.711871 -1.087133
vt 0.711871 -0.947898
vt 0.541473 -0.906007
vt 0.711871 -0.906007
vt 0.541473 -1.219508
vt 0.711871 -1.219508
vt 0.128443 -1.087133
vt 0.128443 -0.947898
vt -1.001608 -1.087133
vt -1.001608 -0.947898
vt 0.128443 -0.856254
vt -1.001608 -0.856254
vt 0.128443 -1.420166
vt -1.001608 -1.420166
vt 0.957327 -1.087133
vt 0.957327 -0.947898
vt 0.957327 -0.906007
vt 0.957327 -1.219508
vt 1.448236 -1.087133
vt 1.448236 -0.947898
vt 1.448236 -0.906007
vt 1.448236 -1.219508
vt 0.711871 -1.219508
vt 0.957327 -1.219508
vt 0.711871 -1.239290
vt 0.957327 -1.239290
vt 0.504257 -0.664715
vt 0.162534 -0.664715
vt 0.504257 -0.458629
vt 0.162534 -0.458629
vt -0.270423 -0.664715
vt -0.270423 -0.458629
vt 1.090995 -0.664715
vt 1.090995 -0.458629
vt 1.090995 -0.036045
vt 1.437382 -0.036045
vt 1.437382 -0.664715
vt 1.437382 -0.458629
vt 1.466019 -0.629464
vt 1.466019 -0.493880
vt 1.984542 -0.629464
vt 1.984542 -0.493880
vt 1.466019 -0.469444
vt 1.984542 -0.469444
vt 1.466019 -0.734192
vt 1.984542 -0.734192
vt 1.090995 0.101492
vt 1.437382 0.101492
vt 1.090995 0.509694
vt 1.437382 0.509694
vt 1.476586 -0.036045
vt 1.476586 0.101492
vt 1.535496 -0.036045
vt 1.535496 0.101492
vt 1.476586 0.160139
vt 1.535496 0.160139
vt 1.476586 -0.103071
vt 1.535496 -0.103071
vt 2.249793 -0.036045
vt 2.249793 0.101492
vt 2.249793 0.160139
vt 2.249793 -0.103071
vt 1.535496 -0.396001
vt 2.249793 -0.396001
vt 2.351589 -0.036045
vt 2.351589 0.101492
vt 2.351589 -0.103071
vt 2.351589 -0.396001
vt 1.051790 -0.036045
vt 1.051790 0.101492
vt 0.959891 -0.036045
vt 0.959891 0.101492
vt 1.051790 -0.103924
vt 0.959891 -0.103924
vt 1.051790 0.169859
vt 0.959891 0.169859
vt 0.061403 -0.036045
vt 0.061403 0.101492
vt 0.061403 -0.103924
vt 0.061403 0.169859
vt 0.959891 -0.197872
vt 0.061403 -0.197872
vt 0.959891 0.510097
vt 0.061403 0.510097
vt -0.118861 -0.036045
vt -0.118861 0.101492
vt -0.118861 -0.103924
vt -0.118861 0.169859
vt -0.118861 -0.197872
vt 0.000000 0.000000
vt -0.295589 -0.036045
vt -0.295589 0.101492
vt -0.295589 -0.103924
vt -0.295589 0.169859
vt -0.295589 -0.197872
vt -0.295589 0.510097
vt 1.378342 0.509694
vt 1.164117 0.509694
vt 1.164117 0.547537
vt 1.378342 0.547537
vt 1.164117 0.547537
vt 1.378342 0.547537
vt 1.164117 0.840005
vt 1.378342 0.840005
vt 1.094186 0.547537
vt 1.094186 0.840005
vt 1.441450 0.547537
vt 1.441450 0.840005
vt 1.164117 1.056580
vt 1.378342 1.056580
vt 1.094186 1.056580
vt 1.441450 1.056580
vt 0.136790 0.840005
vt -0.076035 1.056580
vt -0.434628 0.840005
vt -0.434628 1.056580
vt -0.076035 1.556996
vt -0.434628 1.556996
vt -0.076035 1.712886
vt -0.434628 1.712886
vt -0.076035 1.764217
vt -0.434628 1.764217
vt -0.114579 1.784179
vt -0.392692 1.784179
vt -0.157404 2.014101
vt -0.349866 2.014101
vt -0.074864 1.784179
vt -0.074864 2.014101
vt -0.433806 1.784179
vt -0.433806 2.014101
vt -0.480747 1.556996
vt -0.480747 1.712886
vt -1.261346 1.556996
vt -1.261346 1.712886
vt -0.480747 1.379047
vt -1.261346 1.379047
vt -1.261346 1.764217
vt -0.480747 1.764217
vt -0.034261 1.712886
vt -0.034261 1.556996
vt 0.694804 1.712886
vt 0.694804 1.556996
vt 0.694804 1.762164
vt -0.034261 1.762164
vt -0.034261 1.386165
vt 0.694804 1.386165
vt -0.157404 2.334876
vt -0.349866 2.334876
vt -0.157404 2.334876
vt -0.349866 2.334876
vt -0.074864 2.334876
vt -0.433806 2.334876
vt -1.141216 2.014101
vt -1.141216 2.334876
vt 1.329129 2.014101
vt 1.329129 2.334876
vt -0.349866 2.353852
vt -0.157404 2.353852
vt -0.167952 0.510097
vt 0.000000 0.000000
vt -0.167952 0.169859
vt -0.000318 0.510097
vt 0.000000 0.000000
vt -0.000318 0.169859
vt -0.000318 0.169859
vt -0.118861 0.169859
vt 0.168781 0.500417
vt -0.167952 0.510097
vt 0.168781 0.501300
vt -0.167952 0.169859
vt -0.000318 0.510097
vt 0.168781 0.498285
vt 0.280086 0.500732
vt 0.258086 0.500732
vt -0.000318 0.169859
vt 0.250201 0.500732
vt -0.118861 0.169859
vt 0.000000 0.000000
vt 0.254821 0.499579
vt 0.254821 0.498425
vt 0.166356 0.500978
vt 0.000000 0.000000
vt -0.167952 0.510097
vt 0.258086 0.499579
vt 0.280086 0.501886
vt -0.167952 0.169859
vt 0.246936 0.500732
vt 0.246936 0.501886
vt -0.000318 0.510097
vt 0.246936 0.500732
vt 0.246936 0.499579
vt 0.000000 0.000000
vt 0.258086 0.499579
vt 0.280086 0.501886
vt -0.000318 0.169859
vt 0.250201 0.499579
vt -0.118861 0.169859
vt 0.258086 0.498425
vt 0.166356 0.503052
vt 0.280086 0.503039
vt -0.167952 0.510097
vt 0.246936 0.503039
vt 0.246936 0.499579
vt -0.167952 0.169859
vt 0.166356 0.495972
vt -0.000318 0.510097
vt 0.246936 0.501886
vt 0.246936 0.498425
vt -0.331504 1.056580
vt -0.332800 0.840005
vt 0.665564 0.335400
vt 0.666053 0.336748
vt 0.667466 0.335406
vt 0.668196 0.334259
vt -0.166270 0.840005
vt -0.165683 1.056580
vt -0.331839 1.000491
vt 0.666053 0.334264
vt 0.668196 0.336743
vt -0.165835 1.000491
vt 0.665024 0.334257
vt 0.667163 0.337672
vt 0.666197 0.333701
vt 0.669306 0.333339
vt 0.669510 0.333712
vt 0.667163 0.333346
vt 0.669306 0.337665
vt 0.665370 0.333333
s 0
f 2/2/1 3/3/1 1/1/1
f 36/36/1 40/40/1 38/38/1
f 6/6/1 1/1/1 3/3/1
f 10/10/1 7/7/1 8/8/1
f 14/14/1 7/7/1 9/9/1
f 11/11/1 10/10/1 8/8/1
f 17/17/1 16/16/1 15/15/1
f 20/20/1 16/16/1 18/18/1
f 21/21/1 17/17/1 15/15/1
f 25/25/1 28/28/1 24/24/1
f 23/23/1 30/30/1 26/26/1
f 24/24/1 27/27/1 23/23/1
f 10/10/1 23/23/1 9/9/1
f 9/9/1 26/26/1 14/14/1
f 12/12/1 24/24/1 10/10/1
f 32/32/1 33/33/1 31/31/1
f 36/36/1 37/37/1 35/35/1
f 6/6/1 35/35/1 5/5/1
f 37/37/1 41/41/1 35/35/1
f 42/42/1 45/45/1 41/41/1
f 42/42/1 44/44/1 46/46/1
f 48/48/1 49/49/1 47/47/1
f 48/48/1 52/52/1 50/50/1
f 49/49/1 53/53/1 47/47/1
f 43/43/1 56/56/1 44/44/1
f 55/55/1 58/58/1 56/56/1
f 68/68/1 73/73/1 67/67/1
f 60/60/1 64/64/1 62/62/1
f 60/60/1 61/61/1 59/59/1
f 64/64/1 68/68/1 62/62/1
f 61/61/1 65/65/1 59/59/1
f 70/70/1 76/76/1 72/72/1
f 61/61/1 70/70/1 66/66/1
f 62/62/1 67/67/1 61/61/1
f 70/70/1 71/71/1 66/66/1
f 67/67/1 75/75/1 70/70/1
f 82/82/1 85/85/1 79/79/1
f 77/77/1 80/80/1 78/78/1
f 80/80/1 88/88/1 84/84/1
f 77/77/1 82/82/1 79/79/1
f 82/82/1 90/90/1 87/87/1
f 80/80/1 83/83/1 78/78/1
f 86/86/1 96/96/1 170/172/1
f 85/85/1 94/94/1 86/86/1
f 90/90/1 95/95/1 87/87/1
f 79/79/1 86/86/1 80/80/1
f 88/88/1 91/91/1 84/84/1
f 167/167/2 182/194/2 168/169/2
f 94/94/1 102/102/1 168/169/1
f 168/169/1 104/104/1 167/167/1
f 93/93/1 100/100/1 94/94/1
f 97/97/1 101/101/1 95/95/1
f 95/95/1 99/99/1 93/93/1
f 87/87/1 93/93/1 85/85/1
f 106/106/1 108/108/1 105/105/1
f 109/109/1 114/114/1 111/111/1
f 109/109/1 112/112/1 110/110/1
f 112/112/1 120/120/1 116/116/1
f 114/114/1 117/117/1 111/111/1
f 112/112/1 115/115/1 110/110/1
f 111/111/1 118/118/1 112/112/1
f 119/119/1 121/121/1 122/122/1
f 193/225/1 123/123/1 124/124/1
f 189/217/1 126/126/1 125/125/1
f 126/126/1 127/127/1 125/125/1
f 128/128/1 129/129/1 127/127/1
f 133/133/1 159/159/1 136/136/1
f 132/132/1 133/133/1 131/131/1
f 131/131/1 136/136/1 135/135/1
f 132/132/1 138/138/1 134/134/1
f 138/138/1 158/158/1 134/134/1
f 134/134/1 157/157/1 133/133/1
f 139/139/1 142/142/1 140/140/1
f 139/139/1 144/144/1 141/141/1
f 142/142/1 146/146/1 140/140/1
f 147/147/1 150/150/1 148/148/1
f 147/147/1 151/151/1 149/149/1
f 150/150/1 153/153/1 148/148/1
f 138/138/1 162/162/1 160/160/1
f 159/159/1 163/163/1 136/136/1
f 156/156/1 166/166/1 155/155/1
f 171/173/3 188/214/3 184/203/3
f 88/88/1 169/170/1 92/92/1
f 169/170/4 177/183/4 183/197/4
f 174/177/5 180/189/5 173/175/5
f 167/168/6 179/186/6 181/190/6
f 168/169/7 178/185/7 96/96/7
f 177/181/8 188/215/8 183/198/8
f 181/192/9 180/188/9 186/206/9
f 183/199/9 180/188/9 179/187/9
f 177/182/10 185/204/10 184/201/10
f 182/195/11 185/204/11 178/184/11
f 182/196/12 186/208/12 187/210/12
f 175/178/13 185/205/13 187/212/13
f 171/173/13 185/205/13 172/174/13
f 98/98/14 183/200/14 179/186/14
f 175/178/15 186/209/15 174/176/15
f 96/96/16 177/183/16 170/172/16
f 176/180/17 180/189/17 188/213/17
f 194/227/18 196/232/18 198/235/18
f 121/121/1 194/228/1 192/224/1
f 194/228/1 189/217/1 192/224/1
f 190/219/19 196/233/19 191/221/19
f 194/229/20 197/234/20 193/226/20
f 190/220/21 197/234/21 195/230/21
f 2/2/1 4/4/1 3/3/1
f 36/36/1 39/39/1 40/40/1
f 6/6/1 5/5/1 1/1/1
f 10/10/1 9/9/1 7/7/1
f 14/14/1 13/13/1 7/7/1
f 11/11/1 12/12/1 10/10/1
f 17/17/1 18/18/1 16/16/1
f 20/20/1 19/19/1 16/16/1
f 21/21/1 22/22/1 17/17/1
f 25/25/1 29/29/1 28/28/1
f 23/23/1 27/27/1 30/30/1
f 24/24/1 28/28/1 27/27/1
f 10/10/1 24/24/1 23/23/1
f 9/9/1 23/23/1 26/26/1
f 12/12/1 25/25/1 24/24/1
f 32/32/1 34/34/1 33/33/1
f 36/36/1 38/38/1 37/37/1
f 6/6/1 36/36/1 35/35/1
f 37/37/1 42/42/1 41/41/1
f 42/42/1 46/46/1 45/45/1
f 42/42/1 43/43/1 44/44/1
f 48/48/1 50/50/1 49/49/1
f 48/48/1 51/51/1 52/52/1
f 49/49/1 54/54/1 53/53/1
f 43/43/1 55/55/1 56/56/1
f 55/55/1 57/57/1 58/58/1
f 68/68/1 74/74/1 73/73/1
f 60/60/1 63/63/1 64/64/1
f 60/60/1 62/62/1 61/61/1
f 64/64/1 69/69/1 68/68/1
f 61/61/1 66/66/1 65/65/1
f 70/70/1 75/75/1 76/76/1
f 61/61/1 67/67/1 70/70/1
f 62/62/1 68/68/1 67/67/1
f 70/70/1 72/72/1 71/71/1
f 67/67/1 73/73/1 75/75/1
f 82/82/1 87/87/1 85/85/1
f 77/77/1 79/79/1 80/80/1
f 80/80/1 86/86/1 88/88/1
f 77/77/1 81/81/1 82/82/1
f 82/82/1 89/89/1 90/90/1
f 80/80/1 84/84/1 83/83/1
f 170/172/1 88/88/1 86/86/1
f 86/86/1 94/94/1 96/96/1
f 85/85/1 93/93/1 94/94/1
f 90/90/1 97/97/1 95/95/1
f 79/79/1 85/85/1 86/86/1
f 88/88/1 92/92/1 91/91/1
f 167/167/2 181/191/2 182/194/2
f 168/169/1 96/96/1 94/94/1
f 94/94/1 100/100/1 102/102/1
f 168/169/1 102/102/1 104/104/1
f 93/93/1 99/99/1 100/100/1
f 97/97/1 103/103/1 101/101/1
f 95/95/1 101/101/1 99/99/1
f 87/87/1 95/95/1 93/93/1
f 106/106/1 107/107/1 108/108/1
f 109/109/1 113/113/1 114/114/1
f 109/109/1 111/111/1 112/112/1
f 112/112/1 118/118/1 120/120/1
f 114/114/1 119/119/1 117/117/1
f 112/112/1 116/116/1 115/115/1
f 111/111/1 117/117/1 118/118/1
f 119/119/1 114/114/1 121/121/1
f 124/124/1 189/217/1 193/225/1
f 193/225/1 190/218/1 123/123/1
f 125/125/1 122/122/1 192/224/1
f 189/217/1 124/124/1 126/126/1
f 125/125/1 192/224/1 189/217/1
f 126/126/1 128/128/1 127/127/1
f 128/128/1 130/130/1 129/129/1
f 133/133/1 157/157/1 159/159/1
f 132/132/1 134/134/1 133/133/1
f 131/131/1 133/133/1 136/136/1
f 132/132/1 137/137/1 138/138/1
f 138/138/1 160/160/1 158/158/1
f 134/134/1 158/158/1 157/157/1
f 139/139/1 141/141/1 142/142/1
f 139/139/1 143/143/1 144/144/1
f 142/142/1 145/145/1 146/146/1
f 147/147/1 149/149/1 150/150/1
f 147/147/1 152/152/1 151/151/1
f 150/150/1 154/154/1 153/153/1
f 138/138/1 161/161/1 162/162/1
f 159/159/1 164/164/1 163/163/1
f 156/156/1 165/165/1 166/166/1
f 171/173/22 176/179/22 188/214/22
f 88/88/1 170/172/1 169/170/1
f 169/170/4 170/172/4 177/183/4
f 174/177/23 186/207/23 180/189/23
f 167/168/24 98/98/24 179/186/24
f 168/169/25 182/194/25 178/185/25
f 177/181/26 184/202/26 188/215/26
f 181/192/27 179/187/27 180/188/27
f 183/199/28 188/216/28 180/188/28
f 177/182/29 178/184/29 185/204/29
f 182/195/30 187/211/30 185/204/30
f 182/196/31 181/193/31 186/208/31
f 175/178/13 172/174/13 185/205/13
f 171/173/13 184/203/13 185/205/13
f 98/98/32 169/171/32 183/200/32
f 175/178/33 187/212/33 186/209/33
f 96/96/34 178/185/34 177/183/34
f 176/180/17 173/175/17 180/189/17
f 194/227/18 191/222/18 196/232/18
f 192/224/1 122/122/1 121/121/1
f 121/121/1 191/223/1 194/228/1
f 194/228/1 193/225/1 189/217/1
f 190/219/19 195/231/19 196/233/19
f 194/229/20 198/236/20 197/234/20
f 190/220/21 193/226/21 197/234/21
