# Blender 3.3.1
# www.blender.org
o Shelf.001
v 8.379864 0.062793 -2.237606
v 8.379864 1.158538 -2.237606
v 8.418979 1.158538 -2.236410
v 8.418980 0.062793 -2.236410
v 8.408215 1.158538 -1.884371
v 8.408215 0.062793 -1.884371
v 8.369099 1.158538 -1.885567
v 8.369099 0.062793 -1.885567
v 9.346986 0.454131 -1.855665
v 9.356555 0.454131 -2.168589
v 8.417783 0.454131 -2.197295
v 8.408215 0.454131 -1.884371
v 8.408215 0.414997 -1.884371
v 8.417783 0.414997 -2.197295
v 9.356555 0.414997 -2.168589
v 9.346986 0.414997 -1.855665
v 9.346986 1.158539 -1.855665
v 9.356555 1.158539 -2.168589
v 8.417783 1.158539 -2.197295
v 8.408215 1.158539 -1.884372
v 8.408215 1.119405 -1.884371
v 8.417783 1.119405 -2.197295
v 9.356555 1.119406 -2.168589
v 9.346986 1.119406 -1.855665
v 9.346986 0.101927 -1.855665
v 9.356555 0.101927 -2.168589
v 8.417783 0.101927 -2.197295
v 8.408215 0.101927 -1.884371
v 8.408215 0.062793 -1.884371
v 8.417783 0.062793 -2.197295
v 9.356555 0.062793 -2.168589
v 9.346986 0.062793 -1.855665
v 8.418973 0.062793 -2.236208
v 8.418973 1.158539 -2.236208
v 9.357745 1.158539 -2.207502
v 9.357745 0.062793 -2.207501
v 9.356548 1.158539 -2.168386
v 9.356548 0.062793 -2.168386
v 8.417777 1.158539 -2.197093
v 8.417777 0.062793 -2.197092
v 9.346986 0.806335 -1.855665
v 9.356555 0.806335 -2.168589
v 8.417783 0.806335 -2.197295
v 8.408215 0.806335 -1.884371
v 8.408215 0.767201 -1.884371
v 8.417783 0.767201 -2.197295
v 9.356555 0.767201 -2.168589
v 9.346986 0.767201 -1.855665
v 9.357751 0.062793 -2.207704
v 9.357751 1.158539 -2.207704
v 9.396866 1.158539 -2.206508
v 9.396866 0.062793 -2.206508
v 9.386102 1.158539 -1.854469
v 9.386102 0.062793 -1.854469
v 9.346986 1.158539 -1.855665
v 9.346986 0.062793 -1.855665
vn 0.0306 -0.0000 -0.9995
vn 0.9995 -0.0000 0.0306
vn -0.0306 -0.0000 0.9995
vn -0.9995 -0.0000 -0.0306
vn -0.0000 -1.0000 -0.0000
vn -0.0000 1.0000 -0.0000
vt 0.148921 0.326046
vt 0.160772 0.059516
vt 0.019393 -0.007973
vt 0.148654 0.659378
vt 0.160772 0.875018
vt 0.407979 0.994084
vt 0.018858 0.658692
vt 0.160772 0.875018
vt 0.408246 0.660752
vt 0.160772 0.059516
vt 0.149189 -0.007287
vt 0.019125 0.325359
vt 0.278450 0.660065
vt 0.262841 0.875018
vt 0.148387 0.992711
vt 0.148654 0.659378
vt 0.262841 0.059516
vt 0.148921 0.326046
vt 0.018591 0.992025
vt 0.262841 0.875018
vt 0.278183 0.993398
vt 0.262841 0.059516
vt 0.018858 0.658692
vt 0.019125 0.325359
vt 0.260452 0.500000
vt 0.357956 0.500000
vt 0.260452 0.250000
vt 0.357956 0.750000
vt 0.260452 1.000000
vt 0.260452 0.000000
vt 0.260452 0.750000
vt 0.162948 0.750000
vt 0.162948 0.000000
vt 0.162948 1.000000
vt 0.065444 0.750000
vt 0.065444 0.500000
vt 0.162948 0.250000
vt 0.162948 0.500000
vt 0.260804 0.920818
vt 0.381529 0.779978
vt 0.255123 0.500000
vt 0.156444 0.920818
vt 0.255123 0.250000
vt 0.156444 0.079182
vt 0.255123 1.000000
vt 0.255123 0.000000
vt 0.260804 0.079182
vt 0.255123 0.750000
vt 0.035720 0.779978
vt 0.162126 0.750000
vt 0.260804 0.079182
vt 0.035720 0.741244
vt 0.162126 0.000000
vt 0.162126 1.000000
vt 0.156444 0.079182
vt 0.156444 0.920818
vt 0.162126 0.250000
vt 0.381529 0.741244
vt 0.260804 0.920818
vt 0.162126 0.500000
vt 0.260452 0.500000
vt 0.357956 0.500000
vt 0.260452 0.250000
vt 0.357956 0.750000
vt 0.260452 1.000000
vt 0.260452 0.000000
vt 0.260452 0.750000
vt 0.162948 0.750000
vt 0.162948 0.000000
vt 0.162948 1.000000
vt 0.065444 0.750000
vt 0.065444 0.500000
vt 0.162948 0.250000
vt 0.162948 0.500000
vt 0.093622 0.269624
vt 0.270622 0.666667
vt 0.394619 0.000000
vt 0.093622 0.990988
vt 0.270622 0.333333
vt 0.022630 1.000000
vt 0.323627 0.990988
vt 0.022630 0.666667
vt 0.146626 1.000000
vt 0.146626 0.666667
vt 0.394619 0.333333
vt 0.323627 0.269624
vt 0.146626 0.666667
vt 0.022630 0.333333
vt 0.323627 0.990988
vt 0.323627 0.269624
vt 0.146626 0.333333
vt 0.270622 0.333333
vt 0.093622 0.990988
vt 0.146626 0.333333
vt 0.022630 0.666667
vt 0.146626 0.666667
vt 0.093622 0.269624
vt 0.270622 0.000000
vt 0.260452 0.500000
vt 0.357956 0.500000
vt 0.260452 0.250000
vt 0.357956 0.750000
vt 0.260452 1.000000
vt 0.260452 0.000000
vt 0.260452 0.750000
vt 0.162948 0.750000
vt 0.162948 0.000000
vt 0.162948 1.000000
vt 0.065444 0.750000
vt 0.065444 0.500000
vt 0.162948 0.250000
vt 0.162948 0.500000
vt 0.146831 0.332990
vt 0.158701 0.066460
vt 0.017094 -0.001029
vt 0.146564 0.666323
vt 0.158701 0.881962
vt 0.406306 1.001029
vt 0.016558 0.665636
vt 0.158701 0.881962
vt 0.406574 0.667696
vt 0.158701 0.066460
vt 0.147099 -0.000342
vt 0.016826 0.332304
vt 0.276569 0.667010
vt 0.260935 0.881962
vt 0.146296 0.999655
vt 0.146564 0.666323
vt 0.260935 0.066460
vt 0.146831 0.332990
vt 0.016291 0.998969
vt 0.260935 0.881962
vt 0.276301 1.000342
vt 0.260935 0.066460
vt 0.016558 0.665636
vt 0.016826 0.332304
s 1
f 2/4/1 4/12/1 1/1/1
f 3/8/2 6/17/2 4/10/2
f 5/15/3 8/23/3 6/16/3
f 7/20/4 1/2/4 8/22/4
f 6/18/5 1/3/5 4/11/5
f 3/9/6 7/21/6 5/13/6
f 10/26/6 12/31/6 9/25/6
f 12/31/4 14/34/4 13/32/4
f 11/30/1 15/37/1 14/33/1
f 16/38/5 14/35/5 15/36/5
f 9/25/3 13/32/3 16/38/3
f 10/27/2 16/38/2 15/37/2
f 18/42/6 20/47/6 17/39/6
f 20/48/4 22/54/4 21/50/4
f 19/46/1 23/57/1 22/53/1
f 24/59/5 22/55/5 23/56/5
f 17/40/3 21/52/3 24/58/3
f 18/43/2 24/60/2 23/57/2
f 26/62/6 28/67/6 25/61/6
f 28/67/4 30/70/4 29/68/4
f 27/66/1 31/73/1 30/69/1
f 32/74/5 30/71/5 31/72/5
f 25/61/3 29/68/3 32/74/3
f 26/63/2 32/74/2 31/73/2
f 34/78/1 36/86/1 33/75/1
f 35/82/2 38/91/2 36/84/2
f 37/89/3 40/97/3 38/90/3
f 39/94/4 33/76/4 40/96/4
f 38/92/5 33/77/5 36/85/5
f 35/83/6 39/95/6 37/87/6
f 42/100/6 44/105/6 41/99/6
f 44/105/4 46/108/4 45/106/4
f 43/104/1 47/111/1 46/107/1
f 48/112/5 46/109/5 47/110/5
f 41/99/3 45/106/3 48/112/3
f 42/101/2 48/112/2 47/111/2
f 50/116/1 52/124/1 49/113/1
f 51/120/2 54/129/2 52/122/2
f 53/127/3 56/135/3 54/128/3
f 55/132/4 49/114/4 56/134/4
f 54/130/5 49/115/5 52/123/5
f 51/121/6 55/133/6 53/125/6
f 2/4/1 3/7/1 4/12/1
f 3/8/2 5/14/2 6/17/2
f 5/15/3 7/19/3 8/23/3
f 7/20/4 2/5/4 1/2/4
f 6/18/5 8/24/5 1/3/5
f 3/9/6 2/6/6 7/21/6
f 10/26/6 11/28/6 12/31/6
f 12/31/4 11/29/4 14/34/4
f 11/30/1 10/27/1 15/37/1
f 16/38/5 13/32/5 14/35/5
f 9/25/3 12/31/3 13/32/3
f 10/27/2 9/25/2 16/38/2
f 18/42/6 19/44/6 20/47/6
f 20/48/4 19/45/4 22/54/4
f 19/46/1 18/43/1 23/57/1
f 24/59/5 21/51/5 22/55/5
f 17/40/3 20/49/3 21/52/3
f 18/43/2 17/41/2 24/60/2
f 26/62/6 27/64/6 28/67/6
f 28/67/4 27/65/4 30/70/4
f 27/66/1 26/63/1 31/73/1
f 32/74/5 29/68/5 30/71/5
f 25/61/3 28/67/3 29/68/3
f 26/63/2 25/61/2 32/74/2
f 34/78/1 35/81/1 36/86/1
f 35/82/2 37/88/2 38/91/2
f 37/89/3 39/93/3 40/97/3
f 39/94/4 34/79/4 33/76/4
f 38/92/5 40/98/5 33/77/5
f 35/83/6 34/80/6 39/95/6
f 42/100/6 43/102/6 44/105/6
f 44/105/4 43/103/4 46/108/4
f 43/104/1 42/101/1 47/111/1
f 48/112/5 45/106/5 46/109/5
f 41/99/3 44/105/3 45/106/3
f 42/101/2 41/99/2 48/112/2
f 50/116/1 51/119/1 52/124/1
f 51/120/2 53/126/2 54/129/2
f 53/127/3 55/131/3 56/135/3
f 55/132/4 50/117/4 49/114/4
f 54/130/5 56/136/5 49/115/5
f 51/121/6 50/118/6 55/133/6
o Shelf
v 8.396934 0.086030 3.715882
v 8.396934 1.036460 3.715882
v 8.362989 1.036460 3.715882
v 8.362989 0.086030 3.715882
v 8.362989 1.036460 3.410387
v 8.362989 0.086030 3.410386
v 8.396934 1.036460 3.410387
v 8.396934 0.086030 3.410386
v 7.548335 0.425470 3.410387
v 7.548335 0.425470 3.681938
v 8.362989 0.425470 3.681938
v 8.362989 0.425470 3.410387
v 8.362989 0.391526 3.410387
v 8.362989 0.391526 3.681938
v 7.548335 0.391526 3.681938
v 7.548335 0.391526 3.410387
v 7.548335 1.036460 3.410387
v 7.548335 1.036460 3.681938
v 8.362989 1.036460 3.681938
v 8.362989 1.036460 3.410387
v 8.362989 1.002516 3.410387
v 8.362989 1.002516 3.681938
v 7.548335 1.002517 3.681938
v 7.548335 1.002517 3.410387
v 7.548335 0.119975 3.410387
v 7.548335 0.119975 3.681938
v 8.362989 0.119975 3.681938
v 8.362989 0.119975 3.410387
v 8.362989 0.086030 3.410387
v 8.362989 0.086030 3.681938
v 7.548335 0.086030 3.681938
v 7.548335 0.086030 3.410387
v 8.362989 0.086030 3.715706
v 8.362989 1.036460 3.715706
v 7.548335 1.036460 3.715706
v 7.548335 0.086030 3.715706
v 7.548335 1.036460 3.681762
v 7.548335 0.086030 3.681762
v 8.362989 1.036460 3.681762
v 8.362989 0.086030 3.681762
v 7.548335 0.730965 3.410387
v 7.548335 0.730965 3.681938
v 8.362989 0.730965 3.681938
v 8.362989 0.730965 3.410387
v 8.362989 0.697021 3.410387
v 8.362989 0.697021 3.681938
v 7.548335 0.697021 3.681938
v 7.548335 0.697021 3.410387
v 7.548335 0.086030 3.715882
v 7.548335 1.036460 3.715882
v 7.514391 1.036460 3.715882
v 7.514391 0.086030 3.715882
v 7.514391 1.036460 3.410387
v 7.514391 0.086030 3.410387
v 7.548335 1.036460 3.410387
v 7.548335 0.086030 3.410387
vn -0.0000 -0.0000 1.0000
vn -1.0000 -0.0000 -0.0000
vn -0.0000 -0.0000 -1.0000
vn 1.0000 -0.0000 -0.0000
vn -0.0000 -1.0000 -0.0000
vn -0.0000 1.0000 -0.0000
vt 0.148921 0.326046
vt 0.160772 0.059516
vt 0.019393 -0.007973
vt 0.148654 0.659378
vt 0.160772 0.875018
vt 0.407979 0.994084
vt 0.018858 0.658692
vt 0.160772 0.875018
vt 0.408246 0.660752
vt 0.160772 0.059516
vt 0.149189 -0.007287
vt 0.019125 0.325359
vt 0.278450 0.660065
vt 0.262841 0.875018
vt 0.148387 0.992711
vt 0.148654 0.659378
vt 0.262841 0.059516
vt 0.148921 0.326046
vt 0.018591 0.992025
vt 0.262841 0.875018
vt 0.278183 0.993398
vt 0.262841 0.059516
vt 0.018858 0.658692
vt 0.019125 0.325359
vt 0.260452 0.500000
vt 0.357956 0.500000
vt 0.260452 0.250000
vt 0.357956 0.750000
vt 0.260452 1.000000
vt 0.260452 0.000000
vt 0.260452 0.750000
vt 0.162948 0.750000
vt 0.162948 0.000000
vt 0.162948 1.000000
vt 0.065444 0.750000
vt 0.065444 0.500000
vt 0.162948 0.250000
vt 0.162948 0.500000
vt 0.260804 0.920818
vt 0.381529 0.779978
vt 0.255123 0.500000
vt 0.156444 0.920818
vt 0.255123 0.250000
vt 0.156444 0.079182
vt 0.255123 1.000000
vt 0.255123 0.000000
vt 0.260804 0.079182
vt 0.255123 0.750000
vt 0.035720 0.779978
vt 0.162126 0.750000
vt 0.260804 0.079182
vt 0.035720 0.741244
vt 0.162126 0.000000
vt 0.162126 1.000000
vt 0.156444 0.079182
vt 0.156444 0.920818
vt 0.162126 0.250000
vt 0.381529 0.741244
vt 0.260804 0.920818
vt 0.162126 0.500000
vt 0.260452 0.500000
vt 0.357956 0.500000
vt 0.260452 0.250000
vt 0.357956 0.750000
vt 0.260452 1.000000
vt 0.260452 0.000000
vt 0.260452 0.750000
vt 0.162948 0.750000
vt 0.162948 0.000000
vt 0.162948 1.000000
vt 0.065444 0.750000
vt 0.065444 0.500000
vt 0.162948 0.250000
vt 0.162948 0.500000
vt 0.093622 0.269624
vt 0.270622 0.666667
vt 0.394619 0.000000
vt 0.093622 0.990988
vt 0.270622 0.333333
vt 0.022630 1.000000
vt 0.323627 0.990988
vt 0.022630 0.666667
vt 0.146626 1.000000
vt 0.146626 0.666667
vt 0.394619 0.333333
vt 0.323627 0.269624
vt 0.146626 0.666667
vt 0.022630 0.333333
vt 0.323627 0.990988
vt 0.323627 0.269624
vt 0.146626 0.333333
vt 0.270622 0.333333
vt 0.093622 0.990988
vt 0.146626 0.333333
vt 0.022630 0.666667
vt 0.146626 0.666667
vt 0.093622 0.269624
vt 0.270622 0.000000
vt 0.260452 0.500000
vt 0.357956 0.500000
vt 0.260452 0.250000
vt 0.357956 0.750000
vt 0.260452 1.000000
vt 0.260452 0.000000
vt 0.260452 0.750000
vt 0.162948 0.750000
vt 0.162948 0.000000
vt 0.162948 1.000000
vt 0.065444 0.750000
vt 0.065444 0.500000
vt 0.162948 0.250000
vt 0.162948 0.500000
vt 0.146831 0.332990
vt 0.158701 0.066460
vt 0.017094 -0.001029
vt 0.146564 0.666323
vt 0.158701 0.881962
vt 0.406306 1.001029
vt 0.016558 0.665636
vt 0.158701 0.881962
vt 0.406574 0.667696
vt 0.158701 0.066460
vt 0.147099 -0.000342
vt 0.016826 0.332304
vt 0.276569 0.667010
vt 0.260935 0.881962
vt 0.146296 0.999655
vt 0.146564 0.666323
vt 0.260935 0.066460
vt 0.146831 0.332990
vt 0.016291 0.998969
vt 0.260935 0.881962
vt 0.276301 1.000342
vt 0.260935 0.066460
vt 0.016558 0.665636
vt 0.016826 0.332304
s 1
f 58/140/7 60/148/7 57/137/7
f 59/144/8 62/153/8 60/146/8
f 61/151/9 64/159/9 62/152/9
f 63/156/10 57/138/10 64/158/10
f 62/154/11 57/139/11 60/147/11
f 59/145/12 63/157/12 61/149/12
f 66/162/12 68/167/12 65/161/12
f 68/167/10 70/170/10 69/168/10
f 67/166/7 71/173/7 70/169/7
f 72/174/11 70/171/11 71/172/11
f 65/161/9 69/168/9 72/174/9
f 66/163/8 72/174/8 71/173/8
f 74/178/12 76/183/12 73/175/12
f 76/184/10 78/190/10 77/186/10
f 75/182/7 79/193/7 78/189/7
f 80/195/11 78/191/11 79/192/11
f 73/176/9 77/188/9 80/194/9
f 74/179/8 80/196/8 79/193/8
f 82/198/12 84/203/12 81/197/12
f 84/203/10 86/206/10 85/204/10
f 83/202/7 87/209/7 86/205/7
f 88/210/11 86/207/11 87/208/11
f 81/197/9 85/204/9 88/210/9
f 82/199/8 88/210/8 87/209/8
f 90/214/7 92/222/7 89/211/7
f 91/218/8 94/227/8 92/220/8
f 93/225/9 96/233/9 94/226/9
f 95/230/10 89/212/10 96/232/10
f 94/228/11 89/213/11 92/221/11
f 91/219/12 95/231/12 93/223/12
f 98/236/12 100/241/12 97/235/12
f 100/241/10 102/244/10 101/242/10
f 99/240/7 103/247/7 102/243/7
f 104/248/11 102/245/11 103/246/11
f 97/235/9 101/242/9 104/248/9
f 98/237/8 104/248/8 103/247/8
f 106/252/7 108/260/7 105/249/7
f 107/256/8 110/265/8 108/258/8
f 109/263/9 112/271/9 110/264/9
f 111/268/10 105/250/10 112/270/10
f 110/266/11 105/251/11 108/259/11
f 107/257/12 111/269/12 109/261/12
f 58/140/7 59/143/7 60/148/7
f 59/144/8 61/150/8 62/153/8
f 61/151/9 63/155/9 64/159/9
f 63/156/10 58/141/10 57/138/10
f 62/154/11 64/160/11 57/139/11
f 59/145/12 58/142/12 63/157/12
f 66/162/12 67/164/12 68/167/12
f 68/167/10 67/165/10 70/170/10
f 67/166/7 66/163/7 71/173/7
f 72/174/11 69/168/11 70/171/11
f 65/161/9 68/167/9 69/168/9
f 66/163/8 65/161/8 72/174/8
f 74/178/12 75/180/12 76/183/12
f 76/184/10 75/181/10 78/190/10
f 75/182/7 74/179/7 79/193/7
f 80/195/11 77/187/11 78/191/11
f 73/176/9 76/185/9 77/188/9
f 74/179/8 73/177/8 80/196/8
f 82/198/12 83/200/12 84/203/12
f 84/203/10 83/201/10 86/206/10
f 83/202/7 82/199/7 87/209/7
f 88/210/11 85/204/11 86/207/11
f 81/197/9 84/203/9 85/204/9
f 82/199/8 81/197/8 88/210/8
f 90/214/7 91/217/7 92/222/7
f 91/218/8 93/224/8 94/227/8
f 93/225/9 95/229/9 96/233/9
f 95/230/10 90/215/10 89/212/10
f 94/228/11 96/234/11 89/213/11
f 91/219/12 90/216/12 95/231/12
f 98/236/12 99/238/12 100/241/12
f 100/241/10 99/239/10 102/244/10
f 99/240/7 98/237/7 103/247/7
f 104/248/11 101/242/11 102/245/11
f 97/235/9 100/241/9 101/242/9
f 98/237/8 97/235/8 104/248/8
f 106/252/7 107/255/7 108/260/7
f 107/256/8 109/262/8 110/265/8
f 109/263/9 111/267/9 112/271/9
f 111/268/10 106/253/10 105/250/10
f 110/266/11 112/272/11 105/251/11
f 107/257/12 106/254/12 111/269/12
o Shelf.002
v 3.582631 0.066377 -4.540946
v 3.582631 1.336688 -4.540946
v 3.627656 1.336688 -4.535379
v 3.627657 0.066377 -4.535379
v 3.577557 1.336688 -4.130150
v 3.577557 0.066377 -4.130150
v 3.532531 1.336688 -4.135717
v 3.532532 0.066377 -4.135717
v 4.658169 0.520060 -3.996552
v 4.702702 0.520060 -4.356756
v 3.622090 0.520060 -4.490355
v 3.577557 0.520060 -4.130151
v 3.577557 0.474692 -4.130151
v 3.622090 0.474692 -4.490355
v 4.702702 0.474692 -4.356756
v 4.658169 0.474692 -3.996552
v 4.658169 1.336689 -3.996552
v 4.702702 1.336689 -4.356756
v 3.622090 1.336689 -4.490355
v 3.577557 1.336689 -4.130151
v 3.577557 1.291321 -4.130151
v 3.622090 1.291321 -4.490355
v 4.702702 1.291321 -4.356756
v 4.658169 1.291321 -3.996552
v 4.658169 0.111746 -3.996552
v 4.702702 0.111746 -4.356756
v 3.622090 0.111746 -4.490355
v 3.577557 0.111746 -4.130151
v 3.577557 0.066377 -4.130151
v 3.622090 0.066377 -4.490355
v 4.702702 0.066377 -4.356756
v 4.658169 0.066377 -3.996552
v 3.627627 0.066377 -4.535147
v 3.627628 1.336689 -4.535147
v 4.708240 1.336689 -4.401548
v 4.708240 0.066377 -4.401548
v 4.702673 1.336689 -4.356523
v 4.702673 0.066377 -4.356522
v 3.622061 1.336689 -4.490121
v 3.622061 0.066377 -4.490121
v 4.658169 0.928375 -3.996552
v 4.702702 0.928375 -4.356756
v 3.622090 0.928374 -4.490355
v 3.577557 0.928374 -4.130151
v 3.577557 0.883007 -4.130151
v 3.622090 0.883007 -4.490355
v 4.702702 0.883007 -4.356756
v 4.658169 0.883007 -3.996552
v 4.708268 0.066377 -4.401782
v 4.708268 1.336689 -4.401782
v 4.753294 1.336689 -4.396215
v 4.753294 0.066377 -4.396215
v 4.703194 1.336689 -3.990986
v 4.703194 0.066377 -3.990985
v 4.658169 1.336689 -3.996552
v 4.658169 0.066377 -3.996552
vn 0.1227 -0.0000 -0.9924
vn 0.9924 -0.0000 0.1227
vn -0.1227 -0.0000 0.9924
vn -0.9924 -0.0000 -0.1227
vn -0.0000 -1.0000 -0.0000
vn -0.0000 1.0000 -0.0000
vt 0.148921 0.326046
vt 0.160772 0.059516
vt 0.019393 -0.007973
vt 0.148654 0.659378
vt 0.160772 0.875018
vt 0.407979 0.994084
vt 0.018858 0.658692
vt 0.160772 0.875018
vt 0.408246 0.660752
vt 0.160772 0.059516
vt 0.149189 -0.007287
vt 0.019125 0.325359
vt 0.278450 0.660065
vt 0.262841 0.875018
vt 0.148387 0.992711
vt 0.148654 0.659378
vt 0.262841 0.059516
vt 0.148921 0.326046
vt 0.018591 0.992025
vt 0.262841 0.875018
vt 0.278183 0.993398
vt 0.262841 0.059516
vt 0.018858 0.658692
vt 0.019125 0.325359
vt 0.260452 0.500000
vt 0.357956 0.500000
vt 0.260452 0.250000
vt 0.357956 0.750000
vt 0.260452 1.000000
vt 0.260452 0.000000
vt 0.260452 0.750000
vt 0.162948 0.750000
vt 0.162948 0.000000
vt 0.162948 1.000000
vt 0.065444 0.750000
vt 0.065444 0.500000
vt 0.162948 0.250000
vt 0.162948 0.500000
vt 0.260804 0.920818
vt 0.381529 0.779978
vt 0.255123 0.500000
vt 0.156444 0.920818
vt 0.255123 0.250000
vt 0.156444 0.079182
vt 0.255123 1.000000
vt 0.255123 0.000000
vt 0.260804 0.079182
vt 0.255123 0.750000
vt 0.035720 0.779978
vt 0.162126 0.750000
vt 0.260804 0.079182
vt 0.035720 0.741244
vt 0.162126 0.000000
vt 0.162126 1.000000
vt 0.156444 0.079182
vt 0.156444 0.920818
vt 0.162126 0.250000
vt 0.381529 0.741244
vt 0.260804 0.920818
vt 0.162126 0.500000
vt 0.260452 0.500000
vt 0.357956 0.500000
vt 0.260452 0.250000
vt 0.357956 0.750000
vt 0.260452 1.000000
vt 0.260452 0.000000
vt 0.260452 0.750000
vt 0.162948 0.750000
vt 0.162948 0.000000
vt 0.162948 1.000000
vt 0.065444 0.750000
vt 0.065444 0.500000
vt 0.162948 0.250000
vt 0.162948 0.500000
vt 0.093622 0.269624
vt 0.270622 0.666667
vt 0.394619 0.000000
vt 0.093622 0.990988
vt 0.270622 0.333333
vt 0.022630 1.000000
vt 0.323627 0.990988
vt 0.022630 0.666667
vt 0.146626 1.000000
vt 0.146626 0.666667
vt 0.394619 0.333333
vt 0.323627 0.269624
vt 0.146626 0.666667
vt 0.022630 0.333333
vt 0.323627 0.990988
vt 0.323627 0.269624
vt 0.146626 0.333333
vt 0.270622 0.333333
vt 0.093622 0.990988
vt 0.146626 0.333333
vt 0.022630 0.666667
vt 0.146626 0.666667
vt 0.093622 0.269624
vt 0.270622 0.000000
vt 0.260452 0.500000
vt 0.357956 0.500000
vt 0.260452 0.250000
vt 0.357956 0.750000
vt 0.260452 1.000000
vt 0.260452 0.000000
vt 0.260452 0.750000
vt 0.162948 0.750000
vt 0.162948 0.000000
vt 0.162948 1.000000
vt 0.065444 0.750000
vt 0.065444 0.500000
vt 0.162948 0.250000
vt 0.162948 0.500000
vt 0.146831 0.332990
vt 0.158701 0.066460
vt 0.017094 -0.001029
vt 0.146564 0.666323
vt 0.158701 0.881962
vt 0.406306 1.001029
vt 0.016558 0.665636
vt 0.158701 0.881962
vt 0.406574 0.667696
vt 0.158701 0.066460
vt 0.147099 -0.000342
vt 0.016826 0.332304
vt 0.276569 0.667010
vt 0.260935 0.881962
vt 0.146296 0.999655
vt 0.146564 0.666323
vt 0.260935 0.066460
vt 0.146831 0.332990
vt 0.016291 0.998969
vt 0.260935 0.881962
vt 0.276301 1.000342
vt 0.260935 0.066460
vt 0.016558 0.665636
vt 0.016826 0.332304
s 1
f 114/276/13 116/284/13 113/273/13
f 115/280/14 118/289/14 116/282/14
f 117/287/15 120/295/15 118/288/15
f 119/292/16 113/274/16 120/294/16
f 118/290/17 113/275/17 116/283/17
f 115/281/18 119/293/18 117/285/18
f 122/298/18 124/303/18 121/297/18
f 124/303/16 126/306/16 125/304/16
f 123/302/13 127/309/13 126/305/13
f 128/310/17 126/307/17 127/308/17
f 121/297/15 125/304/15 128/310/15
f 122/299/14 128/310/14 127/309/14
f 130/314/18 132/319/18 129/311/18
f 132/320/16 134/326/16 133/322/16
f 131/318/13 135/329/13 134/325/13
f 136/331/17 134/327/17 135/328/17
f 129/312/15 133/324/15 136/330/15
f 130/315/14 136/332/14 135/329/14
f 138/334/18 140/339/18 137/333/18
f 140/339/16 142/342/16 141/340/16
f 139/338/13 143/345/13 142/341/13
f 144/346/17 142/343/17 143/344/17
f 137/333/15 141/340/15 144/346/15
f 138/335/14 144/346/14 143/345/14
f 146/350/13 148/358/13 145/347/13
f 147/354/14 150/363/14 148/356/14
f 149/361/15 152/369/15 150/362/15
f 151/366/16 145/348/16 152/368/16
f 150/364/17 145/349/17 148/357/17
f 147/355/18 151/367/18 149/359/18
f 154/372/18 156/377/18 153/371/18
f 156/377/16 158/380/16 157/378/16
f 155/376/13 159/383/13 158/379/13
f 160/384/17 158/381/17 159/382/17
f 153/371/15 157/378/15 160/384/15
f 154/373/14 160/384/14 159/383/14
f 162/388/13 164/396/13 161/385/13
f 163/392/14 166/401/14 164/394/14
f 165/399/15 168/407/15 166/400/15
f 167/404/16 161/386/16 168/406/16
f 166/402/17 161/387/17 164/395/17
f 163/393/18 167/405/18 165/397/18
f 114/276/13 115/279/13 116/284/13
f 115/280/14 117/286/14 118/289/14
f 117/287/15 119/291/15 120/295/15
f 119/292/16 114/277/16 113/274/16
f 118/290/17 120/296/17 113/275/17
f 115/281/18 114/278/18 119/293/18
f 122/298/18 123/300/18 124/303/18
f 124/303/16 123/301/16 126/306/16
f 123/302/13 122/299/13 127/309/13
f 128/310/17 125/304/17 126/307/17
f 121/297/15 124/303/15 125/304/15
f 122/299/14 121/297/14 128/310/14
f 130/314/18 131/316/18 132/319/18
f 132/320/16 131/317/16 134/326/16
f 131/318/13 130/315/13 135/329/13
f 136/331/17 133/323/17 134/327/17
f 129/312/15 132/321/15 133/324/15
f 130/315/14 129/313/14 136/332/14
f 138/334/18 139/336/18 140/339/18
f 140/339/16 139/337/16 142/342/16
f 139/338/13 138/335/13 143/345/13
f 144/346/17 141/340/17 142/343/17
f 137/333/15 140/339/15 141/340/15
f 138/335/14 137/333/14 144/346/14
f 146/350/13 147/353/13 148/358/13
f 147/354/14 149/360/14 150/363/14
f 149/361/15 151/365/15 152/369/15
f 151/366/16 146/351/16 145/348/16
f 150/364/17 152/370/17 145/349/17
f 147/355/18 146/352/18 151/367/18
f 154/372/18 155/374/18 156/377/18
f 156/377/16 155/375/16 158/380/16
f 155/376/13 154/373/13 159/383/13
f 160/384/17 157/378/17 158/381/17
f 153/371/15 156/377/15 157/378/15
f 154/373/14 153/371/14 160/384/14
f 162/388/13 163/391/13 164/396/13
f 163/392/14 165/398/14 166/401/14
f 165/399/15 167/403/15 168/407/15
f 167/404/16 162/389/16 161/386/16
f 166/402/17 168/408/17 161/387/17
f 163/393/18 162/390/18 167/405/18
