# Blender 3.3.1
# www.blender.org
o Floor
v 2.961019 0.077379 6.224111
v 2.961019 0.077379 11.444908
v 1.382142 0.077379 6.224111
v 1.382142 0.077379 11.444908
v 2.961019 0.077379 5.281763
v 1.382142 0.077379 5.281763
v 3.132969 0.077379 6.224111
v 3.132969 0.077379 5.281763
v 3.920262 0.077379 6.224111
v 3.920262 0.077379 5.281763
v 3.132969 0.077379 4.998242
v 3.920262 0.077379 4.998242
v 3.132969 0.077379 7.120037
v 3.920262 0.077379 7.120037
v 1.224631 0.077379 6.224111
v 1.224631 0.077379 5.281763
v -3.996577 0.077379 6.224111
v -3.996577 0.077379 5.281763
v 1.224631 0.077379 4.661507
v -3.996577 0.077379 4.661507
v 1.224631 0.077379 8.478102
v 5.054347 0.077379 6.224111
v 5.054347 0.077379 5.281763
v 5.054347 0.077379 4.998242
v 5.054347 0.077379 7.120037
v 7.322516 0.077379 6.224111
v 7.322516 0.077379 5.281763
v 7.322516 0.077379 4.998242
v 7.322516 0.077379 7.120037
v 3.920262 0.077379 7.253922
v 5.054347 0.077379 7.253922
v 2.961019 0.077379 3.365159
v 1.382142 0.077379 3.365159
v 2.961019 0.077379 1.970359
v 1.382142 0.077379 1.970359
v -0.618258 0.077379 3.365159
v -0.618258 0.077379 1.970359
v 5.671940 0.077379 3.365159
v 5.671940 0.077379 1.970359
v 7.272491 0.077368 3.126580
v 7.272491 0.077368 2.208938
v 5.671940 0.077379 -0.889720
v 7.272364 0.077379 -0.889720
v 7.272364 0.077379 3.365159
v 7.272364 0.077379 1.970359
v 7.404674 0.097191 3.126580
v 7.404674 0.097191 2.208938
v 9.800426 0.097191 3.126580
v 9.800426 0.097191 2.208938
v 7.404674 0.097191 2.043550
v 9.800426 0.097191 2.043550
v 7.404674 0.097191 3.835385
v 9.800426 0.097191 3.835385
v 5.671940 0.077379 -1.820580
v 7.272364 0.077379 -1.820580
v 5.671940 0.077379 -4.583322
v 7.272364 0.077379 -4.583322
v 7.453503 0.077379 -0.889720
v 7.453503 0.077379 -1.820580
v 7.725684 0.077379 1.546485
v 7.725684 0.077379 -0.889720
v 7.725684 0.077379 -1.820580
v 7.453503 0.077379 -2.217510
v 7.725684 0.077379 -2.217510
v 7.453503 0.077379 -0.436085
v 7.725684 0.077379 -0.436085
v 11.025975 0.077379 -0.889720
v 11.025975 0.077379 -1.820580
v 11.025975 0.077379 -2.217510
v 11.025975 0.077379 -0.436085
v 11.025975 0.077379 1.546485
v 11.496305 0.077379 -0.889720
v 11.496305 0.077379 -1.820580
v 11.496305 0.077379 -0.436085
v 11.496305 0.077379 1.546485
v 5.490801 0.077379 -0.889720
v 5.490801 0.077379 -1.820580
v 5.066198 0.077379 0.205534
v 5.066198 0.077379 -0.889720
v 5.066198 0.077379 -1.820580
v 5.490801 0.077379 -0.430308
v 5.066198 0.077379 -0.430308
v 5.490801 0.077379 -2.283288
v 5.066198 0.077379 -2.283288
v -0.734536 0.077379 -1.820580
v 0.914884 0.077379 -0.889720
v 0.914884 0.077379 -1.820580
v -0.734536 0.077379 -0.889720
v 0.914884 0.077379 -0.430308
v 0.914884 0.077379 -2.283288
v 0.914884 0.077379 0.205534
v 5.066198 0.077379 -4.586046
v 0.914884 0.077379 -4.586046
v 0.082009 0.077379 -0.889720
v 0.082009 0.077379 -1.820580
v 0.082009 0.077379 -0.430308
v 0.082009 0.077379 -2.283288
v 0.082009 0.077379 0.205534
v 0.082009 0.077379 -4.586046
v -0.734536 0.077379 -0.430308
v -0.734536 0.077379 -2.283288
v -0.734536 0.077379 0.205534
v -0.734536 0.077379 -4.586046
v 6.999581 0.077379 -4.583322
v 6.009792 0.077379 -4.583322
v 6.009792 0.077379 -4.839441
v 6.999581 0.077379 -4.839441
v 6.009792 0.077379 -6.818882
v 6.999581 0.077379 -6.818882
v 1.263199 0.077379 -6.818882
v 5.686687 0.077379 -4.839441
v 5.686687 0.077379 -6.818882
v 7.291164 0.077379 -4.839441
v 7.291164 0.077379 -6.818882
v 6.009792 0.077379 -8.284679
v 6.999581 0.077379 -8.284679
v 5.686687 0.077379 -8.284679
v 7.291164 0.077379 -8.284679
v 0.279876 0.077379 -8.284679
v -1.376947 0.077379 -6.818882
v -1.376947 0.077379 -8.284679
v 0.279876 0.077379 -11.671524
v -1.376947 0.077379 -11.671524
v 0.279876 0.077379 -12.726599
v -1.376947 0.077379 -12.726599
v -1.590027 0.077379 -11.671524
v -1.590027 0.077379 -12.726599
v -5.196656 0.077379 -11.671524
v -5.196656 0.077379 -12.726599
v -1.590027 0.077379 -10.467155
v -5.196656 0.077379 -10.467155
v -1.590027 0.077379 -13.074013
v -5.196656 0.077379 -13.074013
v 0.472883 0.077379 -11.671524
v 0.472883 0.077379 -12.726599
v 3.841406 0.077379 -11.671524
v 3.841406 0.077379 -12.726599
v 0.472883 0.077379 -13.060116
v 3.841406 0.077379 -13.060116
v 0.472883 0.077379 -10.515331
v 3.841406 0.077379 -10.515331
v 0.279876 0.077379 -13.074013
v -1.376947 0.077379 -13.074013
v 0.101791 0.077379 -13.074013
v -1.183183 0.077379 -13.074013
v 0.101791 0.077379 -13.209118
v -1.183183 0.077379 -13.209118
v -0.096076 0.077379 -14.765244
v -0.985315 0.077379 -14.765244
v -4.641615 0.077379 -14.765244
v 0.285287 0.077379 -13.209118
v 0.285287 0.077379 -14.765244
v -1.373142 0.077379 -13.209118
v -1.373142 0.077379 -14.765244
v -0.096076 0.077379 -16.936268
v -0.985315 0.077379 -16.936268
v 0.285287 0.077379 -16.936268
v -1.373142 0.077379 -16.936268
v -4.641615 0.077379 -16.936268
v 6.772200 0.077379 -14.765244
v 6.772200 0.077379 -16.936268
v 6.772200 0.077379 -15.493999
v 6.772200 0.077379 -16.393513
v 6.972303 0.077379 -15.493999
v 6.972303 0.077379 -16.393513
v 9.121071 0.077379 -15.493999
v 9.121071 0.077379 -16.393513
v 6.972303 0.077379 -14.769510
v 9.121071 0.077379 -14.769510
v 6.972303 0.077379 -17.716560
v 9.121071 0.077379 -17.716560
v 6.972303 0.077379 -21.088200
v 9.121071 0.077379 -21.088200
v 4.098016 0.077379 -17.716560
v 4.098016 0.077379 -21.088200
v 6.972303 0.077379 -22.500828
v 9.121071 0.077379 -22.500828
v 4.098016 0.077379 -22.500828
v -0.096076 0.077379 -17.064699
v -0.985315 0.077379 -17.064699
v 1.224631 0.077379 7.175045
v -0.590358 0.077379 6.224111
v -0.590358 0.077379 8.478102
v -0.590358 0.077379 7.175045
v -2.673578 0.077379 6.224111
v -2.673578 0.077379 7.175045
v -2.673578 -0.594422 6.224111
v -3.996577 -0.594422 6.224111
v -0.590358 -0.594422 8.478102
v -3.996577 -0.594422 8.478102
v -3.996577 -0.594422 7.175045
v -2.673578 -0.594422 7.175045
v -0.590358 -0.594422 7.175045
v -2.673578 -0.947491 6.224111
v -3.996577 -0.947491 6.224111
v -3.996577 -0.947491 7.175045
v -2.673578 -0.947491 7.175045
v -2.673578 -0.594422 5.791612
v -3.996577 -0.594422 5.791612
vn -0.0000 1.0000 -0.0000
vn -0.1483 0.9889 -0.0000
vt 0.480713 -9.048464
vt 0.480713 -12.665608
vt -0.613186 -9.048464
vt -0.613186 -12.665608
vt 0.480713 -8.395575
vt -0.613186 -8.395575
vt 0.599845 -9.048464
vt 0.599845 -8.395575
vt 1.145309 -9.048464
vt 1.145309 -8.395575
vt 0.599845 -8.199142
vt 1.145309 -8.199142
vt 0.599845 -9.669189
vt 1.145309 -9.669189
vt -0.722315 -9.048464
vt -0.722315 -8.395575
vt -4.339744 -9.048464
vt -4.339744 -8.395575
vt -0.722315 -7.965839
vt -4.339744 -7.965839
vt -0.722315 -10.610106
vt 1.931041 -9.048464
vt 1.931041 -8.395575
vt 1.931041 -8.199142
vt 1.931041 -9.669189
vt 3.502505 -9.048464
vt 3.502505 -8.395575
vt 3.502505 -8.199142
vt 3.502505 -9.669189
vt 1.145309 -9.761951
vt 1.931041 -9.761951
vt 0.480713 -7.067686
vt -0.613186 -7.067686
vt 0.480713 -6.101322
vt -0.613186 -6.101322
vt -1.999131 -7.067686
vt -1.999131 -6.101322
vt 2.358930 -7.067686
vt 2.358930 -6.101322
vt 3.467756 -6.902390
vt 3.467756 -6.266618
vt 2.358930 -4.119765
vt 3.467756 -4.119765
vt 3.467756 -7.067686
vt 3.467756 -6.101322
vt 3.559425 -6.902390
vt 3.559425 -6.266618
vt 5.219282 -6.902390
vt 5.219282 -6.266618
vt 3.559425 -6.152031
vt 5.219282 -6.152031
vt 3.559425 -7.393475
vt 5.219282 -7.393475
vt 2.358930 -3.474833
vt 3.467756 -3.474833
vt 2.358930 -1.560712
vt 3.467756 -1.560712
vt 3.593255 -4.119765
vt 3.593255 -3.474833
vt 3.781833 -5.807647
vt 3.781833 -4.119765
vt 3.781833 -3.474833
vt 3.593255 -3.199826
vt 3.781833 -3.199826
vt 3.593255 -4.434058
vt 3.781833 -4.434058
vt 6.068384 -4.119765
vt 6.068384 -3.474833
vt 6.068384 -3.199826
vt 6.068384 -4.434058
vt 6.068384 -5.807647
vt 6.394246 -4.119765
vt 6.394246 -3.474833
vt 6.394246 -4.434058
vt 6.394246 -5.807647
vt 2.233430 -4.119765
vt 2.233430 -3.474833
vt 1.939252 -4.878593
vt 1.939252 -4.119765
vt 1.939252 -3.474833
vt 2.233430 -4.438059
vt 1.939252 -4.438059
vt 2.233430 -3.154253
vt 1.939252 -3.154253
vt -2.079691 -3.474833
vt -0.936917 -4.119765
vt -0.936917 -3.474833
vt -2.079691 -4.119765
vt -0.936917 -4.438059
vt -0.936917 -3.154253
vt -0.936917 -4.878593
vt 1.939252 -1.558825
vt -0.936917 -1.558825
vt -1.513962 -4.119765
vt -1.513962 -3.474833
vt -1.513962 -4.438059
vt -1.513962 -3.154253
vt -1.513962 -4.878593
vt -1.513962 -1.558825
vt -2.079691 -4.438059
vt -2.079691 -3.154253
vt -2.079691 -4.878593
vt -2.079691 -1.558825
vt 3.278765 -1.560712
vt 2.593004 -1.560712
vt 2.593004 -1.383264
vt 3.278765 -1.383264
vt 2.593004 -0.011841
vt 3.278765 -0.011841
vt -0.695593 -0.011841
vt 2.369146 -1.383264
vt 2.369146 -0.011841
vt 3.480782 -1.383264
vt 3.480782 -0.011841
vt 2.593004 1.003714
vt 3.278765 1.003714
vt 2.369146 1.003714
vt 3.480782 1.003714
vt -1.376873 1.003714
vt -2.524776 -0.011841
vt -2.524776 1.003714
vt -1.376873 3.350231
vt -2.524776 3.350231
vt -1.376873 4.081223
vt -2.524776 4.081223
vt -2.672404 3.350231
vt -2.672404 4.081223
vt -5.171197 3.350231
vt -5.171197 4.081223
vt -2.672404 2.515803
vt -5.171197 2.515803
vt -2.672404 4.321924
vt -5.171197 4.321924
vt -1.243152 3.350231
vt -1.243152 4.081223
vt 1.090675 3.350231
vt 1.090675 4.081223
vt -1.243152 4.312296
vt 1.090675 4.312296
vt -1.243152 2.549184
vt 1.090675 2.549184
vt -1.376873 4.321924
vt -2.524776 4.321924
vt -1.500256 4.321924
vt -2.390530 4.321924
vt -1.500256 4.415529
vt -2.390530 4.415529
vt -1.637345 5.493664
vt -2.253440 5.493664
vt -4.786648 5.493664
vt -1.373124 4.415529
vt -1.373124 5.493664
vt -2.522139 4.415529
vt -2.522139 5.493664
vt -1.637345 6.997825
vt -2.253440 6.997825
vt -1.373124 6.997825
vt -2.522139 6.997825
vt -4.786648 6.997825
vt 3.121228 5.493664
vt 3.121228 6.997825
vt 3.121228 5.998571
vt 3.121228 6.621783
vt 3.259865 5.998571
vt 3.259865 6.621783
vt 4.748604 5.998571
vt 4.748604 6.621783
vt 3.259865 5.496621
vt 4.748604 5.496621
vt 3.259865 7.538437
vt 4.748604 7.538437
vt 3.259865 9.874421
vt 4.748604 9.874421
vt 1.268462 7.538437
vt 1.268462 9.874421
vt 3.259865 10.853139
vt 4.748604 10.853139
vt 1.268462 10.853139
vt -1.637345 7.086807
vt -2.253440 7.086807
vt -0.722315 -9.707302
vt -1.979800 -9.048464
vt -1.979800 -10.610106
vt -1.979800 -9.707302
vt -3.423126 -9.048464
vt -3.423126 -9.707302
vt -3.423126 -9.048464
vt -4.339744 -9.048464
vt -1.979800 -10.610106
vt -4.339744 -10.610106
vt -4.339744 -9.707302
vt -3.423126 -9.707302
vt -1.979800 -9.707302
vt -3.423126 -9.048464
vt -4.339744 -9.048464
vt -4.339744 -9.707302
vt -3.423126 -9.707302
vt -3.423126 -8.748814
vt -4.339744 -8.748814
s 0
f 4/4/1 1/1/1 3/3/1
f 5/5/1 3/3/1 1/1/1
f 7/7/1 5/5/1 1/1/1
f 14/14/1 22/22/1 9/9/1
f 12/12/1 8/8/1 10/10/1
f 9/9/1 8/8/1 7/7/1
f 10/10/1 24/24/1 12/12/1
f 9/9/1 23/23/1 10/10/1
f 13/13/1 9/9/1 7/7/1
f 18/18/1 185/185/1 182/182/1
f 16/16/1 3/3/1 6/6/1
f 19/19/1 18/18/1 16/16/1
f 183/183/1 181/181/1 184/184/1
f 22/22/1 27/27/1 23/23/1
f 25/25/1 26/26/1 22/22/1
f 23/23/1 28/28/1 24/24/1
f 14/14/1 31/31/1 25/25/1
f 5/5/1 33/33/1 6/6/1
f 32/32/1 35/35/1 33/33/1
f 35/35/1 36/36/1 33/33/1
f 32/32/1 39/39/1 34/34/1
f 38/38/1 45/45/1 39/39/1
f 43/43/1 54/54/1 42/42/1
f 45/45/1 42/42/1 39/39/1
f 46/46/1 49/49/1 47/47/1
f 40/40/2 47/47/2 41/41/2
f 46/46/1 53/53/1 48/48/1
f 49/49/1 50/50/1 47/47/1
f 55/55/1 104/104/1 105/105/1
f 43/43/1 59/59/1 55/55/1
f 58/58/1 62/62/1 59/59/1
f 62/62/1 63/63/1 59/59/1
f 62/62/1 69/69/1 64/64/1
f 66/66/1 67/67/1 61/61/1
f 58/58/1 66/66/1 61/61/1
f 71/71/1 74/74/1 70/70/1
f 70/70/1 72/72/1 67/67/1
f 61/61/1 68/68/1 62/62/1
f 66/66/1 71/71/1 70/70/1
f 67/67/1 73/73/1 68/68/1
f 54/54/1 76/76/1 42/42/1
f 84/84/1 87/87/1 80/80/1
f 90/90/1 95/95/1 87/87/1
f 77/77/1 79/79/1 76/76/1
f 79/79/1 81/81/1 76/76/1
f 77/77/1 84/84/1 80/80/1
f 93/93/1 97/97/1 90/90/1
f 80/80/1 86/86/1 79/79/1
f 79/79/1 89/89/1 82/82/1
f 89/89/1 78/78/1 82/82/1
f 84/84/1 93/93/1 90/90/1
f 86/86/1 96/96/1 89/89/1
f 96/96/1 102/102/1 98/98/1
f 94/94/1 100/100/1 96/96/1
f 99/99/1 101/101/1 97/97/1
f 89/89/1 98/98/1 91/91/1
f 87/87/1 94/94/1 86/86/1
f 97/97/1 85/85/1 95/95/1
f 95/95/1 88/88/1 94/94/1
f 104/104/1 106/106/1 105/105/1
f 114/114/1 116/116/1 109/109/1
f 107/107/1 108/108/1 106/106/1
f 117/117/1 110/110/1 112/112/1
f 109/109/1 115/115/1 108/108/1
f 108/108/1 111/111/1 106/106/1
f 107/107/1 114/114/1 109/109/1
f 108/108/1 117/117/1 112/112/1
f 119/119/1 120/120/1 110/110/1
f 122/122/1 125/125/1 123/123/1
f 119/119/1 123/123/1 121/121/1
f 124/124/1 144/144/1 145/145/1
f 122/122/1 135/135/1 124/124/1
f 125/125/1 126/126/1 123/123/1
f 127/127/1 133/133/1 129/129/1
f 127/127/1 128/128/1 126/126/1
f 128/128/1 130/130/1 126/126/1
f 134/134/1 141/141/1 136/136/1
f 134/134/1 137/137/1 135/135/1
f 137/137/1 138/138/1 135/135/1
f 144/144/1 147/147/1 145/145/1
f 152/152/1 155/155/1 148/148/1
f 146/146/1 149/149/1 147/147/1
f 146/146/1 152/152/1 148/148/1
f 147/147/1 154/154/1 153/153/1
f 155/155/1 180/180/1 156/156/1
f 148/148/1 156/156/1 149/149/1
f 149/149/1 158/158/1 154/154/1
f 158/158/1 150/150/1 154/154/1
f 152/152/1 162/162/1 163/163/1
f 162/162/1 165/165/1 163/163/1
f 171/171/1 172/172/1 170/170/1
f 164/164/1 167/167/1 165/165/1
f 164/164/1 169/169/1 166/166/1
f 167/167/1 170/170/1 165/165/1
f 172/172/1 178/178/1 175/175/1
f 172/172/1 174/174/1 170/170/1
f 173/173/1 176/176/1 172/172/1
f 184/184/1 15/15/1 182/182/1
f 186/186/1 182/182/1 185/185/1
f 190/190/1 193/193/1 192/192/1
f 196/196/1 194/194/1 195/195/1
f 187/187/1 199/199/1 188/188/1
f 4/4/1 2/2/1 1/1/1
f 5/5/1 6/6/1 3/3/1
f 7/7/1 8/8/1 5/5/1
f 14/14/1 25/25/1 22/22/1
f 12/12/1 11/11/1 8/8/1
f 9/9/1 10/10/1 8/8/1
f 10/10/1 23/23/1 24/24/1
f 9/9/1 22/22/1 23/23/1
f 13/13/1 14/14/1 9/9/1
f 15/15/1 16/16/1 18/18/1
f 18/18/1 17/17/1 185/185/1
f 182/182/1 15/15/1 18/18/1
f 16/16/1 15/15/1 3/3/1
f 19/19/1 20/20/1 18/18/1
f 183/183/1 21/21/1 181/181/1
f 22/22/1 26/26/1 27/27/1
f 25/25/1 29/29/1 26/26/1
f 23/23/1 27/27/1 28/28/1
f 14/14/1 30/30/1 31/31/1
f 5/5/1 32/32/1 33/33/1
f 32/32/1 34/34/1 35/35/1
f 35/35/1 37/37/1 36/36/1
f 32/32/1 38/38/1 39/39/1
f 38/38/1 44/44/1 45/45/1
f 43/43/1 55/55/1 54/54/1
f 45/45/1 43/43/1 42/42/1
f 46/46/1 48/48/1 49/49/1
f 40/40/2 46/46/2 47/47/2
f 46/46/1 52/52/1 53/53/1
f 49/49/1 51/51/1 50/50/1
f 56/56/1 54/54/1 55/55/1
f 55/55/1 57/57/1 104/104/1
f 105/105/1 56/56/1 55/55/1
f 43/43/1 58/58/1 59/59/1
f 58/58/1 61/61/1 62/62/1
f 62/62/1 64/64/1 63/63/1
f 62/62/1 68/68/1 69/69/1
f 66/66/1 70/70/1 67/67/1
f 58/58/1 65/65/1 66/66/1
f 71/71/1 75/75/1 74/74/1
f 70/70/1 74/74/1 72/72/1
f 61/61/1 67/67/1 68/68/1
f 66/66/1 60/60/1 71/71/1
f 67/67/1 72/72/1 73/73/1
f 54/54/1 77/77/1 76/76/1
f 84/84/1 90/90/1 87/87/1
f 90/90/1 97/97/1 95/95/1
f 77/77/1 80/80/1 79/79/1
f 79/79/1 82/82/1 81/81/1
f 77/77/1 83/83/1 84/84/1
f 93/93/1 99/99/1 97/97/1
f 80/80/1 87/87/1 86/86/1
f 79/79/1 86/86/1 89/89/1
f 89/89/1 91/91/1 78/78/1
f 84/84/1 92/92/1 93/93/1
f 86/86/1 94/94/1 96/96/1
f 96/96/1 100/100/1 102/102/1
f 94/94/1 88/88/1 100/100/1
f 99/99/1 103/103/1 101/101/1
f 89/89/1 96/96/1 98/98/1
f 87/87/1 95/95/1 94/94/1
f 97/97/1 101/101/1 85/85/1
f 95/95/1 85/85/1 88/88/1
f 104/104/1 107/107/1 106/106/1
f 114/114/1 118/118/1 116/116/1
f 107/107/1 109/109/1 108/108/1
f 117/117/1 119/119/1 110/110/1
f 109/109/1 116/116/1 115/115/1
f 108/108/1 112/112/1 111/111/1
f 107/107/1 113/113/1 114/114/1
f 108/108/1 115/115/1 117/117/1
f 119/119/1 121/121/1 120/120/1
f 122/122/1 124/124/1 125/125/1
f 119/119/1 122/122/1 123/123/1
f 143/143/1 125/125/1 124/124/1
f 124/124/1 142/142/1 144/144/1
f 145/145/1 143/143/1 124/124/1
f 122/122/1 134/134/1 135/135/1
f 125/125/1 127/127/1 126/126/1
f 127/127/1 132/132/1 133/133/1
f 127/127/1 129/129/1 128/128/1
f 128/128/1 131/131/1 130/130/1
f 134/134/1 140/140/1 141/141/1
f 134/134/1 136/136/1 137/137/1
f 137/137/1 139/139/1 138/138/1
f 144/144/1 146/146/1 147/147/1
f 152/152/1 157/157/1 155/155/1
f 146/146/1 148/148/1 149/149/1
f 146/146/1 151/151/1 152/152/1
f 147/147/1 149/149/1 154/154/1
f 155/155/1 179/179/1 180/180/1
f 148/148/1 155/155/1 156/156/1
f 149/149/1 156/156/1 158/158/1
f 158/158/1 159/159/1 150/150/1
f 161/161/1 157/157/1 152/152/1
f 152/152/1 160/160/1 162/162/1
f 163/163/1 161/161/1 152/152/1
f 162/162/1 164/164/1 165/165/1
f 171/171/1 173/173/1 172/172/1
f 164/164/1 166/166/1 167/167/1
f 164/164/1 168/168/1 169/169/1
f 167/167/1 171/171/1 170/170/1
f 172/172/1 176/176/1 178/178/1
f 172/172/1 175/175/1 174/174/1
f 173/173/1 177/177/1 176/176/1
f 184/184/1 181/181/1 15/15/1
f 186/186/1 184/184/1 182/182/1
f 192/192/1 191/191/1 190/190/1
f 190/190/1 189/189/1 193/193/1
f 196/196/1 197/197/1 194/194/1
f 187/187/1 198/198/1 199/199/1
o Stairs
v -4.031517 -0.699522 6.107367
v -2.658662 -0.699522 6.107367
v -4.031517 -0.699522 6.450383
v -2.658662 -0.699522 6.450383
v -4.031517 -0.593287 6.450383
v -2.658662 -0.593287 6.450383
v -4.031517 -0.593287 6.801254
v -2.658662 -0.593287 6.801254
v -4.031517 -0.499023 6.801254
v -2.658662 -0.499023 6.801254
v -4.031517 -0.499023 7.168447
v -2.658662 -0.499023 7.168447
v -4.031517 -0.499023 8.489798
v -2.658662 -0.499023 8.489798
v -2.658662 -0.398026 7.168447
v -2.658662 -0.398026 8.489798
v -2.318264 -0.398026 7.168447
v -2.318264 -0.398026 8.489798
v -2.318264 -0.299273 7.168447
v -2.318264 -0.299273 8.489798
v -1.978913 -0.299273 7.168447
v -1.978913 -0.299273 8.489798
v -1.978913 -0.203609 7.168447
v -1.978913 -0.203609 8.489798
v -1.644087 -0.203609 7.168447
v -1.644087 -0.203609 8.489798
v -1.644087 -0.106651 7.168447
v -1.644087 -0.106651 8.489798
v -1.285884 -0.106651 7.168447
v -1.285884 -0.106651 8.489798
v -1.285884 0.001079 7.168447
v -1.285884 0.001079 8.489798
v -0.940249 0.001079 7.168447
v -0.940249 0.001079 8.489798
v -0.940249 0.066398 7.168447
v -0.940249 0.066398 8.489798
v -0.582045 0.066398 7.168447
v -0.582045 0.066398 8.489798
vn -0.0000 1.0000 -0.0000
vn -0.0000 -0.0000 -1.0000
vn -1.0000 -0.0000 -0.0000
vt -1.444049 1.256228
vt -0.471886 1.256228
vt -1.444049 1.013327
vt 0.050067 0.494438
vt 0.050067 0.261449
vt -0.471886 1.013327
vt -1.444049 1.013327
vt 0.020635 0.494438
vt -0.471886 1.013327
vt 0.020635 0.261449
vt -1.444049 0.764864
vt 0.161371 0.494438
vt 0.161371 0.261449
vt -0.471886 0.764864
vt -1.444049 0.764864
vt 0.135255 0.494438
vt -0.471886 0.764864
vt 0.135255 0.261449
vt -1.444049 0.504843
vt 0.079914 0.485697
vt -0.471886 0.504843
vt -1.444049 -0.430848
vt -0.471886 -0.430848
vt 0.079914 0.261449
vt -0.471886 0.504843
vt 0.107896 0.485697
vt -0.471886 -0.430848
vt 0.107896 0.261449
vt 0.135255 0.261449
vt -0.230840 0.504843
vt -0.230840 -0.430848
vt 0.135255 0.485697
vt -0.230840 0.504843
vt 0.107896 0.261449
vt -0.230840 -0.430848
vt 0.107896 0.485697
vt 0.188234 0.485697
vt 0.009465 0.504843
vt 0.009465 -0.430848
vt 0.188234 0.261449
vt 0.009465 0.504843
vt 0.214738 0.485697
vt 0.214738 0.261449
vt 0.009465 -0.430848
vt 0.161371 0.485697
vt 0.246567 0.504843
vt 0.246567 -0.430848
vt 0.161371 0.261449
vt 0.246567 0.504843
vt 0.188234 0.485697
vt 0.246567 -0.430848
vt 0.188234 0.261449
vt 0.079914 0.261449
vt 0.500222 0.504843
vt 0.079914 0.485697
vt 0.500222 -0.430848
vt 0.500222 0.504843
vt 0.050067 0.261449
vt 0.050067 0.485697
vt 0.500222 -0.430848
vt 0.214738 0.485697
vt 0.744977 0.504843
vt 0.744977 -0.430848
vt 0.214738 0.261449
vt 0.744977 0.504843
vt 0.232834 0.485697
vt 0.232834 0.261449
vt 0.744977 -0.430848
vt 0.998633 0.504843
vt 0.998633 -0.430848
s 0
f 200/200/3 203/205/3 201/201/3
f 204/206/3 207/213/3 205/208/3
f 202/203/4 205/209/4 203/204/4
f 210/218/3 213/222/3 211/220/3
f 208/214/3 211/220/3 209/216/3
f 206/211/4 209/217/4 207/212/4
f 215/226/3 216/229/3 214/224/3
f 213/223/5 214/225/5 211/219/5
f 219/234/3 220/237/3 218/232/3
f 217/231/5 218/233/5 216/228/5
f 221/239/5 222/241/5 220/236/5
f 223/243/3 224/245/3 222/240/3
f 229/254/5 230/257/5 228/252/5
f 227/250/3 228/253/3 226/248/3
f 225/247/5 226/249/5 224/244/5
f 231/259/3 232/261/3 230/256/3
f 233/263/5 234/265/5 232/260/5
f 235/267/3 236/268/3 234/264/3
f 200/200/3 202/202/3 203/205/3
f 204/206/3 206/210/3 207/213/3
f 202/203/4 204/207/4 205/209/4
f 210/218/3 212/221/3 213/222/3
f 208/214/3 210/218/3 211/220/3
f 206/211/4 208/215/4 209/217/4
f 215/226/3 217/230/3 216/229/3
f 213/223/5 215/227/5 214/225/5
f 219/234/3 221/238/3 220/237/3
f 217/231/5 219/235/5 218/233/5
f 221/239/5 223/242/5 222/241/5
f 223/243/3 225/246/3 224/245/3
f 229/254/5 231/258/5 230/257/5
f 227/250/3 229/255/3 228/253/3
f 225/247/5 227/251/5 226/249/5
f 231/259/3 233/262/3 232/261/3
f 233/263/5 235/266/5 234/265/5
f 235/267/3 237/269/3 236/268/3
