# Blender 3.3.1
# www.blender.org
o Door_1_Hitbox
v 3.119638 0.045295 5.402716
v 3.119638 1.259275 5.402716
v 3.119638 0.045295 5.058039
v 3.119638 1.259275 5.058039
v 3.782987 0.045295 5.161984
v 3.782987 1.259275 5.161984
v 3.782987 0.045295 5.058039
v 3.782987 1.259275 5.058039
v 3.075325 0.045295 5.402716
v 3.075325 1.259275 5.402716
v 3.075325 0.045295 5.058039
v 3.075325 1.259275 5.058039
vn -0.0000 -0.0000 -1.0000
vn 1.0000 -0.0000 -0.0000
vn 0.3411 -0.0000 0.9400
vn -0.0000 -1.0000 -0.0000
vn -0.0000 1.0000 -0.0000
vn -1.0000 -0.0000 -0.0000
vn -0.0000 -0.0000 1.0000
vt 0.375000 1.000000
vt 0.125000 0.750000
vt 0.875000 0.750000
vt 0.625000 1.000000
vt 0.375000 0.250000
vt 0.125000 0.500000
vt 0.625000 0.250000
vt 0.875000 0.500000
vt 0.375000 0.750000
vt 0.625000 0.750000
vt 0.375000 0.500000
vt 0.625000 0.500000
vt 0.375000 0.000000
vt 0.375000 1.000000
vt 0.125000 0.750000
vt 0.625000 0.000000
vt 0.625000 1.000000
vt 0.875000 0.750000
vt 0.375000 0.250000
vt 0.125000 0.500000
vt 0.625000 0.250000
vt 0.875000 0.500000
s 0
f 3/5/1 12/21/1 4/7/1
f 4/7/1 7/11/1 3/5/1
f 8/12/2 5/9/2 7/11/2
f 6/10/3 1/1/3 5/9/3
f 3/6/4 5/9/4 1/2/4
f 4/8/5 6/10/5 8/12/5
f 10/16/6 11/19/6 9/13/6
f 2/4/7 9/14/7 1/1/7
f 4/8/5 10/18/5 2/3/5
f 1/2/4 11/20/4 3/6/4
f 3/5/1 11/19/1 12/21/1
f 4/7/1 8/12/1 7/11/1
f 8/12/2 6/10/2 5/9/2
f 6/10/3 2/4/3 1/1/3
f 3/6/4 7/11/4 5/9/4
f 4/8/5 2/3/5 6/10/5
f 10/16/6 12/21/6 11/19/6
f 2/4/7 10/17/7 9/14/7
f 4/8/5 12/22/5 10/18/5
f 1/2/4 9/15/4 11/20/4
