# Blender 3.3.1
# www.blender.org
o Door_5_Hitbox.001
v 0.423159 -0.012036 -12.468863
v 0.423159 1.197146 -12.468863
v 0.331287 -0.012036 -12.830091
v 0.331287 1.197146 -12.830091
v 1.131068 -0.012036 -12.716800
v 1.131068 1.197146 -12.716800
v 1.131068 -0.012036 -12.830091
v 1.131068 1.197146 -12.830091
vn -0.9691 -0.0000 0.2465
vn -0.0000 -0.0000 -1.0000
vn 1.0000 -0.0000 -0.0000
vn 0.3306 -0.0000 0.9438
vn -0.0000 -1.0000 -0.0000
vn -0.0000 1.0000 -0.0000
vt 0.375000 0.000000
vt 0.125000 0.750000
vt 0.375000 1.000000
vt 0.625000 0.000000
vt 0.625000 1.000000
vt 0.875000 0.750000
vt 0.375000 0.250000
vt 0.125000 0.500000
vt 0.625000 0.250000
vt 0.875000 0.500000
vt 0.375000 0.750000
vt 0.625000 0.750000
vt 0.375000 0.500000
vt 0.625000 0.500000
s 0
f 2/4/1 3/7/1 1/1/1
f 4/9/2 7/13/2 3/7/2
f 8/14/3 5/11/3 7/13/3
f 6/12/4 1/3/4 5/11/4
f 3/8/5 5/11/5 1/2/5
f 4/10/6 6/12/6 8/14/6
f 2/4/1 4/9/1 3/7/1
f 4/9/2 8/14/2 7/13/2
f 8/14/3 6/12/3 5/11/3
f 6/12/4 2/5/4 1/3/4
f 3/8/5 7/13/5 5/11/5
f 4/10/6 2/6/6 6/12/6
