# Blender 3.3.1
# www.blender.org
o Cube.093
v 7.830687 0.050484 0.397244
v 7.830687 0.452029 0.397244
v 8.519627 0.050484 -0.679235
v 8.519627 0.452029 -0.679235
v 8.168622 0.050484 0.614126
v 8.168622 0.452029 0.614126
v 8.857562 0.050484 -0.462352
v 8.857562 0.452029 -0.462352
vn -0.8423 -0.0000 -0.5391
vn 0.5401 -0.0000 -0.8416
vn 0.8423 -0.0000 0.5391
vn -0.5401 -0.0000 0.8416
vn -0.0000 -1.0000 -0.0000
vn -0.0000 1.0000 -0.0000
vt 0.375000 0.000000
vt 0.375000 1.000000
vt 0.125000 0.750000
vt 0.625000 0.000000
vt 0.625000 1.000000
vt 0.875000 0.750000
vt 0.125000 0.500000
vt 0.375000 0.250000
vt 0.625000 0.250000
vt 0.875000 0.500000
vt 0.375000 0.750000
vt 0.625000 0.750000
vt 0.375000 0.500000
vt 0.625000 0.500000
s 0
f 2/4/1 3/8/1 1/1/1
f 4/9/2 7/13/2 3/8/2
f 8/14/3 5/11/3 7/13/3
f 6/12/4 1/2/4 5/11/4
f 7/13/5 1/3/5 3/7/5
f 8/14/6 2/6/6 6/12/6
f 2/4/1 4/9/1 3/8/1
f 4/9/2 8/14/2 7/13/2
f 8/14/3 6/12/3 5/11/3
f 6/12/4 2/5/4 1/2/4
f 7/13/5 5/11/5 1/3/5
f 8/14/6 4/10/6 2/6/6
