# Blender 3.3.1
# www.blender.org
o Slope
v 5.504117 -0.258863 -3.306262
v 5.504117 0.072535 -3.306262
v 5.478561 -0.258863 -7.031322
v 5.478561 0.072535 -7.031322
v 7.453004 -0.258863 -2.411786
v 7.453004 0.072535 -2.411786
v 7.401892 -0.258863 -7.044101
v 7.401892 0.072535 -7.044101
v 5.759597 0.350573 -4.246293
v 5.754631 0.350573 -5.838926
v 7.153785 0.350573 -3.863864
v 7.143853 0.350573 -5.844389
v 5.759597 0.445492 -4.711559
v 5.754631 0.445492 -5.248752
v 7.153785 0.445492 -4.582566
v 7.143853 0.445492 -5.250595
vn -1.0000 -0.0000 0.0069
vn -0.0066 -0.0000 -1.0000
vn 0.9999 -0.0000 -0.0110
vn -0.4171 -0.0000 0.9088
vn -0.0000 -1.0000 -0.0000
vn 0.7006 0.7136 -0.0077
vn -0.0185 0.9797 0.1999
vn -0.7201 0.6938 0.0049
vn -0.0726 0.9616 0.2647
vn -0.0009 0.9741 -0.2260
vn -0.0000 1.0000 -0.0000
vn -0.0006 0.9875 -0.1578
vn 0.9993 -0.0379 -0.0050
vn -0.9998 -0.0194 0.0031
vn 0.7251 0.6886 -0.0036
vn -0.0359 0.9908 0.1308
vn -0.7325 0.6808 0.0023
vn -0.0945 0.9740 0.2060
vn -0.0015 0.9740 -0.2268
vn -0.0002 0.9873 -0.1588
vn 0.9956 0.0926 -0.0148
vn -0.9989 0.0453 0.0092
vt 0.375000 0.000000
vt 0.375000 1.000000
vt 0.125000 0.750000
vt 0.625000 0.000000
vt 0.625000 1.000000
vt 0.125000 0.500000
vt 0.375000 0.250000
vt 0.625000 0.250000
vt 0.375000 0.750000
vt 0.625000 0.750000
vt 0.375000 0.500000
vt 0.625000 0.500000
vt 0.625000 1.000000
vt 0.625000 0.000000
vt 0.625000 0.250000
vt 0.625000 0.750000
vt 0.625000 0.500000
vt 0.625000 1.000000
vt 0.875000 0.750000
vt 0.625000 0.000000
vt 0.875000 0.500000
vt 0.625000 0.250000
vt 0.625000 0.750000
vt 0.625000 0.500000
s 0
f 2/4/1 3/7/1 1/1/1
f 4/8/2 7/11/2 3/7/2
f 8/12/3 5/9/3 7/11/3
f 6/10/4 1/2/4 5/9/4
f 7/11/5 1/3/5 3/6/5
f 8/12/6 11/16/6 6/10/6
f 9/13/7 15/23/7 13/18/7
f 2/4/8 10/15/8 4/8/8
f 2/5/9 11/16/9 9/13/9
f 8/12/10 10/15/10 12/17/10
f 16/24/11 13/19/11 15/23/11
f 10/15/12 16/24/12 12/17/12
f 12/17/13 15/23/13 11/16/13
f 9/14/14 14/22/14 10/15/14
f 2/4/1 4/8/1 3/7/1
f 4/8/2 8/12/2 7/11/2
f 8/12/3 6/10/3 5/9/3
f 6/10/4 2/5/4 1/2/4
f 7/11/5 5/9/5 1/3/5
f 8/12/15 12/17/15 11/16/15
f 9/13/16 11/16/16 15/23/16
f 2/4/17 9/14/17 10/15/17
f 2/5/18 6/10/18 11/16/18
f 8/12/19 4/8/19 10/15/19
f 16/24/11 14/21/11 13/19/11
f 10/15/20 14/22/20 16/24/20
f 12/17/21 16/24/21 15/23/21
f 9/14/22 13/20/22 14/22/22
