# Blender 3.3.1
# www.blender.org
o Cube.089
v 0.416741 0.143714 -1.611732
v 0.416741 0.172270 -1.594838
v 0.397823 0.466548 -2.157591
v 0.397823 0.495216 -2.144453
v 1.568811 0.143714 -1.632541
v 1.568811 0.172270 -1.615647
v 1.555568 0.466548 -2.189750
v 1.555568 0.495216 -2.176613
vn -0.9996 -0.0152 0.0257
vn -0.0252 0.4165 -0.9088
vn 0.9998 0.0105 -0.0177
vn 0.0155 -0.5091 0.8606
vn -0.0141 -0.8609 -0.5086
vn 0.0090 0.8667 0.4987
vn -0.9996 -0.0124 0.0271
vn 0.9998 0.0086 -0.0187
vn -0.0091 -0.8653 -0.5011
vn 0.0141 0.8623 0.5062
vt 0.375000 0.000000
vt 0.375000 1.000000
vt 0.125000 0.750000
vt 0.625000 0.000000
vt 0.625000 1.000000
vt 0.875000 0.750000
vt 0.125000 0.500000
vt 0.375000 0.250000
vt 0.625000 0.250000
vt 0.875000 0.500000
vt 0.375000 0.750000
vt 0.625000 0.750000
vt 0.375000 0.500000
vt 0.625000 0.500000
s 0
f 2/4/1 3/8/1 1/1/1
f 3/8/2 8/14/2 7/13/2
f 7/13/3 6/12/3 5/11/3
f 6/12/4 1/2/4 5/11/4
f 7/13/5 1/3/5 3/7/5
f 8/14/6 2/6/6 6/12/6
f 2/4/7 4/9/7 3/8/7
f 3/8/2 4/9/2 8/14/2
f 7/13/8 8/14/8 6/12/8
f 6/12/4 2/5/4 1/2/4
f 7/13/9 5/11/9 1/3/9
f 8/14/10 4/10/10 2/6/10
