# Blender 3.3.1
# www.blender.org
o Box.001
v -0.699344 -0.020131 -6.995194
v -0.699344 1.900463 -6.995194
v -0.699344 -0.020131 -8.439479
v -0.699344 1.900463 -8.439479
v 0.699344 -0.020131 -6.995194
v 0.699344 1.900463 -6.995194
v 0.699344 -0.020131 -8.439479
v 0.699344 1.900463 -8.439479
v 0.483322 0.949529 -6.995199
v 0.483322 0.000855 -6.995199
v -0.483322 0.949529 -6.995199
v -0.483322 0.000855 -6.995199
v 0.479026 0.974968 -6.995199
v -0.479026 0.974968 -6.995199
v 0.470433 1.067820 -6.995199
v -0.470433 1.067820 -6.995199
v 0.449350 1.158129 -6.995199
v -0.449350 1.158129 -6.995199
v 0.408961 1.240276 -6.995199
v -0.408961 1.240276 -6.995199
v 0.343691 1.311823 -6.995199
v -0.343691 1.311823 -6.995199
v 0.276867 1.367471 -6.995199
v -0.276867 1.367471 -6.995199
v 0.178915 1.420469 -6.995199
v -0.178915 1.420469 -6.995199
v 0.102209 1.444318 -6.995199
v -0.102209 1.444318 -6.995199
v 0.031958 1.456684 -6.995199
v -0.031958 1.456684 -6.995199
v -0.343691 1.311823 -6.995194
v -0.276867 1.367471 -6.995194
v -0.178915 1.420469 -6.995194
v -0.102209 1.444318 -6.995194
v 0.102209 1.444318 -6.995194
v 0.031958 1.456684 -6.995194
v -0.031958 1.456684 -6.995194
v 0.276867 1.367471 -6.995194
v 0.343691 1.311823 -6.995194
v 0.408961 1.240276 -6.995194
v 0.470433 1.067820 -6.995194
v 0.483322 0.949529 -6.995194
v 0.479026 0.974968 -6.995194
v 0.449350 1.158129 -6.995194
v 0.178915 1.420469 -6.995194
v -0.483322 0.000855 -6.995194
v -0.479026 0.974968 -6.995194
v -0.483322 0.949529 -6.995194
v -0.449350 1.158129 -6.995194
v 0.483322 0.000855 -6.995194
v -0.408961 1.240276 -6.995194
v -0.470433 1.067820 -6.995194
v -0.699344 0.000855 -7.254357
v -0.699344 1.311823 -8.081370
v -0.699344 1.240276 -8.146641
v -0.699344 1.311823 -8.081370
v -0.699344 0.974968 -8.216705
v -0.699344 0.974968 -8.216705
v -0.699344 1.067820 -8.208113
v -0.699344 0.949529 -8.221002
v -0.699344 0.000855 -8.221002
v -0.699344 1.158129 -8.187030
v -0.699344 1.158129 -8.187029
v -0.699344 0.949529 -7.254357
v -0.699344 0.949529 -7.254357
v -0.699344 0.974968 -7.258654
v -0.699344 0.974968 -7.258654
v -0.699344 1.067820 -7.267246
v -0.699344 1.067821 -7.267246
v -0.699344 1.158129 -7.288330
v -0.699344 1.311823 -7.393989
v -0.699344 1.311824 -7.393989
v -0.699344 1.311823 -7.393989
v -0.699344 1.240276 -7.328718
v -0.699344 1.240276 -7.328719
v -0.699344 1.367471 -7.460813
v -0.699344 1.367471 -7.460813
v -0.699344 1.420469 -7.558764
v -0.699344 1.367471 -7.460813
v -0.699344 1.420469 -7.558764
v -0.699344 1.420469 -7.558765
v -0.699344 1.456684 -7.705722
v -0.699344 1.444318 -7.635471
v -0.699344 1.456684 -7.769637
v -0.699344 1.456684 -7.769638
v -0.699344 1.444318 -7.635471
v -0.699344 1.444318 -7.635471
v -0.699344 1.444318 -7.839889
v -0.699344 1.444318 -7.839888
v -0.699344 1.444318 -7.839889
v -0.699344 1.367471 -8.014546
v -0.699344 1.420469 -7.916595
v -0.699344 1.367471 -8.014546
v -0.699344 1.367471 -8.014547
v -0.699344 1.420469 -7.916595
v -0.699344 1.420469 -7.916595
v -0.699344 1.456684 -7.769638
vn 0.9827 -0.0000 0.1851
vn -0.0000 -0.0000 1.0000
vn -1.0000 -0.0000 -0.0000
vn -0.0000 -0.0000 -1.0000
vn -0.0000 -1.0000 -0.0000
vn 0.4786 0.8780 -0.0000
vn 0.9957 0.0931 -0.0000
vn 1.0000 -0.0000 -0.0000
vn -0.4786 0.8780 -0.0000
vn -0.9957 0.0931 -0.0000
vn 0.1753 0.9845 -0.0000
vn 0.8918 0.4524 -0.0000
vn -0.1753 0.9845 -0.0000
vn -0.8918 0.4524 -0.0000
vn -0.7352 0.6779 -0.0000
vn 0.7352 0.6779 -0.0000
vn -0.9723 0.2337 -0.0000
vn -0.2980 0.9546 -0.0000
vn 0.9723 0.2337 -0.0000
vn 0.2980 0.9546 -0.0000
vn -0.9858 0.1682 -0.0000
vn -0.6448 0.7644 -0.0000
vn -0.0000 1.0000 -0.0000
vn 0.9858 0.1682 -0.0000
vn 0.6448 0.7644 -0.0000
vn 0.4959 -0.0000 0.8684
vn 0.9734 -0.0000 -0.2292
vn 0.9973 -0.0000 -0.0740
vn 0.9899 -0.0000 0.1414
vn 0.9985 -0.0000 -0.0554
vn 0.9447 -0.0000 0.3280
vn -0.9701 -0.0000 0.2425
vn 0.9879 -0.0000 0.1551
vn -0.0000 0.0001 -1.0000
vn 0.8994 0.4372 -0.0000
vn -0.8994 0.4372 -0.0000
vn -0.9744 0.2248 -0.0000
vn 0.9744 0.2248 -0.0000
vt 0.366140 0.003464
vt 1.664222 0.003464
vt 0.366140 0.994873
vt 1.664222 0.994873
vt 0.165386 0.994722
vt 1.664222 0.003464
vt -0.725957 0.003464
vt -0.725957 0.994873
vt 1.664222 0.994873
vt 0.165386 0.537240
vt 0.366140 0.003464
vt 0.606602 0.003464
vt 0.366140 0.994873
vt 0.606602 0.994873
vt 0.814369 0.994722
vt -0.725957 0.003464
vt 0.606602 0.003464
vt 0.814369 0.537240
vt 0.606602 0.994873
vt -0.725957 0.994873
vt 0.326245 0.611419
vt 0.326245 0.461724
vt 0.326243 0.610922
vt 0.326243 0.461724
vt 0.326245 0.615525
vt 0.326243 0.615030
vt 0.326245 0.630360
vt 0.326243 0.629847
vt 0.326245 0.645060
vt 0.326243 0.644575
vt 0.326245 0.658885
vt 0.326243 0.658501
vt 0.326245 0.671568
vt 0.326248 0.461724
vt 0.326243 0.671379
vt 0.326248 0.536444
vt 0.326248 0.468988
vt 0.326248 0.529180
vt 0.326248 0.479636
vt 0.326248 0.518533
vt 0.326248 0.487974
vt 0.326248 0.510195
vt 0.326248 0.495610
vt 0.326248 0.502558
vt 0.326247 0.536444
vt 1.395294 0.691018
vt 0.326244 0.671379
vt 1.344765 0.719743
vt 0.326247 0.529180
vt 1.270699 0.747100
vt 0.326247 0.518533
vt 1.212697 0.759411
vt 0.326247 0.510195
vt 1.058126 0.759411
vt 0.326247 0.487974
vt 1.111247 0.765795
vt 0.326247 0.495610
vt 1.159576 0.765795
vt 0.326247 0.502558
vt 0.926058 0.719743
vt 0.326247 0.468988
vt 0.875529 0.691018
vt 0.326244 0.671568
vt 0.326247 0.461724
vt 0.826175 0.654085
vt 0.326244 0.658885
vt 0.779693 0.565064
vt 0.326244 0.630360
vt 0.769947 0.504002
vt 0.326244 0.611419
vt 0.773196 0.517133
vt 0.326244 0.615525
vt 0.795635 0.611681
vt 0.326244 0.645060
vt 1.000124 0.747100
vt 0.326247 0.479636
vt 1.500876 0.014297
vt 0.326244 0.461724
vt 1.497627 0.517133
vt 0.326244 0.615030
vt 1.500876 0.504002
vt 0.326244 0.610922
vt 1.475188 0.611681
vt 0.326244 0.644575
vt 0.769947 0.014297
vt 0.326244 0.461724
vt 1.444648 0.654085
vt 0.326244 0.658501
vt 1.491130 0.565064
vt 0.326244 0.629847
vt 0.170173 0.014297
vt -0.455173 0.691018
vt -0.504527 0.654085
vt -0.455173 0.691018
vt -0.557507 0.517133
vt -0.557507 0.517133
vt -0.551009 0.565063
vt -0.560755 0.504002
vt -0.560755 0.014297
vt -0.535068 0.611681
vt -0.535067 0.611681
vt 0.170173 0.504002
vt 0.170173 0.504002
vt 0.166925 0.517133
vt 0.166925 0.517133
vt 0.160428 0.565063
vt 0.160428 0.565064
vt 0.144485 0.611681
vt 0.064591 0.691018
vt 0.064591 0.691018
vt 0.064591 0.691018
vt 0.113945 0.654085
vt 0.113945 0.654085
vt 0.014062 0.719743
vt 0.014062 0.719743
vt -0.060004 0.747101
vt 0.014062 0.719743
vt -0.060004 0.747101
vt -0.060005 0.747101
vt -0.171126 0.765795
vt -0.118006 0.759411
vt -0.219455 0.765795
vt -0.219456 0.765795
vt -0.118006 0.759411
vt -0.118006 0.759411
vt -0.272576 0.759411
vt -0.272576 0.759411
vt -0.272576 0.759411
vt -0.404644 0.719743
vt -0.330578 0.747100
vt -0.404644 0.719743
vt -0.404645 0.719743
vt -0.330578 0.747101
vt -0.330578 0.747100
vt -0.219456 0.765795
s 0
f 2/3/1 86/124/1 87/125/1
f 7/17/2 4/9/2 3/6/2
f 5/11/3 8/20/3 7/16/3
f 35/54/4 36/56/4 2/4/4
f 6/15/5 4/10/5 8/18/5
f 38/61/6 25/39/6 45/76/6
f 41/68/7 13/25/7 15/27/7
f 42/70/8 10/22/8 9/21/8
f 33/51/9 24/38/9 32/49/9
f 47/80/10 16/28/10 14/26/10
f 35/55/11 29/43/11 36/57/11
f 40/66/12 17/29/12 19/31/12
f 37/59/13 28/42/13 34/53/13
f 49/84/14 20/32/14 18/30/14
f 46/78/3 11/23/3 12/24/3
f 31/47/15 20/32/15 51/88/15
f 39/63/16 19/31/16 21/33/16
f 52/90/17 18/30/17 16/28/17
f 34/53/18 26/40/18 33/51/18
f 44/74/19 15/27/19 17/29/19
f 45/76/20 27/41/20 35/55/20
f 48/82/21 14/26/21 11/23/21
f 32/49/22 22/36/22 31/45/22
f 36/57/23 30/44/23 37/59/23
f 43/72/24 9/21/24 13/25/24
f 39/64/25 23/37/25 38/61/25
f 59/97/26 57/95/26 58/96/26
f 60/98/8 61/99/8 3/7/8
f 59/97/8 58/96/8 60/98/8
f 59/97/8 60/98/8 3/7/8
f 2/3/8 1/1/8 53/91/8
f 64/102/8 65/103/8 66/104/8
f 2/3/8 53/91/8 64/102/8
f 59/97/8 3/7/8 4/8/8
f 62/100/8 59/97/8 4/8/8
f 2/3/8 64/102/8 66/104/8
f 66/104/8 67/105/8 68/106/8
f 2/3/8 66/104/8 68/106/8
f 63/101/8 62/100/8 4/8/8
f 56/94/8 54/92/8 55/93/8
f 55/93/8 63/101/8 4/8/8
f 2/3/27 68/106/27 69/107/27
f 2/3/8 69/107/8 70/108/8
f 56/94/8 55/93/8 4/8/8
f 91/129/8 93/131/8 94/132/8
f 94/132/8 56/94/8 4/8/8
f 2/3/8 70/108/8 74/112/8
f 2/3/28 74/112/28 75/113/28
f 91/129/29 94/132/29 4/8/29
f 96/134/2 92/130/2 91/129/2
f 88/126/8 90/128/8 95/133/8
f 95/133/23 96/134/23 91/129/23
f 2/3/8 75/113/8 71/109/8
f 73/111/23 72/110/23 76/114/23
f 2/3/30 71/109/30 73/111/30
f 95/133/8 91/129/8 4/8/8
f 88/126/8 95/133/8 4/8/8
f 2/3/8 73/111/8 76/114/8
f 77/115/23 79/117/23 78/116/23
f 2/3/31 76/114/31 77/115/31
f 88/126/8 4/8/8 2/3/8
f 89/127/8 88/126/8 2/3/8
f 2/3/8 77/115/8 78/116/8
f 78/116/32 80/118/32 81/119/32
f 2/3/33 78/116/33 81/119/33
f 97/135/8 89/127/8 2/3/8
f 84/122/23 85/123/23 97/135/23
f 87/125/23 83/121/23 82/120/23
f 84/122/8 97/135/8 2/3/8
f 82/120/8 84/122/8 2/3/8
f 2/3/8 81/119/8 86/124/8
f 87/125/8 82/120/8 2/3/8
f 7/17/2 8/19/2 4/9/2
f 5/11/3 6/13/3 8/20/3
f 42/69/4 43/71/4 41/67/4
f 5/12/4 50/85/4 42/69/4
f 46/77/4 1/2/4 2/4/4
f 52/89/4 47/79/4 48/81/4
f 48/81/4 46/77/4 2/4/4
f 6/14/4 5/12/4 42/69/4
f 6/14/4 42/69/4 41/67/4
f 52/89/4 48/81/4 2/4/4
f 49/83/4 52/89/4 2/4/4
f 6/14/4 41/67/4 44/73/4
f 6/14/4 44/73/4 40/65/4
f 51/87/4 49/83/4 2/4/4
f 31/46/4 51/87/4 2/4/4
f 6/14/4 40/65/4 39/62/4
f 6/14/4 39/62/4 38/60/4
f 32/48/4 31/46/4 2/4/4
f 33/50/4 32/48/4 2/4/4
f 2/4/4 6/14/4 38/60/4
f 2/4/34 38/60/34 45/75/34
f 34/52/4 33/50/4 2/4/4
f 37/58/4 34/52/4 2/4/4
f 2/4/4 45/75/4 35/54/4
f 36/56/4 37/58/4 2/4/4
f 6/15/5 2/5/5 4/10/5
f 38/61/6 23/37/6 25/39/6
f 41/68/7 43/72/7 13/25/7
f 42/70/8 50/86/8 10/22/8
f 33/51/9 26/40/9 24/38/9
f 47/80/10 52/90/10 16/28/10
f 35/55/11 27/41/11 29/43/11
f 40/66/35 44/74/35 17/29/35
f 37/59/13 30/44/13 28/42/13
f 49/84/36 51/88/36 20/32/36
f 46/78/3 48/82/3 11/23/3
f 31/47/15 22/35/15 20/32/15
f 39/63/16 40/66/16 19/31/16
f 52/90/37 49/84/37 18/30/37
f 34/53/18 28/42/18 26/40/18
f 44/74/38 41/68/38 15/27/38
f 45/76/20 25/39/20 27/41/20
f 48/82/21 47/80/21 14/26/21
f 32/49/22 24/38/22 22/36/22
f 36/57/23 29/43/23 30/44/23
f 43/72/24 42/70/24 9/21/24
f 39/64/25 21/34/25 23/37/25
o Box.003
v -8.691290 -0.020131 -8.481236
v -8.691290 1.900463 -8.481236
v -8.691290 -0.020131 -7.036952
v -8.691290 1.900463 -7.036952
v -10.089978 -0.020131 -8.481236
v -10.089978 1.900463 -8.481236
v -10.089979 -0.020131 -7.036952
v -10.089979 1.900463 -7.036952
v -9.873957 0.949529 -8.481232
v -9.873957 0.000855 -8.481232
v -8.907312 0.949529 -8.481232
v -8.907312 0.000855 -8.481232
v -9.869660 0.974968 -8.481232
v -8.911609 0.974968 -8.481232
v -9.861068 1.067820 -8.481232
v -8.920201 1.067820 -8.481232
v -9.839984 1.158129 -8.481232
v -8.941284 1.158129 -8.481232
v -9.799596 1.240276 -8.481232
v -8.981673 1.240276 -8.481232
v -9.734325 1.311823 -8.481232
v -9.046944 1.311823 -8.481232
v -9.667501 1.367471 -8.481232
v -9.113768 1.367471 -8.481232
v -9.569550 1.420469 -8.481232
v -9.211720 1.420469 -8.481232
v -9.492843 1.444318 -8.481232
v -9.288425 1.444318 -8.481232
v -9.422592 1.456684 -8.481232
v -9.358677 1.456684 -8.481232
v -9.046944 1.311823 -8.481236
v -9.113768 1.367471 -8.481236
v -9.211720 1.420469 -8.481236
v -9.288425 1.444318 -8.481236
v -9.492843 1.444318 -8.481236
v -9.422592 1.456684 -8.481236
v -9.358677 1.456684 -8.481236
v -9.667501 1.367471 -8.481236
v -9.734325 1.311823 -8.481236
v -9.799596 1.240276 -8.481236
v -9.861068 1.067820 -8.481236
v -9.873957 0.949529 -8.481236
v -9.869660 0.974968 -8.481236
v -9.839984 1.158129 -8.481236
v -9.569550 1.420469 -8.481236
v -8.907312 0.000855 -8.481236
v -8.911609 0.974968 -8.481236
v -8.907312 0.949529 -8.481236
v -8.941284 1.158129 -8.481236
v -9.873957 0.000855 -8.481236
v -8.981673 1.240276 -8.481236
v -8.920201 1.067820 -8.481236
v -8.691290 0.000855 -8.222073
v -8.691290 1.311823 -7.395060
v -8.691290 1.240276 -7.329790
v -8.691290 1.311823 -7.395060
v -8.691290 0.974968 -7.259725
v -8.691290 0.974968 -7.259725
v -8.691290 1.067820 -7.268318
v -8.691290 0.949529 -7.255429
v -8.691290 0.000855 -7.255429
v -8.691290 1.158129 -7.289401
v -8.691290 1.158129 -7.289401
v -8.691290 0.949529 -8.222073
v -8.691290 0.949529 -8.222073
v -8.691290 0.974968 -8.217776
v -8.691290 0.974968 -8.217776
v -8.691290 1.067820 -8.209184
v -8.691290 1.067821 -8.209184
v -8.691290 1.158129 -8.188101
v -8.691290 1.311823 -8.082441
v -8.691290 1.311824 -8.082441
v -8.691290 1.311823 -8.082441
v -8.691290 1.240276 -8.147712
v -8.691290 1.240276 -8.147712
v -8.691290 1.367471 -8.015618
v -8.691290 1.367471 -8.015617
v -8.691290 1.420469 -7.917666
v -8.691290 1.367471 -8.015617
v -8.691290 1.420469 -7.917666
v -8.691290 1.420469 -7.917665
v -8.691290 1.456684 -7.770709
v -8.691290 1.444318 -7.840959
v -8.691290 1.456684 -7.706793
v -8.691290 1.456684 -7.706793
v -8.691290 1.444318 -7.840960
v -8.691290 1.444318 -7.840960
v -8.691290 1.444318 -7.636542
v -8.691290 1.444318 -7.636542
v -8.691290 1.444318 -7.636541
v -8.691290 1.367471 -7.461884
v -8.691290 1.420469 -7.559835
v -8.691290 1.367471 -7.461884
v -8.691290 1.367471 -7.461883
v -8.691290 1.420469 -7.559835
v -8.691290 1.420469 -7.559835
v -8.691290 1.456684 -7.706793
vn -1.0000 -0.0000 -0.0000
vn -0.9827 -0.0000 -0.1851
vn -0.0000 -0.0000 -1.0000
vn 1.0000 -0.0000 -0.0000
vn -0.0000 -0.0000 1.0000
vn -0.0000 -1.0000 -0.0000
vn -0.4786 0.8780 -0.0000
vn -0.9957 0.0931 -0.0000
vn 0.4786 0.8780 -0.0000
vn 0.9957 0.0931 -0.0000
vn -0.1753 0.9845 -0.0000
vn -0.8918 0.4524 -0.0000
vn 0.1753 0.9845 -0.0000
vn 0.8918 0.4524 -0.0000
vn 0.7352 0.6779 -0.0000
vn -0.7352 0.6779 -0.0000
vn 0.9723 0.2337 -0.0000
vn 0.2980 0.9546 -0.0000
vn -0.9723 0.2337 -0.0000
vn -0.2980 0.9546 -0.0000
vn 0.9858 0.1682 -0.0000
vn 0.6448 0.7644 -0.0000
vn -0.0000 1.0000 -0.0000
vn -0.9858 0.1682 -0.0000
vn -0.6448 0.7644 -0.0000
vn -0.4959 -0.0000 -0.8684
vn -0.9734 -0.0000 0.2292
vn -0.9973 -0.0000 0.0740
vn -0.9899 -0.0000 -0.1414
vn -0.9985 -0.0000 0.0554
vn -0.9447 -0.0000 -0.3280
vn 0.9701 -0.0000 -0.2425
vn -0.9879 -0.0000 -0.1551
vn -0.0000 0.0001 1.0000
vn -0.8994 0.4372 -0.0000
vn 0.8994 0.4372 -0.0000
vn 0.9744 0.2248 -0.0000
vn -0.9744 0.2248 -0.0000
vt 0.663122 0.460719
vt 0.000000 0.158667
vt 0.366140 0.003464
vt 1.664222 0.003464
vt 0.366140 0.994873
vt 1.664222 0.994873
vt 0.165386 0.994722
vt 1.664222 0.003464
vt 0.336878 0.158667
vt -0.725957 0.003464
vt -0.725957 0.994873
vt 1.664222 0.994873
vt 0.165386 0.537240
vt 0.366140 0.003464
vt 0.606602 0.003464
vt 0.336878 0.460719
vt 0.366140 0.994873
vt 0.606602 0.994873
vt 0.814369 0.994722
vt -0.725957 0.003464
vt 0.606602 0.003464
vt 0.814369 0.537240
vt 0.606602 0.994873
vt -0.725957 0.994873
vt 0.326245 0.611419
vt 0.326245 0.461724
vt 0.326247 0.566801
vt 0.326243 0.610922
vt 0.326247 0.461724
vt 0.326245 0.615525
vt 0.326243 0.615030
vt 0.326245 0.630360
vt 0.326243 0.629847
vt 0.326245 0.645060
vt 0.326243 0.644575
vt 0.326245 0.658885
vt 0.326243 0.658501
vt 0.326245 0.671568
vt 0.326248 0.461724
vt 0.326243 0.671379
vt 0.326248 0.536444
vt 0.326248 0.468988
vt 0.326248 0.529180
vt 0.326248 0.479636
vt 0.326248 0.518533
vt 0.326248 0.487974
vt 0.326248 0.510195
vt 0.326248 0.495610
vt 0.326248 0.502558
vt 0.326247 0.536444
vt 1.395294 0.691018
vt 0.326244 0.671379
vt 1.344765 0.719743
vt 0.326247 0.529180
vt 1.270699 0.747100
vt 0.326247 0.518533
vt 1.212697 0.759411
vt 0.326247 0.510195
vt 1.058126 0.759411
vt 0.326247 0.487974
vt 1.111247 0.765795
vt 0.326247 0.495610
vt 1.159576 0.765795
vt 0.326247 0.502558
vt 0.926058 0.719743
vt 0.326247 0.468988
vt 0.875529 0.691018
vt 0.326244 0.671568
vt 0.326247 0.461724
vt 0.826175 0.654085
vt 0.326244 0.658885
vt 0.779693 0.565064
vt 0.326244 0.630360
vt 0.769947 0.504002
vt 0.326244 0.611419
vt 0.773196 0.517133
vt 0.326244 0.615525
vt 0.795635 0.611681
vt 0.326244 0.645060
vt 1.000124 0.747100
vt 0.326247 0.479636
vt 1.500876 0.014297
vt 0.612735 0.464061
vt 0.326244 0.461724
vt 1.497627 0.517133
vt 0.326244 0.615030
vt 1.500876 0.504002
vt 0.326244 0.610922
vt 1.475188 0.611681
vt 0.326244 0.644575
vt 0.326245 0.566801
vt 0.769947 0.014297
vt 0.387266 0.464061
vt 0.326244 0.461724
vt 1.444648 0.654085
vt 0.326244 0.658501
vt 1.491130 0.565064
vt 0.326244 0.629847
vt 0.060450 0.161978
vt 0.170173 0.014297
vt -0.455173 0.691018
vt -0.504527 0.654085
vt -0.455173 0.691018
vt -0.557507 0.517133
vt -0.557507 0.517133
vt -0.551009 0.565063
vt -0.560755 0.504002
vt 0.285919 0.161978
vt -0.560755 0.014297
vt -0.535068 0.611681
vt -0.535067 0.611681
vt 0.170173 0.504002
vt 0.170173 0.504002
vt 0.166925 0.517133
vt 0.166925 0.517133
vt 0.160428 0.565063
vt 0.160428 0.565064
vt 0.144485 0.611681
vt 0.064591 0.691018
vt 0.064591 0.691018
vt 0.064591 0.691018
vt 0.113945 0.654085
vt 0.113945 0.654085
vt 0.014062 0.719743
vt 0.014062 0.719743
vt -0.060004 0.747101
vt 0.014062 0.719743
vt -0.060004 0.747101
vt -0.060005 0.747101
vt -0.171126 0.765795
vt -0.118006 0.759411
vt -0.219455 0.765795
vt -0.219456 0.765795
vt -0.118006 0.759411
vt -0.118006 0.759411
vt -0.272576 0.759411
vt -0.272576 0.759411
vt -0.272576 0.759411
vt -0.404644 0.719743
vt -0.330578 0.747100
vt -0.404644 0.719743
vt -0.404645 0.719743
vt -0.330578 0.747101
vt -0.330578 0.747100
vt -0.219456 0.765795
s 0
f 150/234/39 100/144/39 158/243/39
f 99/140/40 183/269/40 184/270/40
f 104/156/41 101/147/41 100/143/41
f 102/149/42 105/159/42 104/155/42
f 132/194/43 133/196/43 99/141/43
f 143/218/43 102/151/43 98/136/43
f 103/154/44 101/148/44 105/157/44
f 135/201/45 122/179/45 142/216/45
f 138/208/46 110/165/46 112/167/46
f 139/210/39 107/161/39 106/160/39
f 130/191/47 121/178/47 129/189/47
f 144/221/48 113/168/48 111/166/48
f 132/195/49 126/183/49 133/197/49
f 137/206/50 114/169/50 116/171/50
f 143/219/44 107/162/44 147/226/44
f 134/199/51 125/182/51 131/193/51
f 146/225/52 117/172/52 115/170/52
f 143/219/42 108/163/42 109/164/42
f 128/187/53 117/172/53 148/231/53
f 136/203/54 116/171/54 118/173/54
f 149/233/55 115/170/55 113/168/55
f 131/193/56 123/180/56 130/191/56
f 141/214/57 112/167/57 114/169/57
f 142/216/58 124/181/58 132/195/58
f 145/223/59 111/166/59 108/163/59
f 129/189/60 119/176/60 128/185/60
f 133/197/61 127/184/61 134/199/61
f 140/212/62 106/160/62 110/165/62
f 136/204/63 120/177/63 135/201/63
f 150/234/39 98/137/39 100/144/39
f 156/241/64 154/239/64 155/240/64
f 157/242/39 158/244/39 100/145/39
f 156/241/39 155/240/39 157/242/39
f 156/241/39 157/242/39 100/145/39
f 99/140/39 98/138/39 150/235/39
f 161/247/39 162/248/39 163/249/39
f 99/140/39 150/235/39 161/247/39
f 156/241/39 100/145/39 101/146/39
f 159/245/39 156/241/39 101/146/39
f 99/140/39 161/247/39 163/249/39
f 163/249/39 164/250/39 165/251/39
f 99/140/39 163/249/39 165/251/39
f 160/246/39 159/245/39 101/146/39
f 153/238/39 151/236/39 152/237/39
f 152/237/39 160/246/39 101/146/39
f 99/140/65 165/251/65 166/252/65
f 99/140/39 166/252/39 167/253/39
f 153/238/39 152/237/39 101/146/39
f 188/274/39 190/276/39 191/277/39
f 191/277/39 153/238/39 101/146/39
f 99/140/39 167/253/39 171/257/39
f 99/140/66 171/257/66 172/258/66
f 188/274/67 191/277/67 101/146/67
f 193/279/41 189/275/41 188/274/41
f 185/271/39 187/273/39 192/278/39
f 192/278/61 193/279/61 188/274/61
f 99/140/39 172/258/39 168/254/39
f 170/256/61 169/255/61 173/259/61
f 99/140/68 168/254/68 170/256/68
f 192/278/39 188/274/39 101/146/39
f 185/271/39 192/278/39 101/146/39
f 99/140/39 170/256/39 173/259/39
f 174/260/61 176/262/61 175/261/61
f 99/140/69 173/259/69 174/260/69
f 185/271/39 101/146/39 99/140/39
f 186/272/39 185/271/39 99/140/39
f 99/140/39 174/260/39 175/261/39
f 175/261/70 177/263/70 178/264/70
f 99/140/71 175/261/71 178/264/71
f 194/280/39 186/272/39 99/140/39
f 181/267/61 182/268/61 194/280/61
f 184/270/61 180/266/61 179/265/61
f 181/267/39 194/280/39 99/140/39
f 179/265/39 181/267/39 99/140/39
f 99/140/39 178/264/39 183/269/39
f 184/270/39 179/265/39 99/140/39
f 104/156/41 105/158/41 101/147/41
f 102/149/42 103/152/42 105/159/42
f 139/209/43 140/211/43 138/207/43
f 102/150/43 147/227/43 139/209/43
f 143/217/43 98/139/43 99/141/43
f 149/232/43 144/220/43 145/222/43
f 145/222/43 143/217/43 99/141/43
f 103/153/43 102/150/43 139/209/43
f 103/153/43 139/209/43 138/207/43
f 149/232/43 145/222/43 99/141/43
f 146/224/43 149/232/43 99/141/43
f 103/153/43 138/207/43 141/213/43
f 103/153/43 141/213/43 137/205/43
f 148/230/43 146/224/43 99/141/43
f 128/186/43 148/230/43 99/141/43
f 103/153/43 137/205/43 136/202/43
f 103/153/43 136/202/43 135/200/43
f 129/188/43 128/186/43 99/141/43
f 130/190/43 129/188/43 99/141/43
f 99/141/43 103/153/43 135/200/43
f 99/141/72 135/200/72 142/215/72
f 131/192/43 130/190/43 99/141/43
f 134/198/43 131/192/43 99/141/43
f 99/141/43 142/215/43 132/194/43
f 133/196/43 134/198/43 99/141/43
f 143/218/43 147/228/43 102/151/43
f 103/154/44 99/142/44 101/148/44
f 135/201/45 120/177/45 122/179/45
f 138/208/46 140/212/46 110/165/46
f 139/210/39 147/229/39 107/161/39
f 130/191/47 123/180/47 121/178/47
f 144/221/48 149/233/48 113/168/48
f 132/195/49 124/181/49 126/183/49
f 137/206/73 141/214/73 114/169/73
f 143/219/44 109/164/44 107/162/44
f 134/199/51 127/184/51 125/182/51
f 146/225/74 148/231/74 117/172/74
f 143/219/42 145/223/42 108/163/42
f 128/187/53 119/175/53 117/172/53
f 136/203/54 137/206/54 116/171/54
f 149/233/75 146/225/75 115/170/75
f 131/193/56 125/182/56 123/180/56
f 141/214/76 138/208/76 112/167/76
f 142/216/58 122/179/58 124/181/58
f 145/223/59 144/221/59 111/166/59
f 129/189/60 121/178/60 119/176/60
f 133/197/61 126/183/61 127/184/61
f 140/212/62 139/210/62 106/160/62
f 136/204/63 118/174/63 120/177/63
