# Blender 3.3.1
# www.blender.org
o Floor.002
v 0.483322 0.000855 -0.996030
v 0.483322 0.000855 0.000387
v -10.395549 0.000855 -0.996030
v -10.395549 0.000855 0.000387
v 0.483322 0.000855 0.996931
v -10.395549 0.000855 -8.914497
v -10.395549 0.000855 0.996931
v 0.483322 0.000855 -8.914497
v 0.483322 0.000855 -1.996544
v -10.395549 0.000855 -1.996544
v 0.483322 0.000855 -2.994359
v -10.395549 0.000855 -2.994359
v 0.483322 0.000855 -4.000167
v -10.395549 0.000855 -4.000167
v 0.483322 0.000855 -4.994965
v -10.395549 0.000855 -4.994965
v 0.483322 0.000855 -5.998655
v -10.395549 0.000855 -5.998655
v 0.483322 -1.254073 -0.996030
v 0.483322 -1.254073 0.000387
v -10.395549 -1.254073 -0.996030
v -10.395549 -1.254073 0.000387
v 0.483322 -1.254073 0.996931
v -10.395549 -1.254073 -8.914497
v -10.395549 -1.254073 0.996931
v 0.483322 -1.254073 -8.914497
v 0.483322 -1.254073 -1.996544
v -10.395549 -1.254073 -1.996544
v 0.483322 -1.254073 -2.994359
v -10.395549 -1.254073 -2.994359
v 0.483322 -1.254073 -4.000167
v -10.395549 -1.254073 -4.000167
v 0.483322 -1.254073 -4.994965
v -10.395549 -1.254073 -4.994965
v 0.483322 -1.254073 -5.998655
v -10.395549 -1.254073 -5.998655
vn -0.0000 -1.0000 -0.0000
vn -0.0000 1.0000 -0.0000
vn 1.0000 -0.0000 -0.0000
vn -1.0000 -0.0000 -0.0000
vn -0.0000 -0.0000 -1.0000
vn -0.0000 -0.0000 1.0000
vt 0.884457 2.777593
vt 1.281069 3.814853
vt 1.890723 2.392832
vt 2.287336 3.430092
vt 1.677731 4.852245
vt -0.497171 -3.852245
vt 2.683998 4.467484
vt -1.503439 -3.467484
vt 0.486214 1.736067
vt 1.492481 1.351305
vt 0.089045 0.697351
vt 1.095312 0.312589
vt -0.311305 -0.349686
vt 0.694963 -0.734447
vt -0.707272 -1.385261
vt 0.298997 -1.770023
vt -1.106778 -2.430095
vt -0.100510 -2.814855
vt 0.884457 2.777593
vt 1.281069 3.814853
vt 1.890723 2.392832
vt 2.287336 3.430092
vt 1.677731 4.852245
vt -0.497171 -3.852245
vt 2.683998 4.467484
vt -1.503439 -3.467484
vt 0.486214 1.736067
vt 1.492481 1.351305
vt 0.089045 0.697351
vt 1.095312 0.312589
vt -0.311305 -0.349686
vt 0.694963 -0.734447
vt -0.707272 -1.385261
vt 0.298997 -1.770023
vt -1.106778 -2.430095
vt -0.100510 -2.814855
s 0
f 1/1/1 4/4/1 3/3/1
f 2/2/1 7/7/1 4/4/1
f 3/3/1 9/9/1 1/1/1
f 12/12/1 13/13/1 11/11/1
f 10/10/1 11/11/1 9/9/1
f 14/14/1 15/15/1 13/13/1
f 16/16/1 17/17/1 15/15/1
f 17/17/1 6/6/1 8/8/1
f 22/22/2 19/19/2 21/21/2
f 25/25/2 20/20/2 22/22/2
f 27/27/2 21/21/2 19/19/2
f 31/31/2 30/30/2 29/29/2
f 29/29/2 28/28/2 27/27/2
f 33/33/2 32/32/2 31/31/2
f 35/35/2 34/34/2 33/33/2
f 24/24/2 35/35/2 26/26/2
f 10/10/3 30/30/3 12/12/3
f 3/3/3 28/28/3 10/10/3
f 17/17/4 33/33/4 15/15/4
f 5/5/5 25/25/5 7/7/5
f 11/11/4 27/27/4 9/9/4
f 6/6/6 26/26/6 8/8/6
f 12/12/3 32/32/3 14/14/3
f 18/18/3 24/24/3 6/6/3
f 2/2/4 23/23/4 5/5/4
f 1/1/4 20/20/4 2/2/4
f 7/7/3 22/22/3 4/4/3
f 8/8/4 35/35/4 17/17/4
f 16/16/3 36/36/3 18/18/3
f 4/4/3 21/21/3 3/3/3
f 13/13/4 29/29/4 11/11/4
f 9/9/4 19/19/4 1/1/4
f 14/14/3 34/34/3 16/16/3
f 15/15/4 31/31/4 13/13/4
f 1/1/1 2/2/1 4/4/1
f 2/2/1 5/5/1 7/7/1
f 3/3/1 10/10/1 9/9/1
f 12/12/1 14/14/1 13/13/1
f 10/10/1 12/12/1 11/11/1
f 14/14/1 16/16/1 15/15/1
f 16/16/1 18/18/1 17/17/1
f 17/17/1 18/18/1 6/6/1
f 22/22/2 20/20/2 19/19/2
f 25/25/2 23/23/2 20/20/2
f 27/27/2 28/28/2 21/21/2
f 31/31/2 32/32/2 30/30/2
f 29/29/2 30/30/2 28/28/2
f 33/33/2 34/34/2 32/32/2
f 35/35/2 36/36/2 34/34/2
f 24/24/2 36/36/2 35/35/2
f 10/10/3 28/28/3 30/30/3
f 3/3/3 21/21/3 28/28/3
f 17/17/4 35/35/4 33/33/4
f 5/5/5 23/23/5 25/25/5
f 11/11/4 29/29/4 27/27/4
f 6/6/6 24/24/6 26/26/6
f 12/12/3 30/30/3 32/32/3
f 18/18/3 36/36/3 24/24/3
f 2/2/4 20/20/4 23/23/4
f 1/1/4 19/19/4 20/20/4
f 7/7/3 25/25/3 22/22/3
f 8/8/4 26/26/4 35/35/4
f 16/16/3 34/34/3 36/36/3
f 4/4/3 22/22/3 21/21/3
f 13/13/4 31/31/4 29/29/4
f 9/9/4 27/27/4 19/19/4
f 14/14/3 32/32/3 34/34/3
f 15/15/4 33/33/4 31/31/4
